M48
; DRILL file {KiCad (6.0.4-0)} date 2022 April 13, Wednesday 07:58:50
; FORMAT={3:3/ absolute / metric / suppress leading zeros}
; #@! TF.CreationDate,2022-04-13T07:58:50+02:00
; #@! TF.GenerationSoftware,Kicad,Pcbnew,(6.0.4-0)
; #@! TF.FileFunction,MixedPlating,1,2
FMAT,2
METRIC,TZ
; #@! TA.AperFunction,Plated,PTH,ViaDrill
T1C1.000
; #@! TA.AperFunction,Plated,PTH,ComponentDrill
T2C1.000
%
G90
G05
T1
X29210Y57150
X29210Y40005
X29210Y20320
X49530Y57150
X49530Y40005
X49530Y20320
X69850Y57150
X69850Y40005
X69850Y20320
X88900Y40005
T2
X3810Y66040
X3810Y3810
X6350Y66040
X6350Y39078
X6350Y32728
X6350Y3810
X19050Y53340
X19050Y45840
X19050Y34110
X19050Y26610
X19050Y13910
X19050Y6410
X27940Y66040
X30480Y66040
X39370Y53340
X39370Y45840
X39370Y34110
X39370Y26610
X39370Y13910
X39370Y6410
X41910Y66040
X44450Y66040
X52070Y66040
X54610Y66040
X59690Y53280
X59690Y45780
X59690Y34110
X59690Y26610
X59690Y13970
X59690Y6470
X62230Y66040
X64770Y66040
X72390Y66040
X74930Y66040
X80010Y53340
X80010Y45840
X80010Y34110
X80010Y26610
X80010Y13970
X80010Y6470
X82550Y66040
X85090Y66040
X92710Y66040
X92710Y3810
X93980Y55880
X93980Y53340
X93980Y45720
X93980Y43180
X93980Y29210
X93980Y26670
X93980Y19050
X93980Y16510
X95250Y66040
X95250Y3810
T0
M30
