G04 ================== begin FILE IDENTIFICATION RECORD ==================*
G04 Layout Name:  C:/tmp/20_047456e/worklib/02_047456e_top/physical/08_047456d.brd*
G04 Film Name:    l1_primary*
G04 File Format:  Gerber RS274X*
G04 File Origin:  Cadence Allegro 17.2-S053*
G04 Origin Date:  Fri Aug 16 11:54:05 2019*
G04 *
G04 Layer:  VIA CLASS/TOP*
G04 Layer:  PIN/TOP*
G04 Layer:  ETCH/TOP*
G04 Layer:  PACKAGE GEOMETRY/ETCH_TOP*
G04 Layer:  BOARD GEOMETRY/LYR_TOP*
G04 Layer:  BOARD GEOMETRY/TOOLING_CORNERS*
G04 Layer:  BOARD GEOMETRY/ROOT_NUMBER*
G04 *
G04 Offset:    (0.00 0.00)*
G04 Mirror:    No*
G04 Mode:      Positive*
G04 Rotation:  0*
G04 FullContactRelief:  No*
G04 UndefLineWidth:     8.00*
G04 ================== end FILE IDENTIFICATION RECORD ====================*
%FSLAX25Y25*MOIN*%
%IR0*IPPOS*OFA0.00000B0.00000*MIA0B0*SFA1.00000B1.00000*%
%ADD40R,.134X.024*%
%ADD39R,.134X.047*%
%ADD23C,.06*%
%ADD42C,.07*%
%ADD24C,.052*%
%ADD38C,.055*%
%ADD12C,.065*%
%ADD41C,.075*%
%ADD26R,.06X.06*%
%ADD43R,.07X.07*%
%ADD44R,.063X.063*%
%ADD34R,.055X.055*%
%ADD22R,.091X.091*%
%ADD13R,.065X.065*%
%ADD35R,.075X.075*%
%ADD10C,.03937*%
%ADD29O,.035X.012*%
%ADD15R,.024X.02*%
%ADD28O,.012X.035*%
%ADD45C,.1*%
%ADD11R,.06X.05*%
%ADD19R,.06X.025*%
%ADD36R,.017X.07*%
%ADD18R,.055X.041*%
%ADD32R,.051X.063*%
%ADD25R,.041X.055*%
%ADD14R,.039X.031*%
%ADD31R,.025X.072*%
%ADD16R,.031X.039*%
%ADD27R,.201X.201*%
%ADD21R,.025X.029*%
%ADD37R,.057X.045*%
%ADD33R,.055X.047*%
%ADD30R,.045X.057*%
%ADD20R,.039X.037*%
%ADD17R,.037X.039*%
%ADD46C,.02*%
%ADD47C,.03*%
%ADD48C,.05*%
%ADD49C,.025*%
%ADD50C,.008*%
%ADD51C,.006*%
%ADD53C,.07404*%
%ADD52C,.07904*%
%ADD54R,.38448X.05148*%
%ADD55C,.15204*%
G75*
%LPD*%
G75*
G36*
G01X256604Y152251D02*
X256881Y151900D01*
X257221Y151184D01*
G03X257218Y151110I698J-65D01*
G01Y146410D01*
G03X257667Y145755I702J0D01*
G01X257866Y145679D01*
X258016Y145529D01*
G02Y144115I-707J-707D01*
G01X257678Y143777D01*
G03X257356Y143000I779J-778D01*
G01Y139552D01*
G02X256356Y138552I-1000J0D01*
G01X256207D01*
G03X255506Y137852I0J-701D01*
G01Y132150D01*
G03X256207Y131448I702J0D01*
G01X259439D01*
G02X260144Y131156I-1J-1000D01*
G01X266606Y124694D01*
G02X266898Y123989I-708J-706D01*
G01Y107968D01*
G02X266606Y107263I-1000J1D01*
G01X262763Y103421D01*
G02X262056Y103128I-707J707D01*
G01X261528D01*
G02X260528Y104128I0J1000D01*
G01Y105735D01*
G03X260262Y106903I-2701J-1D01*
G01X260164Y107335D01*
Y107352D01*
X260172Y107878D01*
G02X260283Y108321I1000J-15D01*
G03X260570Y109500I-2283J1180D01*
G03X258000Y112070I-2570J0D01*
G01X257997D01*
G03X257433Y112007I2J-2570D01*
G01X257209Y111956D01*
X256767Y112058D01*
X255367Y113176D01*
G02X254992Y113956I625J781D01*
G01Y118610D01*
G03X254669Y119389I-1101J0D01*
G01X222517Y151541D01*
G03X221738Y151864I-779J-778D01*
G01X164287D01*
X163958Y151983D01*
X163823Y152096D01*
G03X163117Y152352I-706J-846D01*
G01X150021D01*
X149594Y152569D01*
X149453Y152763D01*
G03X147375Y153820I-2078J-1514D01*
G03Y148680I0J-2570D01*
G03X149453Y149737I0J2571D01*
G01X149594Y149931D01*
X150021Y150148D01*
X162435D01*
X162764Y150029D01*
X162899Y149916D01*
G03X163605Y149660I706J846D01*
G01X220870D01*
G02X221575Y149368I-1J-1000D01*
G01X233134Y137809D01*
G02X233350Y136719I-708J-707D01*
G01X233234Y136438D01*
X232731Y136102D01*
X160015D01*
G02X159015Y137102I0J1000D01*
G01Y137260D01*
X159112Y137559D01*
X159204Y137687D01*
G03X159578Y138323I-3205J2312D01*
G01X159702Y138587D01*
X160192Y138898D01*
X172500D01*
G03X173279Y139221I0J1101D01*
G01X173280Y139222D01*
G03X175000Y138798I1720J3277D01*
G03Y146202I0J3702D01*
G03X171319Y142891I0J-3702D01*
G01X171299Y142706D01*
X171131Y142377D01*
X169999Y141358D01*
G02X169332Y141102I-668J744D01*
G01X160192D01*
X159702Y141413D01*
X159578Y141677D01*
G03X156000Y143952I-3578J-1676D01*
G03X152048Y140000I0J-3952D01*
G01Y139997D01*
G03X152254Y138739I3952J1D01*
G01X152332Y138510D01*
X152260Y138033D01*
X151171Y136518D01*
G02X150360Y136102I-812J584D01*
G01X141329D01*
X140916Y136303D01*
X140773Y136485D01*
G03X138750Y137470I-2023J-1585D01*
G03Y132330I0J-2570D01*
G03X140878Y133459I0J2570D01*
G01X141018Y133666D01*
X141457Y133898D01*
X150360D01*
G02X151171Y133482I-1J-1000D01*
G01X152260Y131967D01*
X152332Y131490D01*
X152254Y131261D01*
G03X152048Y130000I3746J-1259D01*
G03X152254Y128739I3952J-2D01*
G01X152332Y128510D01*
X152260Y128033D01*
X151171Y126518D01*
G02X150360Y126102I-812J584D01*
G01X123896D01*
X123469Y126319D01*
X123328Y126513D01*
G03X121250Y127570I-2078J-1514D01*
G03Y122430I0J-2570D01*
G03X123328Y123487I0J2571D01*
G01X123469Y123681D01*
X123896Y123898D01*
X151049D01*
G02X152048Y122899I-1J-999D01*
G01Y116750D01*
G03X152750Y116048I702J0D01*
G01X159250D01*
G03X159952Y116750I0J702D01*
G01Y117899D01*
G02X160951Y118898I999J-1D01*
G01X166632D01*
G02X167337Y118606I-1J-1000D01*
G01X169221Y116721D01*
G03X170000Y116398I779J778D01*
G01X171078D01*
X171561Y116100D01*
X171688Y115845D01*
G03X172085Y115218I3311J1657D01*
G01X172189Y115086D01*
X172298Y114769D01*
Y114602D01*
G02X171298Y113602I-1000J0D01*
G01X126908D01*
G02X126203Y113894I1J1000D01*
G01X124714Y115384D01*
G03X123937Y115706I-778J-779D01*
G01X120015D01*
G02X119308Y115999I0J1000D01*
G01X117650Y117658D01*
X117502Y118114D01*
X117539Y118351D01*
G03X117570Y118748I-2539J398D01*
G01Y118750D01*
G03X115000Y116180I-2570J0D01*
G01X115002D01*
G03X115399Y116211I-1J2570D01*
G01X115636Y116248D01*
X116092Y116100D01*
X118366Y113826D01*
G03X119143Y113504I778J779D01*
G01X123065D01*
G02X123772Y113211I0J-1000D01*
G01X125261Y111721D01*
G03X126040Y111398I779J778D01*
G01X177499D01*
G03X178278Y111721I0J1101D01*
G01X179382Y112825D01*
G02X180796I707J-707D01*
G01X181046Y112576D01*
X181122Y111878D01*
X180932Y111581D01*
G03X180530Y110200I2168J-1380D01*
G03X180561Y109801I2570J-1D01*
G01X180598Y109564D01*
X180450Y109108D01*
X176721Y105379D01*
G03X176398Y104600I778J-779D01*
G01Y93000D01*
G02X175398Y92000I-1000J0D01*
G01X116606D01*
G02X115899Y92293I0J1000D01*
G01X104001Y104191D01*
G02X103784Y105281I707J707D01*
G01X103900Y105562D01*
X104404Y105898D01*
X112154D01*
X112581Y105681D01*
X112722Y105487D01*
G03X114800Y104430I2078J1514D01*
G03Y109570I0J2570D01*
G03X112722Y108513I0J-2571D01*
G01X112581Y108319D01*
X112154Y108102D01*
X100539D01*
X100084Y108358D01*
X99947Y108583D01*
G03X97750Y109820I-2197J-1333D01*
G03X95180Y107250I0J-2570D01*
G03X96237Y105172I2571J0D01*
G01X96431Y105031D01*
X96648Y104604D01*
Y103618D01*
G02X96356Y102913I-1000J1D01*
G01X95321Y101879D01*
G03X94998Y101100I778J-779D01*
G01Y78551D01*
G02X93999Y77552I-999J0D01*
G01X91104D01*
G03X89002Y75450I0J-2102D01*
G01Y71550D01*
G03X91104Y69448I2102J0D01*
G01X93000D01*
G02X94000Y68448I0J-1000D01*
G01Y53671D01*
G02X93748Y53008I-1000J1D01*
G01X92745Y51878D01*
X92420Y51708D01*
X92238Y51686D01*
G03X91266Y51323I263J-2186D01*
G01X91142Y51239D01*
X90856Y51152D01*
X90604D01*
G03X89902Y50450I0J-702D01*
G01Y46550D01*
G03X90066Y46100I702J1D01*
G01X90179Y45965D01*
X90298Y45635D01*
Y22693D01*
G03Y22651I2202J-21D01*
G01Y16393D01*
X90248Y16240D01*
G03X90048Y15000I3752J-1241D01*
G03X97952I3952J0D01*
G03X97722Y16328I-3952J-1D01*
G01X97640Y16558D01*
X97705Y17040D01*
X98788Y18576D01*
G02X99605Y19000I817J-576D01*
G01X99725D01*
X100209Y18700D01*
X100601Y17909D01*
G02X100705Y17465I-896J-444D01*
G01X100572Y16967D01*
G03X100048Y15001I3428J-1967D01*
G01Y15000D01*
G03X107952I3952J0D01*
G03X107722Y16328I-3952J-1D01*
G01X107640Y16558D01*
X107706Y17040D01*
X108789Y18576D01*
G02X109606Y19000I817J-576D01*
G01X109725D01*
X110209Y18700D01*
X110601Y17909D01*
G02X110705Y17465I-896J-444D01*
G01X110572Y16967D01*
G03X110048Y15001I3428J-1967D01*
G01Y15000D01*
G03X117952I3952J0D01*
G03X117722Y16328I-3952J-1D01*
G01X117640Y16558D01*
X117706Y17040D01*
X118789Y18576D01*
G02X119606Y19000I817J-576D01*
G01X119725D01*
X120209Y18700D01*
X120601Y17909D01*
G02X120705Y17465I-896J-444D01*
G01X120572Y16967D01*
G03X120048Y15001I3428J-1967D01*
G01Y15000D01*
G03X127952I3952J0D01*
G03X127722Y16328I-3952J-1D01*
G01X127640Y16558D01*
X127706Y17040D01*
X128789Y18576D01*
G02X129606Y19000I817J-576D01*
G01X139048D01*
G02X140048Y18000I0J-1000D01*
G01Y11750D01*
G03X140750Y11048I702J0D01*
G01X147250D01*
G03X147952Y11750I0J702D01*
G01Y18000D01*
G02X148952Y19000I1000J0D01*
G01X149440D01*
G02X150336Y18444I0J-1000D01*
G01X150601Y17909D01*
G02X150705Y17465I-896J-444D01*
G01X150572Y16967D01*
G03X150048Y15001I3428J-1967D01*
G01Y15000D01*
G03X157952I3952J0D01*
G03X157722Y16328I-3952J-1D01*
G01X157640Y16558D01*
X157706Y17040D01*
X158789Y18576D01*
G02X159606Y19000I817J-576D01*
G01X159725D01*
X160209Y18700D01*
X160601Y17909D01*
G02X160705Y17465I-896J-444D01*
G01X160572Y16967D01*
G03X160048Y15001I3428J-1967D01*
G01Y15000D01*
G03X167952I3952J0D01*
G01Y15001D01*
G03X167428Y16967I-3952J-1D01*
G01X167295Y17465D01*
G02X167399Y17909I1000J0D01*
G01X167664Y18444D01*
G02X168560Y19000I896J-444D01*
G01X168639D01*
X169071Y18776D01*
X170294Y17040D01*
X170360Y16558D01*
X170278Y16328D01*
G03X170048Y15000I3722J-1329D01*
G03X177952I3952J0D01*
G03X177722Y16328I-3952J-1D01*
G01X177640Y16558D01*
X177706Y17040D01*
X178789Y18576D01*
G02X179606Y19000I817J-576D01*
G01X179725D01*
X180209Y18700D01*
X180601Y17909D01*
G02X180705Y17465I-896J-444D01*
G01X180572Y16967D01*
G03X180048Y15001I3428J-1967D01*
G01Y15000D01*
G03X187952I3952J0D01*
G03X187722Y16328I-3952J-1D01*
G01X187640Y16558D01*
X187706Y17040D01*
X188789Y18576D01*
G02X189606Y19000I817J-576D01*
G01X189725D01*
X190209Y18700D01*
X190601Y17909D01*
G02X190705Y17465I-896J-444D01*
G01X190572Y16967D01*
G03X190048Y15001I3428J-1967D01*
G01Y15000D01*
G03X194000Y11048I3952J0D01*
G03X195992Y11587I0J3952D01*
G01X196224Y11722D01*
X196761Y11724D01*
X198498Y10727D01*
G02X199000Y9861I-498J-867D01*
G01Y-1000D01*
G02X198000Y-2000I-1000J0D01*
G01X3500D01*
G02X2500Y-1000I0J1000D01*
G01Y216500D01*
G02X3500Y217500I1000J0D01*
G01X283000D01*
G02X284000Y216500I0J-1000D01*
G01Y140544D01*
G02X283679Y139810I-1000J0D01*
G01X282449Y138670D01*
X282056Y138533D01*
X281847Y138549D01*
G03X281793Y138552I-66J-698D01*
G01X281644D01*
G02X280644Y139552I0J1000D01*
G01Y149980D01*
G03X280322Y150757I-1101J-1D01*
G01X274060Y157019D01*
G03X273544Y157310I-779J-779D01*
G01X273208Y157392D01*
X272782Y157935D01*
Y158590D01*
G03X272081Y159292I-702J0D01*
G01X266581D01*
G03X266368Y159258I3J-702D01*
G02X265211Y159688I-304J953D01*
G03X263419Y160692I-1792J-1097D01*
G01X257919D01*
G03X255818Y158592I0J-2101D01*
G01Y153890D01*
G03X256604Y152251I2102J0D01*
G37*
G36*
G01X91000Y22693D02*
G02X90902Y15733I-8401J-3362D01*
G01X94072Y14632D01*
X96968Y16322D01*
G02X93870Y23282I6802J7197D01*
G03X91000Y22693I-1370J-610D01*
G37*
G36*
G01X105277Y49157D02*
G02X100396Y50450I-857J6626D01*
G01X98596Y48510D01*
X100396Y46550D01*
G02X105194Y47327I3352J-5495D01*
G03X105277Y49157I-359J933D01*
G37*
G36*
G01X96000Y24414D02*
Y38128D01*
G02X96617Y39052I1000J0D01*
G01X96898Y39168D01*
X97492Y39050D01*
X103521Y33021D01*
G03X104300Y32698I779J778D01*
G01X158830D01*
G02X159537Y32406I1J-1000D01*
G01X169235Y22707D01*
G02X169452Y21617I-707J-707D01*
G01X169336Y21336D01*
X168832Y21000D01*
X99414D01*
G02X98707Y21293I0J1000D01*
G01X96293Y23707D01*
G02X96000Y24414I707J707D01*
G37*
G36*
G01X208576Y93798D02*
X211000D01*
G02X211767Y93441I1J-1000D01*
G01X212894Y92096D01*
X213008Y91668D01*
X212970Y91449D01*
G03X212930Y91000I2530J-452D01*
G03X215500Y88430I2570J0D01*
G03X217578Y89487I0J2571D01*
G01X217719Y89681D01*
X218146Y89898D01*
X218715D01*
G02X219715Y88898I0J-1000D01*
G01Y88694D01*
X219635Y88507D01*
G03X219430Y87500I2365J-1006D01*
G03X222000Y84930I2570J0D01*
G03X222695Y85026I-1J2570D01*
G01X222956Y85099D01*
X223480Y84962D01*
X223721Y84721D01*
G03X224500Y84398I779J778D01*
G01X226907D01*
G02X227907Y83398I0J-1000D01*
G01Y83073D01*
X227523Y82546D01*
X227213Y82447D01*
G03X225430Y80000I788J-2447D01*
G03X226877Y77688I2571J0D01*
G01X227096Y77582D01*
X227386Y77195D01*
X227696Y75348D01*
G02X227417Y74475I-986J-166D01*
G01X216721Y63779D01*
G03X216398Y63000I778J-779D01*
G01Y55146D01*
X216181Y54719D01*
X215987Y54578D01*
G03Y50422I1514J-2078D01*
G01X216181Y50281D01*
X216398Y49854D01*
Y30800D01*
G03X216721Y30021I1101J0D01*
G01X224781Y21961D01*
G03X225299Y21670I779J779D01*
G02X225651Y19890I-237J-972D01*
G03X225521Y19779I648J-891D01*
G01X224721Y18979D01*
G03X224398Y18200I778J-779D01*
G01Y12000D01*
G03X224721Y11221I1101J0D01*
G01X225034Y10909D01*
G02X225250Y9819I-708J-707D01*
G01X225134Y9538D01*
X224631Y9202D01*
X224326D01*
G02X223619Y9494I-1J1000D01*
G01X209994Y23119D01*
G02X209702Y23826I708J706D01*
G01Y57424D01*
G02X209994Y58131I1000J1D01*
G01X211557Y59693D01*
G03X212202Y61250I-1557J1557D01*
G01Y63535D01*
X212254Y63758D01*
X212305Y63862D01*
G03X212570Y65000I-2305J1137D01*
G03X207430I-2570J0D01*
G03X207695Y63862I2570J-1D01*
G01X207746Y63758D01*
X207798Y63535D01*
Y62576D01*
G02X207506Y61869I-1000J-1D01*
G01X205943Y60307D01*
G03X205298Y58750I1557J-1557D01*
G01Y22500D01*
G03X205943Y20943I2202J0D01*
G01X221443Y5443D01*
G03X222065Y5007I1556J1558D01*
G01X222329Y4883D01*
X222641Y4393D01*
Y4102D01*
G02X221641Y3102I-1000J0D01*
G01X212620D01*
G02X211913Y3394I-1J1000D01*
G01X202644Y12663D01*
G02X202352Y13370I708J706D01*
G01Y59130D01*
G02X202644Y59837I1000J1D01*
G01X203279Y60471D01*
G03X203602Y61250I-778J779D01*
G01Y70144D01*
G02X203894Y70851I1000J1D01*
G01X207029Y73985D01*
G03X207352Y74764I-778J779D01*
G01Y81104D01*
X207569Y81531D01*
X207763Y81672D01*
G03X208820Y83750I-1514J2078D01*
G03X203680I-2570J0D01*
G03X204737Y81672I2571J0D01*
G01X204931Y81531D01*
X205148Y81104D01*
Y75634D01*
G02X204856Y74927I-1000J-1D01*
G01X201721Y71793D01*
G03X201398Y71014I778J-779D01*
G01Y62120D01*
G02X201106Y61413I-1000J-1D01*
G01X200471Y60779D01*
G03X200148Y60000I778J-779D01*
G01Y22000D01*
G02X199148Y21000I-1000J0D01*
G01X174472D01*
G02X173765Y21293I0J1000D01*
G01X160479Y34579D01*
G03X159700Y34902I-779J-778D01*
G01X105170D01*
G02X104463Y35194I-1J1000D01*
G01X97494Y42163D01*
G02X97202Y42870I708J706D01*
G01Y44849D01*
G02X98202Y45849I1000J0D01*
G01X100599D01*
G02X101976Y46510I3148J-4794D01*
G02X102285Y46558I306J-952D01*
G01X145801D01*
G02X146072Y46521I2J-1000D01*
G02X148007Y45508I-1444J-5112D01*
G01X153750D01*
G03X154452Y46210I0J702D01*
G01Y48880D01*
G02X154744Y49587I1000J1D01*
G01X156628Y51470D01*
X157110Y51614D01*
X157358Y51563D01*
G03X157499Y51549I139J686D01*
G01X158748D01*
G02X159748Y50549I0J-1000D01*
G01Y49261D01*
X159264Y48699D01*
X158896Y48644D01*
G03X158298Y47950I104J-694D01*
G01Y44050D01*
G03X159000Y43348I702J0D01*
G01X162700D01*
G03X162703Y43349I-209J632D01*
G01X163342Y43005D01*
G02X163653Y42745I-473J-881D01*
G03X165300Y41948I1648J1305D01*
G01X169000D01*
G03X170281Y42384I-1J2102D01*
G01X170413Y42485D01*
X170724Y42591D01*
X172276D01*
X172587Y42485D01*
X172719Y42384D01*
G03X174000Y41948I1282J1666D01*
G01X177700D01*
G03X179347Y42745I-1J2102D01*
G02X179658Y43005I784J-621D01*
G01X180297Y43349D01*
G03X180300Y43348I212J631D01*
G01X184000D01*
G03X184702Y44050I0J702D01*
G01Y45127D01*
G02X185122Y45942I1000J0D01*
G01X186649Y47027D01*
X187129Y47095D01*
X187359Y47015D01*
G03X188050Y46898I691J1985D01*
G01X191950D01*
G03X194052Y49000I0J2102D01*
G01Y52700D01*
G03X193524Y54092I-2102J-1D01*
G02X193610Y55503I749J662D01*
G03X193707Y55593I-1448J1658D01*
G01X197557Y59443D01*
G03X198202Y61000I-1557J1557D01*
G03X198186Y61258I-2202J-7D01*
G02X198289Y61830I993J116D01*
G03X198570Y63000I-2289J1169D01*
G03X198305Y64138I-2570J1D01*
G01X198254Y64242D01*
X198202Y64465D01*
Y83424D01*
G02X198494Y84131I1000J1D01*
G01X207869Y93506D01*
G02X208576Y93798I706J-708D01*
G37*
G36*
G01X221152Y108000D02*
X223586D01*
G02X224293Y107707I0J-1000D01*
G01X227606Y104394D01*
G02X227898Y103687I-708J-706D01*
G01Y101000D01*
G03X227952Y100662I1102J3D01*
G01X228000Y100512D01*
Y100414D01*
G03X228293Y99707I1000J0D01*
G01X228848Y99152D01*
X229215Y99000D01*
X229408D01*
X229627Y98884D01*
G03X229822Y98804I514J974D01*
G02X230267Y98524I-291J-957D01*
G01X230702Y98051D01*
G02X230966Y97374I-736J-677D01*
G01Y96623D01*
X230767Y96211D01*
X230588Y96069D01*
G03X230413Y95918I1676J-2119D01*
G01X230117Y95639D01*
X229307Y95651D01*
X228179Y96779D01*
G03X227400Y97102I-779J-778D01*
G01X227323D01*
G03X225000Y98570I-2322J-1103D01*
G03X223862Y98305I-1J-2570D01*
G01X223758Y98254D01*
X223535Y98202D01*
X207250D01*
G03X205693Y97557I0J-2202D01*
G01X194443Y86307D01*
G03X193798Y84750I1557J-1557D01*
G01Y74983D01*
G02X192798Y73983I-1000J0D01*
G01X192659D01*
X192525Y74021D01*
G03X191950Y74102I-578J-2021D01*
G01X188050D01*
G03X186113Y72814I1J-2102D01*
G02X185726Y72357I-922J388D01*
G01X185169Y72004D01*
G02X184591Y71850I-535J845D01*
G03X184500Y71852I-92J-2100D01*
G01X178500D01*
G03X176398Y69750I0J-2102D01*
G01Y68652D01*
G02X175398Y67652I-1000J-1D01*
G01X166450D01*
G03X166322Y67648I2J-2102D01*
G01X166116Y67635D01*
X165727Y67776D01*
X164516Y68916D01*
G02X164201Y69644I685J728D01*
G01Y69751D01*
G03X163501Y70451I-700J0D01*
G01X162602D01*
G02X161602Y71451I0J1000D01*
G01Y71849D01*
G02X162602Y72849I1000J0D01*
G01X164379D01*
X164823Y72609D01*
X164962Y72397D01*
G03X166719Y71448I1757J1152D01*
G01X169219D01*
G03X171320Y73550I0J2101D01*
G01Y76450D01*
G03X169219Y78552I-2102J0D01*
G01X166719D01*
G03X164962Y77603I0J-2101D01*
G01X164823Y77391D01*
X164379Y77151D01*
X154780D01*
G03X154080Y76451I0J-700D01*
G01Y74525D01*
G02X153772Y73804I-1000J1D01*
G01X153038Y73100D01*
G03X152950Y73102I-92J-2100D01*
G01X149050D01*
G03X146948Y71000I0J-2102D01*
G01Y67300D01*
G03X147745Y65653I2102J1D01*
G02X148005Y65342I-621J-784D01*
G01X148349Y64703D01*
G03X148348Y64700I631J-212D01*
G01Y61000D01*
G03X148726Y60378I701J0D01*
G01X148974Y60248D01*
X149263Y59772D01*
Y59492D01*
G02X148263Y58492I-1000J0D01*
G01X148250D01*
G03X147548Y57790I0J-702D01*
G01Y53690D01*
G03X148135Y52998I701J0D01*
G01X148498Y52938D01*
X148971Y52379D01*
Y51596D01*
X148386Y51012D01*
X148007D01*
G02X146072Y49999I-3379J4099D01*
G02X145801Y49962I-269J963D01*
G01X103176D01*
G02X102926Y49993I-3J1000D01*
G02X100638Y51152I1495J5789D01*
G01X98202D01*
G02X97202Y52152I-1J999D01*
G01Y68448D01*
G02X98202Y69448I999J1D01*
G01X100896D01*
G03X102998Y71550I0J2102D01*
G01Y75450D01*
G03X100896Y77552I-2102J0D01*
G01X98202D01*
G02X97202Y78552I-1J999D01*
G01Y100230D01*
G02X97494Y100937I1000J1D01*
G01X98529Y101971D01*
G03X98667Y102139I-778J780D01*
G01X98721Y102221D01*
X100607Y104107D01*
G02X101314Y104400I707J-707D01*
G01X102386D01*
G02X103093Y104107I0J-1000D01*
G01X116907Y90293D01*
G03X117614Y90000I707J707D01*
G01X175398D01*
G02X176398Y89000I0J-1000D01*
G01Y86396D01*
X176181Y85969D01*
X175987Y85828D01*
G03X174930Y83750I1514J-2078D01*
G03X180070I2570J0D01*
G03X179013Y85828I-2571J0D01*
G01X178819Y85969D01*
X178602Y86396D01*
Y89000D01*
G02X179602Y90000I1000J0D01*
G01X191586D01*
G03X192293Y90293I0J1000D01*
G01X209707Y107707D01*
G02X210414Y108000I707J-707D01*
G01X213848D01*
G02X214848Y107000I0J-1000D01*
G01Y106604D01*
G03X215550Y105902I702J0D01*
G01X215663D01*
G03X217500Y105130I1836J1798D01*
G03X219121Y105705I1J2570D01*
G02X219574Y105914I632J-775D01*
G03X220152Y106604I-123J690D01*
G01Y107000D01*
G02X221152Y108000I1000J0D01*
G37*
G36*
G01X143870Y47374D02*
G02X148250Y46210I759J-5965D01*
G01X151250Y48260D01*
X148250Y50310D01*
G02X143870Y49146I-3621J4801D01*
G03Y47374I464J-886D01*
G37*
G36*
G01X193641Y57311D02*
G02X191950Y59000I1761J3454D01*
G01X189625Y57150D01*
X191950Y55300D01*
G02X193641Y56989I3452J-1765D01*
G03Y57311I-1491J161D01*
G37*
G36*
G01X175550Y54348D02*
G03X175678Y54352I-2J2102D01*
G01X175884Y54365D01*
X176273Y54224D01*
X177484Y53084D01*
G02X177799Y52356I-685J-728D01*
G01Y52249D01*
G03X177801Y52198I700J2D01*
G01X177816Y51990D01*
X177678Y51597D01*
X176539Y50371D01*
G02X175806Y50052I-732J681D01*
G01X174000D01*
G03X172719Y49616I1J-2102D01*
G01X172587Y49515D01*
X172276Y49409D01*
X170724D01*
X170413Y49515D01*
X170281Y49616D01*
G03X169000Y50052I-1282J-1666D01*
G01X165300D01*
G03X164846Y50002I2J-2102D01*
G02X163966Y51726I-216J976D01*
G03X164201Y52249I-464J523D01*
G01Y52356D01*
G02X164516Y53084I1000J0D01*
G01X165727Y54224D01*
X166116Y54365D01*
X166322Y54352D01*
G03X166450Y54348I130J2098D01*
G01X175550D01*
G37*
G36*
G01X184746Y101598D02*
X199184D01*
G02X200108Y100981I0J-1000D01*
G01X200225Y100700D01*
X200107Y100107D01*
X192293Y92293D01*
G02X191586Y92000I-707J707D01*
G01X179602D01*
G02X178602Y93000I0J1000D01*
G01Y98383D01*
G02X179022Y99198I1000J0D01*
G01X180548Y100283D01*
X181028Y100352D01*
X181257Y100272D01*
G03X182100Y100130I842J2428D01*
G03X184178Y101187I0J2571D01*
G01X184319Y101381D01*
X184746Y101598D01*
G37*
G36*
G01X211449Y62801D02*
G02X211901Y64491I2255J302D01*
G01X210000Y65375D01*
X208099Y64491D01*
G02X208551Y62801I-1803J-1388D01*
G03X211449I1449J389D01*
G37*
G36*
G01X194551Y65199D02*
G02X194099Y63509I-2255J-302D01*
G01X196000Y62625D01*
X197901Y63509D01*
G02X197449Y65199I1803J1388D01*
G03X194551I-1449J-389D01*
G37*
G36*
G01X216492Y133898D02*
X233130D01*
G02X233837Y133606I1J-1000D01*
G01X238134Y129309D01*
G02X238350Y128219I-708J-707D01*
G01X238234Y127938D01*
X237731Y127602D01*
X216492D01*
G02X215492Y128602I0J1000D01*
G01Y132898D01*
G02X216492Y133898I999J0D01*
G37*
G36*
G01X222744Y63687D02*
X227191Y68134D01*
G02X228281Y68350I707J-708D01*
G01X228562Y68234D01*
X228898Y67731D01*
Y65000D01*
G03X229221Y64221I1101J0D01*
G01X230221Y63221D01*
G03X231000Y62898I779J778D01*
G01X231215D01*
G02X232215Y61898I0J-1000D01*
G01Y61694D01*
X232135Y61507D01*
G03X231930Y60500I2365J-1006D01*
G03X237070I2570J0D01*
G03X236865Y61507I-2570J1D01*
G01X236785Y61694D01*
Y61898D01*
G02X237785Y62898I1000J0D01*
G01X238694D01*
X239267Y62375D01*
X239301Y61988D01*
G03X239896Y61356I699J62D01*
G01X240264Y61301D01*
X240748Y60739D01*
Y56650D01*
G03X241071Y55871I1101J0D01*
G01X242884Y54059D01*
G02X243100Y52969I-708J-707D01*
G01X242984Y52688D01*
X242481Y52352D01*
X242120D01*
G02X241413Y52644I-1J1000D01*
G01X240779Y53279D01*
G03X240000Y53602I-779J-778D01*
G01X237452D01*
X236879Y54125D01*
X236845Y54512D01*
G03X236146Y55152I-699J-62D01*
G01X233046D01*
G03X232344Y54450I0J-702D01*
G01Y50550D01*
G03X232539Y50066I701J1D01*
G02Y48684I-724J-691D01*
G03X232344Y48200I506J-485D01*
G01Y44300D01*
G03X233046Y43598I702J0D01*
G01X236146D01*
G03X236845Y44238I0J702D01*
G01X236879Y44625D01*
X237452Y45148D01*
X257500D01*
G03X258279Y45471I0J1101D01*
G01X265604Y52796D01*
G02X267018I707J-707D01*
G01X267175Y52640D01*
X267326Y52228D01*
X267308Y52007D01*
G03X267306Y51950I699J-53D01*
G01Y48077D01*
G02X267013Y47370I-1000J0D01*
G01X265092Y45450D01*
X264636Y45302D01*
X264399Y45339D01*
G03X264000Y45370I-398J-2539D01*
G03X261430Y42800I0J-2570D01*
G03X261436Y42632I2570J8D01*
G01X261449Y42425D01*
X261309Y42034D01*
X260170Y40817D01*
G02X259440Y40501I-730J684D01*
G01X252749D01*
G03X252049Y39801I0J-700D01*
G01Y38302D01*
G02X251049Y37302I-1000J0D01*
G01X250452D01*
G02X249452Y38302I0J1000D01*
G01Y39790D01*
G03X248750Y40492I-702J0D01*
G01X243250D01*
G03X242549Y39811I0J-701D01*
G01X242537Y39405D01*
X241955Y38842D01*
X233857D01*
X233444Y39042D01*
X233302Y39224D01*
G03X232750Y39492I-552J-434D01*
G01X227250D01*
G03X226548Y38790I0J-702D01*
G01Y36523D01*
G02X225931Y35600I-1000J1D01*
G01X225650Y35483D01*
X225057Y35601D01*
X222744Y37913D01*
G02X222452Y38620I708J706D01*
G01Y44148D01*
G02X223452Y45148I999J0D01*
G01X225048D01*
X225621Y44625D01*
X225655Y44238D01*
G03X226354Y43598I699J62D01*
G01X229454D01*
G03X230156Y44300I0J702D01*
G01Y48200D01*
G03X229961Y48684I-701J-1D01*
G02Y50066I724J691D01*
G03X230156Y50550I-506J485D01*
G01Y51242D01*
X230245Y51439D01*
G03X230381Y51814I-2341J1061D01*
G01X230497Y52233D01*
G03Y52767I-964J267D01*
G01X230381Y53186D01*
G03X230245Y53561I-2477J-686D01*
G01X230156Y53758D01*
Y54450D01*
G03X229454Y55152I-702J0D01*
G01X226354D01*
G03X225652Y54450I0J-702D01*
G01Y53758D01*
X225563Y53561D01*
G03X225334Y52500I2341J-1061D01*
G03X225563Y51439I2570J0D01*
G01X225652Y51242D01*
Y50550D01*
G03X225847Y50066I701J1D01*
G02Y48684I-724J-691D01*
G03X225655Y48262I507J-485D01*
G01X225621Y47875D01*
X225048Y47352D01*
X223452D01*
G02X222452Y48352I0J999D01*
G01Y62980D01*
G02X222744Y63687I1000J1D01*
G37*
G36*
G01X226548Y30580D02*
Y27210D01*
G03X226681Y26800I698J0D01*
G02X226683Y26797I-831J-556D01*
G01X226787Y26653D01*
X226883Y26308D01*
X226830Y25686D01*
G02X226656Y25201I-997J84D01*
G03X226621Y25146I591J-415D01*
G01X224898Y25292D01*
G02X224276Y25581I85J996D01*
G01X218895Y30963D01*
G02X218602Y31670I707J707D01*
G01Y36584D01*
G02X219602Y37584I1000J0D01*
G02X220434Y37139I0J-1000D01*
G03X220571Y36971I918J609D01*
G01X226255Y31287D01*
G02X226548Y30580I-707J-707D01*
G37*
G36*
G01X222801Y94551D02*
G02X224491Y94099I302J-2255D01*
G01X225375Y96000D01*
X224491Y97901D01*
G02X222801Y97449I-1388J1803D01*
G03Y94551I389J-1449D01*
G37*
G36*
G01X227555Y114366D02*
X231662D01*
G02X232369Y114074I1J-1000D01*
G01X236104Y110339D01*
G02X236396Y109651I-708J-706D01*
G01X236427Y108070D01*
X236290Y107710D01*
X236158Y107567D01*
G03X236004Y107384I1988J-1829D01*
G02X235424Y107018I-791J612D01*
G03X234872Y106334I148J-684D01*
G01Y105528D01*
G02X233872Y104528I-1000J0D01*
G01X232267D01*
G03X231416Y104391I-2J-2701D01*
G01X231263Y104340D01*
X231102D01*
G02X230102Y105340I0J1000D01*
G01Y106000D01*
G03X229779Y106779I-1101J0D01*
G01X225650Y110908D01*
X225502Y111364D01*
X225539Y111601D01*
G03X225570Y112000I-2539J398D01*
G03X225562Y112206I-2570J3D01*
G01X225545Y112415D01*
X225681Y112810D01*
X226820Y114045D01*
G02X227555Y114366I734J-679D01*
G37*
G36*
G01X270449Y19801D02*
G02X270901Y21491I2255J302D01*
G01X269000Y22375D01*
X267099Y21491D01*
G02X267551Y19801I-1803J-1388D01*
G03X270449I1449J389D01*
G37*
G36*
G01X250301Y5551D02*
G02X251991Y5099I302J-2255D01*
G01X252875Y7000D01*
X251991Y8901D01*
G02X250301Y8449I-1388J1803D01*
G03Y5551I389J-1449D01*
G37*
G36*
G01X272590Y31899D02*
X278529D01*
G02X279236Y31606I0J-1000D01*
G01X281361Y29481D01*
G03X282140Y29158I779J778D01*
G01X287955D01*
X288537Y28595D01*
X288549Y28189D01*
G03X288593Y27965I701J21D01*
G02X288295Y26847I-937J-349D01*
G03X288221Y26779I708J-844D01*
G01X287337Y25894D01*
G02X286630Y25602I-706J708D01*
G01X279900D01*
G03X279121Y25279I0J-1101D01*
G01X274236Y20394D01*
G02X273529Y20101I-707J707D01*
G01X272455D01*
G02X271455Y21101I0J1000D01*
G01Y21229D01*
X271488Y21353D01*
G03X271570Y22000I-2488J644D01*
G03X269000Y24570I-2570J0D01*
G03X266430Y22057I0J-2571D01*
G01X266426Y21860D01*
X266270Y21502D01*
X265130Y20386D01*
G02X264431Y20101I-699J715D01*
G01X260529D01*
X260075Y20355D01*
X259938Y20577D01*
G03X259779Y20779I-939J-576D01*
G01X258039Y22519D01*
G03X257260Y22842I-779J-778D01*
G01X250045D01*
X249463Y23405D01*
X249451Y23811D01*
G03X249450Y23835I-701J-17D01*
G01X249448Y23867D01*
Y23898D01*
G02X250448Y24898I1000J0D01*
G01X256150D01*
G03X256929Y25221I0J1101D01*
G01X263314Y31606D01*
G02X264021Y31899I707J-707D01*
G01X265410D01*
X265854Y31659D01*
X265993Y31447D01*
G03X267750Y30498I1757J1152D01*
G01X270250D01*
G03X272007Y31447I0J2101D01*
G01X272146Y31659D01*
X272590Y31899D01*
G37*
G36*
G01X269597Y30867D02*
G02X270250Y32600I2799J-65D01*
G01X269000Y36450D01*
X267750Y32600D01*
G02X268403Y30867I-2146J-1798D01*
G03X269597I597J802D01*
G37*
G36*
G01X263034Y79572D02*
Y81994D01*
G02X263651Y82918I1000J0D01*
G01X263932Y83034D01*
X264526Y82916D01*
X266221Y81221D01*
G03X267000Y80898I779J778D01*
G01X270998D01*
G02X271998Y79898I0J-999D01*
G01Y78850D01*
G03X272700Y78148I702J0D01*
G01X277860D01*
X278304Y77909D01*
X278443Y77697D01*
G03X280200Y76748I1757J1152D01*
G01X285300D01*
G03X285367Y76750I-29J2101D01*
G01X286094Y76045D01*
G02X286398Y75327I-696J-718D01*
G01Y73370D01*
G02X286106Y72663I-1000J-1D01*
G01X283587Y70144D01*
G02X282880Y69852I-706J708D01*
G01X260726D01*
G02X259726Y70852I0J1000D01*
G01Y72875D01*
G03X259404Y73654I-1101J1D01*
G01X258836Y74222D01*
X258778Y74956D01*
X258995Y75255D01*
G03X259128Y75666I-567J411D01*
G01Y77872D01*
G02X260128Y78872I1000J0D01*
G01X262334D01*
G03X263034Y79572I0J700D01*
G37*
G36*
G01X314620Y150148D02*
X316078D01*
G02X317078Y149148I0J-1000D01*
G01Y148932D01*
X316900Y148539D01*
X316738Y148397D01*
G03X316498Y147869I461J-528D01*
G01Y143169D01*
G03X316504Y143079I702J2D01*
G01X316512Y143016D01*
Y142952D01*
G02X315512Y141952I-1000J0D01*
G01X313750D01*
G03X312370Y141380I0J-1951D01*
G01X310601Y139611D01*
G03X310030Y138231I1380J-1379D01*
G01Y125519D01*
G03X310601Y124139I1951J-1D01*
G01X310885Y123855D01*
G02X311076Y123588I-707J-707D01*
G02X311256Y123155I-3384J-1661D01*
G02X311308Y122760I-946J-325D01*
G03X311298Y122500I3692J-272D01*
G03X315000Y118798I3702J0D01*
G03X317426Y119705I-1J3702D01*
G02X317699Y119873I654J-757D01*
G02X319089Y120316I3329J-8042D01*
G02X319312Y120342I227J-974D01*
G01X321118D01*
G02X321431Y120291I-2J-1000D01*
G02X321519Y120261I-1697J-5121D01*
G02X322092Y119747I-330J-944D01*
G01X322789Y118282D01*
X322808Y117884D01*
X322740Y117695D01*
G03X322698Y117457I660J-239D01*
G01Y114669D01*
G02X322406Y113962I-1000J-1D01*
G01X320481Y112038D01*
G03X320220Y111622I779J-779D01*
G01X320115Y111321D01*
X319595Y110952D01*
X319210D01*
G03X318508Y110250I0J-702D01*
G01Y104750D01*
G03X318538Y104550I702J3D01*
G01X318577Y104418D01*
X318581Y104145D01*
X318249Y102876D01*
X318111Y102640D01*
X318012Y102544D01*
G03X317798Y102040I488J-505D01*
G01Y97940D01*
G03X317953Y97501I702J1D01*
G01X318060Y97367D01*
X318173Y97047D01*
Y95453D01*
X318060Y95133D01*
X317953Y94999D01*
G03X317798Y94560I547J-440D01*
G01Y90460D01*
G03X318500Y89758I702J0D01*
G01X319148D01*
G02X320148Y88758I1J-999D01*
G01Y81250D01*
G03X320471Y80471I1101J0D01*
G01X338606Y62337D01*
G02X338898Y61630I-708J-706D01*
G01Y56531D01*
G03X339221Y55752I1101J0D01*
G01X346781Y48192D01*
X346929Y47736D01*
X346892Y47499D01*
G03X346861Y47100I2539J-398D01*
G03X349431Y49670I2570J0D01*
G03X349032Y49639I-1J-2570D01*
G01X348795Y49602D01*
X348339Y49750D01*
X347081Y51007D01*
G02X346794Y51818I708J707D01*
G01X346978Y53588D01*
X347214Y53973D01*
X347403Y54097D01*
G03X348570Y56250I-1403J2153D01*
G03X347513Y58328I-2571J0D01*
G01X347319Y58469D01*
X347102Y58896D01*
Y64000D01*
G03X346779Y64779I-1101J0D01*
G01X343894Y67663D01*
G02X343602Y68370I708J706D01*
G01Y88758D01*
G02X344602Y89758I999J1D01*
G01X345250D01*
G03X345952Y90460I0J702D01*
G01Y94560D01*
G03X345797Y94999I-702J-1D01*
G01X345690Y95133D01*
X345577Y95453D01*
Y97047D01*
X345690Y97367D01*
X345797Y97501D01*
G03X345952Y97940I-547J440D01*
G01Y102040D01*
G03X345738Y102544I-702J-1D01*
G01X345639Y102640D01*
X345501Y102876D01*
X345169Y104145D01*
X345173Y104418D01*
X345212Y104550D01*
G03X345242Y104750I-672J203D01*
G01Y105348D01*
G02X346242Y106348I999J1D01*
G01X350430D01*
G02X351137Y106056I1J-1000D01*
G01X354221Y102971D01*
G03X355000Y102648I779J778D01*
G01X382880D01*
G02X383587Y102356I1J-1000D01*
G01X395706Y90237D01*
G02X395998Y89530I-708J-706D01*
G01Y87718D01*
G02X395538Y86876I-1000J0D01*
G01X393906Y85830D01*
X393396Y85794D01*
X393164Y85901D01*
G03X389992Y86594I-3171J-6909D01*
G03Y71390I0J-7602D01*
G03X393164Y72083I1J7602D01*
G01X393396Y72190D01*
X393906Y72154D01*
X395538Y71108D01*
G02X395998Y70266I-540J-842D01*
G01Y61734D01*
G02X395538Y60892I-1000J0D01*
G01X393906Y59846D01*
X393396Y59810D01*
X393164Y59917D01*
G03X389992Y60610I-3171J-6909D01*
G03Y45406I0J-7602D01*
G03X393164Y46099I1J7602D01*
G01X393396Y46206D01*
X393906Y46170D01*
X395538Y45124D01*
G02X395998Y44282I-540J-842D01*
G01Y7718D01*
G02X395538Y6876I-1000J0D01*
G01X393906Y5830D01*
X393396Y5794D01*
X393164Y5901D01*
G03X389992Y6594I-3171J-6909D01*
G03Y-8610I0J-7602D01*
G03X393164Y-7917I1J7602D01*
G01X393396Y-7810D01*
X393906Y-7846D01*
X395538Y-8892D01*
G02X395998Y-9734I-540J-842D01*
G01Y-18266D01*
G02X395538Y-19108I-1000J0D01*
G01X393906Y-20154D01*
X393396Y-20190D01*
X393164Y-20083D01*
G03X389992Y-19390I-3171J-6909D01*
G03Y-34594I0J-7602D01*
G03X390119Y-34593I4J7602D01*
G01X390323Y-34590D01*
X390698Y-34741D01*
X390842Y-34886D01*
G02Y-36300I-707J-707D01*
G01X390654Y-36489D01*
G02X389947Y-36782I-707J707D01*
G01X349513D01*
G02X348864Y-36542I1J1000D01*
G01X347741Y-35583D01*
X347566Y-35272D01*
X347538Y-35096D01*
G03X345000Y-32930I-2538J-404D01*
G03Y-38070I0J-2570D01*
G03X345399Y-38039I1J2570D01*
G01X345636Y-38002D01*
X346092Y-38150D01*
X346604Y-38662D01*
G03X347383Y-38984I778J779D01*
G01X390817D01*
G03X391596Y-38662I1J1101D01*
G01X395693Y-34565D01*
G02X396783Y-34348I707J-707D01*
G01X397064Y-34464D01*
X397400Y-34968D01*
Y-46500D01*
G02X396400Y-47500I-1000J0D01*
G01X338501D01*
G02X337603Y-46939I0J1000D01*
G01X336688Y-45068D01*
X336746Y-44499D01*
X336923Y-44272D01*
G03X337702Y-42000I-2924J2272D01*
G03X336882Y-39676I-3703J0D01*
G01X336756Y-39520D01*
X336644Y-39139D01*
X336841Y-37333D01*
X337032Y-36985D01*
X337189Y-36860D01*
G03X337279Y-36779I-691J858D01*
G01X338779Y-35279D01*
G03X339102Y-34500I-778J779D01*
G01Y-32553D01*
G02X339426Y-31815I1000J1D01*
G01X340669Y-30677D01*
X341066Y-30542D01*
X341276Y-30560D01*
G03X341500Y-30570I227J2560D01*
G03X344070Y-28000I0J2570D01*
G03X344039Y-27601I-2570J1D01*
G01X344002Y-27364D01*
X344150Y-26908D01*
X352879Y-18179D01*
G03X353202Y-17400I-778J779D01*
G01Y10448D01*
G02X354202Y11448I999J1D01*
G01X355990D01*
G03X356548Y11724I0J702D01*
G01X356621Y11820D01*
X356808Y11972D01*
X357976Y12519D01*
X358221Y12509D01*
G03X358250Y12508I39J701D01*
G01X363750D01*
G03X364440Y13082I0J702D01*
G01X364506Y13437D01*
X365061Y13898D01*
X366256D01*
G02X367256Y12898I0J-1000D01*
G01Y12150D01*
G03X367957Y11448I702J0D01*
G01X371648D01*
G02X372648Y10448I0J-1000D01*
G01Y5928D01*
G02X372041Y5008I-1000J-1D01*
G01X370073Y4167D01*
X369483Y4275D01*
X369265Y4483D01*
G03X364008Y6594I-5257J-5490D01*
G03Y-8610I0J-7602D01*
G03X364150Y-8609I17J7602D01*
G01X364456Y-8603D01*
X364969Y-8936D01*
X365815Y-10924D01*
G02X365602Y-12022I-920J-391D01*
G01X365019Y-12606D01*
G02X364312Y-12898I-706J708D01*
G01X361146D01*
X360719Y-12681D01*
X360578Y-12487D01*
G03X358500Y-11430I-2078J-1514D01*
G03Y-16570I0J-2570D01*
G03X360578Y-15513I0J2571D01*
G01X360719Y-15319D01*
X361146Y-15102D01*
X365182D01*
G03X365961Y-14779I0J1101D01*
G01X374191Y-6548D01*
G02X375281Y-6332I707J-708D01*
G01X375562Y-6448D01*
X375898Y-6951D01*
Y-9539D01*
X375575Y-10036D01*
X375302Y-10156D01*
G03X372798Y-14000I1699J-3844D01*
G03X381202I4202J0D01*
G03X378698Y-10156I-4203J0D01*
G01X378425Y-10036D01*
X378102Y-9539D01*
Y10448D01*
G02X379102Y11448I999J1D01*
G01X379543D01*
G03X380244Y12150I0J701D01*
G01Y17850D01*
G03X379543Y18552I-702J0D01*
G01X375852D01*
G02X374852Y19552I0J999D01*
G01Y21250D01*
G03X374529Y22029I-1101J0D01*
G01X369779Y26779D01*
G03X369000Y27102I-779J-778D01*
G01X365452D01*
G02X364452Y28102I-1J1000D01*
G01Y31310D01*
G03X364297Y31749I-702J-1D01*
G01X364190Y31883D01*
X364077Y32203D01*
Y33797D01*
X364190Y34117D01*
X364297Y34251D01*
G03X364451Y34669I-547J439D01*
G01X364463Y35075D01*
X365045Y35638D01*
X365708D01*
G02X366436Y35324I0J-1000D01*
G01X367576Y34114D01*
X367717Y33726D01*
X367705Y33520D01*
G03X367698Y33300I3695J-228D01*
G03X371400Y29598I3702J0D01*
G03X374712Y31645I0J3703D01*
G01X374839Y31900D01*
X375322Y32198D01*
X376025D01*
X376386Y32052D01*
X376526Y31916D01*
G03X377293Y31606I766J791D01*
G01X377948D01*
G02X378948Y30606I0J-1000D01*
G01Y30457D01*
G03X379650Y29756I701J0D01*
G01X385350D01*
G03X386052Y30457I0J702D01*
G01Y34957D01*
G03X385966Y35293I-702J-1D01*
G01X385906Y35403D01*
X385844Y35646D01*
Y36854D01*
X385906Y37097D01*
X385966Y37207D01*
G03X386052Y37543I-616J337D01*
G01Y42043D01*
G03X385350Y42744I-701J0D01*
G01X384602D01*
G02X383602Y43744I0J1000D01*
G01Y45000D01*
G03X383279Y45779I-1101J0D01*
G01X378394Y50663D01*
G02X378102Y51370I708J706D01*
G01Y61539D01*
X378425Y62036D01*
X378698Y62156D01*
G03X381202Y66000I-1699J3844D01*
G03X372798I-4202J0D01*
G03X375302Y62156I4203J0D01*
G01X375575Y62036D01*
X375898Y61539D01*
Y50500D01*
G03X376221Y49721I1101J0D01*
G01X381106Y44837D01*
G02X381398Y44130I-708J-706D01*
G01Y43744D01*
G02X380398Y42744I-1000J0D01*
G01X379650D01*
G03X378948Y42043I0J-702D01*
G01Y37543D01*
G03X379194Y37010I702J1D01*
G02Y35490I-650J-760D01*
G03X379047Y35315I456J-533D01*
G01X378967Y35181D01*
X378734Y34975D01*
X377385Y34380D01*
X377077Y34347D01*
X376923Y34379D01*
G03X376700Y34402I-224J-1079D01*
G01X375322D01*
X374839Y34700D01*
X374712Y34955D01*
G03X371400Y37002I-3312J-1656D01*
G03X370228Y36812I-1J-3702D01*
G01X369959Y36722D01*
X369406Y36852D01*
X368739Y37519D01*
G03X367960Y37842I-779J-778D01*
G01X365045D01*
X364463Y38405D01*
X364451Y38811D01*
G03X363750Y39492I-701J-20D01*
G01X358250D01*
G03X357560Y38918I0J-702D01*
G01X357494Y38563D01*
X356939Y38102D01*
X356386D01*
G02X355578Y38513I0J1000D01*
G03X355492Y38624I-2074J-1518D01*
G01Y39750D01*
G03X354790Y40452I-702J0D01*
G01X350690D01*
G03X350251Y40297I1J-702D01*
G01X350117Y40190D01*
X349797Y40077D01*
X348203D01*
X347883Y40190D01*
X347749Y40297D01*
G03X347310Y40452I-440J-547D01*
G01X344839D01*
G02X344160Y40718I0J1000D01*
G01X343024Y41770D01*
X342860Y42108D01*
X342845Y42298D01*
G03X340991Y44571I-2562J-197D01*
G01X340820Y44620D01*
X340535Y44828D01*
X339618Y46195D01*
X339534Y46538D01*
X339554Y46715D01*
G03X339570Y47000I-2554J286D01*
G03X334430I-2570J0D01*
G03X334461Y46601I2570J-1D01*
G01X334498Y46364D01*
X334350Y45908D01*
X333339Y44897D01*
G03X333016Y44118I778J-779D01*
G01Y44098D01*
G02X332016Y43098I-999J-1D01*
G01X331102D01*
G02X330102Y44098I-1J999D01*
G01Y46000D01*
G03X329779Y46779I-1101J0D01*
G01X322779Y53779D01*
G03X322000Y54102I-779J-778D01*
G01X315952D01*
G02X314952Y55102I-1J1000D01*
G01Y55500D01*
G03X314250Y56202I-702J0D01*
G01X308250D01*
G03X307548Y55500I0J-702D01*
G01Y49500D01*
G03X308250Y48798I702J0D01*
G01X314250D01*
G03X314952Y49500I0J702D01*
G01Y50805D01*
X315377Y51348D01*
X315713Y51430D01*
G03X316163Y51661I-265J1069D01*
G01X316299Y51776D01*
X316632Y51898D01*
X321130D01*
G02X321837Y51606I1J-1000D01*
G01X327606Y45837D01*
G02X327898Y45130I-708J-706D01*
G01Y42697D01*
G02X326898Y41697I-1000J0D01*
G01X325250D01*
X324856Y41877D01*
X324713Y42041D01*
G03X324661Y42097I-833J-721D01*
G01X322979Y43779D01*
G03X322200Y44102I-779J-778D01*
G01X315950D01*
G03X315785Y44089I4J-1102D01*
G02X315305Y44134I-149J989D01*
G01X314706Y44343D01*
G02X314231Y44695I331J944D01*
G03X311250Y46202I-2981J-2195D01*
G03Y38798I0J-3702D01*
G03X314450Y40638I0J3703D01*
G02X314787Y40985I864J-502D01*
G01X315253Y41274D01*
G02X315623Y41412I528J-849D01*
G03X316163Y41661I-174J1088D01*
G01X316299Y41776D01*
X316632Y41898D01*
X318772D01*
G02X319772Y40898I0J-1000D01*
G01Y34102D01*
G02X318772Y33102I-1000J0D01*
G01X316632D01*
X316299Y33224D01*
X316163Y33339D01*
G03X315623Y33588I-714J-839D01*
G02X315253Y33726I158J987D01*
G01X314787Y34015D01*
G02X314450Y34362I527J849D01*
G03X311250Y36202I-3200J-1863D01*
G03X307905Y34086I0J-3702D01*
G01X307781Y33824D01*
X307292Y33515D01*
X307002D01*
G02X306002Y34515I0J1000D01*
G01Y36100D01*
G03X305679Y36879I-1101J0D01*
G01X286779Y55779D01*
G03X286000Y56102I-779J-778D01*
G01X266250D01*
G03X265992Y56071I2J-1102D01*
G01X265815Y56028D01*
X265453Y56074D01*
X263960Y56864D01*
X263719Y57137D01*
X263654Y57309D01*
G03X261250Y58970I-2404J-909D01*
G03X258680Y56400I0J-2570D01*
G03X258727Y55909I2570J-2D01*
G01X258775Y55664D01*
X258630Y55187D01*
X256087Y52644D01*
G02X255380Y52352I-706J708D01*
G01X252573D01*
G02X251650Y52969I1J1000D01*
G01X251533Y53250D01*
X251651Y53843D01*
X263663Y65856D01*
G02X264370Y66148I706J-708D01*
G01X284750D01*
G03X285529Y66471I0J1101D01*
G01X290779Y71721D01*
G03X291102Y72500I-778J779D01*
G01Y92880D01*
G02X291394Y93587I1000J1D01*
G01X303279Y105471D01*
G03X303602Y106250I-778J779D01*
G01Y139130D01*
G02X303894Y139837I1000J1D01*
G01X313913Y149856D01*
G02X314620Y150148I706J-708D01*
G37*
G36*
G01X303800Y267500D02*
X396400D01*
G02X397400Y266500I0J-1000D01*
G01Y258926D01*
G02X396867Y258042I-1000J0D01*
G01X395058Y257086D01*
X394504Y257117D01*
X394274Y257274D01*
G03X389992Y258594I-4281J-6282D01*
G03Y243390I0J-7602D01*
G03X394274Y244710I1J7602D01*
G01X394504Y244867D01*
X395058Y244898D01*
X396867Y243942D01*
G02X397400Y243058I-467J-884D01*
G01Y232942D01*
G02X396867Y232058I-1000J0D01*
G01X395058Y231102D01*
X394504Y231133D01*
X394274Y231290D01*
G03X389992Y232610I-4281J-6282D01*
G03Y217406I0J-7602D01*
G03X394274Y218726I1J7602D01*
G01X394504Y218883D01*
X395058Y218914D01*
X396867Y217958D01*
G02X397400Y217074I-467J-884D01*
G01Y171926D01*
G02X396867Y171042I-1000J0D01*
G01X395058Y170086D01*
X394504Y170117D01*
X394274Y170274D01*
G03X389992Y171594I-4281J-6282D01*
G03Y156390I0J-7602D01*
G03X394274Y157710I1J7602D01*
G01X394504Y157867D01*
X395058Y157898D01*
X396867Y156942D01*
G02X397400Y156058I-467J-884D01*
G01Y145942D01*
G02X396867Y145058I-1000J0D01*
G01X395058Y144102D01*
X394504Y144133D01*
X394274Y144290D01*
G03X389992Y145610I-4281J-6282D01*
G03Y130406I0J-7602D01*
G03X394274Y131726I1J7602D01*
G01X394504Y131883D01*
X395058Y131914D01*
X396867Y130958D01*
G02X397400Y130074I-467J-884D01*
G01Y94072D01*
G02X396783Y93148I-1000J0D01*
G01X396502Y93032D01*
X395908Y93150D01*
X384529Y104529D01*
G03X383750Y104852I-779J-778D01*
G01X355870D01*
G02X355163Y105144I-1J1000D01*
G01X352079Y108229D01*
G03X351300Y108552I-779J-778D01*
G01X346242D01*
G02X345242Y109552I-1J999D01*
G01Y110250D01*
G03X345079Y110698I-697J0D01*
G01X344993Y110802D01*
X344883Y111044D01*
X344677Y112312D01*
X344705Y112577D01*
X344754Y112703D01*
G03X344802Y112957I-654J255D01*
G01Y117457D01*
G03X344760Y117695I-702J-1D01*
G01X344692Y117884D01*
X344711Y118282D01*
X345408Y119747D01*
G02X345981Y120261I903J-430D01*
G02X346069Y120291I1785J-5091D01*
G02X346382Y120342I315J-949D01*
G01X348188D01*
G02X348411Y120316I-4J-1000D01*
G02X349801Y119873I-1939J-8485D01*
G02X350074Y119705I-381J-925D01*
G03X352500Y118798I2427J2795D01*
G03X356202Y122500I0J3702D01*
G03X356125Y123248I-3702J-3D01*
G02X356144Y123727I980J201D01*
G03X356220Y124269I-1875J539D01*
G01Y130346D01*
G02X356775Y131241I1000J-1D01*
G01X358633Y132166D01*
X359198Y132114D01*
X359426Y131942D01*
G03X364008Y130406I4582J6066D01*
G03Y145610I0J7602D01*
G03X357308Y141599I0J-7601D01*
G01X357195Y141389D01*
X356808Y141117D01*
X354984Y140847D01*
G02X354131Y141129I-146J989D01*
G01X353880Y141380D01*
G03X353463Y141698I-1381J-1379D01*
G01X353227Y141831D01*
X352956Y142297D01*
Y142568D01*
G02X353956Y143568I1000J0D01*
G01X354268D01*
G03X355648Y144139I1J1951D01*
G01X360264Y148756D01*
G02X360972Y149048I706J-708D01*
G01X371204D01*
G02X371361Y149036I3J-1000D01*
G02X373668Y148313I-1303J-8198D01*
G02X373958Y148102I-434J-901D01*
G03X377000Y146798I3043J2898D01*
G03Y155202I0J4202D01*
G03X373958Y153898I1J-4202D01*
G02X373668Y153687I-724J690D01*
G02X371361Y152964I-3610J7475D01*
G02X371204Y152952I-154J988D01*
G01X359749D01*
G03X358369Y152380I0J-1951D01*
G01X353753Y147763D01*
G02X353045Y147470I-707J707D01*
G01X351580D01*
X351067Y147825D01*
X350956Y148117D01*
G03X350300Y148570I-656J-248D01*
G01X336900D01*
G03X336198Y147869I0J-702D01*
G01Y143169D01*
G03X336327Y142764I702J1D01*
G02X336325Y141607I-817J-577D01*
G03X336194Y141200I571J-408D01*
G01Y138800D01*
G03X336325Y138393I702J1D01*
G02X336327Y137236I-815J-580D01*
G03X336198Y136831I573J-406D01*
G01Y132131D01*
G03X336900Y131430I701J0D01*
G01X350300D01*
G03X350720Y131569I1J701D01*
G01X350849Y131666D01*
X351156Y131767D01*
X351318D01*
G02X352318Y130767I0J-1000D01*
G01Y129527D01*
G02X352297Y129324I-1000J1D01*
G02X350724Y125833I-8644J1795D01*
G02X350471Y125596I-800J600D01*
G03X349893Y125128I2029J-3096D01*
G02X349608Y124930I-704J710D01*
G02X347494Y124261I-3700J8017D01*
G02X347314Y124244I-184J983D01*
G01X346382D01*
G02X346069Y124295I2J1000D01*
G02X344342Y125244I1691J5123D01*
G01X338400D01*
G03X337698Y124543I0J-702D01*
G01Y120043D01*
G03X337784Y119707I702J1D01*
G01X337844Y119597D01*
X337906Y119354D01*
Y118146D01*
X337844Y117903D01*
X337784Y117793D01*
G03X337698Y117457I616J-337D01*
G01Y112957D01*
X337699Y112956D01*
Y112756D01*
X337547Y112389D01*
X336406Y111245D01*
G02X335699Y110952I-707J707D01*
G01X332960D01*
G03X332513Y110790I1J-702D01*
G02X331237I-638J771D01*
G03X330790Y110952I-448J-540D01*
G01X330473D01*
G02X329473Y111952I0J1000D01*
G01Y112112D01*
X329571Y112413D01*
X329666Y112542D01*
G03X329802Y112957I-565J415D01*
G01Y117457D01*
G03X329716Y117793I-702J-1D01*
G01X329656Y117903D01*
X329594Y118146D01*
Y119354D01*
X329656Y119597D01*
X329716Y119707D01*
G03X329802Y120043I-616J337D01*
G01Y124543D01*
G03X329100Y125244I-701J0D01*
G01X323158D01*
G02X321431Y124295I-3418J4174D01*
G02X321118Y124244I-315J949D01*
G01X320186D01*
G02X320006Y124261I4J1000D01*
G02X317892Y124930I1586J8686D01*
G02X317607Y125128I419J908D01*
G03X315292Y126190I-2607J-2628D01*
G02X314669Y126475I79J997D01*
G01X314230Y126907D01*
G02X313932Y127619I702J712D01*
G01Y137008D01*
G02X314225Y137716I1000J1D01*
G01X314265Y137756D01*
G02X314973Y138048I706J-708D01*
G01X315512D01*
G02X316512Y137048I0J-1000D01*
G01Y136984D01*
X316504Y136921D01*
G03X316498Y136831I696J-92D01*
G01Y132131D01*
G03X317200Y131430I701J0D01*
G01X330600D01*
G03X331302Y132131I0J702D01*
G01Y136831D01*
G03X331172Y137238I-702J0D01*
G02X331170Y138395I814J580D01*
G03X331298Y138800I-573J404D01*
G01Y141200D01*
G03X331170Y141605I-701J1D01*
G02X331172Y142762I816J577D01*
G03X331302Y143169I-572J407D01*
G01Y147869D01*
G03X330600Y148570I-701J0D01*
G01X323763D01*
G02X322763Y149570I0J1000D01*
G01Y149807D01*
X322973Y150228D01*
X323162Y150370D01*
G03X323279Y150471I-659J882D01*
G01X331756Y158948D01*
X332309Y159078D01*
X332578Y158988D01*
G03X333750Y158798I1171J3512D01*
G03X330048Y162500I0J3702D01*
G03X330238Y161328I3702J-1D01*
G01X330328Y161059D01*
X330198Y160506D01*
X322337Y152644D01*
G02X321630Y152352I-706J708D01*
G01X313750D01*
G03X312971Y152029I0J-1101D01*
G01X302659Y141716D01*
G02X301569Y141500I-707J708D01*
G01X301288Y141616D01*
X300952Y142119D01*
Y143551D01*
G02X299487Y146240I4932J4430D01*
G02X299452Y146503I965J262D01*
G01Y147527D01*
G02X299744Y148235I1000J2D01*
G01X306004Y154494D01*
G02X306156Y154619I708J-706D01*
G02X307289Y155225I3652J-5466D01*
G02X307634Y155301I384J-923D01*
G03X310952Y158750I-134J3449D01*
G03X307500Y162202I-3452J0D01*
G03X304051Y158884I0J-3452D01*
G02X303975Y158539I-999J39D01*
G02X303369Y157406I-6072J2519D01*
G02X303244Y157254I-831J556D01*
G01X302659Y156668D01*
G02X301569Y156452I-707J708D01*
G01X301288Y156568D01*
X300952Y157071D01*
Y161741D01*
G02X299746Y164004I5321J4289D01*
G02X299702Y164300I956J293D01*
G01Y166174D01*
G02X299994Y166881I1000J1D01*
G01X301557Y168443D01*
G03X302202Y170000I-1557J1557D01*
G01Y184966D01*
G02X302261Y185306I1000J2D01*
G02X304452Y188431I6865J-2482D01*
G01Y189495D01*
G02X305452Y190495I1000J0D01*
G01X305703D01*
X306147Y190256D01*
X306286Y190046D01*
G03X306839Y189366I3713J2455D01*
G02X307040Y189073I-711J-703D01*
G02X307782Y186689I-9309J-4205D01*
G02X307798Y186511I-984J-178D01*
G01Y176250D01*
G03X308443Y174693I2202J0D01*
G01X315006Y168131D01*
G02X315298Y167424I-708J-706D01*
G01Y162210D01*
G02X315274Y161991I-1000J-1D01*
G02X315081Y161329I-5228J1165D01*
G02X314896Y161015I-940J342D01*
G03X314048Y158750I2604J-2266D01*
G03X320952I3452J0D01*
G03X320104Y161015I-3452J-1D01*
G02X319919Y161329I755J656D01*
G02X319726Y161991I5035J1827D01*
G02X319702Y162210I976J218D01*
G01Y168750D01*
G03X319057Y170307I-2202J0D01*
G01X312494Y176869D01*
G02X312202Y177576I708J706D01*
G01Y186511D01*
G02X312218Y186689I1000J0D01*
G02X312960Y189073I10051J-1821D01*
G02X313161Y189366I912J-410D01*
G03X313450Y189687I-3160J3135D01*
G02X314225Y190055I775J-632D01*
G01X316001D01*
X316407Y189862D01*
X316550Y189687D01*
G03X320000Y188048I3451J2813D01*
G03Y196952I0J4452D01*
G03X316550Y195313I1J-4452D01*
G01X316407Y195138D01*
X316001Y194945D01*
X314225D01*
G02X313450Y195313I0J1000D01*
G03X313161Y195634I-3449J-2814D01*
G02X312960Y195927I711J703D01*
G02X312218Y198311I9309J4205D01*
G02X312202Y198489I984J178D01*
G01Y203674D01*
G02X312494Y204381I1000J1D01*
G01X322557Y214443D01*
G03X323202Y216000I-1557J1557D01*
G01Y227649D01*
G02X323219Y227833I1000J0D01*
G02X323819Y229781I8839J-1656D01*
G02X324017Y230076I916J-401D01*
G03X325202Y233000I-3017J2925D01*
G03X316798I-4202J0D01*
G03X317983Y230076I4202J1D01*
G02X318181Y229781I-718J-696D01*
G02X318781Y227833I-8239J-3604D01*
G02X318798Y227649I-983J-184D01*
G01Y217326D01*
G02X318506Y216619I-1000J-1D01*
G01X308443Y206557D01*
G03X307798Y205000I1557J-1557D01*
G01Y198489D01*
G02X307782Y198311I-1000J0D01*
G02X307040Y195927I-10051J1821D01*
G02X306839Y195634I-912J410D01*
G03X306286Y194954I3160J-3135D01*
G01X306147Y194744D01*
X305703Y194505D01*
X305452D01*
G02X304452Y195505I0J1000D01*
G01Y196250D01*
G03X303750Y196952I-702J0D01*
G01X296250D01*
G03X295548Y196250I0J-702D01*
G01Y188431D01*
G02X297739Y185306I-4674J-5607D01*
G02X297798Y184966I-941J-338D01*
G01Y171326D01*
G02X297506Y170619I-1000J-1D01*
G01X295943Y169057D01*
G03X295298Y167500I1557J-1557D01*
G01Y164300D01*
G02X295254Y164004I-1000J-3D01*
G02X294048Y161741I-6527J2026D01*
G01Y156000D01*
G03X294750Y155298I702J0D01*
G01X298874D01*
G02X299798Y154681I0J-1000D01*
G01X299915Y154400D01*
X299797Y153807D01*
X296120Y150130D01*
G03X295548Y148750I1379J-1380D01*
G01Y146503D01*
G02X295513Y146240I-1000J-1D01*
G02X294048Y143551I-6397J1741D01*
G01Y139190D01*
G03X294203Y138751I702J1D01*
G01X294310Y138617D01*
X294423Y138297D01*
Y136703D01*
X294310Y136383D01*
X294203Y136249D01*
G03X294048Y135810I547J-440D01*
G01Y131469D01*
G02X295254Y129206I-5321J-4289D01*
G02X295298Y128910I-956J-293D01*
G01Y126588D01*
G02X295278Y126385I-1000J-4D01*
G02X294952Y125295I-6437J1332D01*
G02X294762Y124991I-929J369D01*
G03X293798Y122500I2738J-2492D01*
G03X295845Y119189I3701J0D01*
G01X296100Y119062D01*
X296398Y118579D01*
Y109620D01*
G02X296106Y108913I-1000J-1D01*
G01X286721Y99529D01*
G03X286398Y98750I778J-779D01*
G01Y88673D01*
G02X286094Y87955I-1000J0D01*
G01X285367Y87250D01*
G03X285300Y87252I-96J-2099D01*
G01X280200D01*
G03X278443Y86303I0J-2101D01*
G01X278304Y86091D01*
X277860Y85852D01*
X272700D01*
G03X272570Y85839I5J-702D01*
G01X272401Y85808D01*
X272066Y85859D01*
X270659Y86607D01*
X270429Y86857D01*
X270361Y87015D01*
G03X270169Y87378I-2360J-1016D01*
G01X270093Y87499D01*
X270013Y87772D01*
Y87914D01*
G02X271013Y88914I1000J0D01*
G01X272016D01*
G03X272795Y89237I0J1101D01*
G01X275897Y92339D01*
X276329Y92489D01*
X276557Y92463D01*
G03X276800Y92448I251J2087D01*
G01X280500D01*
G03X282602Y94550I0J2102D01*
G01Y98450D01*
G03X282411Y99324I-2102J-1D01*
G02X282320Y99741I909J417D01*
G01Y100259D01*
G02X282411Y100676I1000J0D01*
G03X282602Y101550I-1911J875D01*
G01Y105450D01*
G03X280500Y107552I-2102J0D01*
G01X277602D01*
G02X276602Y108552I0J1000D01*
G01Y113000D01*
G03X276390Y113649I-1102J-1D01*
G02X276243Y113942I808J589D01*
G01X276102Y114397D01*
G02X276060Y114779I955J298D01*
G03X276070Y115000I-2560J227D01*
G03X276020Y115506I-2570J2D01*
G01X276000Y115604D01*
Y121586D01*
G02X276293Y122293I1000J0D01*
G01X285707Y131707D01*
G03X286000Y132414I-707J707D01*
G01Y216200D01*
G02X287000Y217200I1000J0D01*
G01X301800D01*
G03X302800Y218200I0J1000D01*
G01Y266500D01*
G02X303800Y267500I1000J0D01*
G37*
G36*
G01X278563Y131448D02*
X280034D01*
G02X280958Y130831I0J-1000D01*
G01X281075Y130550D01*
X280957Y129957D01*
X274293Y123293D01*
G03X274000Y122586I707J-707D01*
G01Y118160D01*
X273511Y117597D01*
X273140Y117545D01*
G03X272493Y117365I359J-2545D01*
G01X272306Y117285D01*
X272102D01*
G02X271102Y118285I0J1000D01*
G01Y123987D01*
G02X271394Y124694I1000J1D01*
G01X277856Y131156D01*
G02X278563Y131448I706J-708D01*
G37*
G36*
G01X274182Y151110D02*
G03X274175Y151292I-2101J10D01*
G01X274155Y151513D01*
X274307Y151928D01*
X274464Y152085D01*
G02X275878I707J-707D01*
G01X278149Y149815D01*
G02X278442Y149108I-707J-707D01*
G01Y144000D01*
G02X277442Y143000I-1000J0D01*
G01X277100Y142658D01*
Y141933D01*
G02X276772Y141192I-1000J0D01*
G01X275520Y140055D01*
X275119Y139922D01*
X274908Y139942D01*
G03X274707Y139952I-205J-2092D01*
G01X270207D01*
G03X269389Y139786I1J-2102D01*
G02X268611I-389J921D01*
G03X267793Y139952I-819J-1936D01*
G01X263293D01*
G03X261536Y139003I0J-2101D01*
G01X261397Y138791D01*
X260953Y138552D01*
X260558D01*
G02X259558Y139552I0J1000D01*
G01Y142128D01*
G02X259851Y142835I1000J0D01*
G01X261448Y144431D01*
G03X261739Y144947I-779J779D01*
G01X261821Y145283D01*
X262364Y145708D01*
X263419D01*
G03X263632Y145742I-3J702D01*
G02X264789Y145312I304J-953D01*
G03X266581Y144308I1792J1097D01*
G01X272081D01*
G03X274182Y146410I0J2101D01*
G01Y151110D01*
G37*
G36*
G01X294831Y18993D02*
G03X295200Y19152I-81J697D01*
G01X295296Y19232D01*
X295517Y19339D01*
X296686Y19583D01*
X296932Y19572D01*
X297051Y19537D01*
G03X297250Y19508I199J668D01*
G01X302750D01*
G03X302770Y19509I-25J701D01*
G01X302798D01*
G02X303798Y18509I0J-1000D01*
G01Y15100D01*
G03X304121Y14321I1101J0D01*
G01X307698Y10744D01*
X307828Y10191D01*
X307738Y9922D01*
G03X307548Y8750I3512J-1171D01*
G03X311250Y5048I3702J0D01*
G03X314450Y6888I0J3703D01*
G02X314787Y7235I864J-502D01*
G01X315253Y7524D01*
G02X315623Y7662I528J-849D01*
G03X315971Y7780I-175J1087D01*
G01X316081Y7838D01*
X316320Y7898D01*
X322400D01*
G03X323179Y8221I0J1101D01*
G01X324661Y9703D01*
G03X324794Y9864I-779J779D01*
G01X324934Y10070D01*
X325372Y10303D01*
X326898D01*
G02X327898Y9303I0J-1000D01*
G01Y5870D01*
G02X327606Y5163I-1000J-1D01*
G01X322837Y394D01*
G02X322130Y102I-706J708D01*
G01X315952D01*
G02X314952Y1102I-1J1000D01*
G01Y1750D01*
G03X314250Y2452I-702J0D01*
G01X308250D01*
G03X307769Y2261I0J-701D01*
G01X307474Y1983D01*
X306663Y1995D01*
X303450Y5208D01*
X303302Y5664D01*
X303339Y5901D01*
G03X303370Y6300I-2539J398D01*
G03X298230I-2570J0D01*
G03X298414Y5345I2570J0D01*
G01X298507Y5113D01*
X298454Y4619D01*
X297386Y3041D01*
G02X296557Y2602I-828J561D01*
G01X281494D01*
G02X280494Y3602I0J1000D01*
G01Y4426D01*
X280777Y4899D01*
X281021Y5030D01*
G03X281279Y5221I-519J971D01*
G01X284779Y8721D01*
G03X285102Y9500I-778J779D01*
G01Y10995D01*
X285369Y11459D01*
X285601Y11593D01*
G03X285951Y12199I-350J606D01*
G01Y13698D01*
G02X286951Y14698I1000J0D01*
G01X287548D01*
G02X288548Y13698I1J-999D01*
G01Y12210D01*
G03X289250Y11508I702J0D01*
G01X294750D01*
G03X295452Y12210I0J702D01*
G01Y16310D01*
G03X294831Y17007I-702J0D01*
G02Y18993I116J993D01*
G37*
G36*
G01X296051Y128684D02*
G02X294603Y123276I-7211J-967D01*
G01X297500Y122125D01*
X300397Y123276D01*
G02X298949Y128684I5763J4441D01*
G03X296051I-1449J-388D01*
G37*
G36*
G01X298792Y126285D02*
G02X300250Y131710I7482J898D01*
G01X297500Y134135D01*
X294750Y131710D01*
G02X296208Y126285I-6024J-4527D01*
G03X298792I1292J762D01*
G37*
G36*
G01X296426Y148544D02*
G02X294750Y143290I-7309J-563D01*
G01X297500Y140928D01*
X300250Y143290D01*
G02X298574Y148544I5633J4691D01*
G03X296426I-1074J-640D01*
G37*
G36*
G01X301143Y183365D02*
G02X303750Y188750I7983J-541D01*
G01X300000Y192875D01*
X296250Y188750D01*
G02X298857Y183365I-5376J-5926D01*
G03X301143I1143J971D01*
G37*
G36*
G01X296208Y166925D02*
G02X294750Y161500I-7482J-898D01*
G01X297500Y158375D01*
X300250Y161500D01*
G02X298792Y166925I6024J4527D01*
G03X296208I-1292J-762D01*
G37*
G36*
G01X323870Y-24602D02*
X324856D01*
X325053Y-24691D01*
G03X325343Y-24754I290J636D01*
G01X326346D01*
G02X327346Y-25754I0J-1000D01*
G01Y-27556D01*
G03X327629Y-28760I2701J0D01*
G02X327716Y-29395I-895J-446D01*
G01X327592Y-30038D01*
G02X327280Y-30592I-982J188D01*
G03X326431Y-32500I1719J-1908D01*
G03X326441Y-32724I2569J2D01*
G01X326459Y-32934D01*
X326324Y-33331D01*
X325186Y-34574D01*
G02X324448Y-34898I-737J676D01*
G01X320370D01*
G02X319663Y-34606I-1J1000D01*
G01X318457Y-33399D01*
G02X318208Y-32400I707J707D01*
G01X318806Y-30445D01*
X319217Y-30075D01*
X319490Y-30022D01*
G03X321569Y-27500I-490J2522D01*
G03X321538Y-27101I-2569J1D01*
G01X321501Y-26864D01*
X321648Y-26409D01*
X323163Y-24894D01*
G02X323870Y-24602I706J-708D01*
G37*
G36*
G01X302700Y-46500D02*
Y-12672D01*
G02X303317Y-11748I1000J0D01*
G01X303598Y-11632D01*
X304192Y-11750D01*
X305350Y-12908D01*
X305498Y-13364D01*
X305461Y-13601D01*
G03X305430Y-14000I2539J-398D01*
G03X308000Y-16570I2570J0D01*
G03X308505Y-16520I1J2570D01*
G01X308726Y-16476D01*
X309161Y-16584D01*
X310532Y-17707D01*
G02X310898Y-18481I-634J-773D01*
G01Y-28500D01*
G03X311221Y-29279I1101J0D01*
G01X318721Y-36779D01*
G03X319500Y-37102I779J778D01*
G01X329090D01*
G02X329958Y-37606I0J-1000D01*
G01X330953Y-39348D01*
X330949Y-39886D01*
X330812Y-40118D01*
G03X330298Y-42000I3188J-1882D01*
G03X331077Y-44272I3703J0D01*
G01X331254Y-44499D01*
X331312Y-45068D01*
X330397Y-46939D01*
G02X329499Y-47500I-898J439D01*
G01X303700D01*
G02X302700Y-46500I0J1000D01*
G37*
G36*
G01X337663Y10316D02*
G03X338118Y10626I-136J688D01*
G02X339740Y10711I842J-540D01*
G03X339821Y10621I858J691D01*
G01X344606Y5837D01*
G02X344898Y5130I-708J-706D01*
G01Y870D01*
G02X344606Y163I-1000J-1D01*
G01X342337Y-2106D01*
G02X341630Y-2398I-706J708D01*
G01X325573D01*
G02X324650Y-1781I1J1000D01*
G01X324533Y-1500D01*
X324651Y-907D01*
X328553Y2995D01*
G02X329230Y3288I708J-707D01*
G01X330793Y3335D01*
X331151Y3205D01*
X331295Y3077D01*
G03X333000Y2430I1705J1923D01*
G03X335570Y5000I0J2570D01*
G03X334513Y7078I-2571J0D01*
G01X334319Y7219D01*
X334102Y7646D01*
Y7905D01*
X334811Y8646D01*
G02X335351Y8938I723J-691D01*
G03X336618Y9703I-383J2066D01*
G02X336920Y9959I785J-620D01*
G01X337374Y10210D01*
G02X337663Y10316I485J-875D01*
G37*
G36*
G01X336675Y104037D02*
X337081Y104049D01*
G03X337757Y104669I-21J701D01*
G02X339743I993J-116D01*
G03X339769Y104546I697J83D01*
G01X339809Y104415D01*
X339815Y104142D01*
X339492Y102873D01*
X339356Y102636D01*
X339258Y102540D01*
G03X339048Y102040I492J-501D01*
G01Y97940D01*
G03X339203Y97501I702J1D01*
G01X339310Y97367D01*
X339423Y97047D01*
Y95453D01*
X339310Y95133D01*
X339203Y94999D01*
G03X339048Y94560I547J-440D01*
G01Y90460D01*
G03X339750Y89758I702J0D01*
G01X340398D01*
G02X341398Y88758I0J-999D01*
G01Y67500D01*
G03X341721Y66721I1101J0D01*
G01X344606Y63837D01*
G02X344898Y63130I-708J-706D01*
G01Y58896D01*
X344681Y58469D01*
X344487Y58328D01*
G03X343486Y56786I1513J-2078D01*
G01X343456Y56644D01*
X343318Y56390D01*
X343216Y56287D01*
G02X341801I-707J707D01*
G01X341394Y56694D01*
G02X341102Y57401I708J706D01*
G01Y62500D01*
G03X340779Y63279I-1101J0D01*
G01X322644Y81413D01*
G02X322352Y82120I708J706D01*
G01Y88758D01*
G02X323352Y89758I999J1D01*
G01X324000D01*
G03X324702Y90460I0J702D01*
G01Y94560D01*
G03X324547Y94999I-702J-1D01*
G01X324440Y95133D01*
X324327Y95453D01*
Y97047D01*
X324440Y97367D01*
X324547Y97501D01*
G03X324702Y97940I-547J440D01*
G01Y102040D01*
G03X324492Y102540I-702J-1D01*
G01X324394Y102636D01*
X324258Y102873D01*
X323935Y104142D01*
X323941Y104415D01*
X323981Y104546D01*
G03X324007Y104669I-671J206D01*
G02X325993I993J-116D01*
G03X326669Y104049I697J81D01*
G02X327639Y103090I-29J-999D01*
G03X327961Y102356I1101J45D01*
G01X329850Y100467D01*
X329998Y100011D01*
X329961Y99774D01*
G03X329930Y99375I2539J-398D01*
G03X335070I2570J0D01*
G03X335039Y99774I-2570J1D01*
G01X335002Y100011D01*
X335150Y100467D01*
X335789Y101106D01*
G03X336112Y101885I-778J779D01*
G01Y103455D01*
X336675Y104037D01*
G37*
G36*
G01X319024Y121223D02*
G02X323400Y120043I714J-6055D01*
G01X326562Y122293D01*
X323400Y124543D01*
G02X319024Y123363I-3662J4875D01*
G03Y121223I646J-1070D01*
G37*
G36*
G01X311085Y124840D02*
G02X312148Y121573I-3394J-2911D01*
G01X315221Y122279D01*
X315927Y125352D01*
G02X312660Y126415I-356J4457D01*
G03X311085Y124840I-386J-1189D01*
G37*
G36*
G01X322857Y123500D02*
G02X315776Y125396I-1265J9447D01*
G01X314688Y122509D01*
X315709Y119588D01*
G02X322790Y121070I5319J-7757D01*
G03X322857Y123500I-257J1223D01*
G37*
G36*
G01X304027Y153569D02*
G02X308875Y156369I5783J-4416D01*
G01X307721Y158971D01*
X305119Y160125D01*
G02X302319Y155277I-7216J935D01*
G03X304027Y153569I1083J-625D01*
G37*
G36*
G01X311449Y183419D02*
G02X313621Y191530I10819J1449D01*
G01X310000Y192875D01*
X306379Y191530D01*
G02X308551Y183419I-8647J-6662D01*
G03X311449I1449J388D01*
G37*
G36*
G01X316051Y163968D02*
G02X314845Y159462I-6004J-807D01*
G01X317500Y158375D01*
X320155Y159462D01*
G02X318949Y163968I4798J3699D01*
G03X316051I-1449J-388D01*
G37*
G36*
G01X308551Y201581D02*
G02X306379Y193470I-10819J-1449D01*
G01X310000Y192125D01*
X313621Y193470D01*
G02X311449Y201581I8647J6662D01*
G03X308551I-1449J-388D01*
G37*
G36*
G01X322449Y224885D02*
G02X324380Y232094I9608J1290D01*
G01X321000Y233375D01*
X317620Y232094D01*
G02X319551Y224885I-7677J-5919D01*
G03X322449I1449J388D01*
G37*
G36*
G01X342894Y-7663D02*
X349291Y-1266D01*
G02X350381Y-1050I707J-708D01*
G01X350662Y-1166D01*
X350998Y-1669D01*
Y-9457D01*
G02X350666Y-10202I-1000J-1D01*
G01X349398Y-11339D01*
X348993Y-11469D01*
X348780Y-11445D01*
G03X348500Y-11430I-277J-2555D01*
G03X346532Y-12348I1J-2570D01*
G01X346389Y-12518D01*
X345988Y-12704D01*
X344012D01*
X343611Y-12518D01*
X343468Y-12348D01*
G03X343013Y-11922I-1971J-1649D01*
G01X342819Y-11781D01*
X342602Y-11354D01*
Y-8370D01*
G02X342894Y-7663I1000J1D01*
G37*
G36*
G01X348476Y123363D02*
G02X344100Y124543I-714J6055D01*
G01X340938Y122293D01*
X344100Y120043D01*
G02X348476Y121223I3662J-4875D01*
G03Y123363I-646J1070D01*
G37*
G36*
G01X353155Y130394D02*
G02X349828Y123861I-9502J725D01*
G01X352427Y122196D01*
X354269Y124269D01*
Y129827D01*
X353155Y130394D01*
G37*
G36*
G01X344710Y121070D02*
G02X351791Y119588I1762J-9239D01*
G01X352812Y122509D01*
X351724Y125396D01*
G02X344643Y123500I-5816J7551D01*
G03X344710Y121070I324J-1207D01*
G37*
G36*
G01X365452Y24898D02*
X368130D01*
G02X368837Y24606I1J-1000D01*
G01X372356Y21087D01*
G02X372648Y20380I-708J-706D01*
G01Y19552D01*
G02X371648Y18552I-999J-1D01*
G01X367957D01*
G03X367256Y17850I0J-701D01*
G01Y17102D01*
G02X366256Y16102I-1000J0D01*
G01X365452D01*
G02X364452Y17102I-1J999D01*
G01Y17310D01*
G03X364297Y17749I-702J-1D01*
G01X364190Y17883D01*
X364077Y18203D01*
Y19797D01*
X364190Y20117D01*
X364297Y20251D01*
G03X364452Y20690I-547J440D01*
G01Y23898D01*
G02X365452Y24898I999J1D01*
G37*
G36*
G01X360396Y27373D02*
G02X358250Y24790I-4539J1588D01*
G01X361000Y22365D01*
X363750Y24790D01*
G02X361604Y27373I2393J4171D01*
G03X360396I-604J-1373D01*
G37*
G36*
G01X361604Y24627D02*
G02X363750Y27210I4539J-1588D01*
G01X361000Y29635D01*
X358250Y27210D01*
G02X360396Y24627I-2393J-4171D01*
G03X361604I604J1373D01*
G37*
G36*
G01X369333Y149811D02*
G02X375919Y147672I726J-8973D01*
G01X377312Y151000D01*
X375919Y154328D01*
G02X369333Y152189I-5860J6834D01*
G03Y149811I386J-1189D01*
G37*
%LPC*%
G75*
G36*
G01X50750Y18952D02*
X57250D01*
G02X57952Y18250I0J-702D01*
G01Y11750D01*
G02X57250Y11048I-702J0D01*
G01X50750D01*
G02X50048Y11750I0J702D01*
G01Y18250D01*
G02X50750Y18952I702J0D01*
G37*
G36*
G01X112922Y141513D02*
G02X115000Y142570I2078J-1514D01*
G02Y137430I0J-2570D01*
G02X112922Y138487I0J2571D01*
G01X112781Y138681D01*
X112354Y138898D01*
X75146D01*
X74719Y138681D01*
X74578Y138487D01*
G02X72500Y137430I-2078J1514D01*
G02Y142570I0J2570D01*
G02X74578Y141513I0J-2571D01*
G01X74719Y141319D01*
X75146Y141102D01*
X112354D01*
X112781Y141319D01*
X112922Y141513D01*
G37*
G36*
G01X192000Y146202D02*
X198000D01*
G02X198702Y145500I0J-702D01*
G01Y144601D01*
G03X199701Y143602I1000J1D01*
G01X201509D01*
G03X202508Y144601I0J999D01*
G01Y145250D01*
G02X203210Y145952I702J0D01*
G01X207310D01*
G02X207749Y145797I-1J-702D01*
G01X207883Y145690D01*
X208203Y145577D01*
X209797D01*
X210117Y145690D01*
X210251Y145797D01*
G02X210690Y145952I440J-547D01*
G01X214790D01*
G02X215492Y145250I0J-702D01*
G01Y139750D01*
G02X214790Y139048I-702J0D01*
G01X210690D01*
G02X210251Y139203I1J702D01*
G01X210117Y139310D01*
X209797Y139423D01*
X208203D01*
X207883Y139310D01*
X207749Y139203D01*
G02X207310Y139048I-440J547D01*
G01X203210D01*
G02X202508Y139750I0J702D01*
G01Y140399D01*
G03X201509Y141398I-999J-1D01*
G01X199701D01*
G03X198702Y140399I1J-999D01*
G01Y139500D01*
G02X198000Y138798I-702J0D01*
G01X192000D01*
G02X191298Y139500I0J702D01*
G01Y145500D01*
G02X192000Y146202I702J0D01*
G37*
G36*
G01X119172Y149013D02*
G02X121250Y150070I2078J-1514D01*
G02Y144930I0J-2570D01*
G02X119172Y145987I0J2571D01*
G01X119031Y146181D01*
X118604Y146398D01*
X87646D01*
X87219Y146181D01*
X87078Y145987D01*
G02X85000Y144930I-2078J1514D01*
G02Y150070I0J2570D01*
G02X87078Y149013I0J-2571D01*
G01X87219Y148819D01*
X87646Y148602D01*
X118604D01*
X119031Y148819D01*
X119172Y149013D01*
G37*
G36*
G01X49738Y166702D02*
X56000D01*
G02X56702Y166000I0J-702D01*
G01Y161000D01*
G02X56000Y160298I-702J0D01*
G01X55101D01*
G03X54102Y159299I1J-1000D01*
G01Y55368D01*
G03X54394Y54663I1000J1D01*
G01X74779Y34279D01*
G02X75102Y33500I-778J-779D01*
G01Y19192D01*
X75413Y18702D01*
X75677Y18578D01*
G02X77952Y15000I-1676J-3578D01*
G02X70048I-3952J0D01*
G02X72323Y18578I3951J0D01*
G01X72587Y18702D01*
X72898Y19192D01*
Y32632D01*
G03X72606Y33337I-1000J-1D01*
G01X52221Y53721D01*
G02X51898Y54500I778J779D01*
G01Y159299D01*
G03X50899Y160298I-999J-1D01*
G01X49738D01*
G03X46935Y161772I-4265J-4709D01*
G03X46705Y161798I-227J-974D01*
G01X28295D01*
G03X28065Y161772I-3J-1000D01*
G03X25262Y160298I1462J-6183D01*
G01X19000D01*
G02X18298Y161000I0J702D01*
G01Y166000D01*
G02X19000Y166702I702J0D01*
G01X25262D01*
G03X28065Y165228I4265J4709D01*
G03X28295Y165202I227J974D01*
G01X46705D01*
G03X46935Y165228I3J1000D01*
G03X49738Y166702I-1462J6183D01*
G37*
G36*
G01X80550Y178906D02*
X84450D01*
G02X85152Y178204I0J-702D01*
G01Y175104D01*
G02X84512Y174405I-702J0D01*
G01X84125Y174371D01*
X83602Y173798D01*
Y171470D01*
X83852Y171019D01*
X84072Y170882D01*
G02X84401Y170288I-372J-594D01*
G01Y164712D01*
G02X84072Y164118I-701J0D01*
G01X83852Y163981D01*
X83602Y163530D01*
Y160868D01*
G03X83894Y160163I1000J1D01*
G01X87663Y156394D01*
G03X88368Y156102I706J708D01*
G01X141632D01*
G03X142337Y156394I-1J1000D01*
G01X151721Y165779D01*
G02X152500Y166102I779J-778D01*
G01X169018D01*
X169486Y166375D01*
X169619Y166613D01*
G02X172500Y168302I2881J-1613D01*
G02X174012Y167935I-1J-3302D01*
G01X174163Y167858D01*
X174494Y167810D01*
X176040Y168109D01*
X176330Y168276D01*
X176441Y168404D01*
G02X180374Y170202I3934J-3404D01*
G02X185576Y165000I0J-5202D01*
G02X184493Y161823I-5201J0D01*
G01X184318Y161596D01*
X184261Y161028D01*
X185179Y159160D01*
G03X186075Y158602I897J442D01*
G01X192354D01*
X192781Y158819D01*
X192922Y159013D01*
G02X195000Y160070I2078J-1514D01*
G02Y154930I0J-2570D01*
G02X192922Y155987I0J2571D01*
G01X192781Y156181D01*
X192354Y156398D01*
X159646D01*
X159219Y156181D01*
X159078Y155987D01*
G02X157000Y154930I-2078J1514D01*
G02Y160070I0J2570D01*
G02X159078Y159013I0J-2571D01*
G01X159219Y158819D01*
X159646Y158602D01*
X177321D01*
G03X178321Y159602I0J1000D01*
G01Y159873D01*
X178049Y160338D01*
X177813Y160472D01*
G02X176441Y161596I2562J4527D01*
G01X176330Y161724D01*
X176040Y161891D01*
X174494Y162190D01*
X174163Y162142D01*
X174012Y162065D01*
G02X172500Y161698I-1513J2935D01*
G02X169619Y163387I0J3302D01*
G01X169486Y163625D01*
X169018Y163898D01*
X153368D01*
G03X152663Y163606I1J-1000D01*
G01X143279Y154221D01*
G02X142500Y153898I-779J778D01*
G01X87500D01*
G02X86721Y154221I0J1101D01*
G01X81721Y159221D01*
G02X81398Y160000I778J779D01*
G01Y163530D01*
X81148Y163981D01*
X80928Y164118D01*
G02X80599Y164712I372J594D01*
G01Y170288D01*
G02X80928Y170882I701J0D01*
G01X81148Y171019D01*
X81398Y171470D01*
Y173798D01*
X80875Y174371D01*
X80488Y174405D01*
G02X79848Y175104I62J699D01*
G01Y178204D01*
G02X80550Y178906I702J0D01*
G37*
G36*
G01X177922Y179712D02*
G02X180374Y180802I2452J-2213D01*
G02Y174198I0J-3302D01*
G02X177922Y175288I0J3303D01*
G03X177180Y175619I-743J-669D01*
G01X175694D01*
G03X174952Y175288I1J-1000D01*
G02X172500Y174198I-2452J2213D01*
G02X169619Y175887I0J3302D01*
G01X169486Y176125D01*
X169018Y176398D01*
X155868D01*
G03X155163Y176106I1J-1000D01*
G01X140779Y161721D01*
G02X140000Y161398I-779J778D01*
G01X118213D01*
G02X117434Y161721I0J1101D01*
G01X115436Y163719D01*
G03X114729Y164012I-707J-707D01*
G01X113799D01*
G02X113099Y164712I0J700D01*
G01Y170288D01*
G02X113428Y170882I701J0D01*
G01X113648Y171019D01*
X113898Y171470D01*
Y173798D01*
X113375Y174371D01*
X112988Y174405D01*
G02X112348Y175104I62J699D01*
G01Y178204D01*
G02X113050Y178906I702J0D01*
G01X116950D01*
G02X117652Y178204I0J-702D01*
G01Y175104D01*
G02X117012Y174405I-702J0D01*
G01X116625Y174371D01*
X116102Y173798D01*
Y171470D01*
X116352Y171019D01*
X116572Y170882D01*
G02X116901Y170288I-372J-594D01*
G01Y165784D01*
G03X117194Y165077I1000J0D01*
G01X118376Y163894D01*
G03X119081Y163602I706J708D01*
G01X139132D01*
G03X139837Y163894I-1J1000D01*
G01X154221Y178279D01*
G02X155000Y178602I779J-778D01*
G01X169018D01*
X169486Y178875D01*
X169619Y179113D01*
G02X172500Y180802I2881J-1613D01*
G02X174952Y179712I0J-3303D01*
G03X175694Y179381I743J669D01*
G01X177180D01*
G03X177922Y179712I-1J1000D01*
G37*
G36*
G01X113050Y185598D02*
X116950D01*
G02X117652Y184896I0J-702D01*
G01Y181796D01*
G02X116950Y181094I-702J0D01*
G01X113050D01*
G02X112881Y181115I1J702D01*
G01X112763Y181144D01*
X84737D01*
X84619Y181115D01*
G02X84450Y181094I-170J681D01*
G01X80550D01*
G02X80381Y181115I1J702D01*
G01X80263Y181144D01*
X79670D01*
G03X78965Y180852I1J-1000D01*
G01X72494Y174381D01*
G03X72202Y173676I708J-706D01*
G01Y155000D01*
G02X71557Y153443I-2202J0D01*
G01X67494Y149381D01*
G03X67202Y148676I708J-706D01*
G01Y95824D01*
G03X67494Y95119I1000J1D01*
G01X68619Y93994D01*
G03X69324Y93702I706J708D01*
G01X87535D01*
X87758Y93754D01*
X87862Y93805D01*
G02X88997Y94070I1137J-2305D01*
G01X89000D01*
G02Y88930I0J-2570D01*
G01X88997D01*
G02X87862Y89195I2J2570D01*
G01X87758Y89246D01*
X87535Y89298D01*
X68000D01*
G02X66443Y89943I0J2202D01*
G01X63443Y92943D01*
G02X62798Y94500I1557J1557D01*
G01Y150000D01*
G02X63443Y151557I2202J0D01*
G01X67506Y155619D01*
G03X67798Y156324I-708J706D01*
G01Y175000D01*
G02X68443Y176557I2202J0D01*
G01X76789Y184903D01*
G02X78346Y185548I1557J-1557D01*
G01X80263D01*
X80381Y185577D01*
G02X80550Y185598I170J-681D01*
G01X84450D01*
G02X84619Y185577I-1J-702D01*
G01X84737Y185548D01*
X112763D01*
X112881Y185577D01*
G02X113050Y185598I170J-681D01*
G37*
G36*
G01X19000Y186102D02*
X25000D01*
G02X27102Y184000I0J-2102D01*
G01Y179000D01*
G02X25000Y176898I-2102J0D01*
G01X19000D01*
G02X16898Y179000I0J2102D01*
G01Y184000D01*
G02X19000Y186102I2102J0D01*
G37*
G36*
G01X50000D02*
X56000D01*
G02X58102Y184000I0J-2102D01*
G01Y179000D01*
G02X56000Y176898I-2102J0D01*
G01X50000D01*
G02X47898Y179000I0J2102D01*
G01Y184000D01*
G02X50000Y186102I2102J0D01*
G37*
G36*
G01X88000Y201048D02*
G02X91952Y205000I0J3952D01*
G02X91716Y203656I-3952J1D01*
G01X91617Y203381D01*
X91743Y202815D01*
X97163Y197394D01*
G03X97868Y197102I706J708D01*
G01X135000D01*
G02X135779Y196779I0J-1101D01*
G01X146283Y186275D01*
X146739Y186127D01*
X146976Y186164D01*
G02X147373Y186195I398J-2539D01*
G01X147375D01*
G02X144805Y183625I0J-2570D01*
G01Y183627D01*
G02X144836Y184024I2570J-1D01*
G01X144873Y184261D01*
X144725Y184717D01*
X134837Y194606D01*
G03X134132Y194898I-706J-708D01*
G01X97000D01*
G02X96221Y195221I0J1101D01*
G01X90185Y201257D01*
X89619Y201383D01*
X89344Y201284D01*
G02X88000Y201048I-1345J3716D01*
G37*
G36*
G01X104750Y208952D02*
X111250D01*
G02X111952Y208250I0J-702D01*
G01Y201750D01*
G02X111250Y201048I-702J0D01*
G01X104750D01*
G02X104048Y201750I0J702D01*
G01Y208250D01*
G02X104750Y208952I702J0D01*
G37*
G36*
G01X190750D02*
X197250D01*
G02X197952Y208250I0J-702D01*
G01Y201750D01*
G02X197250Y201048I-702J0D01*
G01X190750D01*
G02X190048Y201750I0J702D01*
G01Y208250D01*
G02X190750Y208952I702J0D01*
G37*
G36*
G01X43296Y208481D02*
G02X52704I4704J-3481D01*
G01X52825Y208318D01*
X53174Y208112D01*
X55000Y207868D01*
X55391Y207976D01*
X55551Y208102D01*
G02X58000Y208952I2449J-3103D01*
G02X61952Y205000I0J-3952D01*
G02X61716Y203656I-3952J1D01*
G01X61617Y203381D01*
X61743Y202815D01*
X72163Y192394D01*
G03X72868Y192102I706J708D01*
G01X127750D01*
G02X128529Y191779I0J-1101D01*
G01X137658Y182650D01*
X138114Y182502D01*
X138351Y182539D01*
G02X138748Y182570I398J-2539D01*
G01X138750D01*
G02X136180Y180000I0J-2570D01*
G01Y180002D01*
G02X136211Y180399I2570J-1D01*
G01X136248Y180636D01*
X136100Y181092D01*
X127587Y189606D01*
G03X126882Y189898I-706J-708D01*
G01X72000D01*
G02X71221Y190221I0J1101D01*
G01X60185Y201257D01*
X59619Y201383D01*
X59344Y201284D01*
G02X58000Y201048I-1345J3716D01*
G02X55551Y201898I0J3953D01*
G01X55391Y202024D01*
X55000Y202132D01*
X53174Y201888D01*
X52825Y201682D01*
X52704Y201519D01*
G02X43296I-4704J3481D01*
G01X43175Y201682D01*
X42826Y201888D01*
X41000Y202132D01*
X40609Y202024D01*
X40449Y201898D01*
G02X38000Y201048I-2449J3103D01*
G02Y208952I0J3952D01*
G02X40449Y208102I0J-3953D01*
G01X40609Y207976D01*
X41000Y207868D01*
X42826Y208112D01*
X43175Y208318D01*
X43296Y208481D01*
G37*
G36*
G01X215057Y77336D02*
G02X212943I-1057J309D01*
G03X212548Y77879I-959J-283D01*
G02X211430Y80000I1453J2121D01*
G02X216570I2570J0D01*
G02X215452Y77879I-2571J0D01*
G03X215057Y77336I564J-826D01*
G37*
G36*
G01X316798Y256500D02*
G02X317500Y257202I702J0D01*
G01X324800D01*
G03X327805Y255253I5282J4852D01*
G03X328122Y255202I315J949D01*
G01X332900D01*
G02X334457Y254557I0J-2202D01*
G01X346567Y242447D01*
G03X346725Y242318I708J706D01*
G03X347725Y241778I3612J5493D01*
G03X348075Y241697I397J918D01*
G02X350391Y240738I-174J-3697D01*
G03X350695Y240548I673J739D01*
G03X351785Y240222I2422J6111D01*
G03X351988Y240202I199J980D01*
G01X371649D01*
G03X371833Y240219I0J1000D01*
G03X373781Y240819I-1656J8839D01*
G03X374076Y241017I-401J916D01*
G02X377000Y242202I2925J-3017D01*
G02Y233798I0J-4202D01*
G02X374076Y234983I1J4202D01*
G03X373781Y235181I-696J-718D01*
G03X371833Y235781I-3604J-8239D01*
G03X371649Y235798I-184J-983D01*
G01X351988D01*
G03X351785Y235778I-4J-1000D01*
G03X350901Y235529I1336J-6436D01*
G03X350308Y234955I337J-941D01*
G03X349920Y233634I7053J-2789D01*
G03X349902Y233441I982J-189D01*
G01Y233090D01*
G03X349946Y232794I1000J-3D01*
G03X351152Y230531I6527J2026D01*
G01Y226190D01*
G02X351090Y225903I-702J1D01*
G03X351502Y224629I913J-408D01*
G02X352552Y222810I-1051J-1819D01*
G01Y218710D01*
G02X350450Y216608I-2102J0D01*
G01X344950D01*
G02X342848Y218710I0J2102D01*
G01Y222810D01*
G02X343898Y224629I2101J0D01*
G03X344310Y225903I-501J866D01*
G02X344248Y226190I640J288D01*
G01Y230531D01*
G03X345454Y232794I-5321J4289D01*
G03X345498Y233090I-956J293D01*
G01Y234270D01*
G03X345470Y234507I-1000J2D01*
G03X345205Y235365I-7253J-1770D01*
G03X345041Y235648I-935J-353D01*
G02X344203Y237825I2860J2351D01*
G03X344122Y238175I-999J-47D01*
G03X343582Y239175I-6033J-2612D01*
G03X343453Y239333I-835J-550D01*
G01X332281Y250506D01*
G03X331574Y250798I-706J-708D01*
G01X328122D01*
G03X327805Y250747I-2J-1000D01*
G03X324800Y248798I2277J-6801D01*
G01X317500D01*
G02X316798Y249500I0J702D01*
G01Y256500D01*
G37*
G54D53*
X185000Y142500D03*
G54D52*
X64000Y15000D03*
X84000D03*
X18000Y205000D03*
X28000D03*
X68000D03*
X78000D03*
X98000D03*
X124000D03*
X134000D03*
X144000D03*
X154000D03*
X164000D03*
X174000D03*
X184000D03*
G54D54*
X247800Y202350D03*
G54D55*
X364008Y-26992D03*
Y53008D03*
Y78992D03*
Y163992D03*
Y225008D03*
Y250992D03*
%LPD*%
G75*
G36*
G01X30090Y164379D02*
G02X25000Y166000I-564J7032D01*
G01X21750Y163500D01*
X25000Y161000D01*
G02X30090Y162621I4526J-5411D01*
G03Y164379I-476J879D01*
G37*
G36*
G01X44910Y162621D02*
G02X50000Y161000I564J-7032D01*
G01X53250Y163500D01*
X50000Y166000D01*
G02X44910Y164379I-4526J5411D01*
G03Y162621I476J-879D01*
G37*
G36*
G01X86801Y90051D02*
G02X88491Y89599I302J-2255D01*
G01X89375Y91500D01*
X88491Y93401D01*
G02X86801Y92949I-1388J1803D01*
G03Y90051I389J-1449D01*
G37*
G36*
G01X329912Y254183D02*
G02X324500Y256500I168J7872D01*
G01X320625Y253000D01*
X324500Y249500D01*
G02X329912Y251817I5580J-5555D01*
G03Y254183I-922J1183D01*
G37*
G36*
G01X346408Y235715D02*
G02X344950Y230290I-7482J-898D01*
G01X347700Y227865D01*
X350450Y230290D01*
G02X348992Y235715I6024J4527D01*
G03X346408I-1292J-762D01*
G37*
G36*
G01X349149Y231070D02*
G02X350797Y237224I8213J1098D01*
G01X347911Y238375D01*
X344982Y237314D01*
G02X346230Y231160I-6765J-4576D01*
G03X349149Y231070I1470J298D01*
G37*
G36*
G01X342503Y241348D02*
G02X345303Y236500I-4416J-5783D01*
G01X348165Y237735D01*
X349400Y240597D01*
G02X344552Y243397I935J7216D01*
G03X342503Y241348I-750J-1299D01*
G37*
G36*
G01X354084Y239449D02*
G02X348676Y240897I-967J7211D01*
G01X347525Y238000D01*
X348676Y235103D01*
G02X354084Y236551I4441J-5763D01*
G03Y239449I-388J1449D01*
G37*
G36*
G01X368885Y236551D02*
G02X376094Y234620I1290J-9608D01*
G01X377375Y238000D01*
X376094Y241380D01*
G02X368885Y239449I-5919J7677D01*
G03Y236551I388J-1449D01*
G37*
G54D10*
X6500Y4500D03*
X23500Y4000D03*
X5000Y23500D03*
X22500Y23000D03*
X16000Y151000D03*
X4740Y151236D03*
X29000Y149500D03*
X16000Y171500D03*
X4740Y171236D03*
X22540Y211236D03*
X5200Y211000D03*
X22540Y191236D03*
X4740D03*
X42500Y4000D03*
X40500Y23500D03*
X53500D03*
X48000Y149500D03*
X42540Y211236D03*
X40700Y187900D03*
X83500Y68500D03*
Y85000D03*
X82540Y131236D03*
X74000Y112700D03*
X72500Y140000D03*
X63631Y159200D03*
X82540Y211236D03*
X62540D03*
X101000Y43000D03*
X101500Y30000D03*
X101588Y65936D03*
X89000Y91500D03*
X110000Y112000D03*
X97750Y107250D03*
X110000Y132000D03*
X85000Y147500D03*
X98750Y176250D03*
X102540Y211236D03*
X121500Y43000D03*
X121588Y25936D03*
Y65936D03*
X131000Y84000D03*
X116000D03*
X122540Y111236D03*
X114800Y107000D03*
X121250Y125000D03*
X115000Y118750D03*
X121250Y147500D03*
X115000Y140000D03*
X122540Y211236D03*
X161588Y25936D03*
X141588D03*
X144985Y69385D03*
X150900Y75100D03*
X142500Y54500D03*
X158000Y84000D03*
X144000D03*
X164000Y108500D03*
X143000Y108000D03*
X165000Y154131D03*
X147375Y151250D03*
X138750Y134900D03*
X157000Y157500D03*
X147375Y183625D03*
X138750Y180000D03*
X162540Y211236D03*
X142540D03*
X162540Y191236D03*
X171000Y46000D03*
X181588Y25936D03*
X172500Y75000D03*
X190000Y51000D03*
X171000Y61000D03*
X169000Y63000D03*
X173000D03*
X169000Y59000D03*
X173000D03*
X183750Y80000D03*
X171250Y83750D03*
X192500Y97500D03*
X182100Y102700D03*
X177500Y83750D03*
X189964Y108571D03*
X183100Y110200D03*
X182540Y211236D03*
X213750Y7500D03*
X196000Y26500D03*
X212500Y38750D03*
X196250Y40000D03*
X213750Y26250D03*
X196000Y63000D03*
X210000Y65000D03*
Y71250D03*
X213750Y57500D03*
X217500Y52500D03*
X200469Y78750D03*
X215000Y101250D03*
X206250Y83750D03*
X215500Y91000D03*
X214000Y80000D03*
X217500Y107700D03*
X212740Y130500D03*
X195000Y157500D03*
X212500Y142500D03*
X202540Y211236D03*
Y191236D03*
X222600Y20500D03*
X224000Y29200D03*
X246500Y72000D03*
X226250Y61250D03*
X234500Y60500D03*
X240700Y69869D03*
X227904Y52500D03*
X246000Y58000D03*
X234500Y69240D03*
X225000Y96000D03*
X247000Y91000D03*
X242798Y93044D03*
Y83044D03*
X228000Y80000D03*
X226999Y89001D03*
X222000Y87500D03*
X223000Y112000D03*
X224500Y130500D03*
X230416Y109417D03*
X223500Y140500D03*
X242540Y171236D03*
Y211236D03*
X222540D03*
X242540Y191236D03*
X222540D03*
X252500Y7000D03*
X269000Y22000D03*
X260800Y3436D03*
X270500Y6800D03*
X268800Y30000D03*
X274000Y42800D03*
X264000D03*
X265000Y61250D03*
X262500Y76000D03*
X272500Y73750D03*
X261250Y56400D03*
X252798Y93044D03*
Y83044D03*
X268000Y86000D03*
X272000Y103500D03*
X273500Y115000D03*
X256800Y128200D03*
X263500Y123500D03*
X273900Y123900D03*
X264000Y109000D03*
X258000Y109500D03*
X269000Y135000D03*
X250000Y155000D03*
X265000Y142500D03*
X262540Y171236D03*
Y211236D03*
Y191236D03*
X297700Y17200D03*
X300800Y6300D03*
X292500Y61250D03*
X277500D03*
X292798Y53044D03*
X282700Y74800D03*
X283750Y90000D03*
X283000Y82000D03*
X297500Y82500D03*
Y90000D03*
X279000Y96500D03*
Y103500D03*
X283750Y107500D03*
X278500Y120500D03*
X289000Y133000D03*
Y153000D03*
X275000Y142500D03*
X289000Y173000D03*
Y193000D03*
X288000Y215500D03*
X304500Y-32300D03*
X322600Y-45500D03*
X304500D03*
X322500Y-32000D03*
X319000Y-27500D03*
Y-13500D03*
X304525Y-22175D03*
X325500Y-9200D03*
X308000Y-14000D03*
X315500Y-10000D03*
Y-24000D03*
Y-17000D03*
X316000Y38000D03*
Y26000D03*
X317000Y61000D03*
X322568Y72944D03*
X303750Y68750D03*
Y101250D03*
X312500Y95000D03*
X310000Y80000D03*
X327500Y86250D03*
X321450Y99990D03*
X317500Y115000D03*
X307500Y138750D03*
X323900Y134481D03*
Y145150D03*
X304500Y233000D03*
Y253000D03*
X327500Y258500D03*
X342800Y-45500D03*
X352900D03*
X329000Y-32500D03*
X345000Y-35500D03*
X334000Y-32500D03*
X333000Y-20500D03*
X348000Y-6500D03*
X350000Y-30000D03*
X348500Y-14000D03*
X341500Y-28000D03*
Y-14000D03*
X334000Y-9500D03*
X333000Y5000D03*
X341000D03*
X340496Y14504D03*
X346000Y22000D03*
X352000Y21500D03*
X337000Y47000D03*
X331559Y50000D03*
X340283Y42100D03*
X346000Y30000D03*
X349431Y47100D03*
X353500Y37000D03*
X336250Y56250D03*
X335000Y75000D03*
X346000Y56250D03*
X346250Y83750D03*
X337500Y86250D03*
X352500Y96250D03*
X332500Y99375D03*
X343600Y134481D03*
Y145519D03*
X339500Y214300D03*
X340900Y232600D03*
X344200Y263200D03*
X363100Y-45500D03*
X382900D03*
X358500Y-14000D03*
X367500Y21500D03*
X380500D03*
X367801Y43601D03*
X357500Y29000D03*
X364000Y66000D03*
Y91500D03*
X377500Y93750D03*
X367500Y109500D03*
X364000Y127500D03*
X367500Y118750D03*
X381250Y117500D03*
X377100Y164000D03*
X364000Y175500D03*
X363750Y183750D03*
X376200Y201900D03*
X364000Y194000D03*
Y213000D03*
X356100Y233200D03*
X364000Y263500D03*
X395500Y-45500D03*
X389500Y14000D03*
X390000Y40500D03*
Y66000D03*
Y91500D03*
X387500Y107500D03*
X390000Y127500D03*
Y175500D03*
Y194000D03*
Y213000D03*
Y238000D03*
Y263500D03*
G54D20*
X151000Y69150D03*
Y62850D03*
X190000Y50850D03*
Y57150D03*
Y70150D03*
Y63850D03*
G54D11*
X22000Y163500D03*
Y181500D03*
X53000Y163500D03*
Y181500D03*
G54D30*
X270457Y6000D03*
X270257Y49100D03*
X272457Y135000D03*
X265543D03*
X258457D03*
X277543Y6000D03*
X277343Y49100D03*
X279543Y135000D03*
X370207Y15000D03*
X377293D03*
G54D21*
X164031Y75000D03*
X159969D03*
X156031D03*
X167969D03*
G54D12*
X18000Y205000D03*
X28000D03*
X38000D03*
X48000D03*
X58000D03*
X84000Y15000D03*
X74000D03*
X64000D03*
X68000Y205000D03*
X78000D03*
X104000Y15000D03*
X94000D03*
X88000Y205000D03*
X98000D03*
X124000Y15000D03*
X114000D03*
X124000Y205000D03*
X134000D03*
X164000Y15000D03*
X154000D03*
X156000Y130000D03*
Y140000D03*
X144000Y205000D03*
X154000D03*
X164000D03*
X194000Y15000D03*
X184000D03*
X174000D03*
Y205000D03*
X184000D03*
G54D31*
X274000Y15800D03*
X269000D03*
X264000D03*
X259000D03*
X254000D03*
Y36200D03*
X259000D03*
X264000D03*
X269000D03*
X274000D03*
X284000Y15800D03*
X279000D03*
Y36200D03*
X284000D03*
G54D13*
X54000Y15000D03*
X108000Y205000D03*
X144000Y15000D03*
X156000Y120000D03*
X194000Y205000D03*
G54D22*
X171000Y61000D03*
G54D40*
X323897Y140000D03*
X343596D03*
G54D50*
G01X96100Y310400D02*
X91100D01*
Y320400D01*
X96100D01*
G01X94100Y315567D02*
X91100D01*
G01X100475Y320400D02*
X103600Y310400D01*
X106725Y320400D01*
G01X110475Y310400D02*
X113600Y320400D01*
X116725Y310400D01*
G01X115600Y313900D02*
X111600D01*
G01X121100Y320400D02*
Y310400D01*
X126100D01*
G01X131975Y313733D02*
X135225D01*
G01X140475Y310400D02*
X143600Y320400D01*
X146725Y310400D01*
G01X145600Y313900D02*
X141600D01*
G01X150850Y310400D02*
Y320400D01*
X153350D01*
X154350Y319900D01*
X155100Y319233D01*
X155725Y318233D01*
X156225Y317066D01*
X156350Y315400D01*
X156225Y313733D01*
X155725Y312567D01*
X155100Y311566D01*
X154350Y310900D01*
X153350Y310400D01*
X150850D01*
G01X160850Y311900D02*
X161600Y311067D01*
X162475Y310567D01*
X163600Y310400D01*
X164725Y310733D01*
X165600Y311400D01*
X166225Y312567D01*
X166350Y313900D01*
X166100Y315233D01*
X165475Y316067D01*
X164600Y316733D01*
X163725Y316900D01*
X162850Y316733D01*
X161725Y316067D01*
X162100Y320400D01*
X165475D01*
G01X171475Y311566D02*
X172350Y310733D01*
X173350Y310400D01*
X174350Y310733D01*
X175225Y311733D01*
X175850Y313233D01*
X176100Y314733D01*
Y316567D01*
X175850Y318067D01*
X175225Y319400D01*
X174475Y320067D01*
X173600Y320400D01*
X172600Y320067D01*
X171850Y319400D01*
X171350Y318400D01*
X171100Y317066D01*
X171350Y315900D01*
X171975Y314733D01*
X172725Y314066D01*
X173600Y313900D01*
X174600Y314233D01*
X175350Y315067D01*
X176100Y316567D01*
G01X185100Y310400D02*
Y320400D01*
X180475Y313233D01*
X186725D01*
G01X193600Y310400D02*
Y320400D01*
X192100Y318400D01*
G01Y310400D02*
X195100D01*
G01X204600Y315733D02*
X205100Y316233D01*
X205475Y317066D01*
X205725Y318233D01*
X205475Y319233D01*
X204975Y319900D01*
X204100Y320400D01*
X200725D01*
Y310400D01*
X204850D01*
X205725Y311067D01*
X206225Y312067D01*
X206475Y313233D01*
X206225Y314400D01*
X205475Y315400D01*
X204600Y315733D01*
X200725D01*
G01X210475Y310400D02*
X213600Y320400D01*
X216725Y310400D01*
G01X215600Y313900D02*
X211600D01*
G01X223600Y320400D02*
Y310400D01*
G01X220725Y320400D02*
X226475D01*
G01X231225D02*
X235975D01*
X231225Y310400D01*
X235975D01*
G01X251100D02*
Y320400D01*
X254225D01*
X255225Y319900D01*
X255850Y319233D01*
X256100Y317900D01*
X255850Y316567D01*
X255100Y315733D01*
X254225Y315233D01*
X251100D01*
G01X254225D02*
X256100Y310400D01*
G01X266100D02*
X261100D01*
Y320400D01*
X266100D01*
G01X264100Y315567D02*
X261100D01*
G01X270475Y320400D02*
X273600Y310400D01*
X276725Y320400D01*
G01X281975Y313733D02*
X285225D01*
G01X290850Y310400D02*
Y320400D01*
X293350D01*
X294350Y319900D01*
X295100Y319233D01*
X295725Y318233D01*
X296225Y317066D01*
X296350Y315400D01*
X296225Y313733D01*
X295725Y312567D01*
X295100Y311566D01*
X294350Y310900D01*
X293350Y310400D01*
X290850D01*
G01X138600Y340400D02*
X137600Y340067D01*
X136850Y339233D01*
X136350Y338233D01*
X135975Y336900D01*
X135850Y335400D01*
X135975Y333900D01*
X136350Y332567D01*
X136850Y331566D01*
X137600Y330733D01*
X138600Y330400D01*
X139600Y330733D01*
X140350Y331566D01*
X140850Y332567D01*
X141225Y333900D01*
X141350Y335400D01*
X141225Y336900D01*
X140850Y338233D01*
X140350Y339233D01*
X139600Y340067D01*
X138600Y340400D01*
G01X148600Y330400D02*
X149475Y330567D01*
X150475Y331067D01*
X151100Y331900D01*
X151350Y333067D01*
X151100Y334233D01*
X150350Y335233D01*
X149225Y335733D01*
X147975D01*
X147225Y336067D01*
X146600Y336900D01*
X146350Y338067D01*
X146725Y339233D01*
X147600Y340067D01*
X148600Y340400D01*
X149600Y340067D01*
X150475Y339233D01*
X150850Y338067D01*
X150600Y336900D01*
X149975Y336067D01*
X149225Y335733D01*
X147975D01*
X146850Y335233D01*
X146100Y334233D01*
X145850Y333067D01*
X146100Y331900D01*
X146725Y331067D01*
X147725Y330567D01*
X148600Y330400D01*
G01X156975Y333733D02*
X160225D01*
G01X226975D02*
X230225D01*
G01X238600Y340400D02*
X237600Y340067D01*
X236850Y339233D01*
X236350Y338233D01*
X235975Y336900D01*
X235850Y335400D01*
X235975Y333900D01*
X236350Y332567D01*
X236850Y331566D01*
X237600Y330733D01*
X238600Y330400D01*
X239600Y330733D01*
X240350Y331566D01*
X240850Y332567D01*
X241225Y333900D01*
X241350Y335400D01*
X241225Y336900D01*
X240850Y338233D01*
X240350Y339233D01*
X239600Y340067D01*
X238600Y340400D01*
G01X248600Y330400D02*
Y340400D01*
X247100Y338400D01*
G01Y330400D02*
X250100D01*
G01X146100Y360400D02*
Y350400D01*
X151100D01*
G01X158600D02*
Y360400D01*
X157100Y358400D01*
G01Y350400D02*
X160100D01*
G01X176100D02*
Y360400D01*
X179100D01*
X180100Y359900D01*
X180850Y358733D01*
X181100Y357400D01*
X180850Y356067D01*
X180225Y355067D01*
X179100Y354566D01*
X176100D01*
G01X186100Y350400D02*
Y360400D01*
X189225D01*
X190225Y359900D01*
X190850Y359233D01*
X191100Y357900D01*
X190850Y356567D01*
X190100Y355733D01*
X189225Y355233D01*
X186100D01*
G01X189225D02*
X191100Y350400D01*
G01X197100Y360400D02*
X200100D01*
G01X198600D02*
Y350400D01*
G01X197100D02*
X200100D01*
G01X205350D02*
Y360400D01*
X208600Y352067D01*
X211850Y360400D01*
Y350400D01*
G01X215475D02*
X218600Y360400D01*
X221725Y350400D01*
G01X220600Y353900D02*
X216600D01*
G01X226100Y350400D02*
Y360400D01*
X229225D01*
X230225Y359900D01*
X230850Y359233D01*
X231100Y357900D01*
X230850Y356567D01*
X230100Y355733D01*
X229225Y355233D01*
X226100D01*
G01X229225D02*
X231100Y350400D01*
G01X238600D02*
Y354900D01*
X236100Y360400D01*
G01X241100D02*
X238600Y354900D01*
G01X168600Y340400D02*
X167600Y340067D01*
X166850Y339233D01*
X166350Y338233D01*
X165975Y336900D01*
X165850Y335400D01*
X165975Y333900D01*
X166350Y332567D01*
X166850Y331566D01*
X167600Y330733D01*
X168600Y330400D01*
X169600Y330733D01*
X170350Y331566D01*
X170850Y332567D01*
X171225Y333900D01*
X171350Y335400D01*
X171225Y336900D01*
X170850Y338233D01*
X170350Y339233D01*
X169600Y340067D01*
X168600Y340400D01*
G01X180100Y330400D02*
Y340400D01*
X175475Y333233D01*
X181725D01*
G01X188350Y330400D02*
X188600Y332567D01*
X188975Y334400D01*
X189475Y336067D01*
X190100Y337900D01*
X191100Y340400D01*
X186100D01*
G01X200100Y330400D02*
Y340400D01*
X195475Y333233D01*
X201725D01*
G01X205850Y331900D02*
X206600Y331067D01*
X207475Y330567D01*
X208600Y330400D01*
X209725Y330733D01*
X210600Y331400D01*
X211225Y332567D01*
X211350Y333900D01*
X211100Y335233D01*
X210475Y336067D01*
X209600Y336733D01*
X208725Y336900D01*
X207850Y336733D01*
X206725Y336067D01*
X207100Y340400D01*
X210475D01*
G01X216225Y334566D02*
X217100Y335733D01*
X217850Y336400D01*
X218850Y336733D01*
X219725Y336400D01*
X220350Y335733D01*
X220850Y334733D01*
X220975Y333567D01*
X220850Y332567D01*
X220350Y331566D01*
X219600Y330733D01*
X218725Y330400D01*
X217725Y330733D01*
X216850Y331733D01*
X216350Y333233D01*
X216225Y334900D01*
X216475Y337066D01*
X216850Y338233D01*
X217475Y339400D01*
X218350Y340233D01*
X219225Y340400D01*
X220100Y340067D01*
X220725Y339233D01*
G01X74000Y15000D02*
Y33500D01*
X53000Y54500D01*
Y163500D01*
G01X115000Y140000D02*
X72500D01*
G01X82500Y165713D02*
Y160000D01*
X87500Y155000D01*
X142500D01*
X152500Y165000D01*
X172500D01*
G01X138750Y180000D02*
X127750Y191000D01*
X72000D01*
X58000Y205000D01*
G01X97750Y107250D02*
Y102750D01*
X96100Y101100D01*
Y42000D01*
X104300Y33800D01*
X159700D01*
X174000Y19500D01*
Y15000D01*
G01X114800Y107000D02*
X98000D01*
X97750Y107250D01*
G01X121250Y147500D02*
X85000D01*
G01X82500Y169287D02*
Y176654D01*
G01X147375Y183625D02*
X135000Y196000D01*
X97000D01*
X88000Y205000D01*
G01X121250Y125000D02*
X201000D01*
X202500Y126500D01*
X239000D01*
X249953Y115547D01*
Y104583D01*
G01X115000Y118750D02*
X119145Y114605D01*
X123935D01*
X126040Y112500D01*
X177499D01*
X180000Y115001D01*
Y121251D01*
X181249Y122500D01*
X200622D01*
X203122Y125000D01*
X237000D01*
X247984Y114016D01*
Y104583D01*
G01X172500Y177500D02*
X155000D01*
X140000Y162500D01*
X118213D01*
X115000Y165713D01*
G01Y169287D02*
Y176654D01*
G01X160850Y46000D02*
Y53150D01*
X160500Y53500D01*
G01X151000Y48260D02*
X151860D01*
X157100Y53500D01*
X160500D01*
G01X151000Y55740D02*
X151740D01*
X154500Y58500D01*
X160500D01*
G01X151000Y62850D02*
X155255D01*
X155934Y63529D01*
G01D02*
Y72253D01*
X156031Y72350D01*
Y75000D01*
G01X160500Y63500D02*
X155963D01*
X155934Y63529D01*
G01X164031Y75000D02*
X159969D01*
G01D02*
X160500Y74469D01*
Y68500D01*
G01X175000Y117500D02*
X170000D01*
X167500Y120000D01*
X156000D01*
G01X253890Y104583D02*
Y118610D01*
X221738Y150762D01*
X163605D01*
X163117Y151250D01*
X147375D01*
G01X138750Y134900D02*
X138850Y135000D01*
X234000D01*
X251921Y117079D01*
Y104583D01*
G01X156000Y130000D02*
X175000D01*
G01Y142500D02*
X172500Y140000D01*
X156000D01*
G01X157000Y157500D02*
X195000D01*
G01X167150Y46000D02*
X171000D01*
G01D02*
X175850D01*
G01X182150D02*
Y52850D01*
X181500Y53500D01*
G01X196000Y63000D02*
Y61000D01*
G01X190000Y50850D02*
Y51000D01*
G01Y63850D02*
X189650Y63500D01*
X181500D01*
G01X182100Y102700D02*
X201450D01*
X213596Y114846D01*
X217500D01*
G01X183100Y110200D02*
X177500Y104600D01*
Y83750D01*
G01X185000Y117500D02*
X190000Y112500D01*
X198750D01*
X209750Y123500D01*
X235500D01*
X246016Y112984D01*
Y104583D01*
G01X189964Y108571D02*
X190143Y108750D01*
X200750D01*
X213250Y121250D01*
X234750D01*
X244047Y111953D01*
Y104583D01*
G01X183100Y110200D02*
X188300Y105000D01*
X200000D01*
X213750Y118750D01*
X234250D01*
X242079Y110921D01*
Y104583D01*
G01X206250Y83750D02*
Y74764D01*
X202500Y71014D01*
Y61250D01*
X201250Y60000D01*
Y12500D01*
X211750Y2000D01*
X259000D01*
X260436Y3436D01*
X260800D01*
G01X230000Y22740D02*
X225560D01*
X217500Y30800D01*
Y52500D01*
G01D02*
Y63000D01*
X231250Y76750D01*
Y78631D01*
X232792Y80173D01*
X233417D01*
G01Y90016D02*
X230984D01*
X228500Y92500D01*
X225500D01*
X224000Y91000D01*
X215500D01*
G01X214000Y77646D02*
Y80000D01*
G01X217500Y108154D02*
Y107700D01*
G01Y114846D02*
X218122Y115468D01*
X232532D01*
X240110Y107890D01*
Y104583D01*
G01X195000Y130000D02*
X204760D01*
X205260Y130500D01*
G01X195000Y142500D02*
X205260D01*
G01X212740D02*
X212500D01*
G01X230000Y15260D02*
X231000Y14260D01*
X246000D01*
G01X308000Y-14000D02*
X302900Y-8900D01*
Y-1834D01*
X301066Y0D01*
X270878D01*
X270078Y800D01*
X268200D01*
X258500Y10500D01*
X227000D01*
X225500Y12000D01*
Y18200D01*
X226300Y19000D01*
X233000D01*
X234000Y20000D01*
Y25000D01*
X235000Y26000D01*
X256150D01*
X264000Y33850D01*
Y36200D01*
G01X230000Y29260D02*
X229840D01*
X221350Y37750D01*
Y46250D01*
G01D02*
Y63850D01*
X234917Y77417D01*
X236173D01*
G01X227904Y46250D02*
X221350D01*
G01X238000Y29740D02*
X238520Y30260D01*
X246000D01*
G01X238000Y22260D02*
X238520Y21740D01*
X246000D01*
G01X234596Y46250D02*
X257500D01*
X266250Y55000D01*
X286000D01*
X304900Y36100D01*
Y26000D01*
G01X230000Y36740D02*
X231000Y37740D01*
X246000D01*
G01X244047Y77417D02*
Y73953D01*
X246000Y72000D01*
X246500D01*
G01X242079Y77417D02*
Y73680D01*
X240700Y72301D01*
Y69869D01*
G01X238142Y77417D02*
Y75142D01*
X236500Y73500D01*
X233122D01*
X230000Y70378D01*
Y65000D01*
X231000Y64000D01*
X241850D01*
G01X333750Y162500D02*
X322500Y151250D01*
X313750D01*
X302500Y140000D01*
Y106250D01*
X290000Y93750D01*
Y72500D01*
X284750Y67250D01*
X263500D01*
X250881Y54631D01*
X243869D01*
X241850Y56650D01*
Y64000D01*
G01X246000Y58000D02*
Y60300D01*
X244900Y61400D01*
Y66900D01*
X246500Y68500D01*
X248500D01*
X250000Y70000D01*
Y73500D01*
X247984Y75516D01*
Y77417D01*
G01X234500Y69240D02*
X240110Y74850D01*
Y77417D01*
G01X234596Y52900D02*
Y52500D01*
G01X261250Y56400D02*
Y56250D01*
X256250Y51250D01*
X241250D01*
X240000Y52500D01*
X234596D01*
G01X225000Y96000D02*
X227400D01*
X231416Y91984D01*
X233417D01*
G01X242798Y93044D02*
X239428D01*
X238519Y93953D01*
X233417D01*
G01X247000Y91000D02*
X244842D01*
X242798Y93044D01*
G01X223000Y112000D02*
X229000Y106000D01*
Y101000D01*
X230142Y99858D01*
X233417D01*
G01Y106416D02*
Y101827D01*
G01Y82142D02*
X230142D01*
X228000Y80000D01*
G01X233417Y88047D02*
X230153D01*
X229199Y89001D01*
X226999D01*
G01X233417Y86079D02*
X229079D01*
X228500Y85500D01*
X224500D01*
X223000Y87000D01*
X222500D01*
X222000Y87500D01*
G01X230416Y109417D02*
X233417Y106416D01*
G01D02*
X234801Y107800D01*
G01D02*
X237200D01*
X238142Y106858D01*
Y104583D01*
G01X259000Y15800D02*
Y20000D01*
X257260Y21740D01*
X246000D01*
G01X254000Y15800D02*
X247540D01*
X246000Y14260D01*
G01X264000Y15800D02*
Y9000D01*
X266000Y7000D01*
X269457D01*
X270457Y6000D01*
G01D02*
Y6757D01*
X270500Y6800D01*
G01X335953Y-26406D02*
Y-28453D01*
X338000Y-30500D01*
Y-34500D01*
X336500Y-36000D01*
X319500D01*
X312000Y-28500D01*
Y-12500D01*
X304400Y-4900D01*
Y-1212D01*
X304300Y-1112D01*
Y-800D01*
X302000Y1500D01*
X271500D01*
X270457Y2543D01*
Y6000D01*
G01X259000Y36200D02*
Y32000D01*
X257260Y30260D01*
X246000D01*
G01X254000Y36200D02*
X247540D01*
X246000Y37740D01*
G01X264000Y42800D02*
Y36200D01*
G01X270257Y49100D02*
Y49057D01*
X264000Y42800D01*
G01X255858Y77417D02*
Y75642D01*
X258625Y72875D01*
Y68750D01*
G01D02*
X253875Y64000D01*
X248150D01*
G01X297500Y122500D02*
Y108750D01*
X287500Y98750D01*
Y72500D01*
X283750Y68750D01*
X258625D01*
G01X249953Y77417D02*
Y88047D01*
X247000Y91000D01*
G01D02*
Y82482D01*
X246016Y81498D01*
Y77417D01*
G01X260583Y90016D02*
X272016D01*
X275500Y93500D01*
Y113000D01*
X273500Y115000D01*
G01X260583Y88047D02*
X265953D01*
X268000Y86000D01*
G01X275250Y82000D02*
X267000D01*
X262921Y86079D01*
X260583D01*
G01X272000Y103500D02*
Y103100D01*
X264821Y95921D01*
X260583D01*
G01Y101827D02*
X262727D01*
X268000Y107100D01*
Y124857D01*
X258457Y134400D01*
Y135000D01*
G01X260583Y93953D02*
X269803D01*
X272350Y96500D01*
G01X260583Y99858D02*
X263158D01*
X270000Y106700D01*
Y124857D01*
X279543Y134400D01*
Y135000D01*
G01X263000Y108000D02*
Y109000D01*
X264000D01*
G01X262500Y105000D02*
X262083Y104583D01*
G01D02*
X257827D01*
G01X255858D02*
Y107858D01*
X257500Y109500D01*
X258000D01*
G01X272457Y135000D02*
X269000D01*
G01D02*
X265543D01*
G01X258457D02*
Y142998D01*
X260669Y145210D01*
Y148760D01*
G01X279543Y135000D02*
Y149978D01*
X273281Y156240D01*
X269331D01*
G01X279000Y15800D02*
Y18700D01*
X282040Y21740D01*
X292000D01*
G01X277543Y6000D02*
X280500D01*
X284000Y9500D01*
Y15800D01*
G01D02*
X291200D01*
X292000Y15000D01*
Y14260D01*
G01X304900Y26000D02*
X289000D01*
X287500Y24500D01*
X279900D01*
X274000Y18600D01*
Y15800D01*
G01X300000Y29740D02*
X299480Y30260D01*
X292000D01*
G01X279000Y36200D02*
Y33400D01*
X282140Y30260D01*
X292000D01*
G01X300000Y22260D02*
X299480Y21740D01*
X292000D01*
G01X284000Y36200D02*
X284100Y36100D01*
X290360D01*
X292000Y37740D01*
G01X277343Y49100D02*
Y48956D01*
X283943Y42356D01*
Y41057D01*
X284000Y41000D01*
Y36200D01*
G01X274000D02*
Y42800D01*
G01X282750Y82000D02*
X283000D01*
G01X319000Y-27500D02*
X323000Y-23500D01*
X327047D01*
X327094Y-23453D01*
G01X330047Y-14594D02*
X328293D01*
X327199Y-13500D01*
X319000D01*
G01X340496Y14504D02*
Y13608D01*
X340600Y13504D01*
Y11400D01*
X346000Y6000D01*
Y0D01*
X342500Y-3500D01*
X318000D01*
X315500Y-6000D01*
X308020D01*
X305900Y-3880D01*
Y1200D01*
X300800Y6300D01*
G01X325500Y-9200D02*
X328672D01*
X332016Y-12544D01*
Y-14594D01*
G01X315500Y-10000D02*
X320500Y-5000D01*
X334499D01*
X337500Y-8001D01*
Y-10999D01*
X335953Y-12546D01*
Y-14594D01*
G01X327094Y-21484D02*
X318016D01*
X315500Y-24000D01*
G01X327094Y-19516D02*
X318016D01*
X315500Y-17000D01*
G01X304900Y26000D02*
Y15100D01*
X311250Y8750D01*
G01D02*
X315450D01*
X315700Y9000D01*
X322400D01*
X323882Y10482D01*
Y14504D01*
G01X346000Y22000D02*
X342630D01*
X341730Y22900D01*
X328900D01*
X326441Y20441D01*
Y20000D01*
G01D02*
Y14504D01*
G01Y20000D02*
X326141Y20300D01*
X317000D01*
X315450Y18750D01*
X311250D01*
G01Y-1250D02*
X315450D01*
X315700Y-1000D01*
X323000D01*
X329000Y5000D01*
Y14504D01*
G01X316000Y26000D02*
X361000D01*
G01X311250Y42500D02*
X315450D01*
X315950Y43000D01*
X322200D01*
X323882Y41318D01*
Y37496D01*
G01X346000Y30000D02*
X328000D01*
X326441Y31559D01*
Y32000D01*
G01D02*
Y37496D01*
G01X311250Y32500D02*
X315450D01*
X315950Y32000D01*
X326441D01*
G01X311250Y52500D02*
X315450D01*
X315950Y53000D01*
X322000D01*
X329000Y46000D01*
Y37496D01*
G01X349431Y47100D02*
X340000Y56531D01*
Y62500D01*
X321250Y81250D01*
Y92510D01*
G01X321450Y99990D02*
X321250D01*
G01X321450D02*
Y103360D01*
X321260Y103550D01*
Y107500D01*
G01D02*
Y111259D01*
X325208Y115207D01*
X326250D01*
G01X345000Y-35500D02*
X347383Y-37883D01*
X390817D01*
X397100Y-31600D01*
Y90400D01*
X383750Y103750D01*
X355000D01*
X351300Y107450D01*
X345790D01*
X345740Y107500D01*
X342490D01*
G01X330047Y-26406D02*
Y-23453D01*
X333000Y-20500D01*
G01X327094Y-17547D02*
X330047D01*
X333000Y-20500D01*
G01X338906Y-21484D02*
X342406D01*
X343390Y-20500D01*
G01D02*
X342406Y-19516D01*
X338906D01*
G01X348500Y-14000D02*
Y-17370D01*
X345370Y-20500D01*
X343390D01*
G01X332016Y-26406D02*
Y-28984D01*
X329000Y-32000D01*
Y-32500D01*
G01X333984Y-26406D02*
X334000Y-26422D01*
Y-32500D01*
G01X341500Y-28000D02*
X352100Y-17400D01*
Y12200D01*
X353940Y14040D01*
Y14900D01*
G01X333984Y-14594D02*
X334000Y-14578D01*
Y-9500D01*
G01X352000Y21500D02*
X349617Y19117D01*
Y617D01*
X341500Y-7500D01*
Y-14000D01*
G01X331559Y14504D02*
Y9804D01*
X331800Y9563D01*
X331807D01*
X333000Y8370D01*
Y5000D01*
G01X336922Y7000D02*
X334118Y9804D01*
Y14504D01*
G01X336677D02*
X340496D01*
G01X329000D02*
Y18700D01*
X331100Y20800D01*
X340800D01*
X345000Y16600D01*
Y15800D01*
X345800Y15000D01*
X346360D01*
X346460Y14900D01*
G01X361000Y15260D02*
X360740Y15000D01*
X354040D01*
X353940Y14900D01*
G01X334118Y37496D02*
Y44118D01*
X337000Y47000D01*
G01X331559Y37496D02*
Y50000D01*
G01X336677Y37496D02*
Y40676D01*
X338101Y42100D01*
X340283D01*
G01X329000Y37496D02*
Y33000D01*
X330000Y32000D01*
X341400D01*
X345000Y35600D01*
Y36740D01*
X345260Y37000D01*
G01X361000Y36740D02*
X360740Y37000D01*
X353500D01*
G01D02*
X352740D01*
G01X346000Y56250D02*
Y64000D01*
X342500Y67500D01*
Y92510D01*
G01X335010Y107500D02*
Y101885D01*
X332500Y99375D01*
G01D02*
X328740Y103135D01*
Y107500D01*
G01X342490D02*
Y103250D01*
X342500Y103240D01*
Y99990D01*
G01X341250Y115207D02*
X342490Y113967D01*
Y107500D01*
G01X361000Y26000D02*
X369000D01*
X373750Y21250D01*
Y-5432D01*
X365182Y-14000D01*
X358500D01*
G01X377000D02*
Y14707D01*
X377293Y15000D01*
G01X370207D02*
X361260D01*
X361000Y15260D01*
G01Y29260D02*
X357760D01*
X357500Y29000D01*
G01X361000Y36740D02*
X367960D01*
X371400Y33300D01*
G01X382500Y32707D02*
X377293D01*
X376700Y33300D01*
X371400D01*
G01X382500Y39793D02*
Y45000D01*
X377000Y50500D01*
Y66000D01*
G54D14*
X82500Y176654D03*
Y183346D03*
X115000Y176654D03*
Y183346D03*
X217500Y108154D03*
Y114846D03*
G54D32*
X275250Y82000D03*
X282750D03*
G54D41*
X320000Y192500D03*
X310000D03*
G54D23*
X175000Y130000D03*
X185000D03*
X175000Y117500D03*
X185000D03*
X175000Y142500D03*
X185000D03*
X297500Y122500D03*
X311250Y18750D03*
Y8750D03*
Y32500D03*
Y42500D03*
X315000Y122500D03*
X334000Y-42000D03*
X352500Y122500D03*
X333750Y162500D03*
X347900Y238000D03*
X371400Y33300D03*
G54D51*
G01X229983Y200800D02*
Y203900D01*
X230903D01*
X231210Y203745D01*
X231440Y203383D01*
X231517Y202970D01*
X231440Y202557D01*
X231248Y202247D01*
X230903Y202092D01*
X229983D01*
G01X233083Y200800D02*
Y203900D01*
X234042D01*
X234348Y203745D01*
X234540Y203538D01*
X234617Y203125D01*
X234540Y202712D01*
X234310Y202453D01*
X234042Y202298D01*
X233083D01*
G01X234042D02*
X234617Y200800D01*
G01X236490Y203900D02*
X237410D01*
G01X236950D02*
Y200800D01*
G01X236490D02*
X237410D01*
G01X239053D02*
Y203900D01*
X240050Y201317D01*
X241047Y203900D01*
Y200800D01*
G01X242192D02*
X243150Y203900D01*
X244108Y200800D01*
G01X243763Y201885D02*
X242537D01*
G01X245483Y200800D02*
Y203900D01*
X246442D01*
X246748Y203745D01*
X246940Y203538D01*
X247017Y203125D01*
X246940Y202712D01*
X246710Y202453D01*
X246442Y202298D01*
X245483D01*
G01X246442D02*
X247017Y200800D01*
G01X249350D02*
Y202195D01*
X248583Y203900D01*
G01X250117D02*
X249350Y202195D01*
G01X254745Y201213D02*
X255052Y200955D01*
X255397Y200800D01*
X255703D01*
X256010Y200955D01*
X256240Y201213D01*
X256355Y201575D01*
X256278Y201937D01*
X256087Y202247D01*
X255742Y202453D01*
X255282Y202557D01*
X255013Y202763D01*
X254898Y203125D01*
X254975Y203487D01*
X255167Y203745D01*
X255435Y203900D01*
X255703D01*
X255972Y203797D01*
X256202Y203538D01*
G01X258190Y203900D02*
X259110D01*
G01X258650D02*
Y200800D01*
G01X258190D02*
X259110D01*
G01X260907D02*
Y203900D01*
X261673D01*
X261980Y203745D01*
X262210Y203538D01*
X262402Y203228D01*
X262555Y202867D01*
X262593Y202350D01*
X262555Y201833D01*
X262402Y201472D01*
X262210Y201162D01*
X261980Y200955D01*
X261673Y200800D01*
X260907D01*
G01X265617D02*
X264083D01*
Y203900D01*
X265617D01*
G01X265003Y202402D02*
X264083D01*
G54D33*
X260669Y156240D03*
X269331Y148760D03*
Y156240D03*
X260669Y148760D03*
G54D15*
X82500Y169287D03*
Y165713D03*
X115000Y169287D03*
Y165713D03*
G54D24*
X172500Y165000D03*
X180374D03*
X172500Y177500D03*
X180374D03*
G54D42*
X321000Y233000D03*
X377000Y-14000D03*
Y66000D03*
Y151000D03*
Y238000D03*
G54D16*
X92154Y48500D03*
X98846D03*
X92654Y73500D03*
X99346D03*
X227904Y46250D03*
X234596D03*
X227904Y52500D03*
X234596D03*
G54D25*
X212740Y130500D03*
X205260D03*
X212740Y142500D03*
X205260D03*
X328740Y107500D03*
X321260D03*
X346460Y14900D03*
X353940D03*
X345260Y37000D03*
X352740D03*
X342490Y107500D03*
X335010D03*
G54D34*
X297500Y158750D03*
G54D43*
X321000Y253000D03*
G54D17*
X160850Y46000D03*
X167150D03*
X175850D03*
X182150D03*
X241850Y64000D03*
X248150D03*
X272350Y96500D03*
Y103500D03*
X278650Y96500D03*
Y103500D03*
G54D35*
X300000Y192500D03*
G54D44*
X333000Y-20500D03*
G54D26*
X195000Y130000D03*
Y117500D03*
Y142500D03*
X311250Y-1250D03*
Y52500D03*
G54D27*
X247000Y91000D03*
G54D18*
X151000Y48260D03*
Y55740D03*
X230000Y22740D03*
Y15260D03*
X238000Y22260D03*
X246000Y14260D03*
Y21740D03*
X230000Y29260D03*
Y36740D03*
X246000Y37740D03*
Y30260D03*
X238000Y29740D03*
X292000Y14260D03*
Y21740D03*
X300000Y22260D03*
X292000Y37740D03*
Y30260D03*
X300000Y29740D03*
X297500Y133760D03*
Y141240D03*
X321250Y92510D03*
Y99990D03*
X342500Y92510D03*
Y99990D03*
X347700Y220760D03*
Y228240D03*
X361000Y22740D03*
Y15260D03*
Y36740D03*
Y29260D03*
G54D36*
X326441Y14504D03*
X323882D03*
X321323D03*
Y37496D03*
X323882D03*
X326441D03*
X336677Y14504D03*
X334118D03*
X331559D03*
X329000D03*
Y37496D03*
X331559D03*
X334118D03*
X336677D03*
G54D45*
X364008Y-26992D03*
Y-1008D03*
Y53008D03*
Y78992D03*
Y138008D03*
Y163992D03*
Y225008D03*
Y250992D03*
X389992Y-26992D03*
Y-1008D03*
Y53008D03*
Y78992D03*
Y138008D03*
Y163992D03*
Y225008D03*
Y250992D03*
G54D46*
G01X22000Y175898D02*
Y181500D01*
G01D02*
Y187102D01*
G01X15898Y181500D02*
X22000D01*
G01D02*
X28102D01*
G01X15898Y176415D02*
X22000Y181500D01*
G01D02*
X28102Y186585D01*
G01X15898D02*
X22000Y181500D01*
G01D02*
X28102Y176415D01*
G01X22000Y163500D02*
X53000D01*
G01Y175898D02*
Y181500D01*
G01D02*
Y187102D01*
G01X46898Y181500D02*
X53000D01*
G01D02*
X59102D01*
G01X46898Y176415D02*
X53000Y181500D01*
G01D02*
X59102Y186585D01*
G01X46898D02*
X53000Y181500D01*
G01D02*
X59102Y176415D01*
G01X48000Y198148D02*
Y205000D01*
G01D02*
Y211852D01*
G01X42155Y199155D02*
X48000Y205000D01*
G01D02*
X53845Y210845D01*
G01X42155D02*
X48000Y205000D01*
G01D02*
X53845Y199155D01*
G01X92500Y49500D02*
X92154Y49154D01*
Y48500D01*
G01X151000Y48260D02*
X99086D01*
X98846Y48500D01*
G01X99346Y68448D02*
Y73500D01*
G01D02*
Y78552D01*
G01Y73500D02*
X103998D01*
G01X99346D02*
X103362Y78552D01*
G01X99346Y73500D02*
X103362Y68448D01*
G01X92654D02*
Y73500D01*
G01D02*
Y78552D01*
G01X88002Y73500D02*
X92654D01*
G01X88638Y68448D02*
X92654Y73500D01*
G01X88638Y78552D02*
X92654Y73500D01*
G01X162357Y40948D02*
X167150Y46000D01*
G01X151000Y69150D02*
Y74102D01*
G01X145948Y69150D02*
X151000D01*
G01X145948Y64357D02*
X151000Y69150D01*
G01X145948Y73943D02*
X151000Y69150D01*
G01X175850Y40948D02*
Y46000D01*
G01D02*
Y51052D01*
G01X171057Y40948D02*
X175850Y46000D01*
G01X171057Y51052D02*
X175850Y46000D01*
G01D02*
X180643Y40948D01*
G01X167150D02*
Y46000D01*
G01D02*
Y51052D01*
G01Y46000D02*
X171943Y51052D01*
G01X167150Y46000D02*
X171943Y40948D01*
G01X190000Y45898D02*
Y50850D01*
G01Y70150D02*
Y75102D01*
G01X184948Y74943D02*
X190000Y70150D01*
G01X171000Y53348D02*
Y61000D01*
G01D02*
Y68652D01*
G01X181500Y68500D02*
Y72852D01*
G01X175398Y71043D02*
X181500Y68500D01*
G01X190000Y50850D02*
X195052D01*
G01X190000D02*
X195052Y46057D01*
G01X167969Y70448D02*
Y75000D01*
G01D02*
Y79552D01*
G01Y75000D02*
X172321D01*
G01X167969D02*
X171894Y79552D01*
G01X167969Y75000D02*
X171894Y70448D01*
G01X180374Y165000D02*
Y171202D01*
G01Y165000D02*
X186576D01*
G01X174989Y159615D02*
X180374Y165000D01*
G01D02*
X185759Y170385D01*
G01X174989D02*
X180374Y165000D01*
G01D02*
X185759Y159615D01*
G01X269000Y36200D02*
Y30200D01*
G01D02*
X268800Y30000D01*
G01X272457Y135000D02*
Y140952D01*
G01X267758D02*
X272457Y135000D01*
G01X260669Y156240D02*
Y161692D01*
G01X254817Y156240D02*
X260669D01*
G01X254817Y151239D02*
X260669Y156240D01*
G01D02*
X266521Y161241D01*
G01X254817D02*
X260669Y156240D01*
G01X269331Y143308D02*
Y148760D01*
G01D02*
X275183D01*
G01X263479Y143759D02*
X269331Y148760D01*
G01D02*
X275183Y143759D01*
G01X265543Y135000D02*
Y140952D01*
G01Y135000D02*
X270242Y140952D01*
G01X260844D02*
X265543Y135000D01*
G01X282750Y75748D02*
Y82000D01*
G01X277688Y75748D02*
X282750Y82000D01*
G01X278650Y91448D02*
Y96500D01*
G01D02*
X283602D01*
G01X278650D02*
X283443Y101552D01*
G01X278650Y96500D02*
X283443Y91448D01*
G01X282750Y82000D02*
Y88252D01*
G01X277688D02*
X282750Y82000D01*
G01X278650Y103500D02*
X283443Y108552D01*
G01X278650Y103500D02*
X283443Y98448D01*
G01X278650Y103500D02*
Y108552D01*
G01Y103500D02*
X283602D01*
G01X347700Y215608D02*
Y220760D01*
G01X341848D02*
X347700D01*
G01D02*
X353552D01*
G01X341848Y216397D02*
X347700Y220760D01*
G01D02*
X353552Y225123D01*
G01X341848D02*
X347700Y220760D01*
G01D02*
X353552Y216397D01*
G01X364008Y-35594D02*
Y-26992D01*
G01X356925Y-34075D02*
X364008Y-26992D01*
G01D02*
X371091Y-34075D01*
G01X364008Y-9610D02*
Y-1008D01*
G01X356925Y-8091D02*
X364008Y-1008D01*
G01X381390Y-26992D02*
X389992D01*
G01X364008D02*
Y-18390D01*
G01X355406Y-26992D02*
X364008D01*
G01D02*
X372610D01*
G01X364008D02*
X371091Y-19909D01*
G01X356925D02*
X364008Y-26992D01*
G01Y-1008D02*
Y7594D01*
G01X355406Y-1008D02*
X364008D01*
G01D02*
X371091Y6075D01*
G01X356925D02*
X364008Y-1008D01*
G01X381390D02*
X389992D01*
G01X364008Y44406D02*
Y53008D01*
G01X356925Y45925D02*
X364008Y53008D01*
G01D02*
X371091Y45925D01*
G01X364008Y70390D02*
Y78992D01*
G01X356925Y71909D02*
X364008Y78992D01*
G01D02*
X371091Y71909D01*
G01X381390Y53008D02*
X389992D01*
G01X364008D02*
Y61610D01*
G01X355406Y53008D02*
X364008D01*
G01D02*
X372610D01*
G01X364008D02*
X371091Y60091D01*
G01X356925D02*
X364008Y53008D01*
G01Y78992D02*
Y87594D01*
G01X355406Y78992D02*
X364008D01*
G01D02*
X372610D01*
G01X364008D02*
X371091Y86075D01*
G01X356925D02*
X364008Y78992D01*
G01X381390D02*
X389992D01*
G01X364008Y129406D02*
Y138008D01*
G01D02*
X371091Y130925D01*
G01X364008Y155390D02*
Y163992D01*
G01X356925Y156909D02*
X364008Y163992D01*
G01D02*
X371091Y156909D01*
G01X381390Y138008D02*
X389992D01*
G01X364008D02*
Y146610D01*
G01Y138008D02*
X372610D01*
G01X364008D02*
X371091Y145091D01*
G01X364008Y163992D02*
Y172594D01*
G01X355406Y163992D02*
X364008D01*
G01D02*
X372610D01*
G01X364008D02*
X371091Y171075D01*
G01X356925D02*
X364008Y163992D01*
G01X381390D02*
X389992D01*
G01X381390Y225008D02*
X389992D01*
G01X364008Y216406D02*
Y225008D01*
G01D02*
Y233610D01*
G01X355406Y225008D02*
X364008D01*
G01D02*
X372610D01*
G01X356925Y217925D02*
X364008Y225008D01*
G01D02*
X371091Y232091D01*
G01X356925D02*
X364008Y225008D01*
G01D02*
X371091Y217925D01*
G01X364008Y242390D02*
Y250992D01*
G01D02*
Y259594D01*
G01X355406Y250992D02*
X364008D01*
G01D02*
X372610D01*
G01X356925Y243909D02*
X364008Y250992D01*
G01D02*
X371091Y258075D01*
G01X356925D02*
X364008Y250992D01*
G01D02*
X371091Y243909D01*
G01X381390Y250992D02*
X389992D01*
G01Y-35594D02*
Y-26992D01*
G01X382909Y-34075D02*
X389992Y-26992D01*
G01Y-9610D02*
Y-1008D01*
G01X382909Y-8091D02*
X389992Y-1008D01*
G01Y-26992D02*
Y-18390D01*
G01X382909Y-19909D02*
X389992Y-26992D01*
G01Y-1008D02*
Y7594D01*
G01X382909Y6075D02*
X389992Y-1008D01*
G01Y44406D02*
Y53008D01*
G01Y70390D02*
Y78992D01*
G01X382909Y71909D02*
X389992Y78992D01*
G01Y53008D02*
Y61610D01*
G01X382909Y60091D02*
X389992Y53008D01*
G01Y78992D02*
Y87594D01*
G01X382909Y86075D02*
X389992Y78992D01*
G01Y129406D02*
Y138008D01*
G01X382909Y130925D02*
X389992Y138008D01*
G01Y155390D02*
Y163992D01*
G01X382909Y156909D02*
X389992Y163992D01*
G01Y138008D02*
Y146610D01*
G01X382909Y145091D02*
X389992Y138008D01*
G01Y163992D02*
Y172594D01*
G01X382909Y171075D02*
X389992Y163992D01*
G01Y216406D02*
Y225008D01*
G01D02*
Y233610D01*
G01X382909Y217925D02*
X389992Y225008D01*
G01X382909Y232091D02*
X389992Y225008D01*
G01Y242390D02*
Y250992D01*
G01D02*
Y259594D01*
G01X382909Y243909D02*
X389992Y250992D01*
G01X382909Y258075D02*
X389992Y250992D01*
G54D37*
X326250Y115207D03*
Y122293D03*
X341250Y115207D03*
Y122293D03*
X382500Y32707D03*
Y39793D03*
G54D19*
X160500Y68500D03*
Y63500D03*
Y58500D03*
Y53500D03*
X181500Y68500D03*
Y63500D03*
Y58500D03*
Y53500D03*
G54D28*
X244047Y77417D03*
X236173D03*
X238142D03*
X240110D03*
X242079D03*
X244047Y104583D03*
X236173D03*
X238142D03*
X240110D03*
X242079D03*
X255858Y77417D03*
X257827D03*
X246016D03*
X247984D03*
X249953D03*
X251921D03*
X253890D03*
X257827Y104583D03*
X255858D03*
X247984D03*
X246016D03*
X249953D03*
X251921D03*
X253890D03*
X335953Y-26406D03*
X333984D03*
X330047D03*
X332016D03*
X330047Y-14594D03*
X332016D03*
X333984D03*
X335953D03*
G54D47*
G01X89000Y91500D02*
X68000D01*
X65000Y94500D01*
Y150000D01*
X70000Y155000D01*
Y175000D01*
X78346Y183346D01*
X82500D01*
G01D02*
X115000D01*
G01X94000Y15000D02*
X92500Y16500D01*
Y49500D01*
G01X196000Y61000D02*
X192150Y57150D01*
X190000D01*
G01X252500Y7000D02*
X223000D01*
X207500Y22500D01*
Y58750D01*
X210000Y61250D01*
Y65000D01*
G01X225000Y96000D02*
X207250D01*
X196000Y84750D01*
Y63000D01*
G01X269000Y15800D02*
Y22000D01*
G01X297500Y122500D02*
Y133760D01*
G01X300000Y192500D02*
Y170000D01*
X297500Y167500D01*
Y158750D01*
G01X310000Y192500D02*
Y176250D01*
X317500Y168750D01*
Y158750D01*
G01X310000Y192500D02*
Y205000D01*
X321000Y216000D01*
Y233000D01*
G01Y253000D02*
X332900D01*
X347900Y238000D01*
G01D02*
X377000D01*
G01X347700Y228240D02*
Y237800D01*
X347900Y238000D01*
G01X361000Y26000D02*
Y29260D01*
G01Y26000D02*
Y22740D01*
G01X377000Y238000D02*
X376740Y237740D01*
G54D29*
X233417Y84110D03*
Y82142D03*
Y80173D03*
Y95921D03*
Y93953D03*
Y91984D03*
Y90016D03*
Y88047D03*
Y86079D03*
Y101827D03*
Y99858D03*
Y97890D03*
X260583Y80173D03*
Y82142D03*
Y84110D03*
Y88047D03*
Y86079D03*
Y95921D03*
Y93953D03*
Y90016D03*
Y91984D03*
Y101827D03*
Y99858D03*
Y97890D03*
X327094Y-17547D03*
Y-19516D03*
Y-23453D03*
Y-21484D03*
X338906Y-23453D03*
Y-17547D03*
Y-19516D03*
Y-21484D03*
G54D38*
X317500Y158750D03*
X307500D03*
G54D48*
G01X-12500Y-7000D02*
X22500D01*
G01X-2500Y-17000D02*
Y18000D01*
G01Y232500D02*
Y197500D01*
G01X-12500Y222500D02*
X22500D01*
G01X297500Y-62500D02*
Y-27500D01*
G01X287500Y-52500D02*
X322500D01*
G01X297500Y282500D02*
Y247500D01*
G01X287500Y272500D02*
X322500D01*
G01X412500Y-52500D02*
X377500D01*
G01X412500Y272500D02*
X377500D01*
G01X402500Y-62500D02*
Y-27500D01*
G01Y282500D02*
Y247500D01*
G54D39*
X323900Y134481D03*
Y145519D03*
X343600D03*
Y134481D03*
G54D49*
G01X181500Y58500D02*
X188650D01*
X190000Y57150D01*
G01X297500Y141240D02*
Y148750D01*
X307500Y158750D01*
G01X326250Y122293D02*
X315207D01*
X315000Y122500D01*
G01D02*
X311981Y125519D01*
Y138231D01*
X313750Y140000D01*
X323897D01*
G01X323900Y145519D02*
Y145150D01*
G01X341250Y122293D02*
X352293D01*
X352500Y122500D01*
G01D02*
X354269Y124269D01*
Y138231D01*
X352500Y140000D01*
X343596D01*
G01X377000Y151000D02*
X359749D01*
X354268Y145519D01*
X343600D01*
M02*
