G04 ================== begin FILE IDENTIFICATION RECORD ==================*
G04 Layout Name:  C:/tmp/20_047456e/worklib/02_047456e_top/physical/08_047456d.brd*
G04 Film Name:    l2_secondary*
G04 File Format:  Gerber RS274X*
G04 File Origin:  Cadence Allegro 17.2-S053*
G04 Origin Date:  Fri Aug 16 11:54:05 2019*
G04 *
G04 Layer:  VIA CLASS/BOTTOM*
G04 Layer:  PIN/BOTTOM*
G04 Layer:  ETCH/BOTTOM*
G04 Layer:  PACKAGE GEOMETRY/ETCH_BOTTOM*
G04 Layer:  BOARD GEOMETRY/LYR_BOTTOM*
G04 Layer:  BOARD GEOMETRY/TOOLING_CORNERS*
G04 Layer:  BOARD GEOMETRY/ROOT_NUMBER*
G04 *
G04 Offset:    (0.00 0.00)*
G04 Mirror:    No*
G04 Mode:      Positive*
G04 Rotation:  0*
G04 FullContactRelief:  No*
G04 UndefLineWidth:     8.00*
G04 ================== end FILE IDENTIFICATION RECORD ====================*
%FSLAX25Y25*MOIN*%
%IR0*IPPOS*OFA0.00000B0.00000*MIA0B0*SFA1.00000B1.00000*%
%ADD13C,.06*%
%ADD27C,.07*%
%ADD14C,.052*%
%ADD25C,.055*%
%ADD11C,.065*%
%ADD26C,.075*%
%ADD16R,.06X.06*%
%ADD28R,.07X.07*%
%ADD23R,.055X.055*%
%ADD12R,.065X.065*%
%ADD24R,.075X.075*%
%ADD10C,.03937*%
%ADD29C,.1*%
%ADD22R,.063X.051*%
%ADD17R,.055X.041*%
%ADD20R,.041X.055*%
%ADD18R,.051X.063*%
%ADD19R,.025X.029*%
%ADD21R,.039X.037*%
%ADD15R,.037X.039*%
%ADD30C,.02*%
%ADD31C,.03*%
%ADD32C,.05*%
%ADD33C,.015*%
%ADD34C,.025*%
%ADD35C,.008*%
%ADD36C,.006*%
%ADD40C,.0514*%
%ADD39C,.07404*%
%ADD42C,.08404*%
%ADD43C,.06904*%
%ADD37C,.07904*%
%ADD38R,.44648X.05148*%
%ADD41C,.15204*%
G75*
%LPD*%
G75*
G36*
G01X191080Y134775D02*
X191090Y134847D01*
G03X191102Y135000I-1089J162D01*
G01Y137799D01*
G02X192101Y138798I1000J-1D01*
G01X198000D01*
G03X198702Y139500I0J702D01*
G01Y145500D01*
G03X198000Y146202I-702J0D01*
G01X197101D01*
G02X196102Y147201I1J999D01*
G01Y154855D01*
X196319Y155280D01*
X196513Y155422D01*
G03X197570Y157500I-1514J2078D01*
G03X192430I-2570J0D01*
G03X193487Y155422I2571J0D01*
G01X193681Y155280D01*
X193898Y154855D01*
Y147201D01*
G02X192899Y146202I-1000J1D01*
G01X192101D01*
G02X191102Y147201I1J999D01*
G01Y148750D01*
G03X190779Y149529I-1101J0D01*
G01X188895Y151412D01*
G02X188602Y152119I707J707D01*
G01Y170374D01*
G03X188279Y171153I-1101J0D01*
G01X183615Y175817D01*
X183478Y176341D01*
X183552Y176603D01*
G03X183676Y177499I-3178J896D01*
G01Y177500D01*
G03X180374Y180802I-3302J0D01*
G03X177921Y179711I0J-3303D01*
G02X177179Y179381I-742J670D01*
G01X175695D01*
G02X174953Y179711I0J1000D01*
G03X172500Y180802I-2453J-2212D01*
G03Y174198I0J-3302D01*
G03X174953Y175289I0J3303D01*
G01X175094Y175446D01*
X175288Y175532D01*
G02X175695Y175619I408J-913D01*
G01X177073D01*
G02X177282Y175597I0J-1000D01*
G01X177586Y175532D01*
X177780Y175446D01*
X177921Y175289D01*
G03X180374Y174198I2453J2212D01*
G01X180375D01*
G03X181271Y174322I0J3302D01*
G01X181533Y174396D01*
X182057Y174259D01*
X186105Y170212D01*
G02X186398Y169505I-707J-707D01*
G01Y168636D01*
G02X185920Y167783I-1000J0D01*
G01X185697Y167647D01*
X185176Y167627D01*
X184942Y167746D01*
G02X184590Y168048I457J889D01*
G01X184588Y168050D01*
X184587Y168051D01*
G03X180374Y170202I-4213J-3050D01*
G03X176441Y168404I1J-5202D01*
G01X176331Y168277D01*
X176041Y168109D01*
X174660Y167842D01*
G02X174327Y167834I-190J982D01*
G01X174163Y167858D01*
X174012Y167935D01*
X174010Y167936D01*
G03X172500Y168302I-1511J-2936D01*
G03Y161698I0J-3302D01*
G03X174010Y162064I-1J3302D01*
G01X174012Y162065D01*
X174163Y162142D01*
X174327Y162166D01*
G02X174660Y162158I143J-990D01*
G01X176041Y161891D01*
X176331Y161723D01*
X176441Y161596D01*
G03X180374Y159798I3934J3404D01*
G03X183281Y160686I0J5202D01*
G01X183511Y160841D01*
X184064Y160870D01*
X185868Y159910D01*
G02X186398Y159027I-470J-883D01*
G01Y151250D01*
G03X186721Y150471I1101J0D01*
G01X188605Y148588D01*
G02X188822Y148263I-707J-707D01*
G01X188898Y148079D01*
Y147876D01*
G02X188475Y147059I-1000J0D01*
G01X186943Y145977D01*
X186463Y145910D01*
X186233Y145991D01*
G03X185002Y146202I-1232J-3491D01*
G01X185000D01*
G03X181298Y142500I0J-3702D01*
G03X181597Y141044I3702J1D01*
G01Y141042D01*
G02X181659Y140461I-920J-392D01*
G01Y140460D01*
G02X181384Y139942I-982J189D01*
G01X179221Y137779D01*
G03X178898Y137000I778J-779D01*
G01Y135376D01*
G02X178475Y134559I-1000J0D01*
G01X176943Y133477D01*
X176463Y133410D01*
X176233Y133491D01*
G03X175002Y133702I-1232J-3491D01*
G01X175000D01*
G03Y126298I0J-3702D01*
G01X175002D01*
G03X176233Y126509I-1J3702D01*
G01X176463Y126590D01*
X176943Y126523D01*
X178475Y125441D01*
G02X178898Y124624I-577J-817D01*
G01Y122876D01*
G02X178475Y122059I-1000J0D01*
G01X176943Y120977D01*
X176463Y120910D01*
X176233Y120991D01*
G03X175002Y121202I-1232J-3491D01*
G01X175000D01*
G03Y113798I0J-3702D01*
G03X177282Y114585I0J3702D01*
G01X177414Y114688D01*
X177730Y114797D01*
X177898D01*
G02X178898Y113797I0J-1000D01*
G01Y113300D01*
G03X179221Y112521I1101J0D01*
G01X180280Y111462D01*
G02X180524Y111063I-707J-707D01*
G01X180598Y110836D01*
X180561Y110599D01*
G03X180530Y110202I2539J-398D01*
G01Y110200D01*
G03X183100Y107630I2570J0D01*
G03X184653Y108152I0J2571D01*
G01X184832Y108288D01*
X185269Y108380D01*
X186990Y107972D01*
G02X187657Y107439I-231J-973D01*
G03X188696Y106335I2308J1131D01*
G01X188900Y106219D01*
X189162Y105832D01*
X189408Y104024D01*
G02X189415Y103956I-991J-136D01*
G02X189124Y103182I-998J-67D01*
G01X184438Y98495D01*
G02X183731Y98202I-707J707D01*
G01X82100D01*
G03X81321Y97879I0J-1101D01*
G01X58221Y74779D01*
G03X57898Y74000I778J-779D01*
G01Y19951D01*
G02X56899Y18952I-999J1D01*
G01X50750D01*
G03X50048Y18250I0J-702D01*
G01Y11750D01*
G03X50750Y11048I702J0D01*
G01X57182D01*
G02X57521Y10989I1J-1000D01*
G01X57985Y10822D01*
G02X58354Y10588I-338J-941D01*
G01X69235Y-293D01*
G02X69452Y-1383I-707J-707D01*
G01X69335Y-1664D01*
X68832Y-2000D01*
X3500D01*
G02X2500Y-1000I0J1000D01*
G01Y216500D01*
G02X2793Y217207I1000J0D01*
G02X3500Y217500I707J-707D01*
G01X283000D01*
G02X284000Y216500I0J-1000D01*
G01Y133414D01*
G02X283707Y132707I-1000J0D01*
G01X274293Y123293D01*
G03X274000Y122586I707J-707D01*
G01Y118161D01*
X273511Y117597D01*
X273140Y117545D01*
G03X270931Y115073I360J-2545D01*
G01X270919Y114667D01*
X270338Y114102D01*
X257651D01*
G02X256652Y115101I0J1000D01*
G01Y115953D01*
G02X256771Y116427I1000J1D01*
G01X256996Y116843D01*
G02X257255Y117153I881J-473D01*
G03X258052Y118800I-1305J1648D01*
G01Y122500D01*
G03X255950Y124602I-2102J0D01*
G01X252050D01*
G03X249950Y122570I0J-2101D01*
G01Y122568D01*
G02X249646Y121883I-1000J34D01*
G02X248950Y121602I-695J719D01*
G01X245550D01*
G03X243448Y119500I0J-2102D01*
G01Y116601D01*
G02X242449Y115602I-999J1D01*
G01X228051D01*
G02X227052Y116601I0J999D01*
G01Y120000D01*
G03X224950Y122102I-2102J0D01*
G01X221050D01*
G03X218948Y120000I0J-2102D01*
G01Y116300D01*
G03X218949Y116255I2102J24D01*
G01X218955Y116051D01*
X218808Y115674D01*
X217666Y114504D01*
G02X216950Y114202I-716J698D01*
G01X215750D01*
G03X214193Y113557I0J-2202D01*
G01X210930Y110293D01*
G02X210927Y110290I-709J706D01*
G02X210223Y110000I-704J710D01*
G01X210000D01*
X193995Y93995D01*
G02X193288Y93702I-707J707D01*
G01X187674D01*
G02X186750Y94319I0J1000D01*
G01X186634Y94600D01*
X186752Y95194D01*
X217279Y125721D01*
G03X217602Y126500I-778J779D01*
G01Y141000D01*
G03X217279Y141779I-1101J0D01*
G01X215779Y143279D01*
G03X215000Y143602I-779J-778D01*
G01X214822D01*
G03X212500Y145070I-2322J-1102D01*
G01X212498D01*
G03X211150Y144688I0J-2570D01*
G01X210919Y144545D01*
X210376Y144533D01*
X208614Y145517D01*
G02X208102Y146390I488J873D01*
G01Y172000D01*
G03X207779Y172779I-1101J0D01*
G01X177949Y202609D01*
G02X177715Y203655I707J707D01*
G01X177716Y203656D01*
Y203657D01*
G03X177952Y205000I-3716J1345D01*
G03X174000Y201048I-3952J0D01*
G03X175343Y201284I-2J3952D01*
G01X175345D01*
Y201285D01*
G02X176391Y201051I339J-941D01*
G01X205605Y171838D01*
G02X205898Y171131I-707J-707D01*
G01Y130369D01*
G02X205605Y129662I-1000J0D01*
G01X197438Y121495D01*
G02X196731Y121202I-707J707D01*
G01X192065D01*
G02X191066Y122201I0J999D01*
G01Y125036D01*
G03X191057Y125172I-1102J-5D01*
G01X191049Y125235D01*
Y125298D01*
G02X192049Y126298I1000J0D01*
G01X198000D01*
G03X198702Y127000I0J702D01*
G01Y131731D01*
G02X198995Y132438I1000J0D01*
G01X202779Y136221D01*
G03X203102Y137000I-778J779D01*
G01Y167000D01*
G03X202779Y167779I-1101J0D01*
G01X167949Y202609D01*
G02X167715Y203655I707J707D01*
G01X167716Y203656D01*
Y203657D01*
G03X167952Y205000I-3716J1345D01*
G03X164000Y201048I-3952J0D01*
G03X165343Y201284I-2J3952D01*
G01X165345D01*
Y201285D01*
G02X166391Y201051I339J-941D01*
G01X200605Y166838D01*
G02X200898Y166131I-707J-707D01*
G01Y137869D01*
G02X200605Y137162I-1000J0D01*
G01X197438Y133995D01*
G02X196731Y133702I-707J707D01*
G01X192080D01*
G02X191080Y134702I0J1000D01*
G01Y134775D01*
G37*
G36*
G01X82551Y22149D02*
G02X80862Y15841I-8417J-1126D01*
G01X84000Y14625D01*
X87138Y15841D01*
G02X85449Y22149I6728J5182D01*
G03X82551I-1449J-388D01*
G37*
G36*
G01X84870Y94398D02*
X85976D01*
G02X86976Y93398I0J-1000D01*
G01Y93111D01*
X86823Y92867D01*
G03X86430Y91500I2177J-1366D01*
G03X86695Y90362I2570J-1D01*
G01X86746Y90258D01*
X86798Y90035D01*
Y33326D01*
G02X86506Y32619I-1000J-1D01*
G01X82443Y28557D01*
G03X81798Y27000I1557J-1557D01*
G01Y19720D01*
G02X81780Y19529I-1000J-2D01*
G02X81318Y18008I-7647J1492D01*
G02X81123Y17709I-922J388D01*
G03X80048Y15000I2876J-2709D01*
G03X87952I3952J0D01*
G03X86877Y17709I-3951J0D01*
G02X86682Y18008I727J687D01*
G02X86220Y19529I7185J3013D01*
G02X86202Y19720I982J189D01*
G01Y25674D01*
G02X86494Y26381I1000J1D01*
G01X90557Y30443D01*
G03X91202Y32000I-1557J1557D01*
G01Y88298D01*
G02X92202Y89298I999J1D01*
G01X104884D01*
G02X105808Y88681I0J-1000D01*
G01X105925Y88400D01*
X105807Y87807D01*
X94293Y76293D01*
G03X94000Y75586I707J-707D01*
G01Y23414D01*
G03X94293Y22707I1000J0D01*
G01X94679Y22321D01*
G02X94918Y21289I-707J-707D01*
G01X94241Y19318D01*
X93797Y18957D01*
X93512Y18922D01*
G03X90048Y15000I488J-3922D01*
G03X97952I3952J0D01*
G03X97722Y16328I-3952J-1D01*
G01X97640Y16558D01*
X97706Y17040D01*
X98789Y18576D01*
G02X99606Y19000I817J-576D01*
G01X99725D01*
X100209Y18700D01*
X100601Y17909D01*
G02X100572Y16967I-896J-444D01*
G03X100048Y15000I3428J-1967D01*
G03X107952I3952J0D01*
G03X107722Y16328I-3952J-1D01*
G01X107640Y16558D01*
X107706Y17040D01*
X108789Y18576D01*
G02X109606Y19000I817J-576D01*
G01X109725D01*
X110209Y18700D01*
X110601Y17909D01*
G02X110572Y16967I-896J-444D01*
G03X110048Y15000I3428J-1967D01*
G03X117952I3952J0D01*
G03X117722Y16328I-3952J-1D01*
G01X117640Y16558D01*
X117706Y17040D01*
X118789Y18576D01*
G02X119606Y19000I817J-576D01*
G01X119725D01*
X120209Y18700D01*
X120601Y17909D01*
G02X120572Y16967I-896J-444D01*
G03X120048Y15000I3428J-1967D01*
G03X127952I3952J0D01*
G03X127722Y16328I-3952J-1D01*
G01X127640Y16558D01*
X127706Y17040D01*
X128789Y18576D01*
G02X129606Y19000I817J-576D01*
G01X139048D01*
G02X140048Y18000I0J-1000D01*
G01Y11750D01*
G03X140750Y11048I702J0D01*
G01X147250D01*
G03X147952Y11750I0J702D01*
G01Y18000D01*
G02X148952Y19000I1000J0D01*
G01X149440D01*
G02X150336Y18444I0J-1000D01*
G01X150601Y17909D01*
G02X150572Y16967I-896J-444D01*
G03X150048Y15000I3428J-1967D01*
G03X157952I3952J0D01*
G03X157722Y16328I-3952J-1D01*
G01X157640Y16558D01*
X157706Y17040D01*
X158789Y18576D01*
G02X159606Y19000I817J-576D01*
G01X159725D01*
X160209Y18700D01*
X160601Y17909D01*
G02X160572Y16967I-896J-444D01*
G03X160048Y15000I3428J-1967D01*
G03X167952I3952J0D01*
G03X167722Y16328I-3952J-1D01*
G01X167640Y16558D01*
X167706Y17040D01*
X168789Y18576D01*
G02X169606Y19000I817J-576D01*
G01X169725D01*
X170209Y18700D01*
X170601Y17909D01*
G02X170572Y16967I-896J-444D01*
G03X170048Y15000I3428J-1967D01*
G03X177952I3952J0D01*
G03X177722Y16328I-3952J-1D01*
G01X177640Y16558D01*
X177706Y17040D01*
X178789Y18576D01*
G02X179606Y19000I817J-576D01*
G01X179725D01*
X180209Y18700D01*
X180601Y17909D01*
G02X180572Y16967I-896J-444D01*
G03X180048Y15000I3428J-1967D01*
G03X187952I3952J0D01*
G03X187722Y16328I-3952J-1D01*
G01X187640Y16558D01*
X187706Y17040D01*
X188789Y18576D01*
G02X189606Y19000I817J-576D01*
G01X189725D01*
X190209Y18700D01*
X190601Y17909D01*
G02X190572Y16967I-896J-444D01*
G03X190048Y15000I3428J-1967D01*
G03X194000Y11048I3952J0D01*
G03X195992Y11587I0J3952D01*
G01X196224Y11722D01*
X196761Y11724D01*
X198498Y10727D01*
G02X199000Y9859I-498J-867D01*
G01Y2168D01*
G02X198000Y1168I-1000J0D01*
G01X77053D01*
G02X76346Y1461I0J1000D01*
G01X70394Y7413D01*
G02X70102Y8120I708J706D01*
G01Y9359D01*
G02X70518Y10171I1000J0D01*
G01X72033Y11260D01*
X72510Y11332D01*
X72739Y11254D01*
G03X74000Y11048I1259J3746D01*
G03Y18952I0J3952D01*
G03X71687Y18204I1J-3952D01*
G01X71559Y18112D01*
X71260Y18015D01*
X71102D01*
G02X70102Y19015I0J1000D01*
G01Y19500D01*
G03X69779Y20279I-1101J0D01*
G01X62894Y27163D01*
G02X62602Y27870I708J706D01*
G01Y72130D01*
G02X62894Y72837I1000J1D01*
G01X84163Y94106D01*
G02X84870Y94398I706J-708D01*
G37*
G36*
G01X303800Y267500D02*
X396400D01*
G02X397400Y266500I0J-1000D01*
G01Y258926D01*
G02X396867Y258042I-1000J0D01*
G01X395058Y257086D01*
X394503Y257118D01*
X394274Y257274D01*
G03X389992Y258595I-4283J-6282D01*
G03Y243389I0J-7603D01*
G03X394274Y244710I-1J7603D01*
G01X394503Y244866D01*
X395058Y244898D01*
X396867Y243942D01*
G02X397400Y243058I-467J-884D01*
G01Y232942D01*
G02X396867Y232058I-1000J0D01*
G01X395058Y231102D01*
X394503Y231134D01*
X394274Y231290D01*
G03X389992Y232611I-4283J-6282D01*
G03Y217405I0J-7603D01*
G03X394274Y218726I-1J7603D01*
G01X394503Y218882D01*
X395058Y218914D01*
X396867Y217958D01*
G02X397400Y217074I-467J-884D01*
G01Y171926D01*
G02X396867Y171042I-1000J0D01*
G01X395058Y170086D01*
X394503Y170118D01*
X394274Y170274D01*
G03X389992Y171595I-4283J-6282D01*
G03Y156389I0J-7603D01*
G03X394274Y157710I-1J7603D01*
G01X394503Y157866D01*
X395058Y157898D01*
X396867Y156942D01*
G02X397400Y156058I-467J-884D01*
G01Y145942D01*
G02X396867Y145058I-1000J0D01*
G01X395058Y144102D01*
X394503Y144134D01*
X394274Y144290D01*
G03X389992Y145611I-4283J-6282D01*
G03Y130405I0J-7603D01*
G03X394274Y131726I-1J7603D01*
G01X394503Y131882D01*
X395058Y131914D01*
X396867Y130958D01*
G02X397400Y130074I-467J-884D01*
G01Y94972D01*
G02X396783Y94048I-1000J0D01*
G01X396782D01*
G02X395692Y94265I-383J924D01*
G01X376310Y113648D01*
G03X375533Y113970I-778J-779D01*
G01X334327D01*
G03X333550Y113648I1J-1101D01*
G01X322712Y102810D01*
G02X321849Y102529I-707J707D01*
G03X321452Y102560I-398J-2539D01*
G01X321450D01*
G03X324020Y99990I0J-2570D01*
G01Y99992D01*
G03X323989Y100389I-2570J-1D01*
G01X323977Y100545D01*
G02X324270Y101252I1000J0D01*
G01X334492Y111475D01*
G02X335199Y111768I707J-707D01*
G01X374661D01*
G02X375368Y111475I0J-1000D01*
G01X395705Y91137D01*
G02X395998Y90430I-707J-707D01*
G01Y87717D01*
G02X395538Y86876I-1000J1D01*
G01X393906Y85829D01*
X393397Y85794D01*
X393164Y85901D01*
G03X389994Y86594I-3171J-6909D01*
G01X389992D01*
G03Y71390I0J-7602D01*
G01X389994D01*
G03X393164Y72083I-1J7602D01*
G01X393397Y72190D01*
X393906Y72155D01*
X395538Y71108D01*
G02X395998Y70267I-540J-842D01*
G01Y61733D01*
G02X395538Y60892I-1000J1D01*
G01X393906Y59845D01*
X393397Y59810D01*
X393164Y59917D01*
G03X389994Y60610I-3171J-6909D01*
G01X389992D01*
G03Y45406I0J-7602D01*
G01X389994D01*
G03X393164Y46099I-1J7602D01*
G01X393397Y46206D01*
X393906Y46171D01*
X395538Y45124D01*
G02X395998Y44283I-540J-842D01*
G01Y7717D01*
G02X395538Y6876I-1000J1D01*
G01X393906Y5829D01*
X393397Y5794D01*
X393164Y5901D01*
G03X389994Y6594I-3171J-6909D01*
G01X389992D01*
G03Y-8610I0J-7602D01*
G01X389994D01*
G03X393164Y-7917I-1J7602D01*
G01X393397Y-7810D01*
X393906Y-7845D01*
X395538Y-8892D01*
G02X395998Y-9733I-540J-842D01*
G01Y-18267D01*
G02X395538Y-19108I-1000J1D01*
G01X393906Y-20155D01*
X393397Y-20190D01*
X393164Y-20083D01*
G03X389994Y-19390I-3171J-6909D01*
G01X389992D01*
G03Y-34594I0J-7602D01*
G01X389994D01*
G03X393164Y-33901I-1J7602D01*
G01X393397Y-33794D01*
X393906Y-33829D01*
X395538Y-34876D01*
G02X395998Y-35717I-540J-842D01*
G01Y-36030D01*
G02X395705Y-36737I-1000J0D01*
G01X394337Y-38105D01*
G02X393630Y-38398I-707J707D01*
G01X349480D01*
G02X348707Y-38032I0J1000D01*
G01X347584Y-36661D01*
X347476Y-36226D01*
X347520Y-36005D01*
G03X346513Y-33422I-2520J505D01*
G01X346320Y-33281D01*
X346102Y-32854D01*
Y-18553D01*
G02X346426Y-17816I1000J0D01*
G01X347514Y-16819D01*
G02X348190Y-16556I676J-737D01*
G01X348276Y-16560D01*
G03X350578Y-15513I225J2560D01*
G01X350719Y-15320D01*
X351146Y-15102D01*
X355854D01*
X356281Y-15320D01*
X356422Y-15513D01*
G03X358500Y-16570I2078J1514D01*
G03Y-11430I0J2570D01*
G03X356422Y-12487I0J-2571D01*
G01X356281Y-12680D01*
X355854Y-12898D01*
X351146D01*
X350719Y-12680D01*
X350578Y-12487D01*
G03X348058Y-11468I-2078J-1513D01*
G01X347904Y-11495D01*
X347596Y-11453D01*
X346407Y-10884D01*
G02X345964Y-10467I431J902D01*
G03X345779Y-10221I-964J-533D01*
G01X340779Y-5221D01*
G03X340000Y-4898I-779J-778D01*
G01X328700D01*
G03X327921Y-5221I0J-1101D01*
G01X326762Y-6380D01*
G02X325899Y-6661I-707J707D01*
G03X325502Y-6630I-398J-2539D01*
G01X325500D01*
G03X328070Y-9200I0J-2570D01*
G01Y-9198D01*
G03X328039Y-8801I-2570J-1D01*
G02X328320Y-7938I988J156D01*
G01X328863Y-7395D01*
G02X329570Y-7102I707J-707D01*
G01X330715D01*
G02X331715Y-8102I0J-1000D01*
G01Y-8306D01*
X331635Y-8493D01*
G03X335825Y-11309I2365J-1007D01*
G02X335829Y-11305I709J-705D01*
G01X335831Y-11303D01*
G02X337245I707J-707D01*
G01X338680Y-12738D01*
G02X338961Y-13601I-707J-707D01*
G03X341724Y-16560I2539J-399D01*
G01X341934Y-16542D01*
X342331Y-16677D01*
X343574Y-17816D01*
G02X343898Y-18553I-676J-737D01*
G01Y-23447D01*
G02X343574Y-24184I-1000J0D01*
G01X342486Y-25181D01*
G02X341810Y-25444I-676J737D01*
G01X341724Y-25440D01*
G03X338961Y-28399I-224J-2560D01*
G01Y-28400D01*
G02X338680Y-29262I-988J-155D01*
G01X337245Y-30698D01*
G02X335831I-707J707D01*
G01X335827Y-30694D01*
G03X334000Y-29931I-1827J-1806D01*
G01X329124D01*
G03X327545Y-34621I-124J-2569D01*
G02X327898Y-35383I-647J-763D01*
G01Y-44500D01*
G03X328221Y-45279I1101J0D01*
G01X328635Y-45692D01*
G02X328852Y-46783I-707J-708D01*
G02X327928Y-47400I-924J383D01*
G01X303700D01*
G02X302700Y-46400I0J1000D01*
G01Y-19558D01*
G02X303317Y-18634I1000J0D01*
G02X304408Y-18851I383J-924D01*
G01X307335Y-21779D01*
G03X308114Y-22102I779J778D01*
G01X311630D01*
G02X312337Y-22395I0J-1000D01*
G01X312851Y-22909D01*
X312999Y-23365D01*
X312962Y-23601D01*
G03X313683Y-25817I2538J-400D01*
G01X317183Y-29317D01*
G03X319000Y-30070I1817J1816D01*
G03X321570Y-27500I0J2570D01*
G03X320817Y-25683I-2569J0D01*
G01X320395Y-25261D01*
G02X320102Y-24554I707J707D01*
G01Y-16446D01*
G02X320395Y-15739I1000J0D01*
G01X320817Y-15317D01*
G03Y-11683I-1816J1817D01*
G01X320395Y-11261D01*
G02X320102Y-10554I707J707D01*
G01Y2898D01*
G02X321102Y3898I1000J0D01*
G01X328998D01*
G02X329998Y2898I0J-1000D01*
G01Y1850D01*
G03X330700Y1148I702J0D01*
G01X335860D01*
X336304Y908D01*
X336443Y697D01*
G03X338200Y-252I1757J1152D01*
G01X343300D01*
G03X345402Y1850I0J2102D01*
G01Y8150D01*
G03X343300Y10252I-2102J0D01*
G01X341968D01*
G02X340968Y11252I0J1000D01*
G01Y11547D01*
X341287Y12041D01*
X341555Y12163D01*
G03X340959Y17032I-1059J2341D01*
G02X340370Y17375I179J984D01*
G01X339550Y18359D01*
G02X339318Y18999I768J640D01*
G01Y21548D01*
G02X340318Y22548I1000J0D01*
G01X340790D01*
G03X341492Y23250I0J702D01*
G01Y28750D01*
G03X341447Y28995I-702J-2D01*
G01X341384Y29164D01*
Y39454D01*
X341602Y39881D01*
X341796Y40022D01*
G03X340991Y44571I-1513J2078D01*
G01X340821Y44619D01*
X340534Y44828D01*
X339717Y46048D01*
G02X339554Y46714I831J556D01*
G01Y46715D01*
G03X334461Y46601I-2554J285D01*
G02X334180Y45738I-988J-156D01*
G01X333221Y44779D01*
G03X332898Y44000I778J-779D01*
G01Y30270D01*
G02X332605Y29563I-1000J0D01*
G01X332494Y29452D01*
X329210D01*
G03X328508Y28750I0J-702D01*
G01Y23250D01*
G03X329210Y22548I702J0D01*
G01X331148D01*
G02X332148Y21548I0J-1000D01*
G01Y9852D01*
G02X331148Y8852I-1000J0D01*
G01X330700D01*
G03X329998Y8150I0J-702D01*
G01Y7102D01*
G02X328998Y6102I-1000J0D01*
G01X316915D01*
G02X316169Y6436I0J1000D01*
G01X315033Y7709D01*
X314904Y8116D01*
X314928Y8329D01*
G03X307737Y9917I-3678J421D01*
G01X307655Y9670D01*
X307272Y9320D01*
X305362Y8868D01*
G02X304424Y9134I-231J973D01*
G01X303110Y10448D01*
G03X302333Y10770I-778J-779D01*
G01X298967D01*
G03X298190Y10448I1J-1101D01*
G01X294437Y6695D01*
G02X293730Y6402I-707J707D01*
G01X273653D01*
X273094Y6873D01*
X273033Y7233D01*
G03X272574Y8318I-2533J-432D01*
G01X272355Y8617D01*
X272412Y9354D01*
X272896Y9839D01*
G02X273492Y10125I706J-708D01*
G01X274901Y10283D01*
X275232Y10207D01*
X275376Y10116D01*
G03X275750Y10008I374J594D01*
G01X281250D01*
G03X281952Y10710I0J702D01*
G01Y14810D01*
G03X281797Y15249I-702J-1D01*
G01X281690Y15382D01*
X281577Y15704D01*
Y17296D01*
X281690Y17618D01*
X281797Y17751D01*
G03X281952Y18190I-547J440D01*
G01Y22290D01*
G03X281933Y22448I-701J-4D01*
G01Y22449D01*
G02X282125Y23295I975J224D01*
G01X283100Y24521D01*
G02X283882Y24898I782J-623D01*
G01X313354D01*
X313781Y24680D01*
X313922Y24487D01*
G03X316338Y28548I2078J1513D01*
G01X316112Y28578D01*
X315732Y28827D01*
X314688Y30554D01*
X314645Y31006D01*
X314724Y31221D01*
G03X308277Y30294I-3474J1279D01*
G01X308446Y30066D01*
X308495Y29502D01*
X307565Y27653D01*
G02X306672Y27102I-893J449D01*
G01X284939D01*
G02X283939Y28102I0J1000D01*
G01Y28163D01*
X283946Y28224D01*
G03X283952Y28310I-696J92D01*
G01Y32410D01*
G03X283797Y32849I-702J-1D01*
G01X283690Y32982D01*
X283577Y33304D01*
Y34896D01*
X283690Y35218D01*
X283797Y35351D01*
G03X283952Y35790I-547J440D01*
G01Y39890D01*
G03X283250Y40592I-702J0D01*
G01X282197D01*
X281618Y41146D01*
X281600Y41548D01*
G03X281279Y42279I-1100J-47D01*
G01X275579Y47979D01*
G03X274800Y48302I-779J-778D01*
G01X268400D01*
G03X267621Y47979I0J-1101D01*
G01X265262Y45620D01*
G02X264399Y45339I-707J707D01*
G03X264198Y45362I-392J-2540D01*
G01X264196D01*
G02X263542Y45680I80J997D01*
G01X262618Y46677D01*
G02X262352Y47355I734J679D01*
G01Y53754D01*
X262570Y54181D01*
X262763Y54322D01*
G03X263328Y54887I-1513J2078D01*
G01X263469Y55080D01*
X263896Y55298D01*
X281480D01*
G02X282187Y55005I0J-1000D01*
G01X294971Y42221D01*
G03X295750Y41898I779J778D01*
G01X305691D01*
G02X306337Y41661I0J-1000D01*
G03X306877Y41413I712J839D01*
G02X307247Y41274I-160J-987D01*
G01X307713Y40985D01*
G02X308050Y40638I-528J-850D01*
G03X308269Y44694I3200J1861D01*
G02X307794Y44343I-805J593D01*
G01X307195Y44134D01*
G02X306715Y44090I-329J944D01*
G03X306550Y44102I-162J-1090D01*
G01X296620D01*
G02X295913Y44395I0J1000D01*
G01X283129Y57179D01*
G03X282350Y57502I-779J-778D01*
G01X263896D01*
X263469Y57720D01*
X263328Y57913D01*
G03X260210Y58750I-2078J-1513D01*
G01X259978Y58648D01*
X259474Y58688D01*
X257856Y59741D01*
G02X257402Y60579I546J838D01*
G01Y61652D01*
G03X256929Y62979I-2101J-1D01*
G01X256739Y63345D01*
X256605Y63832D01*
G02X256569Y64097I964J266D01*
G01X256580Y64244D01*
G03X256602Y64550I-2080J303D01*
G01Y68450D01*
G03X254500Y70552I-2102J0D01*
G01X250800D01*
G03X250278Y70485I4J-2101D01*
G01X250163Y70463D01*
G02X249040Y71607I-135J991D01*
G03X244991Y74081I-2540J393D01*
G02X243697Y74183I-587J809D01*
G01X243266Y74614D01*
G03X242240Y75040I-1027J-1025D01*
G01X237694D01*
G02X236905Y75426I0J1000D01*
G01X235793Y76854D01*
X235699Y77308D01*
X235756Y77532D01*
G03X235820Y78049I-2037J515D01*
G02Y78051I1000J1D01*
G01Y80950D01*
G03X233719Y83052I-2102J0D01*
G01X231219D01*
G03X230042Y82691I1J-2102D01*
G02X229647Y82533I-560J828D01*
G01X229139Y82448D01*
G02X228976Y82435I-161J987D01*
G01X228701Y82473D01*
G03X226757Y82250I-701J-2473D01*
G02X226140Y82134I-484J875D01*
G01X225488Y82222D01*
G02X224937Y82483I132J991D01*
G03X223500Y83052I-1438J-1531D01*
G01X222923D01*
G02X221923Y84052I0J1000D01*
G01Y84391D01*
X222337Y84929D01*
X222665Y85017D01*
X222667Y85018D01*
G02X222858Y85050I260J-966D01*
G03X223312Y85260I-48J700D01*
G01X223460Y85385D01*
G03X223890Y85759I-1461J2114D01*
G02X225545Y85474I735J-678D01*
G03X226190Y85048I645J275D01*
G01X230290D01*
G03X230992Y85750I0J702D01*
G01Y90748D01*
G02X231992Y91748I1000J0D01*
G01X234800D01*
G03X236902Y93850I0J2102D01*
G01Y100150D01*
G03X234800Y102252I-2102J0D01*
G01X229700D01*
G03X227943Y101303I0J-2101D01*
G01X227804Y101092D01*
X227360Y100852D01*
X222200D01*
G03X221498Y100150I0J-702D01*
G01Y93850D01*
G03X221604Y93480I702J1D01*
G01Y93479D01*
G02X221755Y92952I-849J-528D01*
G01Y92537D01*
X221170Y91952D01*
X218710D01*
G03X218623Y91946I5J-702D01*
G01X217896Y92284D01*
G02X217529Y92577I423J906D01*
G03X212995Y90427I-2029J-1578D01*
G02X212962Y89869I-975J-222D01*
G03X212898Y89500I1038J-370D01*
G01Y82646D01*
X212680Y82219D01*
X212487Y82078D01*
G03X212415Y77977I1513J-2078D01*
G01X212596Y77835D01*
X212798Y77421D01*
Y77050D01*
G03X213500Y76348I702J0D01*
G01X217200D01*
G03X217203Y76349I-209J632D01*
G01X217842Y76005D01*
G02X218153Y75745I-473J-881D01*
G03X219800Y74948I1647J1303D01*
G01X223500D01*
G03X225412Y76178I0J2101D01*
G01X225789Y76609D01*
X226718Y77195D01*
G02X227268Y77349I533J-846D01*
G03X227281Y77348I60J697D01*
G01X228879D01*
X229323Y77108D01*
X229462Y76897D01*
G03X229618Y76689I1756J1154D01*
G02X229620Y76687I-706J-708D01*
G01X229735Y76551D01*
X229857Y76218D01*
Y76040D01*
G02X228857Y75040I-1000J0D01*
G01X228588D01*
G03X227562Y74614I1J-1451D01*
G01X219692Y66745D01*
G02X218985Y66452I-707J707D01*
G01X212937D01*
G02X212665Y66490I1J1000D01*
G02X212045Y66709I1452J5098D01*
G02X211756Y66896I391J921D01*
G03X207490Y65616I-1756J-1896D01*
G01X207484Y65599D01*
X207380Y65495D01*
G02X206673Y65202I-707J707D01*
G01X197465D01*
X197241Y65254D01*
X197138Y65305D01*
G03X196000Y65571I-1139J-2305D01*
G03Y60429I0J-2571D01*
G03X197138Y60695I-1J2571D01*
G01X197241Y60746D01*
X197465Y60798D01*
X207957D01*
G03X209557Y61443I42J2202D01*
G01X210419Y62304D01*
G02X210811Y62546I707J-707D01*
G03X211756Y63104I-812J2454D01*
G02X212045Y63291I680J-734D01*
G02X212665Y63510I2072J-4879D01*
G02X212937Y63548I273J-962D01*
G01X220000D01*
G03X221026Y63974I-1J1451D01*
G01X228896Y71843D01*
G02X229603Y72136I707J-707D01*
G01X230048D01*
G02X231048Y71136I0J-1000D01*
G01Y67190D01*
G03X231203Y66751I702J1D01*
G01X231310Y66618D01*
X231423Y66296D01*
Y64704D01*
X231310Y64382D01*
X231203Y64249D01*
G03X231048Y63810I547J-440D01*
G01Y59710D01*
G03X231750Y59008I702J0D01*
G01X231943D01*
X232659Y58706D01*
G03X232987Y58422I1840J1794D01*
G01X233180Y58281D01*
X233398Y57854D01*
Y50880D01*
G03X233721Y50101I1101J0D01*
G01X258601Y25221D01*
G03X258942Y24989I779J779D01*
G01X259117Y24914D01*
X259252Y24779D01*
G02X259251Y23365I-708J-706D01*
G01X250943Y15057D01*
G03X250298Y13500I1557J-1557D01*
G01Y12200D01*
G02X250005Y11493I-1000J0D01*
G01X248494Y9981D01*
G03X248202Y9276I708J-706D01*
G01Y8464D01*
X248254Y8241D01*
X248305Y8137D01*
G02X248043Y5441I-2305J-1137D01*
G01Y5440D01*
G03X247840Y4767I795J-607D01*
G03X248130Y4128I998J67D01*
G01X248163Y4094D01*
G03X248868Y3802I706J708D01*
G01X254932D01*
G03X255637Y4094I-1J1000D01*
G01X256658Y5115D01*
G02X258072I707J-707D01*
G01X258264Y4923D01*
X258401Y4397D01*
X258327Y4136D01*
G03X258234Y3286I2473J-701D01*
G01X258246Y3080D01*
X258106Y2691D01*
X256965Y1482D01*
G02X256238Y1168I-728J686D01*
G01X202000D01*
G02X201000Y2168I0J1000D01*
G01Y19586D01*
G03X200707Y20293I-1000J0D01*
G01X200293Y20707D01*
G03X199586Y21000I-707J-707D01*
G01X99414D01*
G02X98707Y21293I0J1000D01*
G01X96293Y23707D01*
G02X96000Y24414I707J707D01*
G01Y74586D01*
G02X96293Y75293I1000J0D01*
G01X110006Y89005D01*
G02X110713Y89298I707J-707D01*
G01X195250D01*
G03X196807Y89943I0J2202D01*
G01X212801Y105938D01*
G02X213516Y106230I706J-708D01*
G01X214942Y106219D01*
G02X215652Y105914I-9J-1000D01*
G01X215653Y105913D01*
G03X219005Y105617I1847J1787D01*
G01X219150Y105721D01*
X219491Y105817D01*
X220963Y105699D01*
G02X221590Y105410I-79J-997D01*
G01X221707Y105293D01*
G03X222414Y105000I707J707D01*
G01X243336D01*
G02X244043Y104707I0J-1000D01*
G01X245957Y102793D01*
G03X246664Y102500I707J707D01*
G01X269292D01*
X269732Y102266D01*
X269871Y102060D01*
G03X274131Y104936I2129J1440D01*
G01X274033Y105082D01*
X273948Y105421D01*
X274096Y106870D01*
G02X274392Y107483I995J-102D01*
G01X274920Y108000D01*
X275000D01*
X275707Y108707D01*
G03X276000Y109414I-707J707D01*
G01Y114396D01*
X276020Y114494D01*
G03X276070Y115000I-2520J504D01*
G03X276020Y115506I-2570J2D01*
G01X276000Y115604D01*
Y121586D01*
G02X276293Y122293I1000J0D01*
G01X285707Y131707D01*
G03X286000Y132414I-707J707D01*
G01Y216200D01*
G02X287000Y217200I1000J0D01*
G01X301800D01*
G03X302800Y218200I0J1000D01*
G01Y266500D01*
G02X303800Y267500I1000J0D01*
G37*
G36*
G01X91199Y92949D02*
G02X89509Y93401I-302J2255D01*
G01X88625Y91500D01*
X89509Y89599D01*
G02X91199Y90051I1388J-1803D01*
G03Y92949I-389J1449D01*
G37*
G36*
G01X90449Y89301D02*
G02X90901Y90991I2255J302D01*
G01X89000Y91875D01*
X87099Y90991D01*
G02X87551Y89301I-1803J-1388D01*
G03X90449I1449J389D01*
G37*
G36*
G01X214902Y65724D02*
G02X210509Y66900I-784J5864D01*
G01X209812Y65000D01*
X210509Y63100D01*
G02X214902Y64276I3609J-4688D01*
G03Y65724I-194J724D01*
G37*
G36*
G01X209470Y62421D02*
G02X210983Y63296I1805J-1376D01*
G01X210265Y65265D01*
X208296Y65983D01*
G02X207421Y64470I-2251J292D01*
G03X209470Y62421I1299J-750D01*
G37*
G36*
G01X198199Y64449D02*
G02X196509Y64901I-302J2255D01*
G01X195625Y63000D01*
X196509Y61099D01*
G02X198199Y61551I1388J-1803D01*
G03Y64449I-389J1449D01*
G37*
G36*
G01X240870Y65398D02*
X243194D01*
X243767Y64875D01*
X243801Y64488D01*
G03X244002Y64056I699J62D01*
G01X244142Y63915D01*
X244292Y63549D01*
Y63352D01*
G02X243292Y62352I-1000J0D01*
G01X242700D01*
G03X241998Y61650I0J-702D01*
G01Y55350D01*
G03X242700Y54648I702J0D01*
G01X247860D01*
X248304Y54409D01*
X248443Y54197D01*
G03X250200Y53248I1757J1152D01*
G01X255300D01*
G03X256931Y54025I-1J2102D01*
G01X257054Y54176D01*
X257395Y54364D01*
X259163Y54575D01*
X259539Y54473D01*
X259694Y54355D01*
G03X259737Y54322I1586J2022D01*
G01X259931Y54181D01*
X260148Y53754D01*
Y46920D01*
G02X259856Y46213I-1000J-1D01*
G01X259852Y46210D01*
G03X259530Y45431I779J-778D01*
G01Y41405D01*
G03X259852Y40626I1101J-1D01*
G01X261857Y38621D01*
G03X262636Y38298I779J778D01*
G01X270600D01*
G03X271379Y38621I0J1101D01*
G01X272908Y40150D01*
X273364Y40298D01*
X273601Y40261D01*
G03X274000Y40230I398J2539D01*
G03X274590Y40299I-2J2570D01*
G01X274813Y40351D01*
X275260Y40252D01*
X276669Y39136D01*
G02X277048Y38352I-621J-784D01*
G01Y35790D01*
G03X277203Y35351I702J1D01*
G01X277310Y35217D01*
X277423Y34897D01*
Y33303D01*
X277310Y32983D01*
X277203Y32849D01*
G03X277048Y32410I547J-440D01*
G01Y28310D01*
G03X277054Y28224I702J6D01*
G01X277061Y28163D01*
Y28102D01*
G02X276061Y27102I-1000J0D01*
G01X275252D01*
G02X274252Y28102I-1J1000D01*
G01Y32300D01*
G03X272150Y34402I-2102J0D01*
G01X265850D01*
G03X263748Y32300I0J-2102D01*
G01Y28102D01*
G02X262748Y27102I-999J0D01*
G01X260250D01*
G02X259543Y27394I-1J1000D01*
G01X235894Y51043D01*
G02X235602Y51750I708J706D01*
G01Y57854D01*
X235819Y58281D01*
X236013Y58422D01*
G03X236341Y58706I-1512J2078D01*
G02X237057Y59008I716J-698D01*
G01X237250D01*
G03X237952Y59710I0J702D01*
G01Y62480D01*
G02X238244Y63187I1000J1D01*
G01X240163Y65106D01*
G02X240870Y65398I706J-708D01*
G37*
G36*
G01X243688Y71350D02*
G02X245517Y70296I-349J-2720D01*
G01X246688Y72000D01*
X245517Y73704D01*
G02X243688Y72650I-2178J1666D01*
G03Y71350I375J-650D01*
G37*
G36*
G01X220801Y110551D02*
G02X222491Y110099I302J-2255D01*
G01X223375Y112000D01*
X222491Y113901D01*
G02X220801Y113449I-1388J1803D01*
G03Y110551I389J-1449D01*
G37*
G36*
G01X248703Y108609D02*
X248705Y108608D01*
G03X249350Y108398I647J891D01*
G01X255354D01*
X255781Y108180D01*
X255922Y107987D01*
G03X260560Y109724I2078J1513D01*
G01X260542Y109934D01*
X260677Y110331D01*
X261816Y111574D01*
G02X262553Y111898I737J-676D01*
G01X270484D01*
G02X271408Y111281I0J-1000D01*
G01X271524Y111001D01*
X271406Y110406D01*
X264494Y103495D01*
G02X263787Y103202I-707J707D01*
G01X246955D01*
G02X246248Y103495I0J1000D01*
G01X244334Y105409D01*
G03X243627Y105702I-707J-707D01*
G01X222705D01*
G02X221998Y105995I0J1000D01*
G01X220432Y107560D01*
G02X220151Y108113I707J707D01*
G03X220142Y108168I-2652J-406D01*
G02X220203Y108727I985J175D01*
G01X220300Y108962D01*
X220804Y109298D01*
X224950D01*
G03X225652Y110000I0J702D01*
G01Y112680D01*
G02X225945Y113387I1000J0D01*
G01X225956Y113398D01*
X243848D01*
G02X244848Y112398I0J-1000D01*
G01Y109500D01*
G03X245550Y108798I702J0D01*
G01X248118D01*
G02X248703Y108609I0J-1000D01*
G37*
G36*
G01X251051Y9199D02*
G02X250599Y7509I-2255J-302D01*
G01X252500Y6625D01*
X254401Y7509D01*
G02X253949Y9199I1803J1388D01*
G03X251051I-1449J-389D01*
G37*
G36*
G01X395279Y-40279D02*
X395693Y-39865D01*
G02X396783Y-39648I707J-707D01*
G01X397064Y-39764D01*
X397400Y-40268D01*
Y-46400D01*
G02X396400Y-47400I-1000J0D01*
G01X340072D01*
G02X339148Y-46783I0J1000D01*
G01X339032Y-46502D01*
X339150Y-45908D01*
X344163Y-40894D01*
G02X344870Y-40602I706J-708D01*
G01X394500D01*
G03X395279Y-40279I0J1101D01*
G37*
G36*
G01X334352Y9852D02*
Y22200D01*
G02X335352Y23200I1000J0D01*
G01X335582D01*
X335996Y22998D01*
X336138Y22817D01*
G03X336453Y22590I552J433D01*
G01X336751Y22483D01*
X337116Y21965D01*
Y16783D01*
G03X337438Y16004I1101J-1D01*
G01X337846Y15596D01*
X337994Y15140D01*
X337957Y14903D01*
G03X337926Y14504I2539J-398D01*
G03X339437Y12163I2569J0D01*
G01X339705Y12041D01*
X340024Y11547D01*
Y11252D01*
G02X339024Y10252I-1000J0D01*
G01X338200D01*
G03X336443Y9303I0J-2101D01*
G01X336304Y9091D01*
X335860Y8852D01*
X335352D01*
G02X334352Y9852I-1J1000D01*
G37*
%LPC*%
G75*
G36*
G01X43296Y208481D02*
G02X52704I4704J-3481D01*
G01X52825Y208318D01*
X53174Y208112D01*
X55000Y207868D01*
X55391Y207976D01*
X55551Y208102D01*
G02X58000Y208952I2449J-3103D01*
G02Y201048I0J-3952D01*
G02X55551Y201898I0J3953D01*
G01X55391Y202024D01*
X55000Y202132D01*
X53174Y201888D01*
X52825Y201682D01*
X52704Y201519D01*
G02X43296I-4704J3481D01*
G01X43175Y201682D01*
X42826Y201888D01*
X41000Y202132D01*
X40609Y202024D01*
X40449Y201898D01*
G02X38000Y201048I-2449J3103D01*
G02Y208952I0J3952D01*
G02X40449Y208102I0J-3953D01*
G01X40609Y207976D01*
X41000Y207868D01*
X42826Y208112D01*
X43175Y208318D01*
X43296Y208481D01*
G37*
G36*
G01X190750Y208952D02*
X197250D01*
G02X197952Y208250I0J-702D01*
G01Y201750D01*
G02X197250Y201048I-702J0D01*
G01X190750D01*
G02X190048Y201750I0J702D01*
G01Y208250D01*
G02X190750Y208952I702J0D01*
G37*
G36*
G01X150048Y205000D02*
G02X157952I3952J0D01*
G02X157781Y203850I-3952J0D01*
G03X157750Y203402I957J-291D01*
G01X157831Y202895D01*
G03X157953Y202552I988J158D01*
G02X158102Y202000I-953J-553D01*
G01Y160146D01*
X158319Y159719D01*
X158513Y159578D01*
G02X159570Y157500I-1514J-2078D01*
G02X154430I-2570J0D01*
G02X155487Y159578I2571J0D01*
G01X155681Y159719D01*
X155898Y160146D01*
Y199051D01*
G03X155612Y199750I-1000J-1D01*
G01X154490Y200890D01*
X154130Y201045D01*
X153933Y201049D01*
G02X150048Y205000I67J3951D01*
G37*
G36*
G01X104750Y208952D02*
X111250D01*
G02X111952Y208250I0J-702D01*
G01Y201750D01*
G02X111250Y201048I-702J0D01*
G01X104750D01*
G02X104048Y201750I0J702D01*
G01Y208250D01*
G02X104750Y208952I702J0D01*
G37*
G36*
G01X74048Y205000D02*
G02X81952I3952J0D01*
G02X79418Y201311I-3952J0D01*
G03X78931Y200912I358J-934D01*
G02X78779Y200721I-933J586D01*
G01X78191Y200134D01*
G03X77898Y199427I707J-707D01*
G01Y156573D01*
G03X78191Y155866I1000J0D01*
G01X83908Y150150D01*
X84364Y150002D01*
X84601Y150039D01*
G02X84998Y150070I398J-2539D01*
G01X85000D01*
G02X82430Y147500I0J-2570D01*
G01Y147502D01*
G02X82461Y147899I2570J-1D01*
G01X82498Y148136D01*
X82350Y148592D01*
X76018Y154924D01*
G02X75696Y155701I779J778D01*
G01Y200297D01*
G02X75726Y200554I1101J2D01*
G01Y201020D01*
X75583Y201622D01*
G03X75295Y202119I-973J-232D01*
G02X74048Y205000I2705J2881D01*
G37*
G36*
G01X64048D02*
G02X71952I3952J0D01*
G02X69478Y201335I-3952J0D01*
G03X68971Y200880I375J-927D01*
G02X68779Y200621I-971J519D01*
G01X68394Y200237D01*
G03X68102Y199532I708J-706D01*
G01Y146368D01*
G03X68394Y145663I1000J1D01*
G01X71408Y142650D01*
X71864Y142502D01*
X72101Y142539D01*
G02X72498Y142570I398J-2539D01*
G01X72500D01*
G02X69930Y140000I0J-2570D01*
G01Y140002D01*
G02X69961Y140399I2570J-1D01*
G01X69998Y140636D01*
X69850Y141092D01*
X66221Y144721D01*
G02X65898Y145500I778J779D01*
G01Y200400D01*
G02X65910Y200558I1102J-4D01*
G03X65875Y200998I-990J143D01*
G01X65698Y201567D01*
G03X65401Y202023I-955J-297D01*
G02X64048Y205000I2599J2977D01*
G37*
G36*
G01X144805Y183625D02*
G02X149945I2570J0D01*
G02X148888Y181547I-2571J0D01*
G01X148694Y181406D01*
X148476Y180979D01*
Y153896D01*
X148694Y153469D01*
X148888Y153328D01*
G02X149945Y151250I-1514J-2078D01*
G02X144805I-2570J0D01*
G02X145862Y153328I2571J0D01*
G01X146056Y153469D01*
X146274Y153896D01*
Y180979D01*
X146056Y181406D01*
X145862Y181547D01*
G02X144805Y183625I1514J2078D01*
G37*
G36*
G01X136180Y180000D02*
G02X141320I2570J0D01*
G02X140263Y177922I-2571J0D01*
G01X140069Y177781D01*
X139852Y177354D01*
Y137546D01*
X140069Y137119D01*
X140263Y136978D01*
G02X141320Y134900I-1514J-2078D01*
G02X136180I-2570J0D01*
G02X137237Y136978I2571J0D01*
G01X137431Y137119D01*
X137648Y137546D01*
Y177354D01*
X137431Y177781D01*
X137237Y177922D01*
G02X136180Y180000I1514J2078D01*
G37*
G36*
G01X118680Y147500D02*
G02X123820I2570J0D01*
G02X122763Y145422I-2571J0D01*
G01X122569Y145281D01*
X122352Y144854D01*
Y127646D01*
X122569Y127219D01*
X122763Y127078D01*
G02X123820Y125000I-1514J-2078D01*
G02X118680I-2570J0D01*
G02X119737Y127078I2571J0D01*
G01X119931Y127219D01*
X120148Y127646D01*
Y144854D01*
X119931Y145281D01*
X119737Y145422D01*
G02X118680Y147500I1514J2078D01*
G37*
G36*
G01X112430Y140000D02*
G02X117570I2570J0D01*
G02X116513Y137922I-2571J0D01*
G01X116319Y137781D01*
X116102Y137354D01*
Y121396D01*
X116319Y120969D01*
X116513Y120828D01*
G02X117570Y118750I-1514J-2078D01*
G02X112430I-2570J0D01*
G02X113487Y120828I2571J0D01*
G01X113681Y120969D01*
X113898Y121396D01*
Y137354D01*
X113681Y137781D01*
X113487Y137922D01*
G02X112430Y140000I1514J2078D01*
G37*
G36*
G01X152750Y123952D02*
X159250D01*
G02X159952Y123250I0J-702D01*
G01Y116750D01*
G02X159250Y116048I-702J0D01*
G01X152750D01*
G02X152048Y116750I0J702D01*
G01Y123250D01*
G02X152750Y123952I702J0D01*
G37*
G36*
G01X114800Y104430D02*
G02X117370Y107000I0J2570D01*
G02X117356Y106728I-2570J-4D01*
G01X117332Y106502D01*
X117482Y106075D01*
X119663Y103894D01*
G03X120368Y103602I706J708D01*
G01X179337D01*
X179787Y103850D01*
X179925Y104069D01*
G02X182100Y105270I2175J-1369D01*
G02X184670Y102700I0J-2570D01*
G02X182612Y100181I-2571J0D01*
G01X182299Y100118D01*
G02X181901I-199J980D01*
G01X181588Y100181D01*
G02X180135Y101043I512J2519D01*
G01X179992Y101213D01*
X179593Y101398D01*
X119500D01*
G02X118721Y101721I0J1101D01*
G01X116052Y104391D01*
X115569Y104535D01*
X115321Y104483D01*
G02X114803Y104430I-519J2517D01*
G01X114800D01*
G37*
G36*
G01X225826Y50987D02*
X225685Y51180D01*
X225258Y51398D01*
X220146D01*
X219719Y51180D01*
X219578Y50987D01*
G02X217500Y49930I-2078J1514D01*
G02Y55070I0J2570D01*
G02X219578Y54013I0J-2571D01*
G01X219719Y53820D01*
X220146Y53602D01*
X225258D01*
X225685Y53820D01*
X225826Y54013D01*
G02X227904Y55070I2078J-1514D01*
G02Y49930I0J-2570D01*
G02X225826Y50987I0J2571D01*
G37*
G36*
G01X308250Y56202D02*
X314250D01*
G02X314952Y55500I0J-702D01*
G01Y49500D01*
G02X314250Y48798I-702J0D01*
G01X308250D01*
G02X307548Y49500I0J702D01*
G01Y55500D01*
G02X308250Y56202I702J0D01*
G37*
G36*
G01X204172Y82237D02*
X204031Y82430D01*
X203604Y82648D01*
X180146D01*
X179719Y82430D01*
X179578Y82237D01*
G02X177500Y81180I-2078J1514D01*
G02Y86320I0J2570D01*
G02X179578Y85263I0J-2571D01*
G01X179719Y85070D01*
X180146Y84852D01*
X203604D01*
X204031Y85070D01*
X204172Y85263D01*
G02X206250Y86320I2078J-1514D01*
G02Y81180I0J-2570D01*
G02X204172Y82237I0J2571D01*
G37*
G36*
G01X257700Y90752D02*
X262800D01*
G02X264557Y89803I0J-2101D01*
G01X264696Y89592D01*
X265140Y89352D01*
X270300D01*
G02X271002Y88650I0J-702D01*
G01Y82350D01*
G02X270300Y81648I-702J0D01*
G01X265140D01*
X264696Y81408D01*
X264557Y81197D01*
G02X262800Y80248I-1757J1152D01*
G01X257700D01*
G02X255598Y82350I0J2102D01*
G01Y88650D01*
G02X257700Y90752I2102J0D01*
G37*
G36*
G01X334013Y97297D02*
X333820Y97156D01*
X333602Y96729D01*
Y85870D01*
G03X333895Y85163I1000J0D01*
G01X353579Y65479D01*
G02X353902Y64700I-778J-779D01*
G01Y44170D01*
G03X354195Y43463I1000J0D01*
G01X358279Y39379D01*
G02X358602Y38600I-778J-779D01*
G01Y31646D01*
X358820Y31219D01*
X359013Y31078D01*
G02X356995Y26480I-1513J-2078D01*
G01X356774Y26524D01*
X356339Y26416D01*
X354968Y25293D01*
G03X354602Y24519I634J-773D01*
G01Y23000D01*
G02X354538Y22631I-1102J1D01*
G03X354505Y22073I942J-336D01*
G02X350152Y19714I-2505J-573D01*
G01X350026Y19845D01*
X349698Y20000D01*
X348022Y20140D01*
X347673Y20040D01*
X347527Y19932D01*
G02X346399Y24539I-1527J2068D01*
G03X347262Y24820I156J988D01*
G01X348005Y25563D01*
G03X348298Y26270I-707J707D01*
G01Y26675D01*
G03X347298Y27675I-1000J0D01*
G01X347110D01*
X346935Y27606D01*
G02X344487Y32078I-936J2394D01*
G01X344680Y32219D01*
X344898Y32646D01*
Y53604D01*
X344680Y54031D01*
X344487Y54172D01*
G02X343430Y56250I1514J2078D01*
G02X348570I2570J0D01*
G02X347513Y54172I-2571J0D01*
G01X347320Y54031D01*
X347102Y53604D01*
Y51658D01*
G03X347421Y50926I1000J0D01*
G01X348493Y49928D01*
G03X349245Y49663I681J732D01*
G01X349246D01*
G02X349581Y49666I190J-2563D01*
G01X349787Y49654D01*
X350176Y49794D01*
X351384Y50935D01*
G03X351698Y51662I-686J728D01*
G01Y63830D01*
G03X351405Y64537I-1000J0D01*
G01X331721Y84221D01*
G02X331398Y85000I778J779D01*
G01Y96729D01*
X331180Y97156D01*
X330987Y97297D01*
G02X329930Y99375I1514J2078D01*
G02X335070I2570J0D01*
G02X334013Y97297I-2571J0D01*
G37*
G36*
G01X345725Y144072D02*
X345640Y143948D01*
X345552Y143661D01*
Y136339D01*
X345640Y136052D01*
X345725Y135928D01*
G02X346171Y134481I-2124J-1447D01*
G02X341029I-2571J0D01*
G02X341475Y135928I2570J0D01*
G01X341560Y136052D01*
X341648Y136339D01*
Y143661D01*
X341560Y143948D01*
X341475Y144072D01*
G02X341029Y145519I2124J1447D01*
G02X346171I2571J0D01*
G02X345725Y144072I-2570J0D01*
G37*
G36*
G01X314967Y156406D02*
G02X314049Y158750I2534J2344D01*
G02X320951I3451J0D01*
G02X320033Y156406I-3452J0D01*
G03X319843Y156108I735J-678D01*
G03X319471Y154878I6088J-2512D01*
G03X319452Y154684I981J-194D01*
G01Y152472D01*
G03X319745Y151765I1000J0D01*
G01X323413Y148097D01*
G03X323656Y147918I708J706D01*
G03X323770Y147861I1798J3454D01*
G03X324121Y147764I437J899D01*
G02X325885Y143434I-221J-2614D01*
G03X325852Y143333I2681J-932D01*
G01Y136339D01*
X325940Y136052D01*
X326025Y135928D01*
G02X326471Y134481I-2124J-1447D01*
G02X321329I-2571J0D01*
G02X321775Y135928I2570J0D01*
G01X321860Y136052D01*
X321948Y136339D01*
Y143333D01*
G03X321915Y143434I-2714J-831D01*
G02X321376Y144434I1985J1715D01*
G03X321121Y144869I-962J-272D01*
G01X316120Y149870D01*
G02X315548Y151250I1379J1380D01*
G01Y154684D01*
G03X315529Y154878I-1000J0D01*
G03X315157Y156108I-6460J-1282D01*
G03X314967Y156406I-925J-380D01*
G37*
G36*
G01X294750Y162202D02*
X300250D01*
G02X300952Y161500I0J-702D01*
G01Y156000D01*
G02X300250Y155298I-702J0D01*
G01X294750D01*
G02X294048Y156000I0J702D01*
G01Y161500D01*
G02X294750Y162202I702J0D01*
G37*
G36*
G01X354190Y197352D02*
X358290D01*
G02X360392Y195250I0J-2102D01*
G01Y189750D01*
G02X358290Y187648I-2102J0D01*
G01X354190D01*
G02X352371Y188698I0J2101D01*
G03X351289Y189173I-865J-501D01*
G03X351096Y189110I212J-977D01*
G02X350810Y189048I-288J640D01*
G01X346469D01*
G03X345483Y189710I-4288J-5321D01*
G03X344517I-483J-876D01*
G03X343531Y189048I3302J-5983D01*
G01X339190D01*
G02X338498Y189635I0J701D01*
G01X338438Y189998D01*
X337879Y190471D01*
X337097D01*
X336511Y189886D01*
Y189498D01*
G03X336152Y189021I3014J-2642D01*
G03X336044Y188168I842J-540D01*
G03X337202Y186029I6520J2147D01*
G01Y181690D01*
G02X337047Y181251I-702J1D01*
G01X336940Y181118D01*
X336827Y180796D01*
Y179204D01*
X336940Y178882D01*
X337047Y178749D01*
G02X337202Y178310I-547J-440D01*
G01Y173969D01*
G03X335997Y171706I5322J-4286D01*
G03X335952Y171410I955J-297D01*
G01Y166587D01*
G03X335973Y166385I1000J2D01*
G03X336298Y165296I6438J1328D01*
G03X336488Y164991I930J368D01*
G02X337452Y162500I-2738J-2492D01*
G02X330048I-3702J0D01*
G02X331012Y164991I3702J-1D01*
G03X331202Y165296I-740J673D01*
G03X331527Y166385I-6113J2417D01*
G03X331548Y166587I-979J204D01*
G01Y171410D01*
G03X331503Y171706I-1000J-1D01*
G03X330298Y173969I-6527J-2023D01*
G01Y178310D01*
G02X330453Y178749I702J-1D01*
G01X330560Y178882D01*
X330673Y179204D01*
Y180796D01*
X330560Y181118D01*
X330453Y181251D01*
G02X330298Y181690I547J440D01*
G01Y186031D01*
G03X331468Y188176I-5361J4316D01*
G03X331359Y189035I-949J316D01*
G03X331325Y189085I-3331J-2228D01*
G03X331061Y189353I-832J-555D01*
G03X329206Y190253I-3876J-5628D01*
G03X328910Y190298I-297J-955D01*
G01X325989D01*
G03X325811Y190282I0J-1000D01*
G03X323427Y189541I1817J-10052D01*
G03X323135Y189339I414J-910D01*
G02X316550Y189687I-3135J3161D01*
G01X316407Y189862D01*
X316001Y190055D01*
X313999D01*
X313593Y189862D01*
X313450Y189687D01*
G02X306286Y190045I-3450J2813D01*
G01Y190046D01*
G03X305451Y190494I-834J-552D01*
G01X305037D01*
X304452Y189909D01*
Y188750D01*
G02X303750Y188048I-702J0D01*
G01X296250D01*
G02X295548Y188750I0J702D01*
G01Y196250D01*
G02X296250Y196952I702J0D01*
G01X303750D01*
G02X304452Y196250I0J-702D01*
G01Y195506D01*
G03X305452Y194506I1000J0D01*
G01X305704D01*
X306146Y194744D01*
X306286Y194955D01*
G02X313450Y195313I3714J-2455D01*
G01X313593Y195138D01*
X313999Y194945D01*
X316001D01*
X316407Y195138D01*
X316550Y195313D01*
G02X323135Y195661I3450J-2813D01*
G03X323427Y195459I706J708D01*
G03X325811Y194718I4201J9311D01*
G03X325989Y194702I178J984D01*
G01X328910D01*
G03X329206Y194747I-1J1000D01*
G03X331469Y195952I-2023J6527D01*
G01X335810D01*
G02X336249Y195797I-1J-702D01*
G01X336382Y195690D01*
X336704Y195577D01*
X338296D01*
X338618Y195690D01*
X338751Y195797D01*
G02X339190Y195952I440J-547D01*
G01X343531D01*
G03X344517Y195290I4288J5321D01*
G03X345483I483J876D01*
G03X346469Y195952I-3302J5983D01*
G01X350810D01*
G02X351096Y195890I-2J-702D01*
G03X351289Y195827I405J914D01*
G03X352371Y196302I217J976D01*
G02X354190Y197352I1819J-1051D01*
G37*
G36*
G01X317500Y257202D02*
X324500D01*
G02X325202Y256500I0J-702D01*
G01Y249500D01*
G02X324500Y248798I-702J0D01*
G01X317500D01*
G02X316798Y249500I0J702D01*
G01Y256500D01*
G02X317500Y257202I702J0D01*
G37*
G54D40*
X97750Y107250D03*
G54D39*
X175000Y142500D03*
X311250Y18750D03*
X371400Y33300D03*
X297500Y122500D03*
X315000D03*
X352500D03*
X347900Y238000D03*
G54D42*
X377000Y-14000D03*
Y66000D03*
Y151000D03*
X321000Y233000D03*
X377000Y238000D03*
G54D43*
X307500Y158750D03*
G54D37*
X184000Y205000D03*
X144000D03*
X134000D03*
X124000D03*
X98000D03*
X88000D03*
X28000D03*
X18000D03*
X156000Y140000D03*
Y130000D03*
G54D38*
X247800Y197450D03*
G54D41*
X364008Y-26992D03*
Y-1008D03*
Y53008D03*
Y78992D03*
Y138008D03*
Y163992D03*
Y225008D03*
Y250992D03*
%LPD*%
G75*
G36*
G01X318707Y152630D02*
G02X320155Y158039I7223J965D01*
G01X317500Y159062D01*
X314845Y158039D01*
G02X316293Y152630I-5775J-4444D01*
G03X318707I1207J324D01*
G37*
G36*
G01X325107Y142050D02*
G02X325800Y144641I3462J462D01*
G01X323900Y145462D01*
X322000Y144641D01*
G02X322693Y142050I-2769J-2129D01*
G03X325107I1207J324D01*
G37*
G36*
G01X320227Y146773D02*
G02X322279Y144041I-2255J-3831D01*
G01X324134Y144943D01*
X324884Y146854D01*
G02X321852Y148605I584J4512D01*
G03X320227Y146773I-625J-1082D01*
G37*
G36*
G01X322693Y137581D02*
G02X322000Y134990I-3462J-462D01*
G01X323900Y134168D01*
X325800Y134990D01*
G02X325107Y137581I2769J2129D01*
G03X322693I-1207J-324D01*
G37*
G36*
G01X329081Y193949D02*
G02X320970Y196121I-1449J10819D01*
G01X319625Y192500D01*
X320970Y188879D01*
G02X329081Y191051I6662J-8647D01*
G03Y193949I-388J1449D01*
G37*
G36*
G01X326285Y191208D02*
G02X331710Y189750I898J-7482D01*
G01X334135Y192500D01*
X331710Y195250D01*
G02X326285Y193792I-4527J6024D01*
G03Y191208I762J-1292D01*
G37*
G36*
G01X344807Y142419D02*
G02X345500Y145010I3462J462D01*
G01X343600Y145832D01*
X341700Y145010D01*
G02X342393Y142419I-2769J-2129D01*
G03X344807I1207J324D01*
G37*
G36*
G01X342393Y137581D02*
G02X341700Y134990I-3462J-462D01*
G01X343600Y134168D01*
X345500Y134990D01*
G02X344807Y137581I2769J2129D01*
G03X342393I-1207J-324D01*
G37*
G36*
G01X335042Y168785D02*
G02X336500Y174210I7482J898D01*
G01X333750Y176635D01*
X331000Y174210D01*
G02X332458Y168785I-6024J-4527D01*
G03X335042I1292J762D01*
G37*
G36*
G01X332301Y168684D02*
G02X330853Y163276I-7211J-967D01*
G01X333750Y162125D01*
X336647Y163276D01*
G02X335199Y168684I5763J4441D01*
G03X332301I-1449J-388D01*
G37*
G36*
G01X332467Y191250D02*
G02X331000Y185790I-7530J-904D01*
G01X333749Y183365D01*
X336500Y185790D01*
G02X335056Y191245I6064J4524D01*
G03X332467Y191250I-1296J-755D01*
G37*
G36*
G01X341285Y191208D02*
G02X346710Y189750I898J-7482D01*
G01X349135Y192500D01*
X346710Y195250D01*
G02X341285Y193792I-4527J6024D01*
G03Y191208I762J-1292D01*
G37*
G36*
G01X348715Y193792D02*
G02X343290Y195250I-898J7482D01*
G01X340865Y192500D01*
X343290Y189750D01*
G02X348715Y191208I4527J-6024D01*
G03Y193792I-762J1292D01*
G37*
G36*
G01X334821Y186639D02*
G02X335810Y189750I4705J217D01*
G01X333760Y192875D01*
X331710Y189750D01*
G02X332699Y186639I-3716J-2894D01*
G03X334821I1061J1061D01*
G37*
G54D10*
X6500Y4500D03*
X23500Y4000D03*
X5000Y23500D03*
X22500Y23000D03*
X16000Y151000D03*
X4740Y151236D03*
X29000Y149500D03*
X16000Y171500D03*
X4740Y171236D03*
X22540Y211236D03*
X5200Y211000D03*
X22540Y191236D03*
X4740D03*
X42500Y4000D03*
X40500Y23500D03*
X53500D03*
X48000Y149500D03*
X42540Y211236D03*
X40700Y187900D03*
X83500Y68500D03*
Y85000D03*
X82540Y131236D03*
X74000Y112700D03*
X72500Y140000D03*
X63631Y159200D03*
X82540Y211236D03*
X62540D03*
X101000Y43000D03*
X101500Y30000D03*
X101588Y65936D03*
X89000Y91500D03*
X110000Y112000D03*
X97750Y107250D03*
X110000Y132000D03*
X85000Y147500D03*
X98750Y176250D03*
X102540Y211236D03*
X121500Y43000D03*
X121588Y25936D03*
Y65936D03*
X131000Y84000D03*
X116000D03*
X122540Y111236D03*
X114800Y107000D03*
X121250Y125000D03*
X115000Y118750D03*
X121250Y147500D03*
X115000Y140000D03*
X122540Y211236D03*
X161588Y25936D03*
X141588D03*
X144985Y69385D03*
X150900Y75100D03*
X142500Y54500D03*
X158000Y84000D03*
X144000D03*
X164000Y108500D03*
X143000Y108000D03*
X165000Y154131D03*
X147375Y151250D03*
X138750Y134900D03*
X157000Y157500D03*
X147375Y183625D03*
X138750Y180000D03*
X162540Y211236D03*
X142540D03*
X162540Y191236D03*
X171000Y46000D03*
X181588Y25936D03*
X172500Y75000D03*
X190000Y51000D03*
X171000Y61000D03*
X169000Y63000D03*
X173000D03*
X169000Y59000D03*
X173000D03*
X183750Y80000D03*
X171250Y83750D03*
X192500Y97500D03*
X182100Y102700D03*
X177500Y83750D03*
X189964Y108571D03*
X183100Y110200D03*
X182540Y211236D03*
X213750Y7500D03*
X196000Y26500D03*
X212500Y38750D03*
X196250Y40000D03*
X213750Y26250D03*
X196000Y63000D03*
X210000Y65000D03*
Y71250D03*
X213750Y57500D03*
X217500Y52500D03*
X200469Y78750D03*
X215000Y101250D03*
X206250Y83750D03*
X215500Y91000D03*
X214000Y80000D03*
X217500Y107700D03*
X212740Y130500D03*
X195000Y157500D03*
X212500Y142500D03*
X202540Y211236D03*
Y191236D03*
X222600Y20500D03*
X224000Y29200D03*
X246500Y72000D03*
X226250Y61250D03*
X234500Y60500D03*
X240700Y69869D03*
X227904Y52500D03*
X246000Y58000D03*
X234500Y69240D03*
X225000Y96000D03*
X247000Y91000D03*
X242798Y93044D03*
Y83044D03*
X228000Y80000D03*
X226999Y89001D03*
X222000Y87500D03*
X223000Y112000D03*
X224500Y130500D03*
X230416Y109417D03*
X223500Y140500D03*
X242540Y171236D03*
Y211236D03*
X222540D03*
X242540Y191236D03*
X222540D03*
X252500Y7000D03*
X269000Y22000D03*
X260800Y3436D03*
X270500Y6800D03*
X268800Y30000D03*
X274000Y42800D03*
X264000D03*
X265000Y61250D03*
X262500Y76000D03*
X272500Y73750D03*
X261250Y56400D03*
X252798Y93044D03*
Y83044D03*
X268000Y86000D03*
X272000Y103500D03*
X273500Y115000D03*
X256800Y128200D03*
X263500Y123500D03*
X273900Y123900D03*
X264000Y109000D03*
X258000Y109500D03*
X269000Y135000D03*
X250000Y155000D03*
X265000Y142500D03*
X262540Y171236D03*
Y211236D03*
Y191236D03*
X297700Y17200D03*
X300800Y6300D03*
X292500Y61250D03*
X277500D03*
X292798Y53044D03*
X282700Y74800D03*
X283750Y90000D03*
X283000Y82000D03*
X297500Y82500D03*
Y90000D03*
X279000Y96500D03*
Y103500D03*
X283750Y107500D03*
X278500Y120500D03*
X289000Y133000D03*
Y153000D03*
X275000Y142500D03*
X289000Y173000D03*
Y193000D03*
X288000Y215500D03*
X304500Y-32300D03*
X322600Y-45500D03*
X304500D03*
X322500Y-32000D03*
X319000Y-27500D03*
Y-13500D03*
X304525Y-22175D03*
X325500Y-9200D03*
X308000Y-14000D03*
X315500Y-10000D03*
Y-24000D03*
Y-17000D03*
X316000Y38000D03*
Y26000D03*
X317000Y61000D03*
X322568Y72944D03*
X303750Y68750D03*
Y101250D03*
X312500Y95000D03*
X310000Y80000D03*
X327500Y86250D03*
X321450Y99990D03*
X317500Y115000D03*
X307500Y138750D03*
X323900Y134481D03*
Y145150D03*
X304500Y233000D03*
Y253000D03*
X327500Y258500D03*
X342800Y-45500D03*
X352900D03*
X329000Y-32500D03*
X345000Y-35500D03*
X334000Y-32500D03*
X333000Y-20500D03*
X348000Y-6500D03*
X350000Y-30000D03*
X348500Y-14000D03*
X341500Y-28000D03*
Y-14000D03*
X334000Y-9500D03*
X333000Y5000D03*
X341000D03*
X340496Y14504D03*
X346000Y22000D03*
X352000Y21500D03*
X337000Y47000D03*
X331559Y50000D03*
X340283Y42100D03*
X346000Y30000D03*
X349431Y47100D03*
X353500Y37000D03*
X336250Y56250D03*
X335000Y75000D03*
X346000Y56250D03*
X346250Y83750D03*
X337500Y86250D03*
X352500Y96250D03*
X332500Y99375D03*
X343600Y134481D03*
Y145519D03*
X339500Y214300D03*
X340900Y232600D03*
X344200Y263200D03*
X363100Y-45500D03*
X382900D03*
X358500Y-14000D03*
X367500Y21500D03*
X380500D03*
X367801Y43601D03*
X357500Y29000D03*
X364000Y66000D03*
Y91500D03*
X377500Y93750D03*
X367500Y109500D03*
X364000Y127500D03*
X367500Y118750D03*
X381250Y117500D03*
X377100Y164000D03*
X364000Y175500D03*
X363750Y183750D03*
X376200Y201900D03*
X364000Y194000D03*
Y213000D03*
X356100Y233200D03*
X364000Y263500D03*
X395500Y-45500D03*
X389500Y14000D03*
X390000Y40500D03*
Y66000D03*
Y91500D03*
X387500Y107500D03*
X390000Y127500D03*
Y175500D03*
Y194000D03*
Y213000D03*
Y238000D03*
Y263500D03*
G54D20*
X228240Y88500D03*
X220760D03*
X338740Y26000D03*
X331260D03*
X348760Y192500D03*
X341240D03*
X333760D03*
X356240D03*
G54D11*
X18000Y205000D03*
X28000D03*
X38000D03*
X48000D03*
X58000D03*
X84000Y15000D03*
X74000D03*
X64000D03*
X68000Y205000D03*
X78000D03*
X104000Y15000D03*
X94000D03*
X88000Y205000D03*
X98000D03*
X124000Y15000D03*
X114000D03*
X124000Y205000D03*
X134000D03*
X164000Y15000D03*
X154000D03*
X156000Y130000D03*
Y140000D03*
X144000Y205000D03*
X154000D03*
X164000D03*
X194000Y15000D03*
X184000D03*
X174000D03*
Y205000D03*
X184000D03*
G54D30*
G01X48000Y198148D02*
Y205000D01*
G01D02*
Y211852D01*
G01X42155Y199155D02*
X48000Y205000D01*
G01D02*
X53845Y210845D01*
G01X42155D02*
X48000Y205000D01*
G01D02*
X53845Y199155D01*
G01X180374Y158798D02*
Y165000D01*
G01D02*
Y171202D01*
G01X174989Y159615D02*
X180374Y165000D01*
G01X174989Y170385D02*
X180374Y165000D01*
G01X216857Y73948D02*
X221650Y79000D01*
G01X217948Y118150D02*
X223000D01*
G01X217948Y122943D02*
X223000Y118150D01*
G01X221650Y73948D02*
Y79000D01*
G01X232469Y79500D02*
Y84052D01*
G01Y79500D02*
X236821D01*
G01X232469D02*
X236394Y84052D01*
G01X232250Y90748D02*
Y97000D01*
G01D02*
Y103252D01*
G01Y97000D02*
X237902D01*
G01X232250D02*
X237312Y103252D01*
G01X227188D02*
X232250Y97000D01*
G01D02*
X237312Y90748D01*
G01X223000Y118150D02*
Y123102D01*
G01Y118150D02*
X228052D01*
G01X223000D02*
X228052Y122943D01*
G01X242448Y117650D02*
X247500D01*
G01X242448Y122443D02*
X247500Y117650D01*
G01X269000Y29750D02*
Y35402D01*
G01X262748Y29750D02*
X269000D01*
G01D02*
X275252D01*
G01X269000D02*
X275252Y34812D01*
G01X262748D02*
X269000Y29750D01*
G01X252750Y52248D02*
Y58500D01*
G01X252650Y66500D02*
Y71552D01*
G01Y66500D02*
X257602D01*
G01X252650D02*
X257443Y71552D01*
G01X252650Y66500D02*
X257443Y61448D01*
G01X247688Y52248D02*
X252750Y58500D01*
G01D02*
X257812Y64752D01*
G01X252750Y58500D02*
X257812Y52248D01*
G01X260250Y79248D02*
Y85500D01*
G01D02*
Y91752D01*
G01X254598Y85500D02*
X260250D01*
G01X255188Y79248D02*
X260250Y85500D01*
G01D02*
X265312Y91752D01*
G01X255188D02*
X260250Y85500D01*
G01D02*
X265312Y79248D01*
G01X247500Y117650D02*
Y122602D01*
G01X254000Y120650D02*
Y125602D01*
G01Y120650D02*
X259052D01*
G01X254000D02*
X259052Y125443D01*
G01X248948D02*
X254000Y120650D01*
G01D02*
X259052Y115857D01*
G01X335688Y11252D02*
X340750Y5000D01*
G01Y-1252D02*
Y5000D01*
G01D02*
X346402D01*
G01X335688Y-1252D02*
X340750Y5000D01*
G01D02*
X345812Y11252D01*
G01X340750Y5000D02*
X345812Y-1252D01*
G01X351877Y186648D02*
X356240Y192500D01*
G01X351877Y198352D02*
X356240Y192500D01*
G01X364008Y-35594D02*
Y-26992D01*
G01X356925Y-34075D02*
X364008Y-26992D01*
G01D02*
X371091Y-34075D01*
G01X364008Y-9610D02*
Y-1008D01*
G01X356925Y-8091D02*
X364008Y-1008D01*
G01D02*
X371091Y-8091D01*
G01X381390Y-26992D02*
X389992D01*
G01X364008D02*
Y-18390D01*
G01X355406Y-26992D02*
X364008D01*
G01D02*
X372610D01*
G01X364008D02*
X371091Y-19909D01*
G01X356925D02*
X364008Y-26992D01*
G01Y-1008D02*
Y7594D01*
G01X355406Y-1008D02*
X364008D01*
G01D02*
X372610D01*
G01X364008D02*
X371091Y6075D01*
G01X356925D02*
X364008Y-1008D01*
G01X381390D02*
X389992D01*
G01X364008Y44406D02*
Y53008D01*
G01X356925Y45925D02*
X364008Y53008D01*
G01D02*
X371091Y45925D01*
G01X364008Y70390D02*
Y78992D01*
G01X356925Y71909D02*
X364008Y78992D01*
G01D02*
X371091Y71909D01*
G01X381390Y53008D02*
X389992D01*
G01X364008D02*
Y61610D01*
G01X355406Y53008D02*
X364008D01*
G01D02*
X372610D01*
G01X364008D02*
X371091Y60091D01*
G01X356925D02*
X364008Y53008D01*
G01Y78992D02*
Y87594D01*
G01X355406Y78992D02*
X364008D01*
G01D02*
X372610D01*
G01X364008D02*
X371091Y86075D01*
G01X356925D02*
X364008Y78992D01*
G01X381390D02*
X389992D01*
G01X364008Y129406D02*
Y138008D01*
G01X356925Y130925D02*
X364008Y138008D01*
G01D02*
X371091Y130925D01*
G01X364008Y155390D02*
Y163992D01*
G01X356925Y156909D02*
X364008Y163992D01*
G01D02*
X371091Y156909D01*
G01X381390Y138008D02*
X389992D01*
G01X364008D02*
Y146610D01*
G01X355406Y138008D02*
X364008D01*
G01D02*
X372610D01*
G01X364008D02*
X371091Y145091D01*
G01X356925D02*
X364008Y138008D01*
G01Y163992D02*
Y172594D01*
G01X355406Y163992D02*
X364008D01*
G01D02*
X372610D01*
G01X364008D02*
X371091Y171075D01*
G01X356925D02*
X364008Y163992D01*
G01X381390D02*
X389992D01*
G01X356240Y186648D02*
Y192500D01*
G01D02*
Y198352D01*
G01Y192500D02*
X361392D01*
G01X356240D02*
X360603Y198352D01*
G01X356240Y192500D02*
X360603Y186648D01*
G01X381390Y225008D02*
X389992D01*
G01X364008Y216406D02*
Y225008D01*
G01D02*
Y233610D01*
G01X355406Y225008D02*
X364008D01*
G01D02*
X372610D01*
G01X356925Y217925D02*
X364008Y225008D01*
G01D02*
X371091Y232091D01*
G01X356925D02*
X364008Y225008D01*
G01D02*
X371091Y217925D01*
G01X364008Y242390D02*
Y250992D01*
G01D02*
Y259594D01*
G01X355406Y250992D02*
X364008D01*
G01D02*
X372610D01*
G01X356925Y243909D02*
X364008Y250992D01*
G01D02*
X371091Y258075D01*
G01X356925D02*
X364008Y250992D01*
G01D02*
X371091Y243909D01*
G01X381390Y250992D02*
X389992D01*
G01Y-35594D02*
Y-26992D01*
G01X382909Y-34075D02*
X389992Y-26992D01*
G01Y-9610D02*
Y-1008D01*
G01X382909Y-8091D02*
X389992Y-1008D01*
G01Y-26992D02*
Y-18390D01*
G01X382909Y-19909D02*
X389992Y-26992D01*
G01Y-1008D02*
Y7594D01*
G01X382909Y6075D02*
X389992Y-1008D01*
G01Y44406D02*
Y53008D01*
G01X382909Y45925D02*
X389992Y53008D01*
G01Y70390D02*
Y78992D01*
G01X382909Y71909D02*
X389992Y78992D01*
G01Y53008D02*
Y61610D01*
G01X382909Y60091D02*
X389992Y53008D01*
G01Y78992D02*
Y87594D01*
G01X382909Y86075D02*
X389992Y78992D01*
G01Y129406D02*
Y138008D01*
G01X382909Y130925D02*
X389992Y138008D01*
G01Y155390D02*
Y163992D01*
G01X382909Y156909D02*
X389992Y163992D01*
G01Y138008D02*
Y146610D01*
G01X382909Y145091D02*
X389992Y138008D01*
G01Y163992D02*
Y172594D01*
G01X382909Y171075D02*
X389992Y163992D01*
G01Y216406D02*
Y225008D01*
G01D02*
Y233610D01*
G01X382909Y217925D02*
X389992Y225008D01*
G01X382909Y232091D02*
X389992Y225008D01*
G01Y242390D02*
Y250992D01*
G01D02*
Y259594D01*
G01X382909Y243909D02*
X389992Y250992D01*
G01X382909Y258075D02*
X389992Y250992D01*
G54D21*
X223000Y111850D03*
Y118150D03*
X247500Y117650D03*
Y111350D03*
X254000Y114350D03*
Y120650D03*
G54D12*
X54000Y15000D03*
X108000Y205000D03*
X144000Y15000D03*
X156000Y120000D03*
X194000Y205000D03*
G54D31*
G01X89000Y91500D02*
Y32000D01*
X84000Y27000D01*
G01D02*
Y15000D01*
G01X89000Y91500D02*
X195250D01*
X215750Y112000D01*
X217500D01*
G01X196000Y63000D02*
X208000D01*
X210000Y65000D01*
G01X217500Y112000D02*
X223000D01*
G01X252500Y7000D02*
Y13500D01*
X261000Y22000D01*
X269000D01*
G01X333760Y192500D02*
X320000D01*
G01X333750Y176260D02*
Y162500D01*
G01Y183740D02*
X333760Y183750D01*
Y192500D01*
G01X348760D02*
X341240D01*
G54D22*
X269000Y22250D03*
Y29750D03*
G54D13*
X175000Y130000D03*
X185000D03*
X175000Y117500D03*
X185000D03*
X175000Y142500D03*
X185000D03*
X297500Y122500D03*
X311250Y18750D03*
Y8750D03*
Y32500D03*
Y42500D03*
X315000Y122500D03*
X334000Y-42000D03*
X352500Y122500D03*
X333750Y162500D03*
X347900Y238000D03*
X371400Y33300D03*
G54D32*
G01X-12500Y-7000D02*
X22500D01*
G01X-2500Y-17000D02*
Y18000D01*
G01Y232500D02*
Y197500D01*
G01X-12500Y222500D02*
X22500D01*
G01X297500Y-62500D02*
Y-27500D01*
G01X287500Y-52500D02*
X322500D01*
G01X297500Y282500D02*
Y247500D01*
G01X287500Y272500D02*
X322500D01*
G01X412500Y-52500D02*
X377500D01*
G01X412500Y272500D02*
X377500D01*
G01X402500Y-62500D02*
Y-27500D01*
G01Y282500D02*
Y247500D01*
G54D23*
X297500Y158750D03*
G54D14*
X172500Y165000D03*
X180374D03*
X172500Y177500D03*
X180374D03*
G54D33*
G01X210000Y65000D02*
X220000D01*
X228588Y73588D01*
X242240D01*
X243828Y72000D01*
X246500D01*
G54D15*
X215350Y79000D03*
X246350Y66500D03*
X221650Y79000D03*
X252650Y66500D03*
G54D24*
X300000Y192500D03*
G54D34*
G01X317500Y158750D02*
Y151250D01*
X323600Y145150D01*
X323900D01*
G01Y134481D02*
Y145150D01*
G01X343600Y134481D02*
Y145519D01*
G54D16*
X195000Y130000D03*
Y117500D03*
Y142500D03*
X311250Y-1250D03*
Y52500D03*
G54D25*
X317500Y158750D03*
X307500D03*
G54D35*
G01X96100Y310400D02*
X91100D01*
Y320400D01*
X96100D01*
G01X94100Y315567D02*
X91100D01*
G01X100475Y320400D02*
X103600Y310400D01*
X106725Y320400D01*
G01X110475Y310400D02*
X113600Y320400D01*
X116725Y310400D01*
G01X115600Y313900D02*
X111600D01*
G01X121100Y320400D02*
Y310400D01*
X126100D01*
G01X131975Y313733D02*
X135225D01*
G01X140475Y310400D02*
X143600Y320400D01*
X146725Y310400D01*
G01X145600Y313900D02*
X141600D01*
G01X150850Y310400D02*
Y320400D01*
X153350D01*
X154350Y319900D01*
X155100Y319233D01*
X155725Y318233D01*
X156225Y317066D01*
X156350Y315400D01*
X156225Y313733D01*
X155725Y312567D01*
X155100Y311566D01*
X154350Y310900D01*
X153350Y310400D01*
X150850D01*
G01X160850Y311900D02*
X161600Y311067D01*
X162475Y310567D01*
X163600Y310400D01*
X164725Y310733D01*
X165600Y311400D01*
X166225Y312567D01*
X166350Y313900D01*
X166100Y315233D01*
X165475Y316067D01*
X164600Y316733D01*
X163725Y316900D01*
X162850Y316733D01*
X161725Y316067D01*
X162100Y320400D01*
X165475D01*
G01X171475Y311566D02*
X172350Y310733D01*
X173350Y310400D01*
X174350Y310733D01*
X175225Y311733D01*
X175850Y313233D01*
X176100Y314733D01*
Y316567D01*
X175850Y318067D01*
X175225Y319400D01*
X174475Y320067D01*
X173600Y320400D01*
X172600Y320067D01*
X171850Y319400D01*
X171350Y318400D01*
X171100Y317066D01*
X171350Y315900D01*
X171975Y314733D01*
X172725Y314066D01*
X173600Y313900D01*
X174600Y314233D01*
X175350Y315067D01*
X176100Y316567D01*
G01X185100Y310400D02*
Y320400D01*
X180475Y313233D01*
X186725D01*
G01X193600Y310400D02*
Y320400D01*
X192100Y318400D01*
G01Y310400D02*
X195100D01*
G01X204600Y315733D02*
X205100Y316233D01*
X205475Y317066D01*
X205725Y318233D01*
X205475Y319233D01*
X204975Y319900D01*
X204100Y320400D01*
X200725D01*
Y310400D01*
X204850D01*
X205725Y311067D01*
X206225Y312067D01*
X206475Y313233D01*
X206225Y314400D01*
X205475Y315400D01*
X204600Y315733D01*
X200725D01*
G01X210475Y310400D02*
X213600Y320400D01*
X216725Y310400D01*
G01X215600Y313900D02*
X211600D01*
G01X223600Y320400D02*
Y310400D01*
G01X220725Y320400D02*
X226475D01*
G01X231225D02*
X235975D01*
X231225Y310400D01*
X235975D01*
G01X251100D02*
Y320400D01*
X254225D01*
X255225Y319900D01*
X255850Y319233D01*
X256100Y317900D01*
X255850Y316567D01*
X255100Y315733D01*
X254225Y315233D01*
X251100D01*
G01X254225D02*
X256100Y310400D01*
G01X266100D02*
X261100D01*
Y320400D01*
X266100D01*
G01X264100Y315567D02*
X261100D01*
G01X270475Y320400D02*
X273600Y310400D01*
X276725Y320400D01*
G01X281975Y313733D02*
X285225D01*
G01X290850Y310400D02*
Y320400D01*
X293350D01*
X294350Y319900D01*
X295100Y319233D01*
X295725Y318233D01*
X296225Y317066D01*
X296350Y315400D01*
X296225Y313733D01*
X295725Y312567D01*
X295100Y311566D01*
X294350Y310900D01*
X293350Y310400D01*
X290850D01*
G01X138600Y340400D02*
X137600Y340067D01*
X136850Y339233D01*
X136350Y338233D01*
X135975Y336900D01*
X135850Y335400D01*
X135975Y333900D01*
X136350Y332567D01*
X136850Y331566D01*
X137600Y330733D01*
X138600Y330400D01*
X139600Y330733D01*
X140350Y331566D01*
X140850Y332567D01*
X141225Y333900D01*
X141350Y335400D01*
X141225Y336900D01*
X140850Y338233D01*
X140350Y339233D01*
X139600Y340067D01*
X138600Y340400D01*
G01X148600Y330400D02*
X149475Y330567D01*
X150475Y331067D01*
X151100Y331900D01*
X151350Y333067D01*
X151100Y334233D01*
X150350Y335233D01*
X149225Y335733D01*
X147975D01*
X147225Y336067D01*
X146600Y336900D01*
X146350Y338067D01*
X146725Y339233D01*
X147600Y340067D01*
X148600Y340400D01*
X149600Y340067D01*
X150475Y339233D01*
X150850Y338067D01*
X150600Y336900D01*
X149975Y336067D01*
X149225Y335733D01*
X147975D01*
X146850Y335233D01*
X146100Y334233D01*
X145850Y333067D01*
X146100Y331900D01*
X146725Y331067D01*
X147725Y330567D01*
X148600Y330400D01*
G01X156975Y333733D02*
X160225D01*
G01X226975D02*
X230225D01*
G01X238600Y340400D02*
X237600Y340067D01*
X236850Y339233D01*
X236350Y338233D01*
X235975Y336900D01*
X235850Y335400D01*
X235975Y333900D01*
X236350Y332567D01*
X236850Y331566D01*
X237600Y330733D01*
X238600Y330400D01*
X239600Y330733D01*
X240350Y331566D01*
X240850Y332567D01*
X241225Y333900D01*
X241350Y335400D01*
X241225Y336900D01*
X240850Y338233D01*
X240350Y339233D01*
X239600Y340067D01*
X238600Y340400D01*
G01X246225Y338733D02*
X246975Y339733D01*
X247850Y340233D01*
X248850Y340400D01*
X250100Y340067D01*
X250975Y339233D01*
X251225Y338233D01*
X251100Y337233D01*
X250600Y336400D01*
X248100Y334733D01*
X246975Y333567D01*
X246225Y331900D01*
X245975Y330400D01*
X251225D01*
G01X136100Y360400D02*
Y350400D01*
X141100D01*
G01X146225Y358733D02*
X146975Y359733D01*
X147850Y360233D01*
X148850Y360400D01*
X150100Y360067D01*
X150975Y359233D01*
X151225Y358233D01*
X151100Y357233D01*
X150600Y356400D01*
X148100Y354733D01*
X146975Y353567D01*
X146225Y351900D01*
X145975Y350400D01*
X151225D01*
G01X165975Y351733D02*
X166975Y350900D01*
X168100Y350400D01*
X169100D01*
X170100Y350900D01*
X170850Y351733D01*
X171225Y352900D01*
X170975Y354066D01*
X170350Y355067D01*
X169225Y355733D01*
X167725Y356067D01*
X166850Y356733D01*
X166475Y357900D01*
X166725Y359067D01*
X167350Y359900D01*
X168225Y360400D01*
X169100D01*
X169975Y360067D01*
X170725Y359233D01*
G01X181100Y350400D02*
X176100D01*
Y360400D01*
X181100D01*
G01X179100Y355567D02*
X176100D01*
G01X191350Y359567D02*
X190600Y360067D01*
X189725Y360400D01*
X188725D01*
X187600Y359900D01*
X186725Y359067D01*
X186100Y358067D01*
X185600Y356400D01*
X185475Y354900D01*
X185725Y353400D01*
X186100Y352400D01*
X186850Y351400D01*
X187725Y350733D01*
X188600Y350400D01*
X189475D01*
X190350Y350733D01*
X191100Y351233D01*
X191725Y351900D01*
G01X198600Y350400D02*
X197600Y350567D01*
X196725Y351233D01*
X195975Y352233D01*
X195475Y353400D01*
X195225Y354733D01*
Y356067D01*
X195475Y357400D01*
X195975Y358567D01*
X196725Y359567D01*
X197600Y360233D01*
X198600Y360400D01*
X199600Y360233D01*
X200475Y359567D01*
X201225Y358567D01*
X201725Y357400D01*
X201975Y356067D01*
Y354733D01*
X201725Y353400D01*
X201225Y352233D01*
X200475Y351233D01*
X199600Y350567D01*
X198600Y350400D01*
G01X205725D02*
Y360400D01*
X211475Y350400D01*
Y360400D01*
G01X215850Y350400D02*
Y360400D01*
X218350D01*
X219350Y359900D01*
X220100Y359233D01*
X220725Y358233D01*
X221225Y357066D01*
X221350Y355400D01*
X221225Y353733D01*
X220725Y352567D01*
X220100Y351566D01*
X219350Y350900D01*
X218350Y350400D01*
X215850D01*
G01X225475D02*
X228600Y360400D01*
X231725Y350400D01*
G01X230600Y353900D02*
X226600D01*
G01X236100Y350400D02*
Y360400D01*
X239225D01*
X240225Y359900D01*
X240850Y359233D01*
X241100Y357900D01*
X240850Y356567D01*
X240100Y355733D01*
X239225Y355233D01*
X236100D01*
G01X239225D02*
X241100Y350400D01*
G01X248600D02*
Y354900D01*
X246100Y360400D01*
G01X251100D02*
X248600Y354900D01*
G01X168600Y340400D02*
X167600Y340067D01*
X166850Y339233D01*
X166350Y338233D01*
X165975Y336900D01*
X165850Y335400D01*
X165975Y333900D01*
X166350Y332567D01*
X166850Y331566D01*
X167600Y330733D01*
X168600Y330400D01*
X169600Y330733D01*
X170350Y331566D01*
X170850Y332567D01*
X171225Y333900D01*
X171350Y335400D01*
X171225Y336900D01*
X170850Y338233D01*
X170350Y339233D01*
X169600Y340067D01*
X168600Y340400D01*
G01X180100Y330400D02*
Y340400D01*
X175475Y333233D01*
X181725D01*
G01X188350Y330400D02*
X188600Y332567D01*
X188975Y334400D01*
X189475Y336067D01*
X190100Y337900D01*
X191100Y340400D01*
X186100D01*
G01X200100Y330400D02*
Y340400D01*
X195475Y333233D01*
X201725D01*
G01X205850Y331900D02*
X206600Y331067D01*
X207475Y330567D01*
X208600Y330400D01*
X209725Y330733D01*
X210600Y331400D01*
X211225Y332567D01*
X211350Y333900D01*
X211100Y335233D01*
X210475Y336067D01*
X209600Y336733D01*
X208725Y336900D01*
X207850Y336733D01*
X206725Y336067D01*
X207100Y340400D01*
X210475D01*
G01X216225Y334566D02*
X217100Y335733D01*
X217850Y336400D01*
X218850Y336733D01*
X219725Y336400D01*
X220350Y335733D01*
X220850Y334733D01*
X220975Y333567D01*
X220850Y332567D01*
X220350Y331566D01*
X219600Y330733D01*
X218725Y330400D01*
X217725Y330733D01*
X216850Y331733D01*
X216350Y333233D01*
X216225Y334900D01*
X216475Y337066D01*
X216850Y338233D01*
X217475Y339400D01*
X218350Y340233D01*
X219225Y340400D01*
X220100Y340067D01*
X220725Y339233D01*
G01X212740Y130500D02*
Y126140D01*
X196250Y108750D01*
X184600Y97100D01*
X82100D01*
X59000Y74000D01*
Y11500D01*
X71933Y-1433D01*
X273397D01*
X275630Y800D01*
X300500D01*
X303131Y-1831D01*
Y-16017D01*
X308114Y-21000D01*
X312500D01*
X315500Y-24000D01*
G01Y-17000D02*
X313000Y-19500D01*
X308736D01*
X304631Y-15395D01*
Y-1209D01*
X301122Y2300D01*
X275008D01*
X272775Y67D01*
X76183D01*
X69000Y7250D01*
Y19500D01*
X61500Y27000D01*
Y73000D01*
X84000Y95500D01*
X185500D01*
X216500Y126500D01*
Y141000D01*
X215000Y142500D01*
X212500D01*
G01X85000Y147500D02*
X76797Y155703D01*
Y200297D01*
X78000Y201500D01*
Y205000D01*
G01X72500Y140000D02*
X67000Y145500D01*
Y200400D01*
X68000Y201400D01*
Y205000D01*
G01X84750Y27000D02*
X84000D01*
G01X182100Y102700D02*
X181500D01*
X181300Y102500D01*
X119500D01*
X115000Y107000D01*
X114800D01*
G01X121250Y125000D02*
Y147500D01*
G01X115000Y118750D02*
Y140000D01*
G01X147375Y151250D02*
Y183625D01*
G01X138750Y134900D02*
Y180000D01*
G01X157000Y157500D02*
Y202000D01*
X154000Y205000D01*
G01X164000D02*
X202000Y167000D01*
Y137000D01*
X195000Y130000D01*
G01X171000Y61000D02*
X169000Y63000D01*
G01X171000Y61000D02*
X169000Y59000D01*
G01X173000Y63000D02*
X171000Y61000D01*
G01X206250Y83750D02*
X177500D01*
G01X189964Y108571D02*
Y125036D01*
X185000Y130000D01*
G01X180374Y177500D02*
X187500Y170374D01*
Y151250D01*
X190000Y148750D01*
Y135000D01*
X185000Y130000D01*
G01X183100Y110200D02*
X180000Y113300D01*
Y137000D01*
X185000Y142000D01*
Y142500D01*
G01X174000Y205000D02*
X207000Y172000D01*
Y129500D01*
X195000Y117500D01*
G01X227904Y52500D02*
X217500D01*
G01X214000Y80000D02*
Y89500D01*
X215500Y91000D01*
G01X217500Y107700D02*
Y112000D01*
G01X195000Y157500D02*
Y142500D01*
G01X234500Y60500D02*
Y50880D01*
X259380Y26000D01*
X278500D01*
G01X240700Y66500D02*
X240000D01*
X235260Y61760D01*
X234500D01*
G01X240700Y66500D02*
X246350D01*
G01X240700Y69869D02*
Y66500D01*
G01X234500Y61760D02*
Y60500D01*
G01X245250Y58500D02*
X245500D01*
X246000Y58000D01*
G01X224750Y97000D02*
Y96250D01*
X225000Y96000D01*
G01X254000Y113500D02*
X253000Y114500D01*
X225500D01*
X223000Y112000D01*
G01X319000Y5000D02*
X315299D01*
X314649Y4350D01*
X307650D01*
X302331Y9669D01*
X298969D01*
X294600Y5300D01*
X273764D01*
X271895Y3431D01*
X265569D01*
X262000Y7000D01*
X252500D01*
G01X300800Y6300D02*
X298300Y3800D01*
X274386D01*
X272153Y1567D01*
X265233D01*
X263364Y3436D01*
X260800D01*
G01X278500Y12760D02*
X274260D01*
X270500Y9000D01*
Y6800D01*
G01X269000Y22000D02*
Y22250D01*
G01X261250Y56400D02*
Y46050D01*
X260631Y45431D01*
Y41405D01*
X262636Y39400D01*
X270600D01*
X274000Y42800D01*
G01X264000D02*
X268400Y47200D01*
X274800D01*
X280500Y41500D01*
Y37840D01*
G01X252650Y66500D02*
Y58600D01*
X252750Y58500D01*
G01X311250Y42500D02*
X307050D01*
X306550Y43000D01*
X295750D01*
X282350Y56400D01*
X261250D01*
G01X254000Y113500D02*
Y114350D01*
G01X273500Y115000D02*
X271500Y113000D01*
X254500D01*
X254000Y113500D01*
G01X247500Y111350D02*
X249350Y109500D01*
X258000D01*
G01X278500Y20240D02*
Y26000D01*
G01D02*
X316000D01*
G01X280500Y30360D02*
X278500Y28360D01*
Y26000D01*
G01X319000Y-13500D02*
Y5000D01*
G01Y-27500D02*
Y-13500D01*
G01X325500Y-9200D02*
X328700Y-6000D01*
X340000D01*
X345000Y-11000D01*
Y-35500D01*
G01X308000Y-14000D02*
X311500D01*
X315500Y-10000D01*
G01X319000Y5000D02*
X333000D01*
G01X321450Y99990D02*
X334329Y112869D01*
X375531D01*
X397100Y91300D01*
Y-36900D01*
X394500Y-39500D01*
X344000D01*
X336500Y-47000D01*
X331500D01*
X329000Y-44500D01*
Y-32500D01*
G01X334000Y-42000D02*
Y-32500D01*
G01X348500Y-14000D02*
X358500D01*
G01X334000Y-32500D02*
X337000D01*
X341500Y-28000D01*
G01Y-14000D02*
X337000Y-9500D01*
X334000D01*
G01X333250Y5000D02*
Y23250D01*
X331260Y25240D01*
Y26000D01*
G01X340496Y14504D02*
X338217Y16783D01*
Y25217D01*
X339000Y26000D01*
G01X331260D02*
Y26660D01*
X334000Y29400D01*
Y44000D01*
X337000Y47000D01*
G01X332500Y99375D02*
Y85000D01*
X352800Y64700D01*
Y43300D01*
X357500Y38600D01*
Y29000D01*
G01X339000Y26000D02*
X340283Y27283D01*
Y42100D01*
G01X339000Y26000D02*
X338740D01*
G01X346000Y30000D02*
Y56250D01*
G01X349431Y47100D02*
Y46931D01*
X349400Y46900D01*
Y25400D01*
X346000Y22000D01*
G01X353500Y37000D02*
Y23000D01*
X352000Y21500D01*
G54D17*
X234500Y69240D03*
Y61760D03*
X278500Y20240D03*
Y12760D03*
X280500Y37840D03*
Y30360D03*
X333750Y176260D03*
Y183740D03*
G54D26*
X320000Y192500D03*
X310000D03*
G54D36*
G01X268755Y196313D02*
X268448Y196055D01*
X268103Y195900D01*
X267797D01*
X267490Y196055D01*
X267260Y196313D01*
X267145Y196675D01*
X267222Y197037D01*
X267413Y197347D01*
X267758Y197553D01*
X268218Y197657D01*
X268487Y197863D01*
X268602Y198225D01*
X268525Y198587D01*
X268333Y198845D01*
X268065Y199000D01*
X267797D01*
X267528Y198897D01*
X267298Y198638D01*
G01X264083Y195900D02*
X265617D01*
Y199000D01*
X264083D01*
G01X264697Y197502D02*
X265617D01*
G01X260907Y198742D02*
X261137Y198897D01*
X261405Y199000D01*
X261712D01*
X262057Y198845D01*
X262325Y198587D01*
X262517Y198277D01*
X262670Y197760D01*
X262708Y197295D01*
X262632Y196830D01*
X262517Y196520D01*
X262287Y196210D01*
X262018Y196003D01*
X261750Y195900D01*
X261482D01*
X261213Y196003D01*
X260983Y196158D01*
X260792Y196365D01*
G01X258650Y195900D02*
X258957Y195952D01*
X259225Y196158D01*
X259455Y196468D01*
X259608Y196830D01*
X259685Y197243D01*
Y197657D01*
X259608Y198070D01*
X259455Y198432D01*
X259225Y198742D01*
X258957Y198948D01*
X258650Y199000D01*
X258343Y198948D01*
X258075Y198742D01*
X257845Y198432D01*
X257692Y198070D01*
X257615Y197657D01*
Y197243D01*
X257692Y196830D01*
X257845Y196468D01*
X258075Y196158D01*
X258343Y195952D01*
X258650Y195900D01*
G01X256432D02*
Y199000D01*
X254668Y195900D01*
Y199000D01*
G01X253293Y195900D02*
Y199000D01*
X252527D01*
X252220Y198845D01*
X251990Y198638D01*
X251798Y198328D01*
X251645Y197967D01*
X251607Y197450D01*
X251645Y196933D01*
X251798Y196572D01*
X251990Y196262D01*
X252220Y196055D01*
X252527Y195900D01*
X253293D01*
G01X250308D02*
X249350Y199000D01*
X248392Y195900D01*
G01X248737Y196985D02*
X249963D01*
G01X247017Y195900D02*
Y199000D01*
X246058D01*
X245752Y198845D01*
X245560Y198638D01*
X245483Y198225D01*
X245560Y197812D01*
X245790Y197553D01*
X246058Y197398D01*
X247017D01*
G01X246058D02*
X245483Y195900D01*
G01X243150D02*
Y197295D01*
X243917Y199000D01*
G01X242383D02*
X243150Y197295D01*
G01X237755Y196313D02*
X237448Y196055D01*
X237103Y195900D01*
X236797D01*
X236490Y196055D01*
X236260Y196313D01*
X236145Y196675D01*
X236222Y197037D01*
X236413Y197347D01*
X236758Y197553D01*
X237218Y197657D01*
X237487Y197863D01*
X237602Y198225D01*
X237525Y198587D01*
X237333Y198845D01*
X237065Y199000D01*
X236797D01*
X236528Y198897D01*
X236298Y198638D01*
G01X234310Y199000D02*
X233390D01*
G01X233850D02*
Y195900D01*
G01X234310D02*
X233390D01*
G01X231593D02*
Y199000D01*
X230827D01*
X230520Y198845D01*
X230290Y198638D01*
X230098Y198328D01*
X229945Y197967D01*
X229907Y197450D01*
X229945Y196933D01*
X230098Y196572D01*
X230290Y196262D01*
X230520Y196055D01*
X230827Y195900D01*
X231593D01*
G01X226883D02*
X228417D01*
Y199000D01*
X226883D01*
G01X227497Y197502D02*
X228417D01*
G54D18*
X245250Y58500D03*
X232250Y97000D03*
X224750D03*
X252750Y58500D03*
X267750Y85500D03*
X260250D03*
X340750Y5000D03*
X333250D03*
G54D27*
X321000Y233000D03*
X377000Y-14000D03*
Y66000D03*
Y151000D03*
Y238000D03*
G54D19*
X228531Y79500D03*
X232469D03*
G54D28*
X321000Y253000D03*
G54D29*
X364008Y-26992D03*
Y-1008D03*
Y53008D03*
Y78992D03*
Y138008D03*
Y163992D03*
Y225008D03*
Y250992D03*
X389992Y-26992D03*
Y-1008D03*
Y53008D03*
Y78992D03*
Y138008D03*
Y163992D03*
Y225008D03*
Y250992D03*
M02*
