G04 ================== begin FILE IDENTIFICATION RECORD ==================*
G04 Layout Name:  C:/tmp/20_047456e/worklib/02_047456e_top/physical/08_047456d.brd*
G04 Film Name:    mask_sec*
G04 File Format:  Gerber RS274X*
G04 File Origin:  Cadence Allegro 17.2-S053*
G04 Origin Date:  Fri Aug 16 11:54:05 2019*
G04 *
G04 Layer:  VIA CLASS/SOLDERMASK_BOTTOM*
G04 Layer:  PIN/SOLDERMASK_BOTTOM*
G04 Layer:  PACKAGE GEOMETRY/SOLDERMASK_BOTTOM*
G04 Layer:  BOARD GEOMETRY/TOOLING_CORNERS*
G04 Layer:  BOARD GEOMETRY/SOLDERMASK_BOTTOM*
G04 Layer:  BOARD GEOMETRY/ROOT_NUMBER*
G04 *
G04 Offset:    (0.00 0.00)*
G04 Mirror:    No*
G04 Mode:      Positive*
G04 Rotation:  0*
G04 FullContactRelief:  No*
G04 UndefLineWidth:     8.00*
G04 ================== end FILE IDENTIFICATION RECORD ====================*
%FSLAX25Y25*MOIN*%
%IR0*IPPOS*OFA0.00000B0.00000*MIA0B0*SFA1.00000B1.00000*%
%ADD24C,.06*%
%ADD10C,.07*%
%ADD25C,.08*%
%ADD12C,.065*%
%ADD26C,.075*%
%ADD13C,.057*%
%ADD22R,.06X.06*%
%ADD11R,.07X.07*%
%ADD23R,.08X.08*%
%ADD15R,.065X.065*%
%ADD27R,.075X.075*%
%ADD18R,.03X.034*%
%ADD20R,.044X.042*%
%ADD28C,.105*%
%ADD14R,.042X.044*%
%ADD16R,.06X.046*%
%ADD19R,.046X.06*%
%ADD21R,.068X.056*%
%ADD17R,.056X.068*%
%ADD29C,.05*%
%ADD30C,.008*%
G75*
%LPD*%
G75*
G54D10*
X18000Y205000D03*
X28000D03*
X38000D03*
X48000D03*
X58000D03*
X84000Y15000D03*
X74000D03*
X64000D03*
X68000Y205000D03*
X78000D03*
X104000Y15000D03*
X94000D03*
X88000Y205000D03*
X98000D03*
X124000Y15000D03*
X114000D03*
X124000Y205000D03*
X134000D03*
X164000Y15000D03*
X154000D03*
X156000Y130000D03*
Y140000D03*
X144000Y205000D03*
X154000D03*
X164000D03*
X194000Y15000D03*
X184000D03*
X174000D03*
Y205000D03*
X184000D03*
G54D20*
X223000Y111850D03*
Y118150D03*
X247500Y117650D03*
Y111350D03*
X254000Y114350D03*
Y120650D03*
G54D11*
X54000Y15000D03*
X108000Y205000D03*
X144000Y15000D03*
X156000Y120000D03*
X194000Y205000D03*
G54D30*
G01X96100Y310400D02*
X91100D01*
Y320400D01*
X96100D01*
G01X94100Y315567D02*
X91100D01*
G01X100475Y320400D02*
X103600Y310400D01*
X106725Y320400D01*
G01X110475Y310400D02*
X113600Y320400D01*
X116725Y310400D01*
G01X115600Y313900D02*
X111600D01*
G01X121100Y320400D02*
Y310400D01*
X126100D01*
G01X131975Y313733D02*
X135225D01*
G01X140475Y310400D02*
X143600Y320400D01*
X146725Y310400D01*
G01X145600Y313900D02*
X141600D01*
G01X150850Y310400D02*
Y320400D01*
X153350D01*
X154350Y319900D01*
X155100Y319233D01*
X155725Y318233D01*
X156225Y317066D01*
X156350Y315400D01*
X156225Y313733D01*
X155725Y312567D01*
X155100Y311566D01*
X154350Y310900D01*
X153350Y310400D01*
X150850D01*
G01X160850Y311900D02*
X161600Y311067D01*
X162475Y310567D01*
X163600Y310400D01*
X164725Y310733D01*
X165600Y311400D01*
X166225Y312567D01*
X166350Y313900D01*
X166100Y315233D01*
X165475Y316067D01*
X164600Y316733D01*
X163725Y316900D01*
X162850Y316733D01*
X161725Y316067D01*
X162100Y320400D01*
X165475D01*
G01X171475Y311566D02*
X172350Y310733D01*
X173350Y310400D01*
X174350Y310733D01*
X175225Y311733D01*
X175850Y313233D01*
X176100Y314733D01*
Y316567D01*
X175850Y318067D01*
X175225Y319400D01*
X174475Y320067D01*
X173600Y320400D01*
X172600Y320067D01*
X171850Y319400D01*
X171350Y318400D01*
X171100Y317066D01*
X171350Y315900D01*
X171975Y314733D01*
X172725Y314066D01*
X173600Y313900D01*
X174600Y314233D01*
X175350Y315067D01*
X176100Y316567D01*
G01X185100Y310400D02*
Y320400D01*
X180475Y313233D01*
X186725D01*
G01X193600Y310400D02*
Y320400D01*
X192100Y318400D01*
G01Y310400D02*
X195100D01*
G01X204600Y315733D02*
X205100Y316233D01*
X205475Y317066D01*
X205725Y318233D01*
X205475Y319233D01*
X204975Y319900D01*
X204100Y320400D01*
X200725D01*
Y310400D01*
X204850D01*
X205725Y311067D01*
X206225Y312067D01*
X206475Y313233D01*
X206225Y314400D01*
X205475Y315400D01*
X204600Y315733D01*
X200725D01*
G01X210475Y310400D02*
X213600Y320400D01*
X216725Y310400D01*
G01X215600Y313900D02*
X211600D01*
G01X223600Y320400D02*
Y310400D01*
G01X220725Y320400D02*
X226475D01*
G01X231225D02*
X235975D01*
X231225Y310400D01*
X235975D01*
G01X251100D02*
Y320400D01*
X254225D01*
X255225Y319900D01*
X255850Y319233D01*
X256100Y317900D01*
X255850Y316567D01*
X255100Y315733D01*
X254225Y315233D01*
X251100D01*
G01X254225D02*
X256100Y310400D01*
G01X266100D02*
X261100D01*
Y320400D01*
X266100D01*
G01X264100Y315567D02*
X261100D01*
G01X270475Y320400D02*
X273600Y310400D01*
X276725Y320400D01*
G01X281975Y313733D02*
X285225D01*
G01X290850Y310400D02*
Y320400D01*
X293350D01*
X294350Y319900D01*
X295100Y319233D01*
X295725Y318233D01*
X296225Y317066D01*
X296350Y315400D01*
X296225Y313733D01*
X295725Y312567D01*
X295100Y311566D01*
X294350Y310900D01*
X293350Y310400D01*
X290850D01*
G01X95975Y351733D02*
X96975Y350900D01*
X98100Y350400D01*
X99100D01*
X100100Y350900D01*
X100850Y351733D01*
X101225Y352900D01*
X100975Y354066D01*
X100350Y355067D01*
X99225Y355733D01*
X97725Y356067D01*
X96850Y356733D01*
X96475Y357900D01*
X96725Y359067D01*
X97350Y359900D01*
X98225Y360400D01*
X99100D01*
X99975Y360067D01*
X100725Y359233D01*
G01X108600Y350400D02*
X107600Y350567D01*
X106725Y351233D01*
X105975Y352233D01*
X105475Y353400D01*
X105225Y354733D01*
Y356067D01*
X105475Y357400D01*
X105975Y358567D01*
X106725Y359567D01*
X107600Y360233D01*
X108600Y360400D01*
X109600Y360233D01*
X110475Y359567D01*
X111225Y358567D01*
X111725Y357400D01*
X111975Y356067D01*
Y354733D01*
X111725Y353400D01*
X111225Y352233D01*
X110475Y351233D01*
X109600Y350567D01*
X108600Y350400D01*
G01X116100Y360400D02*
Y350400D01*
X121100D01*
G01X125850D02*
Y360400D01*
X128350D01*
X129350Y359900D01*
X130100Y359233D01*
X130725Y358233D01*
X131225Y357066D01*
X131350Y355400D01*
X131225Y353733D01*
X130725Y352567D01*
X130100Y351566D01*
X129350Y350900D01*
X128350Y350400D01*
X125850D01*
G01X141100D02*
X136100D01*
Y360400D01*
X141100D01*
G01X139100Y355567D02*
X136100D01*
G01X146100Y350400D02*
Y360400D01*
X149225D01*
X150225Y359900D01*
X150850Y359233D01*
X151100Y357900D01*
X150850Y356567D01*
X150100Y355733D01*
X149225Y355233D01*
X146100D01*
G01X149225D02*
X151100Y350400D01*
G01X155350D02*
Y360400D01*
X158600Y352067D01*
X161850Y360400D01*
Y350400D01*
G01X165475D02*
X168600Y360400D01*
X171725Y350400D01*
G01X170600Y353900D02*
X166600D01*
G01X175975Y351733D02*
X176975Y350900D01*
X178100Y350400D01*
X179100D01*
X180100Y350900D01*
X180850Y351733D01*
X181225Y352900D01*
X180975Y354066D01*
X180350Y355067D01*
X179225Y355733D01*
X177725Y356067D01*
X176850Y356733D01*
X176475Y357900D01*
X176725Y359067D01*
X177350Y359900D01*
X178225Y360400D01*
X179100D01*
X179975Y360067D01*
X180725Y359233D01*
G01X185850Y350400D02*
Y360400D01*
G01X190600D02*
X185850Y354233D01*
G01X191350Y350400D02*
X187975Y357066D01*
G01X205975Y351733D02*
X206975Y350900D01*
X208100Y350400D01*
X209100D01*
X210100Y350900D01*
X210850Y351733D01*
X211225Y352900D01*
X210975Y354066D01*
X210350Y355067D01*
X209225Y355733D01*
X207725Y356067D01*
X206850Y356733D01*
X206475Y357900D01*
X206725Y359067D01*
X207350Y359900D01*
X208225Y360400D01*
X209100D01*
X209975Y360067D01*
X210725Y359233D01*
G01X221100Y350400D02*
X216100D01*
Y360400D01*
X221100D01*
G01X219100Y355567D02*
X216100D01*
G01X231350Y359567D02*
X230600Y360067D01*
X229725Y360400D01*
X228725D01*
X227600Y359900D01*
X226725Y359067D01*
X226100Y358067D01*
X225600Y356400D01*
X225475Y354900D01*
X225725Y353400D01*
X226100Y352400D01*
X226850Y351400D01*
X227725Y350733D01*
X228600Y350400D01*
X229475D01*
X230350Y350733D01*
X231100Y351233D01*
X231725Y351900D01*
G01X238600Y350400D02*
X237600Y350567D01*
X236725Y351233D01*
X235975Y352233D01*
X235475Y353400D01*
X235225Y354733D01*
Y356067D01*
X235475Y357400D01*
X235975Y358567D01*
X236725Y359567D01*
X237600Y360233D01*
X238600Y360400D01*
X239600Y360233D01*
X240475Y359567D01*
X241225Y358567D01*
X241725Y357400D01*
X241975Y356067D01*
Y354733D01*
X241725Y353400D01*
X241225Y352233D01*
X240475Y351233D01*
X239600Y350567D01*
X238600Y350400D01*
G01X245725D02*
Y360400D01*
X251475Y350400D01*
Y360400D01*
G01X255850Y350400D02*
Y360400D01*
X258350D01*
X259350Y359900D01*
X260100Y359233D01*
X260725Y358233D01*
X261225Y357066D01*
X261350Y355400D01*
X261225Y353733D01*
X260725Y352567D01*
X260100Y351566D01*
X259350Y350900D01*
X258350Y350400D01*
X255850D01*
G01X265475D02*
X268600Y360400D01*
X271725Y350400D01*
G01X270600Y353900D02*
X266600D01*
G01X276100Y350400D02*
Y360400D01*
X279225D01*
X280225Y359900D01*
X280850Y359233D01*
X281100Y357900D01*
X280850Y356567D01*
X280100Y355733D01*
X279225Y355233D01*
X276100D01*
G01X279225D02*
X281100Y350400D01*
G01X288600D02*
Y354900D01*
X286100Y360400D01*
G01X291100D02*
X288600Y354900D01*
G01X138600Y340400D02*
X137600Y340067D01*
X136850Y339233D01*
X136350Y338233D01*
X135975Y336900D01*
X135850Y335400D01*
X135975Y333900D01*
X136350Y332567D01*
X136850Y331566D01*
X137600Y330733D01*
X138600Y330400D01*
X139600Y330733D01*
X140350Y331566D01*
X140850Y332567D01*
X141225Y333900D01*
X141350Y335400D01*
X141225Y336900D01*
X140850Y338233D01*
X140350Y339233D01*
X139600Y340067D01*
X138600Y340400D01*
G01X148600Y330400D02*
X149475Y330567D01*
X150475Y331067D01*
X151100Y331900D01*
X151350Y333067D01*
X151100Y334233D01*
X150350Y335233D01*
X149225Y335733D01*
X147975D01*
X147225Y336067D01*
X146600Y336900D01*
X146350Y338067D01*
X146725Y339233D01*
X147600Y340067D01*
X148600Y340400D01*
X149600Y340067D01*
X150475Y339233D01*
X150850Y338067D01*
X150600Y336900D01*
X149975Y336067D01*
X149225Y335733D01*
X147975D01*
X146850Y335233D01*
X146100Y334233D01*
X145850Y333067D01*
X146100Y331900D01*
X146725Y331067D01*
X147725Y330567D01*
X148600Y330400D01*
G01X156975Y333733D02*
X160225D01*
G01X226975D02*
X230225D01*
G01X238600Y340400D02*
X237600Y340067D01*
X236850Y339233D01*
X236350Y338233D01*
X235975Y336900D01*
X235850Y335400D01*
X235975Y333900D01*
X236350Y332567D01*
X236850Y331566D01*
X237600Y330733D01*
X238600Y330400D01*
X239600Y330733D01*
X240350Y331566D01*
X240850Y332567D01*
X241225Y333900D01*
X241350Y335400D01*
X241225Y336900D01*
X240850Y338233D01*
X240350Y339233D01*
X239600Y340067D01*
X238600Y340400D01*
G01X246225Y334566D02*
X247100Y335733D01*
X247850Y336400D01*
X248850Y336733D01*
X249725Y336400D01*
X250350Y335733D01*
X250850Y334733D01*
X250975Y333567D01*
X250850Y332567D01*
X250350Y331566D01*
X249600Y330733D01*
X248725Y330400D01*
X247725Y330733D01*
X246850Y331733D01*
X246350Y333233D01*
X246225Y334900D01*
X246475Y337066D01*
X246850Y338233D01*
X247475Y339400D01*
X248350Y340233D01*
X249225Y340400D01*
X250100Y340067D01*
X250725Y339233D01*
G01X168600Y340400D02*
X167600Y340067D01*
X166850Y339233D01*
X166350Y338233D01*
X165975Y336900D01*
X165850Y335400D01*
X165975Y333900D01*
X166350Y332567D01*
X166850Y331566D01*
X167600Y330733D01*
X168600Y330400D01*
X169600Y330733D01*
X170350Y331566D01*
X170850Y332567D01*
X171225Y333900D01*
X171350Y335400D01*
X171225Y336900D01*
X170850Y338233D01*
X170350Y339233D01*
X169600Y340067D01*
X168600Y340400D01*
G01X180100Y330400D02*
Y340400D01*
X175475Y333233D01*
X181725D01*
G01X188350Y330400D02*
X188600Y332567D01*
X188975Y334400D01*
X189475Y336067D01*
X190100Y337900D01*
X191100Y340400D01*
X186100D01*
G01X200100Y330400D02*
Y340400D01*
X195475Y333233D01*
X201725D01*
G01X205850Y331900D02*
X206600Y331067D01*
X207475Y330567D01*
X208600Y330400D01*
X209725Y330733D01*
X210600Y331400D01*
X211225Y332567D01*
X211350Y333900D01*
X211100Y335233D01*
X210475Y336067D01*
X209600Y336733D01*
X208725Y336900D01*
X207850Y336733D01*
X206725Y336067D01*
X207100Y340400D01*
X210475D01*
G01X216225Y334566D02*
X217100Y335733D01*
X217850Y336400D01*
X218850Y336733D01*
X219725Y336400D01*
X220350Y335733D01*
X220850Y334733D01*
X220975Y333567D01*
X220850Y332567D01*
X220350Y331566D01*
X219600Y330733D01*
X218725Y330400D01*
X217725Y330733D01*
X216850Y331733D01*
X216350Y333233D01*
X216225Y334900D01*
X216475Y337066D01*
X216850Y338233D01*
X217475Y339400D01*
X218350Y340233D01*
X219225Y340400D01*
X220100Y340067D01*
X220725Y339233D01*
G54D21*
X269000Y22250D03*
Y29750D03*
G54D12*
X175000Y130000D03*
X185000D03*
X175000Y117500D03*
X185000D03*
X175000Y142500D03*
X185000D03*
X297500Y122500D03*
X311250Y18750D03*
Y8750D03*
Y32500D03*
Y42500D03*
X315000Y122500D03*
X334000Y-42000D03*
X352500Y122500D03*
X333750Y162500D03*
X347900Y238000D03*
X371400Y33300D03*
G54D22*
X297500Y158750D03*
G54D13*
X172500Y165000D03*
X180374D03*
X172500Y177500D03*
X180374D03*
G54D14*
X215350Y79000D03*
X246350Y66500D03*
X221650Y79000D03*
X252650Y66500D03*
G54D23*
X300000Y192500D03*
G54D15*
X195000Y130000D03*
Y117500D03*
Y142500D03*
X311250Y-1250D03*
Y52500D03*
G54D24*
X317500Y158750D03*
X307500D03*
G54D16*
X234500Y69240D03*
Y61760D03*
X278500Y20240D03*
Y12760D03*
X280500Y37840D03*
Y30360D03*
X333750Y176260D03*
Y183740D03*
G54D25*
X320000Y192500D03*
X310000D03*
G54D17*
X245250Y58500D03*
X232250Y97000D03*
X224750D03*
X252750Y58500D03*
X267750Y85500D03*
X260250D03*
X340750Y5000D03*
X333250D03*
G54D26*
X321000Y233000D03*
X377000Y-14000D03*
Y66000D03*
Y151000D03*
Y238000D03*
G54D18*
X228531Y79500D03*
X232469D03*
G54D27*
X321000Y253000D03*
G54D19*
X228240Y88500D03*
X220760D03*
X338740Y26000D03*
X331260D03*
X348760Y192500D03*
X341240D03*
X333760D03*
X356240D03*
G54D28*
X364008Y-26992D03*
Y-1008D03*
Y53008D03*
Y78992D03*
Y138008D03*
Y163992D03*
Y225008D03*
Y250992D03*
X389992Y-26992D03*
Y-1008D03*
Y53008D03*
Y78992D03*
Y138008D03*
Y163992D03*
Y225008D03*
Y250992D03*
G54D29*
G01X-12500Y-7000D02*
X22500D01*
G01X-2500Y-17000D02*
Y18000D01*
G01Y232500D02*
Y197500D01*
G01X-12500Y222500D02*
X22500D01*
G01X297500Y-62500D02*
Y-27500D01*
G01X287500Y-52500D02*
X322500D01*
G01X297500Y282500D02*
Y247500D01*
G01X287500Y272500D02*
X322500D01*
G01X412500Y-52500D02*
X377500D01*
G01X412500Y272500D02*
X377500D01*
G01X402500Y-62500D02*
Y-27500D01*
G01Y282500D02*
Y247500D01*
M02*
