G04 ================== begin FILE IDENTIFICATION RECORD ==================*
G04 Layout Name:  C:/tmp/20_047456e/worklib/02_047456e_top/physical/08_047456d.brd*
G04 Film Name:    silk_prm*
G04 File Format:  Gerber RS274X*
G04 File Origin:  Cadence Allegro 17.2-S053*
G04 Origin Date:  Fri Aug 16 17:41:17 2019*
G04 *
G04 Layer:  PACKAGE GEOMETRY/SILKSCREEN_TOP*
G04 Layer:  BOARD GEOMETRY/TOOLING_CORNERS*
G04 Layer:  BOARD GEOMETRY/SILKSCREEN_TOP*
G04 Layer:  BOARD GEOMETRY/ROOT_NUMBER*
G04 Layer:  REF DES/SILKSCREEN_TOP*
G04 Layer:  MANUFACTURING/SILK_DETAIL_TOP*
G04 *
G04 Offset:    (0.00 0.00)*
G04 Mirror:    No*
G04 Mode:      Positive*
G04 Rotation:  0*
G04 FullContactRelief:  No*
G04 UndefLineWidth:     8.00*
G04 ================== end FILE IDENTIFICATION RECORD ====================*
%FSLAX25Y25*MOIN*%
%IR0*IPPOS*OFA0.00000B0.00000*MIA0B0*SFA1.00000B1.00000*%
%ADD10C,.02*%
%ADD11C,.05*%
%ADD12C,.008*%
%ADD13C,.006*%
G75*
%LPD*%
G75*
G36*
G01X21170Y102000D02*
X22470Y97950D01*
X21790D01*
X21500Y98910D01*
X20100D01*
X19790Y97950D01*
X19120D01*
X20500Y102000D01*
X21170D01*
G37*
G36*
G01X22890D02*
Y97950D01*
X23520D01*
Y99700D01*
X25170D01*
Y97950D01*
X25800D01*
Y102000D01*
X25170D01*
Y100230D01*
X23520D01*
Y102000D01*
X22890D01*
G37*
G36*
G01X29050D02*
X26590D01*
Y97950D01*
X29050D01*
Y98470D01*
X27210D01*
Y99700D01*
X28560D01*
Y100230D01*
X27210D01*
Y101470D01*
X29050D01*
Y102000D01*
G37*
G36*
G01X19340Y108010D02*
X39280D01*
Y128050D01*
X19340D01*
Y108010D01*
G37*
G36*
G01X35780Y98520D02*
X35730Y98430D01*
X35660Y98310D01*
X35620Y98280D01*
X35520Y98200D01*
X35430Y98140D01*
X35320Y98080D01*
X35230Y98030D01*
X35090Y97990D01*
X34960Y97970D01*
X34800Y97950D01*
X33050D01*
Y102000D01*
X34780D01*
X34960Y101970D01*
X35110Y101940D01*
X35230Y101900D01*
X35350Y101850D01*
X35430Y101800D01*
X35540Y101730D01*
X35610Y101660D01*
X35670Y101590D01*
X35700Y101560D01*
X35780Y101410D01*
X35790Y101390D01*
X35820Y101320D01*
X35860Y101200D01*
X35880Y101110D01*
X35900Y100950D01*
X35920Y100820D01*
X35940Y100580D01*
X35960Y100270D01*
Y99780D01*
X35950Y99600D01*
Y99470D01*
X35940Y99350D01*
X35930Y99200D01*
X35910Y99060D01*
X35880Y98860D01*
X35860Y98730D01*
X35840Y98660D01*
X35810Y98580D01*
X35790Y98530D01*
X35780Y98520D01*
G37*
G36*
G01X41080Y98860D02*
X41120Y99060D01*
X41130Y99200D01*
X41150Y99350D01*
Y99470D01*
X41160Y99600D01*
Y100440D01*
X41150Y100590D01*
X41120Y100820D01*
X41110Y100940D01*
X41080Y101070D01*
Y101100D01*
X41050Y101260D01*
X40990Y101410D01*
X40970Y101420D01*
X40920Y101520D01*
X40880Y101580D01*
X40870Y101590D01*
X40840Y101630D01*
X40820Y101650D01*
Y101660D01*
X40730Y101730D01*
X40620Y101810D01*
X40530Y101870D01*
X40380Y101930D01*
X40360Y101940D01*
X40240Y101970D01*
X40100Y102000D01*
X39680Y102030D01*
X39560D01*
X39180Y102000D01*
X39020Y101970D01*
X38850Y101930D01*
X38730Y101880D01*
X38600Y101810D01*
X38520Y101750D01*
X38410Y101660D01*
X38350Y101580D01*
X38290Y101490D01*
X38240Y101400D01*
X38180Y101200D01*
X38150Y101080D01*
X38110Y100880D01*
X38090Y100740D01*
X38080Y100590D01*
X38070Y100474D01*
X38068Y99539D01*
X38080Y99350D01*
X38100Y99120D01*
X38120Y98990D01*
X38150Y98840D01*
X38180Y98730D01*
X38243Y98531D01*
X38260Y98510D01*
X38310Y98420D01*
X38410Y98280D01*
X38490Y98210D01*
X38600Y98120D01*
X38700Y98070D01*
X38850Y98010D01*
X38870Y98000D01*
X38970Y97970D01*
X39110Y97950D01*
X39170Y97940D01*
X39180D01*
X39250Y97930D01*
X39360Y97920D01*
X39510Y97910D01*
X39760D01*
X39960Y97930D01*
X40050Y97940D01*
X40080D01*
X40120Y97950D01*
X40270Y97970D01*
X40490Y98050D01*
X40620Y98120D01*
X40720Y98190D01*
X40820Y98280D01*
X40890Y98360D01*
X40940Y98440D01*
X40980Y98520D01*
X41030Y98640D01*
X41060Y98760D01*
X41080Y98860D01*
G37*
G36*
G01X42530Y97950D02*
Y99700D01*
X43880D01*
Y100230D01*
X42530D01*
Y101470D01*
X44360D01*
Y102000D01*
X41910D01*
Y97950D01*
X42530D01*
G37*
G36*
G01X51370Y102000D02*
Y97950D01*
X51990D01*
Y99700D01*
X53640D01*
Y97950D01*
X54260D01*
Y102000D01*
X53640D01*
Y100230D01*
X51990D01*
Y102000D01*
X51370D01*
G37*
G36*
G01X50250D02*
X50910D01*
X49800Y97950D01*
X49140D01*
X48440Y100330D01*
X47720Y97950D01*
X47040D01*
X46000Y102000D01*
X46660D01*
X47390Y98800D01*
X48160Y101250D01*
X48760D01*
X49470Y98840D01*
X50250Y102000D01*
G37*
G36*
G01X56740D02*
X58040Y97950D01*
X57360D01*
X57070Y98910D01*
X55670D01*
X55360Y97950D01*
X54690D01*
X56070Y102000D01*
X56740D01*
G37*
G36*
G01X31320D02*
X32620Y97950D01*
X31940D01*
X31650Y98910D01*
X30250D01*
X29940Y97950D01*
X29270D01*
X30650Y102000D01*
X31320D01*
G37*
G36*
G01X49410Y109840D02*
X49230Y109590D01*
X49040Y109370D01*
X48820Y109150D01*
X48570Y108960D01*
X48320Y108790D01*
X48040Y108640D01*
X47750Y108520D01*
X47430Y108410D01*
X47160Y108340D01*
X46600Y108260D01*
X46300Y108230D01*
X45980Y108220D01*
X42540D01*
Y117150D01*
X46000D01*
X46340Y117140D01*
X46670Y117100D01*
X46980Y117050D01*
X47280Y116960D01*
X47570Y116870D01*
X47840Y116750D01*
X48100Y116610D01*
X48370Y116430D01*
X48610Y116220D01*
X48850Y116000D01*
X49060Y115760D01*
X49250Y115510D01*
X49430Y115220D01*
X49590Y114930D01*
X49720Y114630D01*
X49840Y114300D01*
X49940Y113960D01*
X50010Y113630D01*
X50060Y113280D01*
X50100Y112910D01*
X50110Y112540D01*
X50100Y112140D01*
X50060Y111750D01*
X50000Y111390D01*
X49930Y111040D01*
X49820Y110700D01*
X49700Y110380D01*
X49560Y110100D01*
X49410Y109840D01*
G37*
G36*
G01X42670Y119180D02*
X44460D01*
X45050Y121170D01*
X48350D01*
X49030Y119180D01*
X50870D01*
X47490Y128130D01*
X45670D01*
X42670Y119180D01*
G37*
G36*
G01X58620D02*
Y128130D01*
X56840D01*
Y122170D01*
X53050Y128130D01*
X51220D01*
Y119180D01*
X53010D01*
Y125230D01*
X56940Y119180D01*
X58620D01*
G37*
G36*
G01X57320Y117150D02*
X50750D01*
Y108220D01*
X57470D01*
Y109740D01*
X52560D01*
Y112130D01*
X56770D01*
Y113760D01*
X52540D01*
Y115660D01*
X57320D01*
Y117150D01*
G37*
G36*
G01X61430Y102000D02*
X60880D01*
Y101410D01*
X61130D01*
Y101210D01*
X61110Y101070D01*
X61090Y101020D01*
X61050Y100980D01*
X60990Y100950D01*
X60840Y100930D01*
X60929Y100682D01*
X60957Y100689D01*
X60975Y100694D01*
X60986Y100697D01*
X61006Y100703D01*
X61019Y100707D01*
X61050Y100717D01*
X61061Y100721D01*
X61075Y100726D01*
X61107Y100738D01*
X61132Y100748D01*
X61151Y100756D01*
X61158Y100759D01*
X61240Y100801D01*
X61262Y100816D01*
X61282Y100833D01*
X61292Y100843D01*
X61313Y100861D01*
X61329Y100877D01*
X61348Y100904D01*
X61371Y100950D01*
X61392Y101006D01*
X61401Y101033D01*
X61410Y101069D01*
X61415Y101096D01*
X61422Y101128D01*
X61425Y101150D01*
X61428Y101164D01*
X61432Y101198D01*
Y101216D01*
X61431Y101232D01*
X61430Y101239D01*
X61431Y101276D01*
X61430Y101340D01*
Y102000D01*
G37*
G36*
G01X69280Y101590D02*
X69270Y101600D01*
X69250Y101630D01*
X69240Y101650D01*
X69170Y101730D01*
X69120Y101760D01*
X69080Y101790D01*
X69030Y101830D01*
X68980Y101860D01*
X68940Y101880D01*
X68700Y101960D01*
X68440Y102000D01*
X66810D01*
Y97950D01*
X67440D01*
Y99380D01*
X68420D01*
X68530Y99390D01*
X68590Y99400D01*
X68710Y99430D01*
X68790Y99460D01*
X68840Y99480D01*
X68970Y99540D01*
X69050Y99590D01*
X69120Y99650D01*
X69140Y99670D01*
X69230Y99740D01*
X69270Y99800D01*
X69330Y99870D01*
X69350Y99900D01*
X69400Y99980D01*
X69460Y100110D01*
X69480Y100160D01*
X69510Y100260D01*
X69540Y100380D01*
X69550Y100530D01*
X69560Y100690D01*
Y100820D01*
X69550Y100940D01*
X69530Y101100D01*
X69480Y101230D01*
X69460Y101280D01*
X69400Y101420D01*
X69360Y101490D01*
X69350Y101500D01*
X69310Y101560D01*
X69280Y101590D01*
G37*
G36*
G01X73100Y98860D02*
X73140Y99060D01*
X73150Y99200D01*
X73170Y99350D01*
Y99470D01*
X73180Y99600D01*
Y100440D01*
X73170Y100590D01*
X73140Y100820D01*
X73130Y100940D01*
X73100Y101070D01*
Y101100D01*
X73070Y101260D01*
X73010Y101410D01*
X72990Y101420D01*
X72940Y101520D01*
X72900Y101580D01*
X72890Y101590D01*
X72860Y101630D01*
X72840Y101650D01*
Y101660D01*
X72750Y101730D01*
X72640Y101810D01*
X72550Y101870D01*
X72400Y101930D01*
X72380Y101940D01*
X72260Y101970D01*
X72120Y102000D01*
X71700Y102030D01*
X71580D01*
X71200Y102000D01*
X71040Y101970D01*
X70870Y101930D01*
X70750Y101880D01*
X70620Y101810D01*
X70540Y101750D01*
X70430Y101660D01*
X70370Y101580D01*
X70310Y101490D01*
X70260Y101400D01*
X70200Y101200D01*
X70170Y101080D01*
X70130Y100880D01*
X70110Y100740D01*
X70100Y100590D01*
X70090Y100474D01*
X70088Y99539D01*
X70100Y99350D01*
X70120Y99120D01*
X70140Y98990D01*
X70170Y98840D01*
X70200Y98730D01*
X70263Y98531D01*
X70280Y98510D01*
X70330Y98420D01*
X70430Y98280D01*
X70510Y98210D01*
X70620Y98120D01*
X70720Y98070D01*
X70870Y98010D01*
X70890Y98000D01*
X70990Y97970D01*
X71130Y97950D01*
X71190Y97940D01*
X71200D01*
X71270Y97930D01*
X71380Y97920D01*
X71530Y97910D01*
X71780D01*
X71980Y97930D01*
X72070Y97940D01*
X72100D01*
X72140Y97950D01*
X72290Y97970D01*
X72510Y98050D01*
X72640Y98120D01*
X72740Y98190D01*
X72840Y98280D01*
X72910Y98360D01*
X72960Y98440D01*
X73000Y98520D01*
X73050Y98640D01*
X73080Y98760D01*
X73100Y98860D01*
G37*
G36*
G01X77900Y98770D02*
X77960Y98700D01*
Y98680D01*
X77970Y98660D01*
X78030Y98600D01*
X78110Y98550D01*
X78200Y98500D01*
X78330Y98460D01*
X78590Y98440D01*
X78750D01*
X78910Y98470D01*
X79030Y98520D01*
X79190Y98620D01*
X79230Y98670D01*
X79280Y98740D01*
X79310Y98780D01*
X79350Y98860D01*
X79380Y98950D01*
X79400Y99130D01*
Y99290D01*
X79380Y99380D01*
X79370Y99440D01*
X79340Y99500D01*
X79320Y99530D01*
X79220Y99630D01*
X79190Y99650D01*
X79080Y99690D01*
X78950Y99740D01*
X78830Y99770D01*
X78600Y99820D01*
X78360Y99850D01*
X78110Y99890D01*
X77920Y99930D01*
X77840Y99950D01*
X77650Y100020D01*
X77550Y100080D01*
X77450Y100160D01*
X77410Y100200D01*
X77340Y100280D01*
X77280Y100380D01*
X77220Y100490D01*
X77180Y100700D01*
Y100970D01*
X77210Y101150D01*
X77240Y101260D01*
X77310Y101410D01*
X77380Y101530D01*
X77500Y101670D01*
X77630Y101780D01*
X77750Y101860D01*
X77920Y101920D01*
X78010Y101960D01*
X78150Y101990D01*
X78300Y102020D01*
X78440Y102030D01*
X78770D01*
X79060Y102010D01*
X79320Y101940D01*
X79460Y101880D01*
X79550Y101830D01*
X79660Y101730D01*
X79720Y101660D01*
X79810Y101550D01*
X79850Y101490D01*
X79870Y101430D01*
X79900Y101370D01*
X79920Y101320D01*
X79940Y101260D01*
X79960Y101150D01*
X79970Y101060D01*
Y101000D01*
X79360D01*
X79350Y101100D01*
X79330Y101170D01*
X79290Y101260D01*
X79230Y101330D01*
X79190Y101370D01*
X79120Y101410D01*
X79010Y101450D01*
X78920Y101470D01*
X78820Y101490D01*
X78720Y101500D01*
X78470D01*
X78340Y101480D01*
X78230Y101450D01*
X78110Y101410D01*
X78010Y101370D01*
X77940Y101310D01*
X77880Y101240D01*
X77840Y101160D01*
X77810Y101060D01*
X77800Y100930D01*
X77810Y100850D01*
X77820Y100780D01*
X77840Y100730D01*
X77940Y100600D01*
X78220Y100490D01*
X78360Y100470D01*
X78550Y100450D01*
X78710Y100430D01*
X78870Y100400D01*
X79010Y100380D01*
X79180Y100340D01*
X79310Y100320D01*
X79470Y100250D01*
X79600Y100190D01*
X79770Y100060D01*
X79850Y99970D01*
X79930Y99830D01*
X79990Y99690D01*
X80010Y99570D01*
X80030Y99430D01*
X80050Y99240D01*
X80040Y99060D01*
X80010Y98910D01*
X79990Y98780D01*
X79950Y98650D01*
X79880Y98530D01*
X79840Y98440D01*
X79730Y98310D01*
X79660Y98250D01*
X79540Y98160D01*
X79420Y98090D01*
X79200Y97990D01*
X79040Y97960D01*
X78870Y97930D01*
X78740Y97920D01*
X78590Y97910D01*
X78290Y97930D01*
X78020Y97980D01*
X77870Y98050D01*
X77760Y98110D01*
X77680Y98150D01*
X77540Y98270D01*
X77490Y98320D01*
X77420Y98400D01*
X77370Y98470D01*
X77230Y98790D01*
X77190Y98940D01*
X77150Y99190D01*
X77790D01*
X77810Y99050D01*
X77820Y98920D01*
X77830Y98910D01*
X77870Y98820D01*
X77900Y98770D01*
G37*
G36*
G01X74520D02*
X74580Y98700D01*
Y98680D01*
X74590Y98660D01*
X74650Y98600D01*
X74730Y98550D01*
X74820Y98500D01*
X74950Y98460D01*
X75210Y98440D01*
X75370D01*
X75530Y98470D01*
X75650Y98520D01*
X75810Y98620D01*
X75850Y98670D01*
X75900Y98740D01*
X75930Y98780D01*
X75970Y98860D01*
X76000Y98950D01*
X76020Y99130D01*
Y99290D01*
X76000Y99380D01*
X75990Y99440D01*
X75960Y99500D01*
X75940Y99530D01*
X75840Y99630D01*
X75810Y99650D01*
X75700Y99690D01*
X75570Y99740D01*
X75450Y99770D01*
X75220Y99820D01*
X74980Y99850D01*
X74730Y99890D01*
X74540Y99930D01*
X74460Y99950D01*
X74270Y100020D01*
X74170Y100080D01*
X74070Y100160D01*
X74030Y100200D01*
X73960Y100280D01*
X73900Y100380D01*
X73840Y100490D01*
X73800Y100700D01*
Y100970D01*
X73830Y101150D01*
X73860Y101260D01*
X73930Y101410D01*
X74000Y101530D01*
X74120Y101670D01*
X74250Y101780D01*
X74370Y101860D01*
X74540Y101920D01*
X74630Y101960D01*
X74770Y101990D01*
X74920Y102020D01*
X75060Y102030D01*
X75390D01*
X75680Y102010D01*
X75940Y101940D01*
X76080Y101880D01*
X76170Y101830D01*
X76280Y101730D01*
X76340Y101660D01*
X76430Y101550D01*
X76470Y101490D01*
X76490Y101430D01*
X76520Y101370D01*
X76540Y101320D01*
X76560Y101260D01*
X76580Y101150D01*
X76590Y101060D01*
Y101000D01*
X75980D01*
X75970Y101100D01*
X75950Y101170D01*
X75910Y101260D01*
X75850Y101330D01*
X75810Y101370D01*
X75740Y101410D01*
X75630Y101450D01*
X75540Y101470D01*
X75440Y101490D01*
X75340Y101500D01*
X75090D01*
X74960Y101480D01*
X74850Y101450D01*
X74730Y101410D01*
X74630Y101370D01*
X74560Y101310D01*
X74500Y101240D01*
X74460Y101160D01*
X74430Y101060D01*
X74420Y100930D01*
X74430Y100850D01*
X74440Y100780D01*
X74460Y100730D01*
X74560Y100600D01*
X74840Y100490D01*
X74980Y100470D01*
X75170Y100450D01*
X75330Y100430D01*
X75490Y100400D01*
X75630Y100380D01*
X75800Y100340D01*
X75930Y100320D01*
X76090Y100250D01*
X76220Y100190D01*
X76390Y100060D01*
X76470Y99970D01*
X76550Y99830D01*
X76610Y99690D01*
X76630Y99570D01*
X76650Y99430D01*
X76670Y99240D01*
X76660Y99060D01*
X76630Y98910D01*
X76610Y98780D01*
X76570Y98650D01*
X76500Y98530D01*
X76460Y98440D01*
X76350Y98310D01*
X76280Y98250D01*
X76160Y98160D01*
X76040Y98090D01*
X75820Y97990D01*
X75660Y97960D01*
X75490Y97930D01*
X75360Y97920D01*
X75210Y97910D01*
X74910Y97930D01*
X74640Y97980D01*
X74490Y98050D01*
X74380Y98110D01*
X74300Y98150D01*
X74160Y98270D01*
X74110Y98320D01*
X74040Y98400D01*
X73990Y98470D01*
X73850Y98790D01*
X73810Y98940D01*
X73770Y99190D01*
X74410D01*
X74430Y99050D01*
X74440Y98920D01*
X74450Y98910D01*
X74490Y98820D01*
X74520Y98770D01*
G37*
G36*
G01X62590D02*
X62650Y98700D01*
Y98680D01*
X62660Y98660D01*
X62720Y98600D01*
X62800Y98550D01*
X62890Y98500D01*
X63020Y98460D01*
X63280Y98440D01*
X63440D01*
X63600Y98470D01*
X63720Y98520D01*
X63880Y98620D01*
X63920Y98670D01*
X63970Y98740D01*
X64000Y98780D01*
X64040Y98860D01*
X64070Y98950D01*
X64090Y99130D01*
Y99290D01*
X64070Y99380D01*
X64060Y99440D01*
X64030Y99500D01*
X64010Y99530D01*
X63910Y99630D01*
X63880Y99650D01*
X63770Y99690D01*
X63640Y99740D01*
X63520Y99770D01*
X63290Y99820D01*
X63050Y99850D01*
X62800Y99890D01*
X62610Y99930D01*
X62530Y99950D01*
X62340Y100020D01*
X62240Y100080D01*
X62140Y100160D01*
X62100Y100200D01*
X62030Y100280D01*
X61970Y100380D01*
X61910Y100490D01*
X61870Y100700D01*
Y100970D01*
X61900Y101150D01*
X61930Y101260D01*
X62000Y101410D01*
X62070Y101530D01*
X62190Y101670D01*
X62320Y101780D01*
X62440Y101860D01*
X62610Y101920D01*
X62700Y101960D01*
X62840Y101990D01*
X62990Y102020D01*
X63130Y102030D01*
X63460D01*
X63750Y102010D01*
X64010Y101940D01*
X64150Y101880D01*
X64240Y101830D01*
X64350Y101730D01*
X64410Y101660D01*
X64500Y101550D01*
X64540Y101490D01*
X64560Y101430D01*
X64590Y101370D01*
X64610Y101320D01*
X64630Y101260D01*
X64650Y101150D01*
X64660Y101060D01*
Y101000D01*
X64050D01*
X64040Y101100D01*
X64020Y101170D01*
X63980Y101260D01*
X63920Y101330D01*
X63880Y101370D01*
X63810Y101410D01*
X63700Y101450D01*
X63610Y101470D01*
X63510Y101490D01*
X63410Y101500D01*
X63160D01*
X63030Y101480D01*
X62920Y101450D01*
X62800Y101410D01*
X62700Y101370D01*
X62630Y101310D01*
X62570Y101240D01*
X62530Y101160D01*
X62500Y101060D01*
X62490Y100930D01*
X62500Y100850D01*
X62510Y100780D01*
X62530Y100730D01*
X62630Y100600D01*
X62910Y100490D01*
X63050Y100470D01*
X63240Y100450D01*
X63400Y100430D01*
X63560Y100400D01*
X63700Y100380D01*
X63870Y100340D01*
X64000Y100320D01*
X64160Y100250D01*
X64290Y100190D01*
X64460Y100060D01*
X64540Y99970D01*
X64620Y99830D01*
X64680Y99690D01*
X64700Y99570D01*
X64720Y99430D01*
X64740Y99240D01*
X64730Y99060D01*
X64700Y98910D01*
X64680Y98780D01*
X64640Y98650D01*
X64570Y98530D01*
X64530Y98440D01*
X64420Y98310D01*
X64350Y98250D01*
X64230Y98160D01*
X64110Y98090D01*
X63890Y97990D01*
X63730Y97960D01*
X63560Y97930D01*
X63430Y97920D01*
X63280Y97910D01*
X62980Y97930D01*
X62710Y97980D01*
X62560Y98050D01*
X62450Y98110D01*
X62370Y98150D01*
X62230Y98270D01*
X62180Y98320D01*
X62110Y98400D01*
X62060Y98470D01*
X61920Y98790D01*
X61880Y98940D01*
X61840Y99190D01*
X62480D01*
X62500Y99050D01*
X62510Y98920D01*
X62520Y98910D01*
X62560Y98820D01*
X62590Y98770D01*
G37*
G36*
G01X59450Y97950D02*
Y101470D01*
X60480D01*
Y102000D01*
X57800D01*
Y101470D01*
X58830D01*
Y97950D01*
X59450D01*
G37*
G36*
G01X80820Y120700D02*
X80650Y120470D01*
X80440Y120230D01*
X80220Y120020D01*
X79980Y119820D01*
X79730Y119640D01*
X79440Y119480D01*
X79150Y119340D01*
X78640Y119170D01*
X78380Y119120D01*
X78100Y119070D01*
X77810Y119040D01*
X77510Y119030D01*
X77170Y119050D01*
X76840Y119080D01*
X76530Y119130D01*
X76240Y119200D01*
X75960Y119290D01*
X75690Y119410D01*
X75440Y119530D01*
X75180Y119690D01*
X74930Y119860D01*
X74710Y120060D01*
X74500Y120260D01*
X74300Y120480D01*
X74110Y120730D01*
X73940Y121000D01*
X73800Y121280D01*
X73670Y121560D01*
X73560Y121860D01*
X73470Y122160D01*
X73380Y122530D01*
X73320Y122900D01*
X73290Y123280D01*
X73280Y123660D01*
X73300Y123970D01*
X73310Y124050D01*
X73340Y124440D01*
X73420Y124820D01*
X73520Y125190D01*
X73640Y125550D01*
X73760Y125840D01*
X73900Y126100D01*
X74040Y126350D01*
X74210Y126610D01*
X74390Y126840D01*
X74600Y127080D01*
X74830Y127290D01*
X75070Y127490D01*
X75340Y127670D01*
X75620Y127830D01*
X75920Y127960D01*
X76160Y128050D01*
X76430Y128130D01*
X76690Y128190D01*
X76970Y128230D01*
X77260Y128250D01*
X77560Y128260D01*
X77880Y128250D01*
X78190Y128210D01*
X78480Y128160D01*
X78770Y128080D01*
X79030Y128000D01*
X79280Y127890D01*
X79530Y127750D01*
X79780Y127600D01*
X80020Y127420D01*
X80230Y127230D01*
X80440Y127020D01*
X80630Y126800D01*
X80820Y126550D01*
X80980Y126290D01*
X81130Y126010D01*
X81260Y125720D01*
X81370Y125430D01*
X81460Y125130D01*
X81550Y124760D01*
X81620Y124390D01*
X81640Y124142D01*
X81670Y123640D01*
X81660Y123240D01*
X81620Y122870D01*
X81560Y122480D01*
X81470Y122110D01*
X81350Y121750D01*
X81250Y121470D01*
X81120Y121210D01*
X80980Y120950D01*
X80820Y120700D01*
G37*
G36*
G01X74750Y111020D02*
X74730Y110960D01*
X74710Y110880D01*
X74660Y110760D01*
X74600Y110630D01*
X74530Y110500D01*
X74440Y110340D01*
X74340Y110190D01*
X74230Y110050D01*
X74100Y109910D01*
X73940Y109780D01*
X73810Y109700D01*
X73680Y109610D01*
X73530Y109550D01*
X73380Y109500D01*
X73200Y109450D01*
X73020Y109430D01*
X72830Y109420D01*
X72620Y109430D01*
X72430Y109460D01*
X72240Y109500D01*
X72060Y109560D01*
X71900Y109650D01*
X71700Y109760D01*
X71510Y109910D01*
X71340Y110070D01*
X71190Y110260D01*
X71050Y110460D01*
X70910Y110700D01*
X70790Y110970D01*
X70680Y111240D01*
X70600Y111530D01*
X70540Y111820D01*
X70490Y112120D01*
X70470Y112430D01*
X70460Y112730D01*
X70470Y113100D01*
X70500Y113460D01*
X70570Y113800D01*
X70640Y114060D01*
X70720Y114300D01*
X70810Y114540D01*
X70920Y114760D01*
X71050Y114970D01*
X71170Y115140D01*
X71300Y115300D01*
X71450Y115440D01*
X71610Y115570D01*
X71790Y115670D01*
X71970Y115760D01*
X72170Y115830D01*
X72370Y115870D01*
X72590Y115900D01*
X72830Y115890D01*
X73000Y115870D01*
X73160Y115830D01*
X73310Y115760D01*
X73470Y115670D01*
X73620Y115580D01*
X73750Y115480D01*
X73890Y115360D01*
X74050Y115200D01*
X74200Y115020D01*
X74330Y114850D01*
X74450Y114670D01*
X74560Y114510D01*
X74650Y114350D01*
X74720Y114210D01*
X76500D01*
X76480Y114260D01*
X76460Y114340D01*
X76440Y114430D01*
X76400Y114540D01*
X76360Y114660D01*
X76300Y114830D01*
X76220Y115020D01*
X76130Y115210D01*
X76020Y115420D01*
X75890Y115640D01*
X75770Y115820D01*
X75640Y115990D01*
X75480Y116160D01*
X75310Y116330D01*
X75120Y116490D01*
X74910Y116640D01*
X74720Y116770D01*
X74520Y116880D01*
X74300Y116970D01*
X74070Y117060D01*
X73810Y117140D01*
X73540Y117200D01*
X73250Y117240D01*
X72940Y117270D01*
X72610Y117280D01*
X72300Y117270D01*
X72000Y117250D01*
X71720Y117210D01*
X71440Y117150D01*
X71190Y117080D01*
X70950Y116980D01*
X70690Y116870D01*
X70460Y116740D01*
X70230Y116590D01*
X70020Y116420D01*
X69830Y116240D01*
X69650Y116050D01*
X69490Y115840D01*
X69320Y115610D01*
X69180Y115360D01*
X69050Y115100D01*
X68930Y114830D01*
X68840Y114550D01*
X68740Y114180D01*
X68660Y113790D01*
X68610Y113410D01*
X68600Y113020D01*
X68610Y112630D01*
X68630Y112240D01*
X68690Y111860D01*
X68770Y111480D01*
X68860Y111120D01*
X68960Y110810D01*
X69080Y110500D01*
X69220Y110210D01*
X69370Y109940D01*
X69540Y109680D01*
X69720Y109420D01*
X69900Y109200D01*
X70100Y108990D01*
X70320Y108800D01*
X70540Y108630D01*
X70780Y108470D01*
X71010Y108350D01*
X71490Y108150D01*
X71750Y108090D01*
X72030Y108040D01*
X72300Y108010D01*
X72590D01*
X72940Y108020D01*
X73270Y108050D01*
X73580Y108100D01*
X73860Y108160D01*
X74130Y108240D01*
X74380Y108320D01*
X74630Y108440D01*
X74870Y108560D01*
X75070Y108690D01*
X75270Y108830D01*
X75440Y108980D01*
X75600Y109130D01*
X75740Y109290D01*
X75920Y109520D01*
X76060Y109740D01*
X76180Y109970D01*
X76280Y110190D01*
X76360Y110380D01*
X76420Y110560D01*
X76450Y110710D01*
X76500Y110950D01*
X76510Y111020D01*
X76520Y111080D01*
Y111110D01*
X74790D01*
X74770Y111080D01*
X74750Y111020D01*
G37*
G36*
G01X59030Y119180D02*
X60820D01*
X61410Y121170D01*
X64710D01*
X65390Y119180D01*
X67230D01*
X63850Y128130D01*
X62030D01*
X59030Y119180D01*
G37*
G36*
G01X73380D02*
Y120700D01*
X69390D01*
Y128130D01*
X67610D01*
Y119180D01*
X73380D01*
G37*
G36*
G01X62550Y108250D02*
X65410Y116660D01*
Y117130D01*
X63660D01*
X61700Y110620D01*
X59680Y117150D01*
X57890D01*
Y116680D01*
X60840Y108250D01*
X62550D01*
G37*
G36*
G01X82650Y112090D02*
Y113690D01*
X78550D01*
Y115530D01*
X83180D01*
Y117150D01*
X76840D01*
Y108220D01*
X83400D01*
Y109740D01*
X78570D01*
Y112090D01*
X82650D01*
G37*
G36*
G01X60500Y163500D02*
G03I-1500J0D01*
G37*
G36*
G01X83790Y102000D02*
X82140D01*
Y97950D01*
X83960D01*
X84150Y97970D01*
X84270Y98010D01*
X84340Y98040D01*
X84540Y98140D01*
X84590Y98180D01*
X84680Y98260D01*
X84750Y98340D01*
X84820Y98440D01*
X84890Y98560D01*
X84940Y98700D01*
X84970Y98810D01*
X85000Y98940D01*
X85010Y99040D01*
Y99130D01*
X85000Y99250D01*
X84980Y99380D01*
X84930Y99530D01*
X84870Y99660D01*
X84800Y99760D01*
X84720Y99850D01*
X84590Y99940D01*
X84510Y99990D01*
X84450Y100020D01*
X84500Y100050D01*
X84560Y100090D01*
X84600Y100130D01*
X84700Y100220D01*
X84770Y100320D01*
X84850Y100460D01*
X84900Y100560D01*
X84930Y100700D01*
X84940Y100800D01*
X84950Y100930D01*
X84940Y101070D01*
X84920Y101150D01*
X84890Y101280D01*
X84840Y101390D01*
X84760Y101540D01*
X84670Y101660D01*
X84600Y101730D01*
X84560Y101760D01*
X84380Y101880D01*
X84260Y101920D01*
X84150Y101950D01*
X84060Y101980D01*
X83930Y101990D01*
X83790Y102000D01*
G37*
G36*
G01X90810D02*
X88350D01*
Y97950D01*
X90810D01*
Y98470D01*
X88970D01*
Y99700D01*
X90320D01*
Y100230D01*
X88970D01*
Y101470D01*
X90810D01*
Y102000D01*
G37*
G36*
G01X86280Y98470D02*
Y102000D01*
X85660D01*
Y97950D01*
X87860D01*
Y98470D01*
X86280D01*
G37*
G36*
G01X94660Y100050D02*
Y102000D01*
X94330D01*
X93790Y100860D01*
X93240Y102000D01*
X92910D01*
Y100050D01*
X93200D01*
Y101460D01*
X93660Y100490D01*
X93900D01*
X94380Y101480D01*
Y100050D01*
X94660D01*
G37*
G36*
G01X92690Y102000D02*
X91390D01*
Y101740D01*
X91890D01*
Y100050D01*
X92190D01*
Y101740D01*
X92690D01*
Y102000D01*
G37*
G36*
G01X83690Y109650D02*
X83620Y109870D01*
X83550Y110110D01*
X83510Y110360D01*
X83490Y110620D01*
Y110890D01*
X85200D01*
X85190Y110700D01*
X85200Y110520D01*
X85230Y110360D01*
X85280Y110200D01*
X85360Y110060D01*
X85440Y109930D01*
X85550Y109820D01*
X85690Y109720D01*
X85850Y109620D01*
X86020Y109550D01*
X86230Y109470D01*
X86460Y109420D01*
X86700Y109390D01*
X86960Y109360D01*
X87190D01*
X87330Y109370D01*
X87480Y109390D01*
X87640Y109420D01*
X87810Y109460D01*
X88150Y109560D01*
X88470Y109720D01*
X88610Y109830D01*
X88730Y109950D01*
X88820Y110050D01*
X88880Y110180D01*
X88940Y110300D01*
X88970Y110440D01*
X88980Y110600D01*
X88970Y110770D01*
X88930Y110930D01*
X88880Y111070D01*
X88810Y111190D01*
X88720Y111300D01*
X88500Y111490D01*
X88360Y111570D01*
X88220Y111620D01*
X88070Y111680D01*
X87810Y111750D01*
X87530Y111820D01*
X86960Y111930D01*
X86690Y111980D01*
X86440Y112050D01*
X86210Y112100D01*
X85970Y112170D01*
X85700Y112240D01*
X85440Y112340D01*
X85170Y112440D01*
X84910Y112560D01*
X84640Y112700D01*
X84470Y112820D01*
X84310Y112940D01*
X84160Y113070D01*
X84020Y113220D01*
X83900Y113390D01*
X83810Y113540D01*
X83730Y113700D01*
X83670Y113870D01*
X83630Y114060D01*
X83600Y114260D01*
X83590Y114460D01*
X83600Y114700D01*
X83680Y115160D01*
X83750Y115370D01*
X83840Y115590D01*
X83960Y115800D01*
X84080Y115980D01*
X84220Y116150D01*
X84380Y116310D01*
X84550Y116470D01*
X84950Y116750D01*
X85180Y116870D01*
X85420Y116970D01*
X85690Y117070D01*
X85970Y117140D01*
X86260Y117210D01*
X86560Y117240D01*
X86890Y117270D01*
X87230Y117280D01*
X87550Y117270D01*
X87860Y117240D01*
X88130Y117200D01*
X88390Y117140D01*
X88630Y117070D01*
X88840Y116990D01*
X89040Y116900D01*
X89220Y116790D01*
X89390Y116680D01*
X89560Y116550D01*
X89720Y116400D01*
X89850Y116250D01*
X90070Y115930D01*
X90150Y115780D01*
X90230Y115590D01*
X90290Y115410D01*
X90340Y115240D01*
X90380Y115080D01*
X90390Y114950D01*
X90400Y114830D01*
X90420Y114720D01*
Y114660D01*
X90430Y114630D01*
X88790D01*
X88760Y114730D01*
X88730Y114840D01*
X88690Y114960D01*
X88640Y115090D01*
X88570Y115230D01*
X88490Y115360D01*
X88370Y115490D01*
X88270Y115580D01*
X88140Y115670D01*
X88000Y115740D01*
X87830Y115810D01*
X87680Y115840D01*
X87520Y115880D01*
X87340Y115900D01*
X87140Y115910D01*
X86950D01*
X86770Y115890D01*
X86570Y115860D01*
X86360Y115830D01*
X86170Y115770D01*
X85990Y115690D01*
X85850Y115630D01*
X85740Y115550D01*
X85640Y115460D01*
X85540Y115360D01*
X85470Y115250D01*
X85410Y115130D01*
X85380Y115000D01*
X85370Y114850D01*
X85380Y114700D01*
X85400Y114560D01*
X85440Y114430D01*
X85500Y114320D01*
X85604Y114172D01*
X85810Y114000D01*
X85960Y113910D01*
X86120Y113830D01*
X86320Y113760D01*
X86550Y113690D01*
X86790Y113630D01*
X87030Y113590D01*
X87290Y113540D01*
X87560Y113500D01*
X87820Y113460D01*
X88170Y113390D01*
X88500Y113310D01*
X88810Y113220D01*
X89100Y113130D01*
X89360Y113020D01*
X89610Y112910D01*
X89820Y112780D01*
X90020Y112640D01*
X90200Y112480D01*
X90320Y112340D01*
X90420Y112190D01*
X90520Y112030D01*
X90590Y111850D01*
X90660Y111660D01*
X90700Y111450D01*
X90730Y111250D01*
X90750Y111010D01*
Y110770D01*
X90730Y110530D01*
X90700Y110300D01*
X90630Y110070D01*
X90550Y109850D01*
X90450Y109640D01*
X90340Y109430D01*
X90170Y109210D01*
X89980Y109000D01*
X89760Y108800D01*
X89530Y108620D01*
X89300Y108480D01*
X89050Y108360D01*
X88790Y108250D01*
X88510Y108150D01*
X87890Y108030D01*
X87570Y107990D01*
X86840D01*
X86470Y108020D01*
X86140Y108060D01*
X85810Y108120D01*
X85510Y108180D01*
X85220Y108280D01*
X84980Y108370D01*
X84750Y108480D01*
X84550Y108610D01*
X84360Y108750D01*
X84190Y108900D01*
X84030Y109070D01*
X83900Y109250D01*
X83790Y109440D01*
X83690Y109650D01*
G37*
G36*
G01X89380Y126890D02*
X89250Y127030D01*
X89100Y127180D01*
X88920Y127330D01*
X88730Y127470D01*
X88520Y127610D01*
X88320Y127740D01*
X88090Y127870D01*
X87850Y127970D01*
X87600Y128060D01*
X87340Y128140D01*
X87070Y128200D01*
X86790Y128220D01*
X86490Y128240D01*
X85890Y128200D01*
X85600Y128150D01*
X85330Y128080D01*
X85060Y128000D01*
X84810Y127900D01*
X84510Y127770D01*
X84220Y127600D01*
X83960Y127420D01*
X83700Y127230D01*
X83480Y127010D01*
X83260Y126780D01*
X83080Y126540D01*
X82920Y126300D01*
X82770Y126040D01*
X82640Y125780D01*
X82520Y125510D01*
X82400Y125150D01*
X82300Y124780D01*
X82230Y124410D01*
X82180Y124030D01*
X82160Y123650D01*
X82170Y123270D01*
X82210Y122900D01*
X82260Y122530D01*
X82350Y122170D01*
X82440Y121870D01*
X82550Y121580D01*
X82680Y121300D01*
X82820Y121020D01*
X82990Y120760D01*
X83170Y120520D01*
X83350Y120290D01*
X83560Y120080D01*
X83780Y119900D01*
X84010Y119720D01*
X84270Y119560D01*
X84510Y119430D01*
X84760Y119320D01*
X85040Y119230D01*
X85320Y119150D01*
X85610Y119090D01*
X85920Y119050D01*
X86240Y119030D01*
X86490Y119040D01*
X86740Y119060D01*
X86970Y119100D01*
X87190Y119140D01*
X87400Y119210D01*
X87580Y119280D01*
X87760Y119370D01*
X87930Y119460D01*
X88150Y119600D01*
X88350Y119740D01*
X88570Y119930D01*
X88890Y120250D01*
Y119400D01*
X90300D01*
Y123930D01*
X86630D01*
Y122540D01*
X88760D01*
Y122060D01*
X88750Y122030D01*
X88710Y121970D01*
X88670Y121900D01*
X88610Y121790D01*
X88520Y121670D01*
X88420Y121530D01*
X88310Y121390D01*
X88170Y121240D01*
X88020Y121090D01*
X87840Y120950D01*
X87650Y120820D01*
X87480Y120710D01*
X87290Y120630D01*
X87090Y120550D01*
X86880Y120510D01*
X86650Y120470D01*
X86260D01*
X85970Y120510D01*
X85760Y120550D01*
X85380Y120690D01*
X85170Y120820D01*
X84960Y120960D01*
X84780Y121120D01*
X84610Y121300D01*
X84460Y121480D01*
X84330Y121690D01*
X84210Y121910D01*
X84120Y122130D01*
X84030Y122380D01*
X83950Y122690D01*
X83890Y123010D01*
X83860Y123340D01*
X83850Y123660D01*
X83870Y123970D01*
X83900Y124260D01*
X83960Y124540D01*
X84030Y124820D01*
X84120Y125090D01*
X84240Y125360D01*
X84380Y125600D01*
X84530Y125830D01*
X84680Y126010D01*
X84850Y126180D01*
X85030Y126330D01*
X85220Y126470D01*
X85390Y126560D01*
X85580Y126640D01*
X85780Y126710D01*
X85990Y126760D01*
X86200Y126790D01*
X86440D01*
X86660Y126780D01*
X86880Y126750D01*
X87080Y126700D01*
X87260Y126640D01*
X87420Y126550D01*
X87570Y126460D01*
X87730Y126350D01*
X87880Y126210D01*
X88040Y126060D01*
X88170Y125900D01*
X88390Y125580D01*
X88490Y125430D01*
X88570Y125290D01*
X90080D01*
Y125410D01*
X90060Y125500D01*
X90040Y125600D01*
X90010Y125720D01*
X89960Y125860D01*
X89910Y126010D01*
X89830Y126180D01*
X89740Y126360D01*
X89620Y126550D01*
X89490Y126750D01*
X89380Y126890D01*
G37*
G36*
G01X183800Y50050D02*
G02I-1500J0D01*
G37*
G36*
G01X255450Y8900D02*
G03I-1500J0D01*
G37*
G36*
G01X265733Y73268D02*
G02I-1501J0D01*
G37*
G36*
G01X262563Y143248D02*
G03I-1500J0D01*
G37*
G36*
G01X324657Y-30343D02*
G02I-1500J0D01*
G37*
G36*
G01X342027Y37811D02*
G02I-1500J0D01*
G37*
%LPC*%
G75*
G36*
G01X21350Y99440D02*
X20280D01*
X20840Y101170D01*
X21350Y99440D01*
G37*
G36*
G01X35940Y117900D02*
X23450Y110550D01*
Y124930D01*
X35940Y117900D01*
G37*
G36*
G01X34770Y98469D02*
X33669D01*
Y101471D01*
X34670D01*
X34820Y101451D01*
X34910Y101441D01*
X34940Y101431D01*
X35000Y101401D01*
X35051Y101371D01*
X35091Y101341D01*
X35141Y101281D01*
X35171Y101251D01*
X35251Y101120D01*
X35291Y100840D01*
Y100790D01*
X35311Y100540D01*
Y99390D01*
X35301Y99300D01*
Y99220D01*
X35291Y99110D01*
X35261Y98890D01*
X35241Y98810D01*
X35211Y98749D01*
X35161Y98679D01*
X35131Y98629D01*
X35091Y98589D01*
X35010Y98539D01*
X34970Y98519D01*
X34860Y98479D01*
X34770Y98469D01*
G37*
G36*
G01X39850Y101490D02*
X40139Y101415D01*
X40162Y101409D01*
X40283Y101306D01*
X40290Y101300D01*
X40350Y101240D01*
X40390Y101190D01*
X40461Y100975D01*
X40490Y100830D01*
Y100749D01*
X40496Y100684D01*
X40500Y100639D01*
X40510Y100530D01*
Y100419D01*
X40517Y100342D01*
X40520Y100310D01*
Y99690D01*
X40510Y99468D01*
Y99458D01*
X40508Y99424D01*
X40500Y99320D01*
Y99230D01*
X40485Y99100D01*
X40470Y98980D01*
X40450Y98910D01*
X40430Y98852D01*
X40420Y98830D01*
X40398Y98764D01*
X40350Y98700D01*
X40310Y98640D01*
X40260Y98590D01*
X40090Y98500D01*
X39910Y98460D01*
X39770Y98440D01*
X39480D01*
X39370Y98450D01*
X39250Y98470D01*
X39150Y98500D01*
X39070Y98540D01*
X38940Y98630D01*
X38872Y98698D01*
X38861Y98721D01*
X38847Y98750D01*
X38800Y98830D01*
X38770Y98950D01*
X38740Y99120D01*
X38710Y99410D01*
Y100530D01*
X38750Y100890D01*
X38780Y101020D01*
X38870Y101240D01*
X38920Y101290D01*
X39043Y101394D01*
X39049Y101399D01*
X39133Y101425D01*
X39150Y101431D01*
X39220Y101460D01*
X39320Y101480D01*
X39404Y101492D01*
X39452Y101499D01*
X39460Y101500D01*
X39740D01*
X39850Y101490D01*
G37*
G36*
G01X56920Y99440D02*
X55850D01*
X56410Y101170D01*
X56920Y99440D01*
G37*
G36*
G01X31500D02*
X30430D01*
X30990Y101170D01*
X31500Y99440D01*
G37*
G36*
G01X45940Y109609D02*
X44419D01*
Y115641D01*
X45830D01*
X46060Y115631D01*
X46280Y115601D01*
X46480Y115551D01*
X46670Y115491D01*
X46840Y115401D01*
X47001Y115311D01*
X47181Y115181D01*
X47351Y115041D01*
X47491Y114881D01*
X47631Y114701D01*
X47741Y114520D01*
X47871Y114270D01*
X47971Y114030D01*
X48061Y113780D01*
X48171Y113290D01*
X48201Y113050D01*
X48221Y112830D01*
X48231Y112620D01*
Y112330D01*
X48211Y112040D01*
X48181Y111730D01*
X48141Y111500D01*
X48091Y111270D01*
X48021Y111050D01*
X47941Y110830D01*
X47841Y110630D01*
X47741Y110459D01*
X47621Y110299D01*
X47471Y110149D01*
X47321Y110019D01*
X47151Y109899D01*
X46990Y109819D01*
X46810Y109739D01*
X46610Y109689D01*
X46400Y109649D01*
X46180Y109619D01*
X45940Y109609D01*
G37*
G36*
G01X47714Y123007D02*
X47721Y122984D01*
X47724Y122974D01*
X47727Y122963D01*
X47732Y122943D01*
X47735Y122929D01*
X47737Y122919D01*
X47740Y122903D01*
X47743Y122884D01*
X47746Y122860D01*
X47747Y122849D01*
X47748Y122839D01*
X47749Y122823D01*
X47750Y122796D01*
Y122430D01*
X45520D01*
X45590Y122990D01*
X46600Y126250D01*
X47712Y123013D01*
X47714Y123007D01*
G37*
G36*
G01X68920Y100860D02*
X68930Y100690D01*
Y100600D01*
X68890Y100410D01*
X68845Y100310D01*
X68830Y100280D01*
X68780Y100200D01*
X68750Y100160D01*
X68660Y100070D01*
X68580Y100010D01*
X68430Y99960D01*
X68421Y99958D01*
X68300Y99930D01*
X68160Y99910D01*
X67440D01*
Y101470D01*
X68310D01*
X68390Y101460D01*
X68440Y101450D01*
X68546Y101414D01*
X68558Y101410D01*
X68570Y101400D01*
X68670Y101320D01*
X68770Y101230D01*
X68780Y101210D01*
X68820Y101140D01*
X68860Y101060D01*
X68920Y100860D01*
G37*
G36*
G01X71870Y101490D02*
X72159Y101415D01*
X72182Y101409D01*
X72303Y101306D01*
X72310Y101300D01*
X72370Y101240D01*
X72410Y101190D01*
X72481Y100975D01*
X72510Y100830D01*
Y100749D01*
X72516Y100684D01*
X72520Y100639D01*
X72530Y100530D01*
Y100419D01*
X72537Y100342D01*
X72540Y100310D01*
Y99690D01*
X72530Y99468D01*
Y99458D01*
X72528Y99424D01*
X72520Y99320D01*
Y99230D01*
X72505Y99100D01*
X72490Y98980D01*
X72470Y98910D01*
X72450Y98852D01*
X72440Y98830D01*
X72418Y98764D01*
X72370Y98700D01*
X72330Y98640D01*
X72280Y98590D01*
X72110Y98500D01*
X71930Y98460D01*
X71790Y98440D01*
X71500D01*
X71390Y98450D01*
X71270Y98470D01*
X71170Y98500D01*
X71090Y98540D01*
X70960Y98630D01*
X70892Y98698D01*
X70881Y98721D01*
X70867Y98750D01*
X70820Y98830D01*
X70790Y98950D01*
X70760Y99120D01*
X70730Y99410D01*
Y100530D01*
X70770Y100890D01*
X70800Y101020D01*
X70890Y101240D01*
X70940Y101290D01*
X71063Y101394D01*
X71069Y101399D01*
X71153Y101425D01*
X71170Y101431D01*
X71240Y101460D01*
X71340Y101480D01*
X71424Y101492D01*
X71472Y101499D01*
X71480Y101500D01*
X71760D01*
X71870Y101490D01*
G37*
G36*
G01X78110Y126661D02*
X78290Y126601D01*
X78460Y126521D01*
X78661Y126411D01*
X78851Y126271D01*
X79031Y126121D01*
X79181Y125941D01*
X79331Y125751D01*
X79471Y125530D01*
X79591Y125280D01*
X79701Y125030D01*
X79781Y124760D01*
X79851Y124470D01*
X79891Y124190D01*
X79911Y123970D01*
X79921Y123900D01*
X79931Y123620D01*
X79921Y123330D01*
X79891Y123030D01*
X79841Y122750D01*
X79771Y122470D01*
X79691Y122210D01*
X79581Y121950D01*
X79451Y121709D01*
X79301Y121479D01*
X79161Y121309D01*
X79001Y121139D01*
X78821Y120989D01*
X78641Y120849D01*
X78470Y120759D01*
X78280Y120679D01*
X78090Y120609D01*
X77880Y120559D01*
X77670Y120529D01*
X77230D01*
X77030Y120559D01*
X76840Y120609D01*
X76650Y120669D01*
X76480Y120739D01*
X76279Y120849D01*
X76089Y120999D01*
X75919Y121149D01*
X75759Y121319D01*
X75619Y121509D01*
X75479Y121740D01*
X75349Y121980D01*
X75249Y122250D01*
X75179Y122510D01*
X75109Y122790D01*
X75059Y123070D01*
X75039Y123360D01*
Y123660D01*
X75049Y123970D01*
X75079Y124240D01*
X75139Y124520D01*
X75199Y124790D01*
X75289Y125070D01*
X75399Y125320D01*
X75529Y125560D01*
X75669Y125791D01*
X75819Y125971D01*
X75979Y126141D01*
X76139Y126291D01*
X76329Y126421D01*
X76500Y126521D01*
X76680Y126601D01*
X76870Y126661D01*
X77070Y126711D01*
X77280Y126741D01*
X77510Y126751D01*
X77710Y126741D01*
X78110Y126661D01*
G37*
G36*
G01X64074Y123007D02*
X64081Y122984D01*
X64084Y122974D01*
X64087Y122963D01*
X64092Y122943D01*
X64095Y122929D01*
X64097Y122919D01*
X64100Y122903D01*
X64103Y122884D01*
X64106Y122860D01*
X64107Y122849D01*
X64108Y122839D01*
X64109Y122823D01*
X64110Y122796D01*
Y122430D01*
X61880D01*
X61950Y122990D01*
X62960Y126250D01*
X64072Y123013D01*
X64074Y123007D01*
G37*
G36*
G01X83810Y98470D02*
X82760D01*
Y99700D01*
X83810D01*
X83910Y99690D01*
X84030Y99660D01*
X84120Y99620D01*
X84210Y99540D01*
X84270Y99470D01*
X84320Y99350D01*
X84340Y99290D01*
X84360Y99210D01*
X84370Y99120D01*
Y99100D01*
X84360Y99010D01*
X84330Y98880D01*
X84280Y98780D01*
X84220Y98680D01*
X84170Y98620D01*
X84100Y98570D01*
X84050Y98540D01*
X83940Y98490D01*
X83810Y98470D01*
G37*
G36*
G01X83730Y100230D02*
X82760D01*
Y101470D01*
X83580D01*
X83730Y101460D01*
X83960Y101410D01*
X84040Y101370D01*
X84120Y101320D01*
X84190Y101250D01*
X84250Y101150D01*
X84280Y101060D01*
X84300Y100950D01*
Y100834D01*
X84294Y100765D01*
X84289Y100711D01*
X84280Y100640D01*
X84274Y100629D01*
X84230Y100550D01*
X84160Y100460D01*
X84040Y100340D01*
X83979Y100308D01*
X83950Y100290D01*
X83840Y100250D01*
X83730Y100230D01*
G37*
%LPD*%
G75*
G36*
G01X80710Y97950D02*
Y102000D01*
X81330D01*
Y97950D01*
X80710D01*
G37*
G36*
G01X65960Y108250D02*
Y117130D01*
X67870D01*
Y108250D01*
X65960D01*
G37*
G54D10*
G01X7167Y35000D02*
X3433D01*
Y42500D01*
X7167D01*
G01X5673Y38875D02*
X3433D01*
G01X10467Y42500D02*
X12800Y35000D01*
X15133Y42500D01*
G01X17967Y35000D02*
X20300Y42500D01*
X22633Y35000D01*
G01X21793Y37625D02*
X18807D01*
G01X25933Y42500D02*
Y35000D01*
X29667D01*
G01X34087Y37500D02*
X36513D01*
G01X40467Y35000D02*
X42800Y42500D01*
X45133Y35000D01*
G01X44293Y37625D02*
X41307D01*
G01X48247Y35000D02*
Y42500D01*
X50113D01*
X50860Y42125D01*
X51420Y41625D01*
X51887Y40875D01*
X52260Y40000D01*
X52353Y38750D01*
X52260Y37500D01*
X51887Y36625D01*
X51420Y35875D01*
X50860Y35375D01*
X50113Y35000D01*
X48247D01*
G01X55747Y36125D02*
X56307Y35500D01*
X56960Y35125D01*
X57800Y35000D01*
X58640Y35250D01*
X59293Y35750D01*
X59760Y36625D01*
X59853Y37625D01*
X59667Y38625D01*
X59200Y39250D01*
X58547Y39750D01*
X57893Y39875D01*
X57240Y39750D01*
X56400Y39250D01*
X56680Y42500D01*
X59200D01*
G01X63713Y35875D02*
X64367Y35250D01*
X65113Y35000D01*
X65860Y35250D01*
X66513Y36000D01*
X66980Y37125D01*
X67167Y38250D01*
Y39625D01*
X66980Y40750D01*
X66513Y41750D01*
X65953Y42250D01*
X65300Y42500D01*
X64553Y42250D01*
X63993Y41750D01*
X63620Y41000D01*
X63433Y40000D01*
X63620Y39125D01*
X64087Y38250D01*
X64647Y37750D01*
X65300Y37625D01*
X66047Y37875D01*
X66607Y38500D01*
X67167Y39625D01*
G01X73920Y35000D02*
Y42500D01*
X70467Y37125D01*
X75133D01*
G01X80300Y35000D02*
Y42500D01*
X79180Y41000D01*
G01Y35000D02*
X81420D01*
G01X88547Y39000D02*
X88920Y39375D01*
X89200Y40000D01*
X89387Y40875D01*
X89200Y41625D01*
X88827Y42125D01*
X88173Y42500D01*
X85653D01*
Y35000D01*
X88733D01*
X89387Y35500D01*
X89760Y36250D01*
X89947Y37125D01*
X89760Y38000D01*
X89200Y38750D01*
X88547Y39000D01*
X85653D01*
G01X92967Y35000D02*
X95300Y42500D01*
X97633Y35000D01*
G01X96793Y37625D02*
X93807D01*
G01X102800Y42500D02*
Y35000D01*
G01X100653Y42500D02*
X104947D01*
G01X108527D02*
X112073D01*
X108527Y35000D01*
X112073D01*
G54D11*
G01X-12500Y-7000D02*
X22500D01*
G01X-2500Y-17000D02*
Y18000D01*
G01Y232500D02*
Y197500D01*
G01X-12500Y222500D02*
X22500D01*
G01X297500Y-62500D02*
Y-27500D01*
G01X287500Y-52500D02*
X322500D01*
G01X297500Y282500D02*
Y247500D01*
G01X287500Y272500D02*
X322500D01*
G01X412500Y-52500D02*
X377500D01*
G01X412500Y272500D02*
X377500D01*
G01X402500Y-62500D02*
Y-27500D01*
G01Y282500D02*
Y247500D01*
G54D12*
G01X26500Y159500D02*
X44500D01*
G01X48500Y163500D02*
Y185500D01*
X26500D01*
Y159500D01*
G01X115000Y199250D02*
X11000D01*
Y210750D01*
X115000D01*
Y199250D01*
G01X47000Y20750D02*
X131000D01*
Y9250D01*
X47000D01*
Y20750D01*
G01X48500Y163500D02*
X44500Y159500D01*
G01X79800Y163213D02*
Y171787D01*
X85200D01*
Y163213D01*
X79800D01*
G01X96100Y310400D02*
X91100D01*
Y320400D01*
X96100D01*
G01X94100Y315567D02*
X91100D01*
G01X100475Y320400D02*
X103600Y310400D01*
X106725Y320400D01*
G01X110475Y310400D02*
X113600Y320400D01*
X116725Y310400D01*
G01X115600Y313900D02*
X111600D01*
G01X121100Y320400D02*
Y310400D01*
X126100D01*
G01X131975Y313733D02*
X135225D01*
G01X140475Y310400D02*
X143600Y320400D01*
X146725Y310400D01*
G01X145600Y313900D02*
X141600D01*
G01X150850Y310400D02*
Y320400D01*
X153350D01*
X154350Y319900D01*
X155100Y319233D01*
X155725Y318233D01*
X156225Y317066D01*
X156350Y315400D01*
X156225Y313733D01*
X155725Y312567D01*
X155100Y311566D01*
X154350Y310900D01*
X153350Y310400D01*
X150850D01*
G01X160850Y311900D02*
X161600Y311067D01*
X162475Y310567D01*
X163600Y310400D01*
X164725Y310733D01*
X165600Y311400D01*
X166225Y312567D01*
X166350Y313900D01*
X166100Y315233D01*
X165475Y316067D01*
X164600Y316733D01*
X163725Y316900D01*
X162850Y316733D01*
X161725Y316067D01*
X162100Y320400D01*
X165475D01*
G01X171475Y311566D02*
X172350Y310733D01*
X173350Y310400D01*
X174350Y310733D01*
X175225Y311733D01*
X175850Y313233D01*
X176100Y314733D01*
Y316567D01*
X175850Y318067D01*
X175225Y319400D01*
X174475Y320067D01*
X173600Y320400D01*
X172600Y320067D01*
X171850Y319400D01*
X171350Y318400D01*
X171100Y317066D01*
X171350Y315900D01*
X171975Y314733D01*
X172725Y314066D01*
X173600Y313900D01*
X174600Y314233D01*
X175350Y315067D01*
X176100Y316567D01*
G01X185100Y310400D02*
Y320400D01*
X180475Y313233D01*
X186725D01*
G01X193600Y310400D02*
Y320400D01*
X192100Y318400D01*
G01Y310400D02*
X195100D01*
G01X204600Y315733D02*
X205100Y316233D01*
X205475Y317066D01*
X205725Y318233D01*
X205475Y319233D01*
X204975Y319900D01*
X204100Y320400D01*
X200725D01*
Y310400D01*
X204850D01*
X205725Y311067D01*
X206225Y312067D01*
X206475Y313233D01*
X206225Y314400D01*
X205475Y315400D01*
X204600Y315733D01*
X200725D01*
G01X210475Y310400D02*
X213600Y320400D01*
X216725Y310400D01*
G01X215600Y313900D02*
X211600D01*
G01X223600Y320400D02*
Y310400D01*
G01X220725Y320400D02*
X226475D01*
G01X231225D02*
X235975D01*
X231225Y310400D01*
X235975D01*
G01X251100D02*
Y320400D01*
X254225D01*
X255225Y319900D01*
X255850Y319233D01*
X256100Y317900D01*
X255850Y316567D01*
X255100Y315733D01*
X254225Y315233D01*
X251100D01*
G01X254225D02*
X256100Y310400D01*
G01X266100D02*
X261100D01*
Y320400D01*
X266100D01*
G01X264100Y315567D02*
X261100D01*
G01X270475Y320400D02*
X273600Y310400D01*
X276725Y320400D01*
G01X281975Y313733D02*
X285225D01*
G01X290850Y310400D02*
Y320400D01*
X293350D01*
X294350Y319900D01*
X295100Y319233D01*
X295725Y318233D01*
X296225Y317066D01*
X296350Y315400D01*
X296225Y313733D01*
X295725Y312567D01*
X295100Y311566D01*
X294350Y310900D01*
X293350Y310400D01*
X290850D01*
G01X105975Y351733D02*
X106975Y350900D01*
X108100Y350400D01*
X109100D01*
X110100Y350900D01*
X110850Y351733D01*
X111225Y352900D01*
X110975Y354066D01*
X110350Y355067D01*
X109225Y355733D01*
X107725Y356067D01*
X106850Y356733D01*
X106475Y357900D01*
X106725Y359067D01*
X107350Y359900D01*
X108225Y360400D01*
X109100D01*
X109975Y360067D01*
X110725Y359233D01*
G01X117100Y360400D02*
X120100D01*
G01X118600D02*
Y350400D01*
G01X117100D02*
X120100D01*
G01X126100Y360400D02*
Y350400D01*
X131100D01*
G01X135850D02*
Y360400D01*
G01X140600D02*
X135850Y354233D01*
G01X141350Y350400D02*
X137975Y357066D01*
G01X145975Y351733D02*
X146975Y350900D01*
X148100Y350400D01*
X149100D01*
X150100Y350900D01*
X150850Y351733D01*
X151225Y352900D01*
X150975Y354066D01*
X150350Y355067D01*
X149225Y355733D01*
X147725Y356067D01*
X146850Y356733D01*
X146475Y357900D01*
X146725Y359067D01*
X147350Y359900D01*
X148225Y360400D01*
X149100D01*
X149975Y360067D01*
X150725Y359233D01*
G01X161350Y359567D02*
X160600Y360067D01*
X159725Y360400D01*
X158725D01*
X157600Y359900D01*
X156725Y359067D01*
X156100Y358067D01*
X155600Y356400D01*
X155475Y354900D01*
X155725Y353400D01*
X156100Y352400D01*
X156850Y351400D01*
X157725Y350733D01*
X158600Y350400D01*
X159475D01*
X160350Y350733D01*
X161100Y351233D01*
X161725Y351900D01*
G01X166100Y350400D02*
Y360400D01*
X169225D01*
X170225Y359900D01*
X170850Y359233D01*
X171100Y357900D01*
X170850Y356567D01*
X170100Y355733D01*
X169225Y355233D01*
X166100D01*
G01X169225D02*
X171100Y350400D01*
G01X181100D02*
X176100D01*
Y360400D01*
X181100D01*
G01X179100Y355567D02*
X176100D01*
G01X191100Y350400D02*
X186100D01*
Y360400D01*
X191100D01*
G01X189100Y355567D02*
X186100D01*
G01X195725Y350400D02*
Y360400D01*
X201475Y350400D01*
Y360400D01*
G01X216100Y350400D02*
Y360400D01*
X219100D01*
X220100Y359900D01*
X220850Y358733D01*
X221100Y357400D01*
X220850Y356067D01*
X220225Y355067D01*
X219100Y354566D01*
X216100D01*
G01X226100Y350400D02*
Y360400D01*
X229225D01*
X230225Y359900D01*
X230850Y359233D01*
X231100Y357900D01*
X230850Y356567D01*
X230100Y355733D01*
X229225Y355233D01*
X226100D01*
G01X229225D02*
X231100Y350400D01*
G01X237100Y360400D02*
X240100D01*
G01X238600D02*
Y350400D01*
G01X237100D02*
X240100D01*
G01X245350D02*
Y360400D01*
X248600Y352067D01*
X251850Y360400D01*
Y350400D01*
G01X255475D02*
X258600Y360400D01*
X261725Y350400D01*
G01X260600Y353900D02*
X256600D01*
G01X266100Y350400D02*
Y360400D01*
X269225D01*
X270225Y359900D01*
X270850Y359233D01*
X271100Y357900D01*
X270850Y356567D01*
X270100Y355733D01*
X269225Y355233D01*
X266100D01*
G01X269225D02*
X271100Y350400D01*
G01X278600D02*
Y354900D01*
X276100Y360400D01*
G01X281100D02*
X278600Y354900D01*
G01X112300Y163213D02*
Y171787D01*
X117700D01*
Y163213D01*
X112300D01*
G01X201000Y199250D02*
X117000D01*
Y210750D01*
X201000D01*
Y199250D01*
G01X138600Y340400D02*
X137600Y340067D01*
X136850Y339233D01*
X136350Y338233D01*
X135975Y336900D01*
X135850Y335400D01*
X135975Y333900D01*
X136350Y332567D01*
X136850Y331566D01*
X137600Y330733D01*
X138600Y330400D01*
X139600Y330733D01*
X140350Y331566D01*
X140850Y332567D01*
X141225Y333900D01*
X141350Y335400D01*
X141225Y336900D01*
X140850Y338233D01*
X140350Y339233D01*
X139600Y340067D01*
X138600Y340400D01*
G01X148600Y330400D02*
X149475Y330567D01*
X150475Y331067D01*
X151100Y331900D01*
X151350Y333067D01*
X151100Y334233D01*
X150350Y335233D01*
X149225Y335733D01*
X147975D01*
X147225Y336067D01*
X146600Y336900D01*
X146350Y338067D01*
X146725Y339233D01*
X147600Y340067D01*
X148600Y340400D01*
X149600Y340067D01*
X150475Y339233D01*
X150850Y338067D01*
X150600Y336900D01*
X149975Y336067D01*
X149225Y335733D01*
X147975D01*
X146850Y335233D01*
X146100Y334233D01*
X145850Y333067D01*
X146100Y331900D01*
X146725Y331067D01*
X147725Y330567D01*
X148600Y330400D01*
G01X156975Y333733D02*
X160225D01*
G01X226975D02*
X230225D01*
G01X238600Y340400D02*
X237600Y340067D01*
X236850Y339233D01*
X236350Y338233D01*
X235975Y336900D01*
X235850Y335400D01*
X235975Y333900D01*
X236350Y332567D01*
X236850Y331566D01*
X237600Y330733D01*
X238600Y330400D01*
X239600Y330733D01*
X240350Y331566D01*
X240850Y332567D01*
X241225Y333900D01*
X241350Y335400D01*
X241225Y336900D01*
X240850Y338233D01*
X240350Y339233D01*
X239600Y340067D01*
X238600Y340400D01*
G01X245850Y332400D02*
X246600Y331233D01*
X247600Y330567D01*
X248725Y330400D01*
X249725Y330567D01*
X250725Y331400D01*
X251350Y332400D01*
X251475Y333400D01*
X251225Y334566D01*
X250350Y335400D01*
X249475Y335733D01*
X248350D01*
G01X249475D02*
X250225Y336233D01*
X250850Y337066D01*
X251100Y338067D01*
X250850Y339067D01*
X250225Y339900D01*
X249100Y340400D01*
X247975Y340233D01*
X246850Y339567D01*
G01X137000Y20750D02*
X201000D01*
Y9250D01*
X137000D01*
Y20750D01*
G01X162000Y50750D02*
Y50000D01*
X180000D01*
Y50750D01*
G01X162000Y71250D02*
Y72000D01*
X180000D01*
Y71250D01*
G01X150000Y114000D02*
Y146000D01*
X162000D01*
Y114000D01*
X150000D01*
G01X200508Y124472D02*
X169492D01*
Y135528D01*
X200508D01*
Y124472D01*
G01Y111972D02*
X169492D01*
Y123028D01*
X200508D01*
Y111972D01*
G01Y136972D02*
X169492D01*
Y148028D01*
X200508D01*
Y136972D01*
G01X168563Y168937D02*
X184311D01*
Y161063D01*
X168563D01*
Y168937D01*
G01Y181437D02*
X184311D01*
Y173563D01*
X168563D01*
Y181437D01*
G01X168600Y340400D02*
X167600Y340067D01*
X166850Y339233D01*
X166350Y338233D01*
X165975Y336900D01*
X165850Y335400D01*
X165975Y333900D01*
X166350Y332567D01*
X166850Y331566D01*
X167600Y330733D01*
X168600Y330400D01*
X169600Y330733D01*
X170350Y331566D01*
X170850Y332567D01*
X171225Y333900D01*
X171350Y335400D01*
X171225Y336900D01*
X170850Y338233D01*
X170350Y339233D01*
X169600Y340067D01*
X168600Y340400D01*
G01X180100Y330400D02*
Y340400D01*
X175475Y333233D01*
X181725D01*
G01X188350Y330400D02*
X188600Y332567D01*
X188975Y334400D01*
X189475Y336067D01*
X190100Y337900D01*
X191100Y340400D01*
X186100D01*
G01X200100Y330400D02*
Y340400D01*
X195475Y333233D01*
X201725D01*
G01X205850Y331900D02*
X206600Y331067D01*
X207475Y330567D01*
X208600Y330400D01*
X209725Y330733D01*
X210600Y331400D01*
X211225Y332567D01*
X211350Y333900D01*
X211100Y335233D01*
X210475Y336067D01*
X209600Y336733D01*
X208725Y336900D01*
X207850Y336733D01*
X206725Y336067D01*
X207100Y340400D01*
X210475D01*
G01X216225Y334566D02*
X217100Y335733D01*
X217850Y336400D01*
X218850Y336733D01*
X219725Y336400D01*
X220350Y335733D01*
X220850Y334733D01*
X220975Y333567D01*
X220850Y332567D01*
X220350Y331566D01*
X219600Y330733D01*
X218725Y330400D01*
X217725Y330733D01*
X216850Y331733D01*
X216350Y333233D01*
X216225Y334900D01*
X216475Y337066D01*
X216850Y338233D01*
X217475Y339400D01*
X218350Y340233D01*
X219225Y340400D01*
X220100Y340067D01*
X220725Y339233D01*
G01X232220Y78073D02*
Y76220D01*
X234073D01*
G01Y105780D02*
X232220D01*
Y103927D01*
G01X251250Y34600D02*
X251000D01*
Y28000D01*
X253000Y26000D01*
X251000Y24000D01*
Y17400D01*
X251250D01*
G01X259927Y76220D02*
X261780D01*
Y78073D01*
G01Y103927D02*
Y105780D01*
X259927D01*
G01X256419Y160090D02*
Y144910D01*
X273581D01*
Y160090D01*
X256419D01*
G01X286750Y34600D02*
X287000D01*
Y17400D01*
X286750D01*
G01X279300Y82000D02*
G03I-300J0D01*
G01X303500Y122500D02*
G03I-6000J0D01*
G01X296770Y155000D02*
X297960Y152750D01*
X317040D01*
X318260Y155080D01*
G01X291500Y203500D02*
Y181500D01*
X328500D01*
Y203500D01*
X291500D01*
G01X296420Y162500D02*
G02X318630Y162330I11081J-3245D01*
G01X326094Y-25553D02*
Y-27406D01*
X327947D01*
G01Y-13594D02*
X326094D01*
Y-15447D01*
G01X305722Y-6758D02*
Y24258D01*
X316778D01*
Y-6758D01*
X305722D01*
G01X318973Y16142D02*
X317961D01*
Y35858D01*
X318973D01*
G01X316778Y58008D02*
Y26992D01*
X305722D01*
Y58008D01*
X316778D01*
G01X321000Y122500D02*
G03I-6000J0D01*
G01X351800Y130631D02*
X315700D01*
Y149369D01*
X351800D01*
Y130631D01*
G01X303858Y264000D02*
X337748D01*
Y219638D01*
X303858D01*
Y264000D01*
G01X340000Y-42000D02*
G03I-6000J0D01*
G01X338053Y-27406D02*
X339906D01*
Y-25553D01*
G01Y-15447D02*
Y-13594D01*
X338053D01*
G01X339027Y16142D02*
X340039D01*
Y23819D01*
X337858Y26000D01*
X340039Y28181D01*
Y35858D01*
X339027D01*
G01X358500Y122500D02*
G03I-6000J0D01*
G01X339750Y162500D02*
G03I-6000J0D01*
G01X353900Y238000D02*
G03I-6000J0D01*
G01X377400Y33300D02*
G03I-6000J0D01*
G01X5793Y17083D02*
X5413Y17333D01*
X4970Y17500D01*
X4463D01*
X3893Y17250D01*
X3450Y16833D01*
X3133Y16333D01*
X2880Y15500D01*
X2817Y14750D01*
X2943Y14000D01*
X3133Y13500D01*
X3513Y13000D01*
X3957Y12667D01*
X4400Y12500D01*
X4843D01*
X5287Y12667D01*
X5667Y12917D01*
X5983Y13250D01*
G01X8043Y12500D02*
Y17500D01*
X10957Y12500D01*
Y17500D01*
G01X13777Y14167D02*
X15423D01*
G01X19700Y17500D02*
X19193Y17333D01*
X18813Y16917D01*
X18560Y16417D01*
X18370Y15750D01*
X18307Y15000D01*
X18370Y14250D01*
X18560Y13583D01*
X18813Y13083D01*
X19193Y12667D01*
X19700Y12500D01*
X20207Y12667D01*
X20587Y13083D01*
X20840Y13583D01*
X21030Y14250D01*
X21093Y15000D01*
X21030Y15750D01*
X20840Y16417D01*
X20587Y16917D01*
X20207Y17333D01*
X19700Y17500D01*
G01X23407Y13250D02*
X23787Y12833D01*
X24230Y12583D01*
X24800Y12500D01*
X25370Y12667D01*
X25813Y13000D01*
X26130Y13583D01*
X26193Y14250D01*
X26067Y14917D01*
X25750Y15333D01*
X25307Y15667D01*
X24863Y15750D01*
X24420Y15667D01*
X23850Y15333D01*
X24040Y17500D01*
X25750D01*
G01X29900Y12500D02*
Y17500D01*
X29140Y16500D01*
G01Y12500D02*
X30660D01*
G01X35000Y17500D02*
X34493Y17333D01*
X34113Y16917D01*
X33860Y16417D01*
X33670Y15750D01*
X33607Y15000D01*
X33670Y14250D01*
X33860Y13583D01*
X34113Y13083D01*
X34493Y12667D01*
X35000Y12500D01*
X35507Y12667D01*
X35887Y13083D01*
X36140Y13583D01*
X36330Y14250D01*
X36393Y15000D01*
X36330Y15750D01*
X36140Y16417D01*
X35887Y16917D01*
X35507Y17333D01*
X35000Y17500D01*
G01X4400Y30000D02*
X3893Y29833D01*
X3513Y29417D01*
X3260Y28917D01*
X3070Y28250D01*
X3007Y27500D01*
X3070Y26750D01*
X3260Y26083D01*
X3513Y25583D01*
X3893Y25167D01*
X4400Y25000D01*
X4907Y25167D01*
X5287Y25583D01*
X5540Y26083D01*
X5730Y26750D01*
X5793Y27500D01*
X5730Y28250D01*
X5540Y28917D01*
X5287Y29417D01*
X4907Y29833D01*
X4400Y30000D01*
G01X9500Y25000D02*
X9943Y25083D01*
X10450Y25333D01*
X10767Y25750D01*
X10893Y26333D01*
X10767Y26917D01*
X10387Y27417D01*
X9817Y27667D01*
X9183D01*
X8803Y27833D01*
X8487Y28250D01*
X8360Y28833D01*
X8550Y29417D01*
X8993Y29833D01*
X9500Y30000D01*
X10007Y29833D01*
X10450Y29417D01*
X10640Y28833D01*
X10513Y28250D01*
X10197Y27833D01*
X9817Y27667D01*
X9183D01*
X8613Y27417D01*
X8233Y26917D01*
X8107Y26333D01*
X8233Y25750D01*
X8550Y25333D01*
X9057Y25083D01*
X9500Y25000D01*
G01X13777Y26667D02*
X15423D01*
G01X19700Y30000D02*
X19193Y29833D01*
X18813Y29417D01*
X18560Y28917D01*
X18370Y28250D01*
X18307Y27500D01*
X18370Y26750D01*
X18560Y26083D01*
X18813Y25583D01*
X19193Y25167D01*
X19700Y25000D01*
X20207Y25167D01*
X20587Y25583D01*
X20840Y26083D01*
X21030Y26750D01*
X21093Y27500D01*
X21030Y28250D01*
X20840Y28917D01*
X20587Y29417D01*
X20207Y29833D01*
X19700Y30000D01*
G01X25560Y25000D02*
Y30000D01*
X23217Y26417D01*
X26383D01*
G01X29773Y25000D02*
X29900Y26083D01*
X30090Y27000D01*
X30343Y27833D01*
X30660Y28750D01*
X31167Y30000D01*
X28633D01*
G01X35760Y25000D02*
Y30000D01*
X33417Y26417D01*
X36583D01*
G01X38707Y25750D02*
X39087Y25333D01*
X39530Y25083D01*
X40100Y25000D01*
X40670Y25167D01*
X41113Y25500D01*
X41430Y26083D01*
X41493Y26750D01*
X41367Y27417D01*
X41050Y27833D01*
X40607Y28167D01*
X40163Y28250D01*
X39720Y28167D01*
X39150Y27833D01*
X39340Y30000D01*
X41050D01*
G01X43997Y27083D02*
X44440Y27667D01*
X44820Y28000D01*
X45327Y28167D01*
X45770Y28000D01*
X46087Y27667D01*
X46340Y27167D01*
X46403Y26583D01*
X46340Y26083D01*
X46087Y25583D01*
X45707Y25167D01*
X45263Y25000D01*
X44757Y25167D01*
X44313Y25667D01*
X44060Y26417D01*
X43997Y27250D01*
X44123Y28333D01*
X44313Y28917D01*
X44630Y29500D01*
X45073Y29917D01*
X45517Y30000D01*
X45960Y29833D01*
X46277Y29417D01*
G01X54133Y25000D02*
Y30000D01*
X55717D01*
X56223Y29750D01*
X56540Y29417D01*
X56667Y28750D01*
X56540Y28083D01*
X56160Y27667D01*
X55717Y27417D01*
X54133D01*
G01X55717D02*
X56667Y25000D01*
G01X59550Y27250D02*
X61577D01*
X61387Y27833D01*
X61070Y28167D01*
X60627Y28333D01*
X60183Y28250D01*
X59803Y28000D01*
X59550Y27417D01*
X59423Y26917D01*
Y26417D01*
X59550Y25917D01*
X59867Y25417D01*
X60247Y25083D01*
X60690Y25000D01*
X61133Y25167D01*
X61577Y25667D01*
G01X64460Y28333D02*
X65600Y25000D01*
X66740Y28333D01*
G01X69877Y26667D02*
X71523D01*
G01X74407Y25000D02*
Y30000D01*
X75673D01*
X76180Y29750D01*
X76560Y29417D01*
X76877Y28917D01*
X77130Y28333D01*
X77193Y27500D01*
X77130Y26667D01*
X76877Y26083D01*
X76560Y25583D01*
X76180Y25250D01*
X75673Y25000D01*
X74407D01*
G01X24783Y152500D02*
Y157500D01*
X26367D01*
X26873Y157250D01*
X27190Y156917D01*
X27317Y156250D01*
X27190Y155583D01*
X26810Y155167D01*
X26367Y154917D01*
X24783D01*
G01X26367D02*
X27317Y152500D01*
G01X32417D02*
X29883D01*
Y157500D01*
X32417D01*
G01X31403Y155083D02*
X29883D01*
G01X34920Y153167D02*
X35427Y152750D01*
X35997Y152500D01*
X36503D01*
X37010Y152750D01*
X37390Y153167D01*
X37580Y153750D01*
X37453Y154333D01*
X37137Y154833D01*
X36567Y155167D01*
X35807Y155333D01*
X35363Y155667D01*
X35173Y156250D01*
X35300Y156833D01*
X35617Y157250D01*
X36060Y157500D01*
X36503D01*
X36947Y157333D01*
X37327Y156917D01*
G01X42617Y152500D02*
X40083D01*
Y157500D01*
X42617D01*
G01X41603Y155083D02*
X40083D01*
G01X46450Y157500D02*
Y152500D01*
G01X44993Y157500D02*
X47907D01*
G01X58683Y213000D02*
Y218000D01*
X60203D01*
X60710Y217750D01*
X61090Y217167D01*
X61217Y216500D01*
X61090Y215833D01*
X60773Y215333D01*
X60203Y215083D01*
X58683D01*
G01X63657Y213750D02*
X64037Y213333D01*
X64480Y213083D01*
X65050Y213000D01*
X65620Y213167D01*
X66063Y213500D01*
X66380Y214083D01*
X66443Y214750D01*
X66317Y215417D01*
X66000Y215833D01*
X65557Y216167D01*
X65113Y216250D01*
X64670Y216167D01*
X64100Y215833D01*
X64290Y218000D01*
X66000D01*
G01X86183Y2000D02*
Y7000D01*
X87703D01*
X88210Y6750D01*
X88590Y6167D01*
X88717Y5500D01*
X88590Y4833D01*
X88273Y4333D01*
X87703Y4083D01*
X86183D01*
G01X91157Y3000D02*
X91537Y2417D01*
X92043Y2083D01*
X92613Y2000D01*
X93120Y2083D01*
X93627Y2500D01*
X93943Y3000D01*
X94007Y3500D01*
X93880Y4083D01*
X93437Y4500D01*
X92993Y4667D01*
X92423D01*
G01X92993D02*
X93373Y4917D01*
X93690Y5333D01*
X93817Y5833D01*
X93690Y6333D01*
X93373Y6750D01*
X92803Y7000D01*
X92233Y6917D01*
X91663Y6583D01*
G01X102133Y46293D02*
Y51293D01*
X103717D01*
X104223Y51043D01*
X104540Y50710D01*
X104667Y50043D01*
X104540Y49376D01*
X104160Y48960D01*
X103717Y48710D01*
X102133D01*
G01X103717D02*
X104667Y46293D01*
G01X109260D02*
Y51293D01*
X106917Y47710D01*
X110083D01*
G01X113600Y51293D02*
X113093Y51126D01*
X112713Y50710D01*
X112460Y50210D01*
X112270Y49543D01*
X112207Y48793D01*
X112270Y48043D01*
X112460Y47376D01*
X112713Y46876D01*
X113093Y46460D01*
X113600Y46293D01*
X114107Y46460D01*
X114487Y46876D01*
X114740Y47376D01*
X114930Y48043D01*
X114993Y48793D01*
X114930Y49543D01*
X114740Y50210D01*
X114487Y50710D01*
X114107Y51126D01*
X113600Y51293D01*
G01X102633Y71293D02*
Y76293D01*
X104217D01*
X104723Y76043D01*
X105040Y75710D01*
X105167Y75043D01*
X105040Y74376D01*
X104660Y73960D01*
X104217Y73710D01*
X102633D01*
G01X104217D02*
X105167Y71293D01*
G01X109760D02*
Y76293D01*
X107417Y72710D01*
X110583D01*
G01X114100Y71293D02*
Y76293D01*
X113340Y75293D01*
G01Y71293D02*
X114860D01*
G01X88683Y177500D02*
Y182500D01*
X90267D01*
X90773Y182250D01*
X91090Y181917D01*
X91217Y181250D01*
X91090Y180583D01*
X90710Y180167D01*
X90267Y179917D01*
X88683D01*
G01X90267D02*
X91217Y177500D01*
G01X95050D02*
Y182500D01*
X94290Y181500D01*
G01Y177500D02*
X95810D01*
G01X86133Y165000D02*
Y170000D01*
X87653D01*
X88160Y169750D01*
X88540Y169167D01*
X88667Y168500D01*
X88540Y167833D01*
X88223Y167333D01*
X87653Y167083D01*
X86133D01*
G01X90600Y170000D02*
X91487Y165000D01*
X92500Y170000D01*
X93513Y165000D01*
X94400Y170000D01*
G01X96333Y165000D02*
Y170000D01*
X97917D01*
X98423Y169750D01*
X98740Y169417D01*
X98867Y168750D01*
X98740Y168083D01*
X98360Y167667D01*
X97917Y167417D01*
X96333D01*
G01X97917D02*
X98867Y165000D01*
G01X133633Y47500D02*
Y52500D01*
X135217D01*
X135723Y52250D01*
X136040Y51917D01*
X136167Y51250D01*
X136040Y50583D01*
X135660Y50167D01*
X135217Y49917D01*
X133633D01*
G01X135217D02*
X136167Y47500D01*
G01X140000D02*
Y52500D01*
X139240Y51500D01*
G01Y47500D02*
X140760D01*
G01X145100Y52500D02*
X144593Y52333D01*
X144213Y51917D01*
X143960Y51417D01*
X143770Y50750D01*
X143707Y50000D01*
X143770Y49250D01*
X143960Y48583D01*
X144213Y48083D01*
X144593Y47667D01*
X145100Y47500D01*
X145607Y47667D01*
X145987Y48083D01*
X146240Y48583D01*
X146430Y49250D01*
X146493Y50000D01*
X146430Y50750D01*
X146240Y51417D01*
X145987Y51917D01*
X145607Y52333D01*
X145100Y52500D01*
G01X137293Y67083D02*
X136913Y67333D01*
X136470Y67500D01*
X135963D01*
X135393Y67250D01*
X134950Y66833D01*
X134633Y66333D01*
X134380Y65500D01*
X134317Y64750D01*
X134443Y64000D01*
X134633Y63500D01*
X135013Y63000D01*
X135457Y62667D01*
X135900Y62500D01*
X136343D01*
X136787Y62667D01*
X137167Y62917D01*
X137483Y63250D01*
G01X139797Y66667D02*
X140177Y67167D01*
X140620Y67417D01*
X141127Y67500D01*
X141760Y67333D01*
X142203Y66917D01*
X142330Y66417D01*
X142267Y65917D01*
X142013Y65500D01*
X140747Y64667D01*
X140177Y64083D01*
X139797Y63250D01*
X139670Y62500D01*
X142330D01*
G01X146100D02*
X146543Y62583D01*
X147050Y62833D01*
X147367Y63250D01*
X147493Y63833D01*
X147367Y64417D01*
X146987Y64917D01*
X146417Y65167D01*
X145783D01*
X145403Y65333D01*
X145087Y65750D01*
X144960Y66333D01*
X145150Y66917D01*
X145593Y67333D01*
X146100Y67500D01*
X146607Y67333D01*
X147050Y66917D01*
X147240Y66333D01*
X147113Y65750D01*
X146797Y65333D01*
X146417Y65167D01*
X145783D01*
X145213Y64917D01*
X144833Y64417D01*
X144707Y63833D01*
X144833Y63250D01*
X145150Y62833D01*
X145657Y62583D01*
X146100Y62500D01*
G01X121133Y177500D02*
Y182500D01*
X122717D01*
X123223Y182250D01*
X123540Y181917D01*
X123667Y181250D01*
X123540Y180583D01*
X123160Y180167D01*
X122717Y179917D01*
X121133D01*
G01X122717D02*
X123667Y177500D01*
G01X128260D02*
Y182500D01*
X125917Y178917D01*
X129083D01*
G01X131397Y181667D02*
X131777Y182167D01*
X132220Y182417D01*
X132727Y182500D01*
X133360Y182333D01*
X133803Y181917D01*
X133930Y181417D01*
X133867Y180917D01*
X133613Y180500D01*
X132347Y179667D01*
X131777Y179083D01*
X131397Y178250D01*
X131270Y177500D01*
X133930D01*
G01X122780Y167500D02*
X124047D01*
Y166000D01*
X123667Y165500D01*
X123223Y165167D01*
X122590Y165000D01*
X121957Y165167D01*
X121513Y165500D01*
X121133Y166000D01*
X120880Y166583D01*
X120753Y167250D01*
Y167833D01*
X120880Y168333D01*
X121133Y168917D01*
X121513Y169417D01*
X121893Y169750D01*
X122400Y170000D01*
X122843D01*
X123350Y169833D01*
X123730Y169500D01*
G01X126233Y165000D02*
Y170000D01*
X127753D01*
X128260Y169750D01*
X128640Y169167D01*
X128767Y168500D01*
X128640Y167833D01*
X128323Y167333D01*
X127753Y167083D01*
X126233D01*
G01X132600Y165000D02*
Y170000D01*
X131840Y169000D01*
G01Y165000D02*
X133360D01*
G01X159793Y41583D02*
X159413Y41833D01*
X158970Y42000D01*
X158463D01*
X157893Y41750D01*
X157450Y41333D01*
X157133Y40833D01*
X156880Y40000D01*
X156817Y39250D01*
X156943Y38500D01*
X157133Y38000D01*
X157513Y37500D01*
X157957Y37167D01*
X158400Y37000D01*
X158843D01*
X159287Y37167D01*
X159667Y37417D01*
X159983Y37750D01*
G01X162297Y41167D02*
X162677Y41667D01*
X163120Y41917D01*
X163627Y42000D01*
X164260Y41833D01*
X164703Y41417D01*
X164830Y40917D01*
X164767Y40417D01*
X164513Y40000D01*
X163247Y39167D01*
X162677Y38583D01*
X162297Y37750D01*
X162170Y37000D01*
X164830D01*
G01X167207Y37750D02*
X167587Y37333D01*
X168030Y37083D01*
X168600Y37000D01*
X169170Y37167D01*
X169613Y37500D01*
X169930Y38083D01*
X169993Y38750D01*
X169867Y39417D01*
X169550Y39833D01*
X169107Y40167D01*
X168663Y40250D01*
X168220Y40167D01*
X167650Y39833D01*
X167840Y42000D01*
X169550D01*
G01X168500Y79633D02*
X163500D01*
Y81217D01*
X163750Y81723D01*
X164083Y82040D01*
X164750Y82167D01*
X165417Y82040D01*
X165833Y81660D01*
X166083Y81217D01*
Y79633D01*
G01Y81217D02*
X168500Y82167D01*
G01Y86000D02*
X163500D01*
X164500Y85240D01*
G01X168500D02*
Y86760D01*
G01X166417Y89897D02*
X165833Y90340D01*
X165500Y90720D01*
X165333Y91227D01*
X165500Y91670D01*
X165833Y91987D01*
X166333Y92240D01*
X166917Y92303D01*
X167417Y92240D01*
X167917Y91987D01*
X168333Y91607D01*
X168500Y91163D01*
X168333Y90657D01*
X167833Y90213D01*
X167083Y89960D01*
X166250Y89897D01*
X165167Y90023D01*
X164583Y90213D01*
X164000Y90530D01*
X163583Y90973D01*
X163500Y91417D01*
X163667Y91860D01*
X164083Y92177D01*
G01X160500Y79633D02*
X155500D01*
Y81217D01*
X155750Y81723D01*
X156083Y82040D01*
X156750Y82167D01*
X157417Y82040D01*
X157833Y81660D01*
X158083Y81217D01*
Y79633D01*
G01Y81217D02*
X160500Y82167D01*
G01Y86000D02*
X155500D01*
X156500Y85240D01*
G01X160500D02*
Y86760D01*
G01X159750Y89707D02*
X160167Y90087D01*
X160417Y90530D01*
X160500Y91100D01*
X160333Y91670D01*
X160000Y92113D01*
X159417Y92430D01*
X158750Y92493D01*
X158083Y92367D01*
X157667Y92050D01*
X157333Y91607D01*
X157250Y91163D01*
X157333Y90720D01*
X157667Y90150D01*
X155500Y90340D01*
Y92050D01*
G01X139683Y127500D02*
Y132500D01*
X141203D01*
X141710Y132250D01*
X142090Y131667D01*
X142217Y131000D01*
X142090Y130333D01*
X141773Y129833D01*
X141203Y129583D01*
X139683D01*
G01X146810Y127500D02*
Y132500D01*
X144467Y128917D01*
X147633D01*
G01X167000Y123133D02*
X167500Y123450D01*
X167833Y123830D01*
X168000Y124273D01*
X167833Y124780D01*
X167500Y125160D01*
X167000Y125540D01*
X166333Y125667D01*
X163000D01*
G01X168000Y128233D02*
X163000D01*
Y129753D01*
X163250Y130260D01*
X163833Y130640D01*
X164500Y130767D01*
X165167Y130640D01*
X165667Y130323D01*
X165917Y129753D01*
Y128233D01*
G01X168000Y134600D02*
X167917Y135043D01*
X167667Y135550D01*
X167250Y135867D01*
X166667Y135993D01*
X166083Y135867D01*
X165583Y135487D01*
X165333Y134917D01*
Y134283D01*
X165167Y133903D01*
X164750Y133587D01*
X164167Y133460D01*
X163583Y133650D01*
X163167Y134093D01*
X163000Y134600D01*
X163167Y135107D01*
X163583Y135550D01*
X164167Y135740D01*
X164750Y135613D01*
X165167Y135297D01*
X165333Y134917D01*
Y134283D01*
X165583Y133713D01*
X166083Y133333D01*
X166667Y133207D01*
X167250Y133333D01*
X167667Y133650D01*
X167917Y134157D01*
X168000Y134600D01*
G01X167000Y108133D02*
X167500Y108450D01*
X167833Y108830D01*
X168000Y109273D01*
X167833Y109780D01*
X167500Y110160D01*
X167000Y110540D01*
X166333Y110667D01*
X163000D01*
G01X168000Y113233D02*
X163000D01*
Y114753D01*
X163250Y115260D01*
X163833Y115640D01*
X164500Y115767D01*
X165167Y115640D01*
X165667Y115323D01*
X165917Y114753D01*
Y113233D01*
G01X168000Y119473D02*
X166917Y119600D01*
X166000Y119790D01*
X165167Y120043D01*
X164250Y120360D01*
X163000Y120867D01*
Y118333D01*
G01X167000Y138633D02*
X167500Y138950D01*
X167833Y139330D01*
X168000Y139773D01*
X167833Y140280D01*
X167500Y140660D01*
X167000Y141040D01*
X166333Y141167D01*
X163000D01*
G01X168000Y143733D02*
X163000D01*
Y145253D01*
X163250Y145760D01*
X163833Y146140D01*
X164500Y146267D01*
X165167Y146140D01*
X165667Y145823D01*
X165917Y145253D01*
Y143733D01*
G01X167417Y149023D02*
X167833Y149467D01*
X168000Y149973D01*
X167833Y150480D01*
X167333Y150923D01*
X166583Y151240D01*
X165833Y151367D01*
X164917D01*
X164167Y151240D01*
X163500Y150923D01*
X163167Y150543D01*
X163000Y150100D01*
X163167Y149593D01*
X163500Y149213D01*
X164000Y148960D01*
X164667Y148833D01*
X165250Y148960D01*
X165833Y149277D01*
X166167Y149657D01*
X166250Y150100D01*
X166083Y150607D01*
X165667Y150987D01*
X164917Y151367D01*
G01X153683Y212000D02*
Y217000D01*
X155203D01*
X155710Y216750D01*
X156090Y216167D01*
X156217Y215500D01*
X156090Y214833D01*
X155773Y214333D01*
X155203Y214083D01*
X153683D01*
G01X158847D02*
X159290Y214667D01*
X159670Y215000D01*
X160177Y215167D01*
X160620Y215000D01*
X160937Y214667D01*
X161190Y214167D01*
X161253Y213583D01*
X161190Y213083D01*
X160937Y212583D01*
X160557Y212167D01*
X160113Y212000D01*
X159607Y212167D01*
X159163Y212667D01*
X158910Y213417D01*
X158847Y214250D01*
X158973Y215333D01*
X159163Y215917D01*
X159480Y216500D01*
X159923Y216917D01*
X160367Y217000D01*
X160810Y216833D01*
X161127Y216417D01*
G01X166683Y2000D02*
Y7000D01*
X168203D01*
X168710Y6750D01*
X169090Y6167D01*
X169217Y5500D01*
X169090Y4833D01*
X168773Y4333D01*
X168203Y4083D01*
X166683D01*
G01X171847Y6167D02*
X172227Y6667D01*
X172670Y6917D01*
X173177Y7000D01*
X173810Y6833D01*
X174253Y6417D01*
X174380Y5917D01*
X174317Y5417D01*
X174063Y5000D01*
X172797Y4167D01*
X172227Y3583D01*
X171847Y2750D01*
X171720Y2000D01*
X174380D01*
G01X190793Y46083D02*
X190413Y46333D01*
X189970Y46500D01*
X189463D01*
X188893Y46250D01*
X188450Y45833D01*
X188133Y45333D01*
X187880Y44500D01*
X187817Y43750D01*
X187943Y43000D01*
X188133Y42500D01*
X188513Y42000D01*
X188957Y41667D01*
X189400Y41500D01*
X189843D01*
X190287Y41667D01*
X190667Y41917D01*
X190983Y42250D01*
G01X193297Y45667D02*
X193677Y46167D01*
X194120Y46417D01*
X194627Y46500D01*
X195260Y46333D01*
X195703Y45917D01*
X195830Y45417D01*
X195767Y44917D01*
X195513Y44500D01*
X194247Y43667D01*
X193677Y43083D01*
X193297Y42250D01*
X193170Y41500D01*
X195830D01*
G01X198523Y42083D02*
X198967Y41667D01*
X199473Y41500D01*
X199980Y41667D01*
X200423Y42167D01*
X200740Y42917D01*
X200867Y43667D01*
Y44583D01*
X200740Y45333D01*
X200423Y46000D01*
X200043Y46333D01*
X199600Y46500D01*
X199093Y46333D01*
X198713Y46000D01*
X198460Y45500D01*
X198333Y44833D01*
X198460Y44250D01*
X198777Y43667D01*
X199157Y43333D01*
X199600Y43250D01*
X200107Y43417D01*
X200487Y43833D01*
X200867Y44583D01*
G01X175793Y41583D02*
X175413Y41833D01*
X174970Y42000D01*
X174463D01*
X173893Y41750D01*
X173450Y41333D01*
X173133Y40833D01*
X172880Y40000D01*
X172817Y39250D01*
X172943Y38500D01*
X173133Y38000D01*
X173513Y37500D01*
X173957Y37167D01*
X174400Y37000D01*
X174843D01*
X175287Y37167D01*
X175667Y37417D01*
X175983Y37750D01*
G01X178297Y41167D02*
X178677Y41667D01*
X179120Y41917D01*
X179627Y42000D01*
X180260Y41833D01*
X180703Y41417D01*
X180830Y40917D01*
X180767Y40417D01*
X180513Y40000D01*
X179247Y39167D01*
X178677Y38583D01*
X178297Y37750D01*
X178170Y37000D01*
X180830D01*
G01X184473D02*
X184600Y38083D01*
X184790Y39000D01*
X185043Y39833D01*
X185360Y40750D01*
X185867Y42000D01*
X183333D01*
G01X174057Y80000D02*
Y76417D01*
X174310Y75667D01*
X174817Y75167D01*
X175450Y75000D01*
X176083Y75167D01*
X176590Y75667D01*
X176843Y76417D01*
Y80000D01*
G01X179157Y76000D02*
X179537Y75417D01*
X180043Y75083D01*
X180613Y75000D01*
X181120Y75083D01*
X181627Y75500D01*
X181943Y76000D01*
X182007Y76500D01*
X181880Y77083D01*
X181437Y77500D01*
X180993Y77667D01*
X180423D01*
G01X180993D02*
X181373Y77917D01*
X181690Y78333D01*
X181817Y78833D01*
X181690Y79333D01*
X181373Y79750D01*
X180803Y80000D01*
X180233Y79917D01*
X179663Y79583D01*
G01X187917Y77793D02*
X187667Y77413D01*
X187500Y76970D01*
Y76463D01*
X187750Y75893D01*
X188167Y75450D01*
X188667Y75133D01*
X189500Y74880D01*
X190250Y74817D01*
X191000Y74943D01*
X191500Y75133D01*
X192000Y75513D01*
X192333Y75957D01*
X192500Y76400D01*
Y76843D01*
X192333Y77287D01*
X192083Y77667D01*
X191750Y77983D01*
G01X188333Y80297D02*
X187833Y80677D01*
X187583Y81120D01*
X187500Y81627D01*
X187667Y82260D01*
X188083Y82703D01*
X188583Y82830D01*
X189083Y82767D01*
X189500Y82513D01*
X190333Y81247D01*
X190917Y80677D01*
X191750Y80297D01*
X192500Y80170D01*
Y82830D01*
G01X190417Y85397D02*
X189833Y85840D01*
X189500Y86220D01*
X189333Y86727D01*
X189500Y87170D01*
X189833Y87487D01*
X190333Y87740D01*
X190917Y87803D01*
X191417Y87740D01*
X191917Y87487D01*
X192333Y87107D01*
X192500Y86663D01*
X192333Y86157D01*
X191833Y85713D01*
X191083Y85460D01*
X190250Y85397D01*
X189167Y85523D01*
X188583Y85713D01*
X188000Y86030D01*
X187583Y86473D01*
X187500Y86917D01*
X187667Y87360D01*
X188083Y87677D01*
G01X186183Y162500D02*
Y167500D01*
X187703D01*
X188210Y167250D01*
X188590Y166667D01*
X188717Y166000D01*
X188590Y165333D01*
X188273Y164833D01*
X187703Y164583D01*
X186183D01*
G01X192550Y162500D02*
Y167500D01*
X191790Y166500D01*
G01Y162500D02*
X193310D01*
G01X186183Y175000D02*
Y180000D01*
X187703D01*
X188210Y179750D01*
X188590Y179167D01*
X188717Y178500D01*
X188590Y177833D01*
X188273Y177333D01*
X187703Y177083D01*
X186183D01*
G01X192550Y175000D02*
X192993Y175083D01*
X193500Y175333D01*
X193817Y175750D01*
X193943Y176333D01*
X193817Y176917D01*
X193437Y177417D01*
X192867Y177667D01*
X192233D01*
X191853Y177833D01*
X191537Y178250D01*
X191410Y178833D01*
X191600Y179417D01*
X192043Y179833D01*
X192550Y180000D01*
X193057Y179833D01*
X193500Y179417D01*
X193690Y178833D01*
X193563Y178250D01*
X193247Y177833D01*
X192867Y177667D01*
X192233D01*
X191663Y177417D01*
X191283Y176917D01*
X191157Y176333D01*
X191283Y175750D01*
X191600Y175333D01*
X192107Y175083D01*
X192550Y175000D01*
G01X212133Y13900D02*
Y18900D01*
X213717D01*
X214223Y18650D01*
X214540Y18317D01*
X214667Y17650D01*
X214540Y16983D01*
X214160Y16567D01*
X213717Y16317D01*
X212133D01*
G01X213717D02*
X214667Y13900D01*
G01X218500D02*
Y18900D01*
X217740Y17900D01*
G01Y13900D02*
X219260D01*
G01X223473D02*
X223600Y14983D01*
X223790Y15900D01*
X224043Y16733D01*
X224360Y17650D01*
X224867Y18900D01*
X222333D01*
G01X212383Y43750D02*
Y48750D01*
X213967D01*
X214473Y48500D01*
X214790Y48167D01*
X214917Y47500D01*
X214790Y46833D01*
X214410Y46417D01*
X213967Y46167D01*
X212383D01*
G01X213967D02*
X214917Y43750D01*
G01X217357Y44750D02*
X217737Y44167D01*
X218243Y43833D01*
X218813Y43750D01*
X219320Y43833D01*
X219827Y44250D01*
X220143Y44750D01*
X220207Y45250D01*
X220080Y45833D01*
X219637Y46250D01*
X219193Y46417D01*
X218623D01*
G01X219193D02*
X219573Y46667D01*
X219890Y47083D01*
X220017Y47583D01*
X219890Y48083D01*
X219573Y48500D01*
X219003Y48750D01*
X218433Y48667D01*
X217863Y48333D01*
G01X222457Y44500D02*
X222837Y44083D01*
X223280Y43833D01*
X223850Y43750D01*
X224420Y43917D01*
X224863Y44250D01*
X225180Y44833D01*
X225243Y45500D01*
X225117Y46167D01*
X224800Y46583D01*
X224357Y46917D01*
X223913Y47000D01*
X223470Y46917D01*
X222900Y46583D01*
X223090Y48750D01*
X224800D01*
G01X212133Y31000D02*
Y36000D01*
X213717D01*
X214223Y35750D01*
X214540Y35417D01*
X214667Y34750D01*
X214540Y34083D01*
X214160Y33667D01*
X213717Y33417D01*
X212133D01*
G01X213717D02*
X214667Y31000D01*
G01X217297Y35167D02*
X217677Y35667D01*
X218120Y35917D01*
X218627Y36000D01*
X219260Y35833D01*
X219703Y35417D01*
X219830Y34917D01*
X219767Y34417D01*
X219513Y34000D01*
X218247Y33167D01*
X217677Y32583D01*
X217297Y31750D01*
X217170Y31000D01*
X219830D01*
G01X223600Y36000D02*
X223093Y35833D01*
X222713Y35417D01*
X222460Y34917D01*
X222270Y34250D01*
X222207Y33500D01*
X222270Y32750D01*
X222460Y32083D01*
X222713Y31583D01*
X223093Y31167D01*
X223600Y31000D01*
X224107Y31167D01*
X224487Y31583D01*
X224740Y32083D01*
X224930Y32750D01*
X224993Y33500D01*
X224930Y34250D01*
X224740Y34917D01*
X224487Y35417D01*
X224107Y35833D01*
X223600Y36000D01*
G01X202433Y105000D02*
Y110000D01*
X204017D01*
X204523Y109750D01*
X204840Y109417D01*
X204967Y108750D01*
X204840Y108083D01*
X204460Y107667D01*
X204017Y107417D01*
X202433D01*
G01X204017D02*
X204967Y105000D01*
G01X208800D02*
Y110000D01*
X208040Y109000D01*
G01Y105000D02*
X209560D01*
G01X213900D02*
Y110000D01*
X213140Y109000D01*
G01Y105000D02*
X214660D01*
G01X206133Y121250D02*
Y126250D01*
X207717D01*
X208223Y126000D01*
X208540Y125667D01*
X208667Y125000D01*
X208540Y124333D01*
X208160Y123917D01*
X207717Y123667D01*
X206133D01*
G01X207717D02*
X208667Y121250D01*
G01X211107Y122250D02*
X211487Y121667D01*
X211993Y121333D01*
X212563Y121250D01*
X213070Y121333D01*
X213577Y121750D01*
X213893Y122250D01*
X213957Y122750D01*
X213830Y123333D01*
X213387Y123750D01*
X212943Y123917D01*
X212373D01*
G01X212943D02*
X213323Y124167D01*
X213640Y124583D01*
X213767Y125083D01*
X213640Y125583D01*
X213323Y126000D01*
X212753Y126250D01*
X212183Y126167D01*
X211613Y125833D01*
G01X217600Y121250D02*
X218043Y121333D01*
X218550Y121583D01*
X218867Y122000D01*
X218993Y122583D01*
X218867Y123167D01*
X218487Y123667D01*
X217917Y123917D01*
X217283D01*
X216903Y124083D01*
X216587Y124500D01*
X216460Y125083D01*
X216650Y125667D01*
X217093Y126083D01*
X217600Y126250D01*
X218107Y126083D01*
X218550Y125667D01*
X218740Y125083D01*
X218613Y124500D01*
X218297Y124083D01*
X217917Y123917D01*
X217283D01*
X216713Y123667D01*
X216333Y123167D01*
X216207Y122583D01*
X216333Y122000D01*
X216650Y121583D01*
X217157Y121333D01*
X217600Y121250D01*
G01X206133Y146250D02*
Y151250D01*
X207717D01*
X208223Y151000D01*
X208540Y150667D01*
X208667Y150000D01*
X208540Y149333D01*
X208160Y148917D01*
X207717Y148667D01*
X206133D01*
G01X207717D02*
X208667Y146250D01*
G01X211107Y147250D02*
X211487Y146667D01*
X211993Y146333D01*
X212563Y146250D01*
X213070Y146333D01*
X213577Y146750D01*
X213893Y147250D01*
X213957Y147750D01*
X213830Y148333D01*
X213387Y148750D01*
X212943Y148917D01*
X212373D01*
G01X212943D02*
X213323Y149167D01*
X213640Y149583D01*
X213767Y150083D01*
X213640Y150583D01*
X213323Y151000D01*
X212753Y151250D01*
X212183Y151167D01*
X211613Y150833D01*
G01X216523Y146833D02*
X216967Y146417D01*
X217473Y146250D01*
X217980Y146417D01*
X218423Y146917D01*
X218740Y147667D01*
X218867Y148417D01*
Y149333D01*
X218740Y150083D01*
X218423Y150750D01*
X218043Y151083D01*
X217600Y151250D01*
X217093Y151083D01*
X216713Y150750D01*
X216460Y150250D01*
X216333Y149583D01*
X216460Y149000D01*
X216777Y148417D01*
X217157Y148083D01*
X217600Y148000D01*
X218107Y148167D01*
X218487Y148583D01*
X218867Y149333D01*
G01X240500Y5133D02*
X235500D01*
Y6717D01*
X235750Y7223D01*
X236083Y7540D01*
X236750Y7667D01*
X237417Y7540D01*
X237833Y7160D01*
X238083Y6717D01*
Y5133D01*
G01Y6717D02*
X240500Y7667D01*
G01X236333Y10297D02*
X235833Y10677D01*
X235583Y11120D01*
X235500Y11627D01*
X235667Y12260D01*
X236083Y12703D01*
X236583Y12830D01*
X237083Y12767D01*
X237500Y12513D01*
X238333Y11247D01*
X238917Y10677D01*
X239750Y10297D01*
X240500Y10170D01*
Y12830D01*
G01Y16473D02*
X239417Y16600D01*
X238500Y16790D01*
X237667Y17043D01*
X236750Y17360D01*
X235500Y17867D01*
Y15333D01*
G01X248000Y-1867D02*
X243000D01*
Y-283D01*
X243250Y223D01*
X243583Y540D01*
X244250Y667D01*
X244917Y540D01*
X245333Y160D01*
X245583Y-283D01*
Y-1867D01*
G01Y-283D02*
X248000Y667D01*
G01X243833Y3297D02*
X243333Y3677D01*
X243083Y4120D01*
X243000Y4627D01*
X243167Y5260D01*
X243583Y5703D01*
X244083Y5830D01*
X244583Y5767D01*
X245000Y5513D01*
X245833Y4247D01*
X246417Y3677D01*
X247250Y3297D01*
X248000Y3170D01*
Y5830D01*
G01Y9600D02*
X247917Y10043D01*
X247667Y10550D01*
X247250Y10867D01*
X246667Y10993D01*
X246083Y10867D01*
X245583Y10487D01*
X245333Y9917D01*
Y9283D01*
X245167Y8903D01*
X244750Y8587D01*
X244167Y8460D01*
X243583Y8650D01*
X243167Y9093D01*
X243000Y9600D01*
X243167Y10107D01*
X243583Y10550D01*
X244167Y10740D01*
X244750Y10613D01*
X245167Y10297D01*
X245333Y9917D01*
Y9283D01*
X245583Y8713D01*
X246083Y8333D01*
X246667Y8207D01*
X247250Y8333D01*
X247667Y8650D01*
X247917Y9157D01*
X248000Y9600D01*
G01X248500Y42133D02*
X243500D01*
Y43717D01*
X243750Y44223D01*
X244083Y44540D01*
X244750Y44667D01*
X245417Y44540D01*
X245833Y44160D01*
X246083Y43717D01*
Y42133D01*
G01Y43717D02*
X248500Y44667D01*
G01X244333Y47297D02*
X243833Y47677D01*
X243583Y48120D01*
X243500Y48627D01*
X243667Y49260D01*
X244083Y49703D01*
X244583Y49830D01*
X245083Y49767D01*
X245500Y49513D01*
X246333Y48247D01*
X246917Y47677D01*
X247750Y47297D01*
X248500Y47170D01*
Y49830D01*
G01X247917Y52523D02*
X248333Y52967D01*
X248500Y53473D01*
X248333Y53980D01*
X247833Y54423D01*
X247083Y54740D01*
X246333Y54867D01*
X245417D01*
X244667Y54740D01*
X244000Y54423D01*
X243667Y54043D01*
X243500Y53600D01*
X243667Y53093D01*
X244000Y52713D01*
X244500Y52460D01*
X245167Y52333D01*
X245750Y52460D01*
X246333Y52777D01*
X246667Y53157D01*
X246750Y53600D01*
X246583Y54107D01*
X246167Y54487D01*
X245417Y54867D01*
G01X219883Y56250D02*
Y61250D01*
X221467D01*
X221973Y61000D01*
X222290Y60667D01*
X222417Y60000D01*
X222290Y59333D01*
X221910Y58917D01*
X221467Y58667D01*
X219883D01*
G01X221467D02*
X222417Y56250D01*
G01X224857Y57250D02*
X225237Y56667D01*
X225743Y56333D01*
X226313Y56250D01*
X226820Y56333D01*
X227327Y56750D01*
X227643Y57250D01*
X227707Y57750D01*
X227580Y58333D01*
X227137Y58750D01*
X226693Y58917D01*
X226123D01*
G01X226693D02*
X227073Y59167D01*
X227390Y59583D01*
X227517Y60083D01*
X227390Y60583D01*
X227073Y61000D01*
X226503Y61250D01*
X225933Y61167D01*
X225363Y60833D01*
G01X231223Y56250D02*
X231350Y57333D01*
X231540Y58250D01*
X231793Y59083D01*
X232110Y60000D01*
X232617Y61250D01*
X230083D01*
G01X243557Y114000D02*
Y110417D01*
X243810Y109667D01*
X244317Y109167D01*
X244950Y109000D01*
X245583Y109167D01*
X246090Y109667D01*
X246343Y110417D01*
Y114000D01*
G01X250050Y109000D02*
Y114000D01*
X249290Y113000D01*
G01Y109000D02*
X250810D01*
G01X261343Y4583D02*
X260963Y4833D01*
X260520Y5000D01*
X260013D01*
X259443Y4750D01*
X259000Y4333D01*
X258683Y3833D01*
X258430Y3000D01*
X258367Y2250D01*
X258493Y1500D01*
X258683Y1000D01*
X259063Y500D01*
X259507Y167D01*
X259950Y0D01*
X260393D01*
X260837Y167D01*
X261217Y417D01*
X261533Y750D01*
G01X263657D02*
X264037Y333D01*
X264480Y83D01*
X265050Y0D01*
X265620Y167D01*
X266063Y500D01*
X266380Y1083D01*
X266443Y1750D01*
X266317Y2417D01*
X266000Y2833D01*
X265557Y3167D01*
X265113Y3250D01*
X264670Y3167D01*
X264100Y2833D01*
X264290Y5000D01*
X266000D01*
G01X255867Y42500D02*
X257450Y47500D01*
X259033Y42500D01*
G01X258463Y44250D02*
X256437D01*
G01X261347Y46667D02*
X261727Y47167D01*
X262170Y47417D01*
X262677Y47500D01*
X263310Y47333D01*
X263753Y46917D01*
X263880Y46417D01*
X263817Y45917D01*
X263563Y45500D01*
X262297Y44667D01*
X261727Y44083D01*
X261347Y43250D01*
X261220Y42500D01*
X263880D01*
G01X255843Y66083D02*
X255463Y66333D01*
X255020Y66500D01*
X254513D01*
X253943Y66250D01*
X253500Y65833D01*
X253183Y65333D01*
X252930Y64500D01*
X252867Y63750D01*
X252993Y63000D01*
X253183Y62500D01*
X253563Y62000D01*
X254007Y61667D01*
X254450Y61500D01*
X254893D01*
X255337Y61667D01*
X255717Y61917D01*
X256033Y62250D01*
G01X259550Y61500D02*
X259993Y61583D01*
X260500Y61833D01*
X260817Y62250D01*
X260943Y62833D01*
X260817Y63417D01*
X260437Y63917D01*
X259867Y64167D01*
X259233D01*
X258853Y64333D01*
X258537Y64750D01*
X258410Y65333D01*
X258600Y65917D01*
X259043Y66333D01*
X259550Y66500D01*
X260057Y66333D01*
X260500Y65917D01*
X260690Y65333D01*
X260563Y64750D01*
X260247Y64333D01*
X259867Y64167D01*
X259233D01*
X258663Y63917D01*
X258283Y63417D01*
X258157Y62833D01*
X258283Y62250D01*
X258600Y61833D01*
X259107Y61583D01*
X259550Y61500D01*
G01X272143Y59183D02*
X271763Y59433D01*
X271320Y59600D01*
X270813D01*
X270243Y59350D01*
X269800Y58933D01*
X269483Y58433D01*
X269230Y57600D01*
X269167Y56850D01*
X269293Y56100D01*
X269483Y55600D01*
X269863Y55100D01*
X270307Y54767D01*
X270750Y54600D01*
X271193D01*
X271637Y54767D01*
X272017Y55017D01*
X272333Y55350D01*
G01X274647Y56683D02*
X275090Y57267D01*
X275470Y57600D01*
X275977Y57767D01*
X276420Y57600D01*
X276737Y57267D01*
X276990Y56767D01*
X277053Y56183D01*
X276990Y55683D01*
X276737Y55183D01*
X276357Y54767D01*
X275913Y54600D01*
X275407Y54767D01*
X274963Y55267D01*
X274710Y56017D01*
X274647Y56850D01*
X274773Y57933D01*
X274963Y58517D01*
X275280Y59100D01*
X275723Y59517D01*
X276167Y59600D01*
X276610Y59433D01*
X276927Y59017D01*
G01X272293Y92083D02*
X271913Y92333D01*
X271470Y92500D01*
X270963D01*
X270393Y92250D01*
X269950Y91833D01*
X269633Y91333D01*
X269380Y90500D01*
X269317Y89750D01*
X269443Y89000D01*
X269633Y88500D01*
X270013Y88000D01*
X270457Y87667D01*
X270900Y87500D01*
X271343D01*
X271787Y87667D01*
X272167Y87917D01*
X272483Y88250D01*
G01X276000Y87500D02*
Y92500D01*
X275240Y91500D01*
G01Y87500D02*
X276760D01*
G01X279707Y88500D02*
X280087Y87917D01*
X280593Y87583D01*
X281163Y87500D01*
X281670Y87583D01*
X282177Y88000D01*
X282493Y88500D01*
X282557Y89000D01*
X282430Y89583D01*
X281987Y90000D01*
X281543Y90167D01*
X280973D01*
G01X281543D02*
X281923Y90417D01*
X282240Y90833D01*
X282367Y91333D01*
X282240Y91833D01*
X281923Y92250D01*
X281353Y92500D01*
X280783Y92417D01*
X280213Y92083D01*
G01X271793Y112083D02*
X271413Y112333D01*
X270970Y112500D01*
X270463D01*
X269893Y112250D01*
X269450Y111833D01*
X269133Y111333D01*
X268880Y110500D01*
X268817Y109750D01*
X268943Y109000D01*
X269133Y108500D01*
X269513Y108000D01*
X269957Y107667D01*
X270400Y107500D01*
X270843D01*
X271287Y107667D01*
X271667Y107917D01*
X271983Y108250D01*
G01X275500Y107500D02*
Y112500D01*
X274740Y111500D01*
G01Y107500D02*
X276260D01*
G01X280600D02*
Y112500D01*
X279840Y111500D01*
G01Y107500D02*
X281360D01*
G01X274293Y129983D02*
X273913Y130233D01*
X273470Y130400D01*
X272963D01*
X272393Y130150D01*
X271950Y129733D01*
X271633Y129233D01*
X271380Y128400D01*
X271317Y127650D01*
X271443Y126900D01*
X271633Y126400D01*
X272013Y125900D01*
X272457Y125567D01*
X272900Y125400D01*
X273343D01*
X273787Y125567D01*
X274167Y125817D01*
X274483Y126150D01*
G01X276797Y129567D02*
X277177Y130067D01*
X277620Y130317D01*
X278127Y130400D01*
X278760Y130233D01*
X279203Y129817D01*
X279330Y129317D01*
X279267Y128817D01*
X279013Y128400D01*
X277747Y127567D01*
X277177Y126983D01*
X276797Y126150D01*
X276670Y125400D01*
X279330D01*
G01X281897Y129567D02*
X282277Y130067D01*
X282720Y130317D01*
X283227Y130400D01*
X283860Y130233D01*
X284303Y129817D01*
X284430Y129317D01*
X284367Y128817D01*
X284113Y128400D01*
X282847Y127567D01*
X282277Y126983D01*
X281897Y126150D01*
X281770Y125400D01*
X284430D01*
G01X257293Y129883D02*
X256913Y130133D01*
X256470Y130300D01*
X255963D01*
X255393Y130050D01*
X254950Y129633D01*
X254633Y129133D01*
X254380Y128300D01*
X254317Y127550D01*
X254443Y126800D01*
X254633Y126300D01*
X255013Y125800D01*
X255457Y125467D01*
X255900Y125300D01*
X256343D01*
X256787Y125467D01*
X257167Y125717D01*
X257483Y126050D01*
G01X259797Y129467D02*
X260177Y129967D01*
X260620Y130217D01*
X261127Y130300D01*
X261760Y130133D01*
X262203Y129717D01*
X262330Y129217D01*
X262267Y128717D01*
X262013Y128300D01*
X260747Y127467D01*
X260177Y126883D01*
X259797Y126050D01*
X259670Y125300D01*
X262330D01*
G01X266100D02*
Y130300D01*
X265340Y129300D01*
G01Y125300D02*
X266860D01*
G01X262450Y162500D02*
Y164750D01*
X261183Y167500D01*
G01X263717D02*
X262450Y164750D01*
G01X267550Y162500D02*
Y167500D01*
X266790Y166500D01*
G01Y162500D02*
X268310D01*
G01X293750Y-2617D02*
X288750D01*
Y-1033D01*
X289000Y-527D01*
X289333Y-210D01*
X290000Y-83D01*
X290667Y-210D01*
X291083Y-590D01*
X291333Y-1033D01*
Y-2617D01*
G01Y-1033D02*
X293750Y-83D01*
G01Y3750D02*
X288750D01*
X289750Y2990D01*
G01X293750D02*
Y4510D01*
G01X292750Y7457D02*
X293333Y7837D01*
X293667Y8343D01*
X293750Y8913D01*
X293667Y9420D01*
X293250Y9927D01*
X292750Y10243D01*
X292250Y10307D01*
X291667Y10180D01*
X291250Y9737D01*
X291083Y9293D01*
Y8723D01*
G01Y9293D02*
X290833Y9673D01*
X290417Y9990D01*
X289917Y10117D01*
X289417Y9990D01*
X289000Y9673D01*
X288750Y9103D01*
X288833Y8533D01*
X289167Y7963D01*
G01X294000Y44633D02*
X289000D01*
Y46217D01*
X289250Y46723D01*
X289583Y47040D01*
X290250Y47167D01*
X290917Y47040D01*
X291333Y46660D01*
X291583Y46217D01*
Y44633D01*
G01Y46217D02*
X294000Y47167D01*
G01Y51000D02*
X289000D01*
X290000Y50240D01*
G01X294000D02*
Y51760D01*
G01Y56860D02*
X289000D01*
X292583Y54517D01*
Y57683D01*
G01X303500Y34633D02*
X298500D01*
Y36217D01*
X298750Y36723D01*
X299083Y37040D01*
X299750Y37167D01*
X300417Y37040D01*
X300833Y36660D01*
X301083Y36217D01*
Y34633D01*
G01Y36217D02*
X303500Y37167D01*
G01Y41000D02*
X298500D01*
X299500Y40240D01*
G01X303500D02*
Y41760D01*
G01X299333Y44897D02*
X298833Y45277D01*
X298583Y45720D01*
X298500Y46227D01*
X298667Y46860D01*
X299083Y47303D01*
X299583Y47430D01*
X300083Y47367D01*
X300500Y47113D01*
X301333Y45847D01*
X301917Y45277D01*
X302750Y44897D01*
X303500Y44770D01*
Y47430D01*
G01X297433Y102433D02*
X295642Y100642D01*
X292106Y104177D01*
X293898Y105969D01*
G01X294890Y103543D02*
X293815Y102469D01*
G01X299203Y104203D02*
X297548Y109619D01*
G01X295668Y107739D02*
X301084Y106084D01*
G01X301494Y112976D02*
X301048Y112884D01*
X300617Y112688D01*
X300259Y112330D01*
X300033Y111750D01*
X300014Y111142D01*
X300143Y110564D01*
X300553Y109796D01*
X301039Y109221D01*
X301659Y108780D01*
X302147Y108561D01*
X302769Y108476D01*
X303318Y108554D01*
X303749Y108749D01*
X304063Y109063D01*
X304259Y109494D01*
X304351Y109940D01*
X304339Y110399D01*
G01X307190Y109834D02*
X309877Y112521D01*
G01X310066Y115066D02*
X306530Y118601D01*
X307605Y119676D01*
X308140Y119858D01*
X308821Y119714D01*
X309382Y119332D01*
X309764Y118771D01*
X309894Y118194D01*
X309668Y117614D01*
X308593Y116539D01*
G01X290293Y84083D02*
X289913Y84333D01*
X289470Y84500D01*
X288963D01*
X288393Y84250D01*
X287950Y83833D01*
X287633Y83333D01*
X287380Y82500D01*
X287317Y81750D01*
X287443Y81000D01*
X287633Y80500D01*
X288013Y80000D01*
X288457Y79667D01*
X288900Y79500D01*
X289343D01*
X289787Y79667D01*
X290167Y79917D01*
X290483Y80250D01*
G01X294000Y79500D02*
Y84500D01*
X293240Y83500D01*
G01Y79500D02*
X294760D01*
G01X299860D02*
Y84500D01*
X297517Y80917D01*
X300683D01*
G01X280043Y120833D02*
X279663Y121083D01*
X279220Y121250D01*
X278713D01*
X278143Y121000D01*
X277700Y120583D01*
X277383Y120083D01*
X277130Y119250D01*
X277067Y118500D01*
X277193Y117750D01*
X277383Y117250D01*
X277763Y116750D01*
X278207Y116417D01*
X278650Y116250D01*
X279093D01*
X279537Y116417D01*
X279917Y116667D01*
X280233Y117000D01*
G01X285017Y116250D02*
X282483D01*
Y121250D01*
X285017D01*
G01X284003Y118833D02*
X282483D01*
G01X288850Y121250D02*
X288343Y121083D01*
X287963Y120667D01*
X287710Y120167D01*
X287520Y119500D01*
X287457Y118750D01*
X287520Y118000D01*
X287710Y117333D01*
X287963Y116833D01*
X288343Y116417D01*
X288850Y116250D01*
X289357Y116417D01*
X289737Y116833D01*
X289990Y117333D01*
X290180Y118000D01*
X290243Y118750D01*
X290180Y119500D01*
X289990Y120167D01*
X289737Y120667D01*
X289357Y121083D01*
X288850Y121250D01*
G01X289150Y164250D02*
X288643Y164333D01*
X288200Y164667D01*
X287820Y165167D01*
X287567Y165750D01*
X287440Y166417D01*
Y167083D01*
X287567Y167750D01*
X287820Y168333D01*
X288200Y168833D01*
X288643Y169167D01*
X289150Y169250D01*
X289657Y169167D01*
X290100Y168833D01*
X290480Y168333D01*
X290733Y167750D01*
X290860Y167083D01*
Y166417D01*
X290733Y165750D01*
X290480Y165167D01*
X290100Y164667D01*
X289657Y164333D01*
X289150Y164250D01*
G01X289657Y165583D02*
X290417Y164250D01*
G01X294250D02*
Y169250D01*
X293490Y168250D01*
G01Y164250D02*
X295010D01*
G01X282450Y195000D02*
X281943Y195083D01*
X281500Y195417D01*
X281120Y195917D01*
X280867Y196500D01*
X280740Y197167D01*
Y197833D01*
X280867Y198500D01*
X281120Y199083D01*
X281500Y199583D01*
X281943Y199917D01*
X282450Y200000D01*
X282957Y199917D01*
X283400Y199583D01*
X283780Y199083D01*
X284033Y198500D01*
X284160Y197833D01*
Y197167D01*
X284033Y196500D01*
X283780Y195917D01*
X283400Y195417D01*
X282957Y195083D01*
X282450Y195000D01*
G01X282957Y196333D02*
X283717Y195000D01*
G01X286347Y199167D02*
X286727Y199667D01*
X287170Y199917D01*
X287677Y200000D01*
X288310Y199833D01*
X288753Y199417D01*
X288880Y198917D01*
X288817Y198417D01*
X288563Y198000D01*
X287297Y197167D01*
X286727Y196583D01*
X286347Y195750D01*
X286220Y195000D01*
X288880D01*
G01X303470Y-43083D02*
X303977Y-43500D01*
X304547Y-43750D01*
X305053D01*
X305560Y-43500D01*
X305940Y-43083D01*
X306130Y-42500D01*
X306003Y-41917D01*
X305687Y-41417D01*
X305117Y-41083D01*
X304357Y-40917D01*
X303913Y-40583D01*
X303723Y-40000D01*
X303850Y-39417D01*
X304167Y-39000D01*
X304610Y-38750D01*
X305053D01*
X305497Y-38917D01*
X305877Y-39333D01*
G01X308443Y-43750D02*
Y-38750D01*
X311357Y-43750D01*
Y-38750D01*
G01X313670Y-43083D02*
X314177Y-43500D01*
X314747Y-43750D01*
X315253D01*
X315760Y-43500D01*
X316140Y-43083D01*
X316330Y-42500D01*
X316203Y-41917D01*
X315887Y-41417D01*
X315317Y-41083D01*
X314557Y-40917D01*
X314113Y-40583D01*
X313923Y-40000D01*
X314050Y-39417D01*
X314367Y-39000D01*
X314810Y-38750D01*
X315253D01*
X315697Y-38917D01*
X316077Y-39333D01*
G01X318200Y-45417D02*
X322000D01*
G01X323933Y-43750D02*
Y-38750D01*
X325453D01*
X325960Y-39000D01*
X326340Y-39583D01*
X326467Y-40250D01*
X326340Y-40917D01*
X326023Y-41417D01*
X325453Y-41667D01*
X323933D01*
G01X317383Y-250D02*
X317700Y-750D01*
X318080Y-1083D01*
X318523Y-1250D01*
X319030Y-1083D01*
X319410Y-750D01*
X319790Y-250D01*
X319917Y417D01*
Y3750D01*
G01X322483Y-1250D02*
Y3750D01*
X324003D01*
X324510Y3500D01*
X324890Y2917D01*
X325017Y2250D01*
X324890Y1583D01*
X324573Y1083D01*
X324003Y833D01*
X322483D01*
G01X327647Y2917D02*
X328027Y3417D01*
X328470Y3667D01*
X328977Y3750D01*
X329610Y3583D01*
X330053Y3167D01*
X330180Y2667D01*
X330117Y2167D01*
X329863Y1750D01*
X328597Y917D01*
X328027Y333D01*
X327647Y-500D01*
X327520Y-1250D01*
X330180D01*
G01X323557Y47500D02*
Y43917D01*
X323810Y43167D01*
X324317Y42667D01*
X324950Y42500D01*
X325583Y42667D01*
X326090Y43167D01*
X326343Y43917D01*
Y47500D01*
G01X328847Y46667D02*
X329227Y47167D01*
X329670Y47417D01*
X330177Y47500D01*
X330810Y47333D01*
X331253Y46917D01*
X331380Y46417D01*
X331317Y45917D01*
X331063Y45500D01*
X329797Y44667D01*
X329227Y44083D01*
X328847Y43250D01*
X328720Y42500D01*
X331380D01*
G01X317383Y53500D02*
X317700Y53000D01*
X318080Y52667D01*
X318523Y52500D01*
X319030Y52667D01*
X319410Y53000D01*
X319790Y53500D01*
X319917Y54167D01*
Y57500D01*
G01X322483Y52500D02*
Y57500D01*
X324003D01*
X324510Y57250D01*
X324890Y56667D01*
X325017Y56000D01*
X324890Y55333D01*
X324573Y54833D01*
X324003Y54583D01*
X322483D01*
G01X328850Y52500D02*
Y57500D01*
X328090Y56500D01*
G01Y52500D02*
X329610D01*
G01X314933Y82500D02*
Y87500D01*
X316517D01*
X317023Y87250D01*
X317340Y86917D01*
X317467Y86250D01*
X317340Y85583D01*
X316960Y85167D01*
X316517Y84917D01*
X314933D01*
G01X316517D02*
X317467Y82500D01*
G01X320097Y84583D02*
X320540Y85167D01*
X320920Y85500D01*
X321427Y85667D01*
X321870Y85500D01*
X322187Y85167D01*
X322440Y84667D01*
X322503Y84083D01*
X322440Y83583D01*
X322187Y83083D01*
X321807Y82667D01*
X321363Y82500D01*
X320857Y82667D01*
X320413Y83167D01*
X320160Y83917D01*
X320097Y84750D01*
X320223Y85833D01*
X320413Y86417D01*
X320730Y87000D01*
X321173Y87417D01*
X321617Y87500D01*
X322060Y87333D01*
X322377Y86917D01*
G01X309683Y105200D02*
Y110200D01*
X311267D01*
X311773Y109950D01*
X312090Y109617D01*
X312217Y108950D01*
X312090Y108283D01*
X311710Y107867D01*
X311267Y107617D01*
X309683D01*
G01X311267D02*
X312217Y105200D01*
G01X316810D02*
Y110200D01*
X314467Y106617D01*
X317633D01*
G01X307500Y131133D02*
X302500D01*
Y132717D01*
X302750Y133223D01*
X303083Y133540D01*
X303750Y133667D01*
X304417Y133540D01*
X304833Y133160D01*
X305083Y132717D01*
Y131133D01*
G01Y132717D02*
X307500Y133667D01*
G01X303333Y136297D02*
X302833Y136677D01*
X302583Y137120D01*
X302500Y137627D01*
X302667Y138260D01*
X303083Y138703D01*
X303583Y138830D01*
X304083Y138767D01*
X304500Y138513D01*
X305333Y137247D01*
X305917Y136677D01*
X306750Y136297D01*
X307500Y136170D01*
Y138830D01*
G01X306750Y141207D02*
X307167Y141587D01*
X307417Y142030D01*
X307500Y142600D01*
X307333Y143170D01*
X307000Y143613D01*
X306417Y143930D01*
X305750Y143993D01*
X305083Y143867D01*
X304667Y143550D01*
X304333Y143107D01*
X304250Y142663D01*
X304333Y142220D01*
X304667Y141650D01*
X302500Y141840D01*
Y143550D01*
G01X303783Y212900D02*
Y217900D01*
X305303D01*
X305810Y217650D01*
X306190Y217067D01*
X306317Y216400D01*
X306190Y215733D01*
X305873Y215233D01*
X305303Y214983D01*
X303783D01*
G01X310023Y212900D02*
X310150Y213983D01*
X310340Y214900D01*
X310593Y215733D01*
X310910Y216650D01*
X311417Y217900D01*
X308883D01*
G01X343557Y-17500D02*
Y-21083D01*
X343810Y-21833D01*
X344317Y-22333D01*
X344950Y-22500D01*
X345583Y-22333D01*
X346090Y-21833D01*
X346343Y-21083D01*
Y-17500D01*
G01X350810Y-22500D02*
Y-17500D01*
X348467Y-21083D01*
X351633D01*
G01X346383Y4900D02*
Y9900D01*
X347967D01*
X348473Y9650D01*
X348790Y9317D01*
X348917Y8650D01*
X348790Y7983D01*
X348410Y7567D01*
X347967Y7317D01*
X346383D01*
G01X347967D02*
X348917Y4900D01*
G01X352750D02*
X353193Y4983D01*
X353700Y5233D01*
X354017Y5650D01*
X354143Y6233D01*
X354017Y6817D01*
X353637Y7317D01*
X353067Y7567D01*
X352433D01*
X352053Y7733D01*
X351737Y8150D01*
X351610Y8733D01*
X351800Y9317D01*
X352243Y9733D01*
X352750Y9900D01*
X353257Y9733D01*
X353700Y9317D01*
X353890Y8733D01*
X353763Y8150D01*
X353447Y7733D01*
X353067Y7567D01*
X352433D01*
X351863Y7317D01*
X351483Y6817D01*
X351357Y6233D01*
X351483Y5650D01*
X351800Y5233D01*
X352307Y4983D01*
X352750Y4900D01*
G01X348683Y20000D02*
Y25000D01*
X350267D01*
X350773Y24750D01*
X351090Y24417D01*
X351217Y23750D01*
X351090Y23083D01*
X350710Y22667D01*
X350267Y22417D01*
X348683D01*
G01X350267D02*
X351217Y20000D01*
G01X353847Y24167D02*
X354227Y24667D01*
X354670Y24917D01*
X355177Y25000D01*
X355810Y24833D01*
X356253Y24417D01*
X356380Y23917D01*
X356317Y23417D01*
X356063Y23000D01*
X354797Y22167D01*
X354227Y21583D01*
X353847Y20750D01*
X353720Y20000D01*
X356380D01*
G01X345683Y41500D02*
Y46500D01*
X347267D01*
X347773Y46250D01*
X348090Y45917D01*
X348217Y45250D01*
X348090Y44583D01*
X347710Y44167D01*
X347267Y43917D01*
X345683D01*
G01X347267D02*
X348217Y41500D01*
G01X350973Y42083D02*
X351417Y41667D01*
X351923Y41500D01*
X352430Y41667D01*
X352873Y42167D01*
X353190Y42917D01*
X353317Y43667D01*
Y44583D01*
X353190Y45333D01*
X352873Y46000D01*
X352493Y46333D01*
X352050Y46500D01*
X351543Y46333D01*
X351163Y46000D01*
X350910Y45500D01*
X350783Y44833D01*
X350910Y44250D01*
X351227Y43667D01*
X351607Y43333D01*
X352050Y43250D01*
X352557Y43417D01*
X352937Y43833D01*
X353317Y44583D01*
G01X348683Y27500D02*
Y32500D01*
X350267D01*
X350773Y32250D01*
X351090Y31917D01*
X351217Y31250D01*
X351090Y30583D01*
X350710Y30167D01*
X350267Y29917D01*
X348683D01*
G01X350267D02*
X351217Y27500D01*
G01X353657Y28500D02*
X354037Y27917D01*
X354543Y27583D01*
X355113Y27500D01*
X355620Y27583D01*
X356127Y28000D01*
X356443Y28500D01*
X356507Y29000D01*
X356380Y29583D01*
X355937Y30000D01*
X355493Y30167D01*
X354923D01*
G01X355493D02*
X355873Y30417D01*
X356190Y30833D01*
X356317Y31333D01*
X356190Y31833D01*
X355873Y32250D01*
X355303Y32500D01*
X354733Y32417D01*
X354163Y32083D01*
G01X347433Y87500D02*
Y92500D01*
X349017D01*
X349523Y92250D01*
X349840Y91917D01*
X349967Y91250D01*
X349840Y90583D01*
X349460Y90167D01*
X349017Y89917D01*
X347433D01*
G01X349017D02*
X349967Y87500D01*
G01X353673D02*
X353800Y88583D01*
X353990Y89500D01*
X354243Y90333D01*
X354560Y91250D01*
X355067Y92500D01*
X352533D01*
G01X347433Y105000D02*
Y110000D01*
X349017D01*
X349523Y109750D01*
X349840Y109417D01*
X349967Y108750D01*
X349840Y108083D01*
X349460Y107667D01*
X349017Y107417D01*
X347433D01*
G01X349017D02*
X349967Y105000D01*
G01X352407Y105750D02*
X352787Y105333D01*
X353230Y105083D01*
X353800Y105000D01*
X354370Y105167D01*
X354813Y105500D01*
X355130Y106083D01*
X355193Y106750D01*
X355067Y107417D01*
X354750Y107833D01*
X354307Y108167D01*
X353863Y108250D01*
X353420Y108167D01*
X352850Y107833D01*
X353040Y110000D01*
X354750D01*
G01X330417Y116293D02*
X330167Y115913D01*
X330000Y115470D01*
Y114963D01*
X330250Y114393D01*
X330667Y113950D01*
X331167Y113633D01*
X332000Y113380D01*
X332750Y113317D01*
X333500Y113443D01*
X334000Y113633D01*
X334500Y114013D01*
X334833Y114457D01*
X335000Y114900D01*
Y115343D01*
X334833Y115787D01*
X334583Y116167D01*
X334250Y116483D01*
G01X334000Y118607D02*
X334583Y118987D01*
X334917Y119493D01*
X335000Y120063D01*
X334917Y120570D01*
X334500Y121077D01*
X334000Y121393D01*
X333500Y121457D01*
X332917Y121330D01*
X332500Y120887D01*
X332333Y120443D01*
Y119873D01*
G01Y120443D02*
X332083Y120823D01*
X331667Y121140D01*
X331167Y121267D01*
X330667Y121140D01*
X330250Y120823D01*
X330000Y120253D01*
X330083Y119683D01*
X330417Y119113D01*
G01X335000Y124973D02*
X333917Y125100D01*
X333000Y125290D01*
X332167Y125543D01*
X331250Y125860D01*
X330000Y126367D01*
Y123833D01*
G01X348793Y115833D02*
X348413Y116083D01*
X347970Y116250D01*
X347463D01*
X346893Y116000D01*
X346450Y115583D01*
X346133Y115083D01*
X345880Y114250D01*
X345817Y113500D01*
X345943Y112750D01*
X346133Y112250D01*
X346513Y111750D01*
X346957Y111417D01*
X347400Y111250D01*
X347843D01*
X348287Y111417D01*
X348667Y111667D01*
X348983Y112000D01*
G01X351107Y112250D02*
X351487Y111667D01*
X351993Y111333D01*
X352563Y111250D01*
X353070Y111333D01*
X353577Y111750D01*
X353893Y112250D01*
X353957Y112750D01*
X353830Y113333D01*
X353387Y113750D01*
X352943Y113917D01*
X352373D01*
G01X352943D02*
X353323Y114167D01*
X353640Y114583D01*
X353767Y115083D01*
X353640Y115583D01*
X353323Y116000D01*
X352753Y116250D01*
X352183Y116167D01*
X351613Y115833D01*
G01X357600Y111250D02*
X358043Y111333D01*
X358550Y111583D01*
X358867Y112000D01*
X358993Y112583D01*
X358867Y113167D01*
X358487Y113667D01*
X357917Y113917D01*
X357283D01*
X356903Y114083D01*
X356587Y114500D01*
X356460Y115083D01*
X356650Y115667D01*
X357093Y116083D01*
X357600Y116250D01*
X358107Y116083D01*
X358550Y115667D01*
X358740Y115083D01*
X358613Y114500D01*
X358297Y114083D01*
X357917Y113917D01*
X357283D01*
X356713Y113667D01*
X356333Y113167D01*
X356207Y112583D01*
X356333Y112000D01*
X356650Y111583D01*
X357157Y111333D01*
X357600Y111250D01*
G01X339833Y150000D02*
Y155000D01*
X341417D01*
X341923Y154750D01*
X342240Y154417D01*
X342367Y153750D01*
X342240Y153083D01*
X341860Y152667D01*
X341417Y152417D01*
X339833D01*
G01X341417D02*
X342367Y150000D01*
G01X347593Y154583D02*
X347213Y154833D01*
X346770Y155000D01*
X346263D01*
X345693Y154750D01*
X345250Y154333D01*
X344933Y153833D01*
X344680Y153000D01*
X344617Y152250D01*
X344743Y151500D01*
X344933Y151000D01*
X345313Y150500D01*
X345757Y150167D01*
X346200Y150000D01*
X346643D01*
X347087Y150167D01*
X347467Y150417D01*
X347783Y150750D01*
G01X349717Y150000D02*
X351300Y155000D01*
X352883Y150000D01*
G01X352313Y151750D02*
X350287D01*
G01X355133Y155000D02*
Y150000D01*
X357667D01*
G01X329717Y169700D02*
X331300Y174700D01*
X332883Y169700D01*
G01X332313Y171450D02*
X330287D01*
G01X335640Y174700D02*
X337160D01*
G01X336400D02*
Y169700D01*
G01X335640D02*
X337160D01*
G01X340043D02*
Y174700D01*
X342957Y169700D01*
Y174700D01*
G01X346600Y169700D02*
Y174700D01*
X345840Y173700D01*
G01Y169700D02*
X347360D01*
G01X357000Y218633D02*
X352000D01*
Y220217D01*
X352250Y220723D01*
X352583Y221040D01*
X353250Y221167D01*
X353917Y221040D01*
X354333Y220660D01*
X354583Y220217D01*
Y218633D01*
G01Y220217D02*
X357000Y221167D01*
G01X356000Y223607D02*
X356583Y223987D01*
X356917Y224493D01*
X357000Y225063D01*
X356917Y225570D01*
X356500Y226077D01*
X356000Y226393D01*
X355500Y226457D01*
X354917Y226330D01*
X354500Y225887D01*
X354333Y225443D01*
Y224873D01*
G01Y225443D02*
X354083Y225823D01*
X353667Y226140D01*
X353167Y226267D01*
X352667Y226140D01*
X352250Y225823D01*
X352000Y225253D01*
X352083Y224683D01*
X352417Y224113D01*
G01X352833Y228897D02*
X352333Y229277D01*
X352083Y229720D01*
X352000Y230227D01*
X352167Y230860D01*
X352583Y231303D01*
X353083Y231430D01*
X353583Y231367D01*
X354000Y231113D01*
X354833Y229847D01*
X355417Y229277D01*
X356250Y228897D01*
X357000Y228770D01*
Y231430D01*
G01X340500Y258500D02*
Y263500D01*
X339740Y262500D01*
G01Y258500D02*
X341260D01*
G01X341000Y250400D02*
Y245400D01*
G01X339543Y250400D02*
X342457D01*
G01X344833Y245400D02*
Y250400D01*
X346353D01*
X346860Y250150D01*
X347240Y249567D01*
X347367Y248900D01*
X347240Y248233D01*
X346923Y247733D01*
X346353Y247483D01*
X344833D01*
G01X349807Y246400D02*
X350187Y245817D01*
X350693Y245483D01*
X351263Y245400D01*
X351770Y245483D01*
X352277Y245900D01*
X352593Y246400D01*
X352657Y246900D01*
X352530Y247483D01*
X352087Y247900D01*
X351643Y248067D01*
X351073D01*
G01X351643D02*
X352023Y248317D01*
X352340Y248733D01*
X352467Y249233D01*
X352340Y249733D01*
X352023Y250150D01*
X351453Y250400D01*
X350883Y250317D01*
X350313Y249983D01*
G01X373320Y-42133D02*
X373827Y-42550D01*
X374397Y-42800D01*
X374903D01*
X375410Y-42550D01*
X375790Y-42133D01*
X375980Y-41550D01*
X375853Y-40967D01*
X375537Y-40467D01*
X374967Y-40133D01*
X374207Y-39967D01*
X373763Y-39633D01*
X373573Y-39050D01*
X373700Y-38467D01*
X374017Y-38050D01*
X374460Y-37800D01*
X374903D01*
X375347Y-37967D01*
X375727Y-38383D01*
G01X379053Y-41133D02*
X380573D01*
G01X379750Y-40050D02*
Y-42217D01*
G01X369720Y21917D02*
X370227Y21500D01*
X370797Y21250D01*
X371303D01*
X371810Y21500D01*
X372190Y21917D01*
X372380Y22500D01*
X372253Y23083D01*
X371937Y23583D01*
X371367Y23917D01*
X370607Y24083D01*
X370163Y24417D01*
X369973Y25000D01*
X370100Y25583D01*
X370417Y26000D01*
X370860Y26250D01*
X371303D01*
X371747Y26083D01*
X372127Y25667D01*
G01X374693Y21250D02*
Y26250D01*
X377607Y21250D01*
Y26250D01*
G01X379920Y21917D02*
X380427Y21500D01*
X380997Y21250D01*
X381503D01*
X382010Y21500D01*
X382390Y21917D01*
X382580Y22500D01*
X382453Y23083D01*
X382137Y23583D01*
X381567Y23917D01*
X380807Y24083D01*
X380363Y24417D01*
X380173Y25000D01*
X380300Y25583D01*
X380617Y26000D01*
X381060Y26250D01*
X381503D01*
X381947Y26083D01*
X382327Y25667D01*
G01X384450Y19583D02*
X388250D01*
G01X389993Y21250D02*
Y26250D01*
X392907Y21250D01*
Y26250D01*
G01X371293Y9583D02*
X370913Y9833D01*
X370470Y10000D01*
X369963D01*
X369393Y9750D01*
X368950Y9333D01*
X368633Y8833D01*
X368380Y8000D01*
X368317Y7250D01*
X368443Y6500D01*
X368633Y6000D01*
X369013Y5500D01*
X369457Y5167D01*
X369900Y5000D01*
X370343D01*
X370787Y5167D01*
X371167Y5417D01*
X371483Y5750D01*
G01X373607Y6000D02*
X373987Y5417D01*
X374493Y5083D01*
X375063Y5000D01*
X375570Y5083D01*
X376077Y5500D01*
X376393Y6000D01*
X376457Y6500D01*
X376330Y7083D01*
X375887Y7500D01*
X375443Y7667D01*
X374873D01*
G01X375443D02*
X375823Y7917D01*
X376140Y8333D01*
X376267Y8833D01*
X376140Y9333D01*
X375823Y9750D01*
X375253Y10000D01*
X374683Y9917D01*
X374113Y9583D01*
G01X379023Y5583D02*
X379467Y5167D01*
X379973Y5000D01*
X380480Y5167D01*
X380923Y5667D01*
X381240Y6417D01*
X381367Y7167D01*
Y8083D01*
X381240Y8833D01*
X380923Y9500D01*
X380543Y9833D01*
X380100Y10000D01*
X379593Y9833D01*
X379213Y9500D01*
X378960Y9000D01*
X378833Y8333D01*
X378960Y7750D01*
X379277Y7167D01*
X379657Y6833D01*
X380100Y6750D01*
X380607Y6917D01*
X380987Y7333D01*
X381367Y8083D01*
G01X372820Y92367D02*
X373327Y91950D01*
X373897Y91700D01*
X374403D01*
X374910Y91950D01*
X375290Y92367D01*
X375480Y92950D01*
X375353Y93533D01*
X375037Y94033D01*
X374467Y94367D01*
X373707Y94533D01*
X373263Y94867D01*
X373073Y95450D01*
X373200Y96033D01*
X373517Y96450D01*
X373960Y96700D01*
X374403D01*
X374847Y96533D01*
X375227Y96117D01*
G01X378427Y93367D02*
X380073D01*
G01X359900Y125000D02*
Y120000D01*
G01X358443Y125000D02*
X361357D01*
G01X363733Y120000D02*
Y125000D01*
X365253D01*
X365760Y124750D01*
X366140Y124167D01*
X366267Y123500D01*
X366140Y122833D01*
X365823Y122333D01*
X365253Y122083D01*
X363733D01*
G01X370100Y120000D02*
Y125000D01*
X369340Y124000D01*
G01Y120000D02*
X370860D01*
G01X373247Y174400D02*
Y179400D01*
X375653D01*
G01X374767Y176983D02*
X373247D01*
G01X378853Y176067D02*
X380373D01*
G01X379550Y177150D02*
Y174983D01*
G01X373247Y261700D02*
Y266700D01*
X375653D01*
G01X374767Y264283D02*
X373247D01*
G01X378727Y263367D02*
X380373D01*
G01X387917Y32543D02*
X387667Y32163D01*
X387500Y31720D01*
Y31213D01*
X387750Y30643D01*
X388167Y30200D01*
X388667Y29883D01*
X389500Y29630D01*
X390250Y29567D01*
X391000Y29693D01*
X391500Y29883D01*
X392000Y30263D01*
X392333Y30707D01*
X392500Y31150D01*
Y31593D01*
X392333Y32037D01*
X392083Y32417D01*
X391750Y32733D01*
G01X391500Y34857D02*
X392083Y35237D01*
X392417Y35743D01*
X392500Y36313D01*
X392417Y36820D01*
X392000Y37327D01*
X391500Y37643D01*
X391000Y37707D01*
X390417Y37580D01*
X390000Y37137D01*
X389833Y36693D01*
Y36123D01*
G01Y36693D02*
X389583Y37073D01*
X389167Y37390D01*
X388667Y37517D01*
X388167Y37390D01*
X387750Y37073D01*
X387500Y36503D01*
X387583Y35933D01*
X387917Y35363D01*
G01X390417Y40147D02*
X389833Y40590D01*
X389500Y40970D01*
X389333Y41477D01*
X389500Y41920D01*
X389833Y42237D01*
X390333Y42490D01*
X390917Y42553D01*
X391417Y42490D01*
X391917Y42237D01*
X392333Y41857D01*
X392500Y41413D01*
X392333Y40907D01*
X391833Y40463D01*
X391083Y40210D01*
X390250Y40147D01*
X389167Y40273D01*
X388583Y40463D01*
X388000Y40780D01*
X387583Y41223D01*
X387500Y41667D01*
X387667Y42110D01*
X388083Y42427D01*
G54D13*
G01X15950Y212500D02*
Y215600D01*
X15490Y214980D01*
G01Y212500D02*
X16410D01*
G01X19050Y215600D02*
X18743Y215497D01*
X18513Y215238D01*
X18360Y214928D01*
X18245Y214515D01*
X18207Y214050D01*
X18245Y213585D01*
X18360Y213172D01*
X18513Y212862D01*
X18743Y212603D01*
X19050Y212500D01*
X19357Y212603D01*
X19587Y212862D01*
X19740Y213172D01*
X19855Y213585D01*
X19893Y214050D01*
X19855Y214515D01*
X19740Y214928D01*
X19587Y215238D01*
X19357Y215497D01*
X19050Y215600D01*
G01X53800Y4400D02*
Y7500D01*
X53340Y6880D01*
G01Y4400D02*
X54260D01*
G01X108000Y212000D02*
Y215100D01*
X107540Y214480D01*
G01Y212000D02*
X108460D01*
G01X125300Y4400D02*
X125568Y4452D01*
X125875Y4607D01*
X126067Y4865D01*
X126143Y5227D01*
X126067Y5588D01*
X125837Y5898D01*
X125492Y6053D01*
X125108D01*
X124878Y6157D01*
X124687Y6415D01*
X124610Y6777D01*
X124725Y7138D01*
X124993Y7397D01*
X125300Y7500D01*
X125607Y7397D01*
X125875Y7138D01*
X125990Y6777D01*
X125913Y6415D01*
X125722Y6157D01*
X125492Y6053D01*
X125108D01*
X124763Y5898D01*
X124533Y5588D01*
X124457Y5227D01*
X124533Y4865D01*
X124725Y4607D01*
X125032Y4452D01*
X125300Y4400D01*
G01X124500Y212500D02*
X124768Y212552D01*
X125075Y212707D01*
X125267Y212965D01*
X125343Y213327D01*
X125267Y213688D01*
X125037Y213998D01*
X124692Y214153D01*
X124308D01*
X124078Y214257D01*
X123887Y214515D01*
X123810Y214877D01*
X123925Y215238D01*
X124193Y215497D01*
X124500Y215600D01*
X124807Y215497D01*
X125075Y215238D01*
X125190Y214877D01*
X125113Y214515D01*
X124922Y214257D01*
X124692Y214153D01*
X124308D01*
X123963Y213998D01*
X123733Y213688D01*
X123657Y213327D01*
X123733Y212965D01*
X123925Y212707D01*
X124232Y212552D01*
X124500Y212500D01*
G01X144100Y4100D02*
Y7200D01*
X143640Y6580D01*
G01Y4100D02*
X144560D01*
G01X148200Y117200D02*
Y120300D01*
X147740Y119680D01*
G01Y117200D02*
X148660D01*
G01X194672Y5492D02*
X194940Y5853D01*
X195170Y6060D01*
X195477Y6163D01*
X195745Y6060D01*
X195937Y5853D01*
X196090Y5543D01*
X196128Y5182D01*
X196090Y4872D01*
X195937Y4562D01*
X195707Y4303D01*
X195438Y4200D01*
X195132Y4303D01*
X194863Y4613D01*
X194710Y5078D01*
X194672Y5595D01*
X194748Y6267D01*
X194863Y6628D01*
X195055Y6990D01*
X195323Y7248D01*
X195592Y7300D01*
X195860Y7197D01*
X196052Y6938D01*
G01X202000Y115800D02*
Y118900D01*
X201540Y118280D01*
G01Y115800D02*
X202460D01*
G01X202200Y124600D02*
Y127700D01*
X201740Y127080D01*
G01Y124600D02*
X202660D01*
G01X202000Y137100D02*
Y140200D01*
X201540Y139580D01*
G01Y137100D02*
X202460D01*
G01X194000Y212000D02*
Y215100D01*
X193540Y214480D01*
G01Y212000D02*
X194460D01*
G01X303800Y-3800D02*
Y-700D01*
X303340Y-1320D01*
G01Y-3800D02*
X304260D01*
G01X303500Y52700D02*
Y55800D01*
X303040Y55180D01*
G01Y52700D02*
X303960D01*
M02*
