G04 ================== begin FILE IDENTIFICATION RECORD ==================*
G04 Layout Name:  C:/tmp/20_047456e/worklib/02_047456e_top/physical/08_047456d.brd*
G04 Film Name:    silk_sec*
G04 File Format:  Gerber RS274X*
G04 File Origin:  Cadence Allegro 17.2-S053*
G04 Origin Date:  Fri Aug 16 11:54:05 2019*
G04 *
G04 Layer:  PACKAGE GEOMETRY/SILKSCREEN_BOTTOM*
G04 Layer:  BOARD GEOMETRY/TOOLING_CORNERS*
G04 Layer:  BOARD GEOMETRY/SILKSCREEN_BOTTOM*
G04 Layer:  BOARD GEOMETRY/ROOT_NUMBER*
G04 Layer:  REF DES/SILKSCREEN_BOTTOM*
G04 Layer:  MANUFACTURING/SILK_DETAIL_BOTTOM*
G04 *
G04 Offset:    (0.00 0.00)*
G04 Mirror:    No*
G04 Mode:      Positive*
G04 Rotation:  0*
G04 FullContactRelief:  No*
G04 UndefLineWidth:     8.00*
G04 ================== end FILE IDENTIFICATION RECORD ====================*
%FSLAX25Y25*MOIN*%
%IR0*IPPOS*OFA0.00000B0.00000*MIA0B0*SFA1.00000B1.00000*%
%ADD10C,.05*%
%ADD11C,.06*%
%ADD12C,.004*%
%ADD13C,.008*%
%ADD14C,.02236*%
G75*
%LPD*%
G75*
G36*
G01X24950Y62500D02*
G03I-2550J0D01*
G37*
G36*
G01X23203Y85500D02*
G03I-1803J0D01*
G37*
G36*
G01X32900Y79000D02*
Y77000D01*
X25900D01*
Y79000D01*
X32900D01*
G37*
G36*
G01X16750Y132035D02*
X21250D01*
X31250Y120035D01*
X32500Y122035D01*
X36250D01*
X33000Y114035D01*
X29500D01*
X16750Y132035D01*
G37*
G36*
G01X36400Y60250D02*
X35400D01*
Y62000D01*
X36400D01*
Y60250D01*
G37*
G36*
G01X35400Y85500D02*
Y89500D01*
X33900D01*
Y85500D01*
X35400D01*
G37*
G36*
G01X83500Y120400D02*
X71300D01*
G02X72088Y118094I7696J1342D01*
G01X72190Y118192D01*
G03X83500Y120400I5038J4265D01*
G37*
G36*
G01X62000Y121700D02*
X59000D01*
X64700Y126900D01*
X64800Y127000D01*
X70500Y121700D01*
X67500D01*
G03X90000Y118000I11544J-62D01*
G01X93200Y114700D01*
X95200Y116900D01*
G02X62000Y121700I-16260J4750D01*
G37*
G36*
G01X96000D02*
X99000D01*
X93300Y116500D01*
X93200Y116400D01*
X87500Y121700D01*
X90500D01*
G03X68000Y125400I-11544J62D01*
G01X64800Y128700D01*
X62800Y126500D01*
G02X96000Y121700I16260J-4749D01*
G37*
%LPC*%
G75*
G36*
G01X74500Y122900D02*
X83500D01*
G03X74500I-4500J-1011D01*
G37*
G54D14*
X22400Y62500D03*
%LPD*%
G75*
G54D10*
G01X-12500Y-7000D02*
X22500D01*
G01X-2500Y-17000D02*
Y18000D01*
G01Y232500D02*
Y197500D01*
G01X-12500Y222500D02*
X22500D01*
G01X297500Y-62500D02*
Y-27500D01*
G01X287500Y-52500D02*
X322500D01*
G01X297500Y282500D02*
Y247500D01*
G01X287500Y272500D02*
X322500D01*
G01X412500Y-52500D02*
X377500D01*
G01X412500Y272500D02*
X377500D01*
G01X402500Y-62500D02*
Y-27500D01*
G01Y282500D02*
Y247500D01*
G54D11*
G01X41400Y44500D02*
X17400D01*
G54D12*
G01X29234Y110119D02*
X27723Y110385D01*
X27185Y107333D01*
X28695Y107066D01*
G01X28351Y108648D02*
X27445Y108808D01*
G01X26900Y110611D02*
X23985Y108696D01*
G01X24059Y111905D02*
X24404Y111925D01*
X24704Y111845D01*
X24984Y111638D01*
X25155Y111321D01*
X25199Y110985D01*
X25078Y110594D01*
X24813Y110274D01*
X24467Y110036D01*
X24149Y109989D01*
X23813Y110033D01*
X23587Y110186D01*
X23433Y110412D01*
X23335Y110802D01*
X22467Y109771D01*
X23199Y109039D01*
G01X22549Y113339D02*
X22920Y113299D01*
X23196Y113131D01*
X23314Y112829D01*
X23249Y112425D01*
X23016Y111979D01*
X22709Y111621D01*
X22274Y111256D01*
X21868Y111016D01*
X21428Y110897D01*
X21122Y110940D01*
X20870Y111079D01*
X20752Y111381D01*
X20763Y111690D01*
X20902Y112007D01*
X21169Y112331D01*
X21496Y112505D01*
X21896Y112590D01*
X22202Y112547D01*
X22414Y112375D01*
X22532Y112073D01*
X22482Y111731D01*
X22274Y111256D01*
G01X22341Y114309D02*
X18889Y113805D01*
G01X18458Y116218D02*
X18245Y115896D01*
X18191Y115591D01*
X18248Y115285D01*
X18476Y114960D01*
X18810Y114796D01*
X19128Y114830D01*
X19406Y114972D01*
X19596Y115205D01*
X19820Y116102D01*
X20041Y116550D01*
X20448Y116943D01*
X20859Y117174D01*
X21410Y115661D01*
G01X17605Y118098D02*
X17626Y118421D01*
X17816Y118710D01*
X18075Y118938D01*
X18445Y119156D01*
X18884Y119314D01*
X19343Y119397D01*
X19772Y119393D01*
X20111Y119325D01*
X20420Y119170D01*
X20600Y118900D01*
X20579Y118577D01*
X20389Y118288D01*
X20130Y118060D01*
X19760Y117842D01*
X19321Y117684D01*
X18862Y117601D01*
X18433Y117605D01*
X18094Y117673D01*
X17784Y117828D01*
X17605Y118098D01*
G01X17547Y121439D02*
X17702Y121723D01*
X17997Y121904D01*
X18329Y122002D01*
X18756Y122043D01*
X19220Y122000D01*
X19672Y121882D01*
X20059Y121697D01*
X20337Y121492D01*
X20552Y121220D01*
X20600Y120901D01*
X20445Y120616D01*
X20151Y120435D01*
X19819Y120338D01*
X19392Y120296D01*
X18927Y120339D01*
X18476Y120458D01*
X18089Y120643D01*
X17810Y120847D01*
X17596Y121119D01*
X17547Y121439D01*
G01X18921Y124568D02*
X18551Y124458D01*
X18314Y124259D01*
X18160Y123989D01*
X18126Y123593D01*
X18277Y123252D01*
X18542Y123074D01*
X18847Y123004D01*
X19142Y123060D01*
X19890Y123604D01*
X20348Y123804D01*
X20912Y123844D01*
X21375Y123757D01*
X20824Y122244D01*
G01X27438Y129441D02*
X27226Y129101D01*
X26946Y128847D01*
X26654Y128752D01*
X26315Y128805D01*
X26016Y128979D01*
X25795Y129288D01*
X25756Y129656D01*
X25843Y130010D01*
X26107Y130313D01*
X26513Y130553D01*
X26704Y130833D01*
X26702Y131212D01*
X26517Y131532D01*
X26255Y131719D01*
X25952Y131783D01*
X25697Y131701D01*
X25473Y131519D01*
X25334Y131203D01*
G01X29895Y129526D02*
X29410Y132588D01*
G01X27820Y132336D02*
X28305Y129274D01*
G01X28063Y130805D02*
X29653Y131057D01*
G01X44800Y119800D02*
G03I-14500J0D01*
G01X47300D02*
G03I-17000J0D01*
G01X38100D02*
G03I-7800J0D01*
G01X35700Y128097D02*
X35777Y128148D01*
Y128252D01*
X35700Y128303D01*
X35623Y128252D01*
Y128148D01*
X35700Y128097D01*
G01X39161Y129095D02*
X36969Y126903D01*
G01X38810Y127985D02*
X38051Y128744D01*
G01X38631Y124752D02*
X40421Y125785D01*
G01X39973Y125527D02*
X40120Y125789D01*
X40184Y126091D01*
X40076Y126382D01*
X39897Y126589D01*
X39603Y126685D01*
X39232Y126604D01*
X37979Y125880D01*
G01X39293Y123528D02*
X41235Y124235D01*
G01X40895Y124111D02*
X41141Y124038D01*
X41317Y123857D01*
X41458Y123623D01*
X41452Y123335D01*
X41337Y123048D01*
X41098Y122798D01*
X40736Y122585D01*
X40321Y122515D01*
X39977Y122553D01*
X39704Y122699D01*
X39516Y122916D01*
X39472Y123185D01*
X39539Y123455D01*
X39681Y123669D01*
G01X41919Y121512D02*
X39883Y121153D01*
G01X42733Y121656D02*
X42797Y121589D01*
X42899Y121607D01*
X42936Y121692D01*
X42872Y121758D01*
X42770Y121740D01*
X42733Y121656D01*
G01X39967Y119833D02*
X43067D01*
G01X38744Y117713D02*
X41797Y117175D01*
G01X41339Y117256D02*
X41627Y117400D01*
X41813Y117562D01*
X41917Y117855D01*
X41913Y118128D01*
X41705Y118437D01*
X41369Y118613D01*
X41019Y118714D01*
X40656Y118739D01*
X40280Y118688D01*
X40037Y118498D01*
X39882Y118213D01*
X39886Y117940D01*
X39992Y117649D01*
X40169Y117462D01*
G01X38377Y114229D02*
X40250Y113356D01*
G01X39735Y113596D02*
X40018Y113591D01*
X40286Y113677D01*
X40493Y113877D01*
X40513Y114164D01*
X40406Y114425D01*
X40221Y114638D01*
X38863Y115271D01*
G01X40221Y114638D02*
X40504Y114633D01*
X40772Y114719D01*
X40979Y114919D01*
X40999Y115206D01*
X40893Y115467D01*
X40660Y115702D01*
X39349Y116314D01*
G01X37153Y112827D02*
X37063Y112609D01*
X37100Y112302D01*
X37309Y111969D01*
X37603Y111669D01*
X37986Y111495D01*
X38370Y111413D01*
X38671Y111483D01*
X38845Y111642D01*
X38935Y111860D01*
X38898Y112167D01*
X38689Y112500D01*
X38373Y112768D01*
X38012Y112974D01*
X37628Y113056D01*
X37327Y112986D01*
X37153Y112827D01*
G01X37876Y109950D02*
X37823Y109678D01*
X37706Y109415D01*
X37489Y109198D01*
X37136Y109064D01*
X36763Y109057D01*
X36409Y109141D01*
X35935Y109397D01*
X35579Y109699D01*
X35304Y110082D01*
X35166Y110383D01*
X35110Y110765D01*
X35154Y111100D01*
X35270Y111363D01*
X35460Y111553D01*
X35723Y111670D01*
X35995Y111723D01*
X36277Y111712D01*
G01X33500Y108597D02*
X33577Y108648D01*
Y108752D01*
X33500Y108803D01*
X33423Y108752D01*
Y108648D01*
X33500Y108597D01*
G01X31343Y107226D02*
X31113Y107071D01*
X30845Y106968D01*
X30538D01*
X30193Y107123D01*
X29925Y107381D01*
X29733Y107691D01*
X29580Y108208D01*
X29542Y108673D01*
X29618Y109138D01*
X29733Y109448D01*
X29963Y109758D01*
X30232Y109965D01*
X30500Y110068D01*
X30768D01*
X31037Y109965D01*
X31267Y109810D01*
X31458Y109603D01*
G01X31201Y129500D02*
X31436Y129511D01*
X31698Y129674D01*
X31912Y130004D01*
X32059Y130397D01*
X32056Y130818D01*
X31968Y131201D01*
X31777Y131444D01*
X31559Y131535D01*
X31324Y131524D01*
X31061Y131360D01*
X30848Y131031D01*
X30738Y130630D01*
X30704Y130217D01*
X30792Y129834D01*
X30983Y129591D01*
X31201Y129500D01*
G01X34021Y128738D02*
X35081Y131651D01*
X34181Y131979D01*
X33839Y131938D01*
X33588Y131810D01*
X33375Y131447D01*
X33306Y131033D01*
X33434Y130711D01*
X33633Y130474D01*
X34533Y130146D01*
G01X33633Y130474D02*
X32580Y129263D01*
G54D13*
G01X96100Y310400D02*
X91100D01*
Y320400D01*
X96100D01*
G01X94100Y315567D02*
X91100D01*
G01X100475Y320400D02*
X103600Y310400D01*
X106725Y320400D01*
G01X110475Y310400D02*
X113600Y320400D01*
X116725Y310400D01*
G01X115600Y313900D02*
X111600D01*
G01X121100Y320400D02*
Y310400D01*
X126100D01*
G01X131975Y313733D02*
X135225D01*
G01X140475Y310400D02*
X143600Y320400D01*
X146725Y310400D01*
G01X145600Y313900D02*
X141600D01*
G01X150850Y310400D02*
Y320400D01*
X153350D01*
X154350Y319900D01*
X155100Y319233D01*
X155725Y318233D01*
X156225Y317066D01*
X156350Y315400D01*
X156225Y313733D01*
X155725Y312567D01*
X155100Y311566D01*
X154350Y310900D01*
X153350Y310400D01*
X150850D01*
G01X160850Y311900D02*
X161600Y311067D01*
X162475Y310567D01*
X163600Y310400D01*
X164725Y310733D01*
X165600Y311400D01*
X166225Y312567D01*
X166350Y313900D01*
X166100Y315233D01*
X165475Y316067D01*
X164600Y316733D01*
X163725Y316900D01*
X162850Y316733D01*
X161725Y316067D01*
X162100Y320400D01*
X165475D01*
G01X171475Y311566D02*
X172350Y310733D01*
X173350Y310400D01*
X174350Y310733D01*
X175225Y311733D01*
X175850Y313233D01*
X176100Y314733D01*
Y316567D01*
X175850Y318067D01*
X175225Y319400D01*
X174475Y320067D01*
X173600Y320400D01*
X172600Y320067D01*
X171850Y319400D01*
X171350Y318400D01*
X171100Y317066D01*
X171350Y315900D01*
X171975Y314733D01*
X172725Y314066D01*
X173600Y313900D01*
X174600Y314233D01*
X175350Y315067D01*
X176100Y316567D01*
G01X185100Y310400D02*
Y320400D01*
X180475Y313233D01*
X186725D01*
G01X193600Y310400D02*
Y320400D01*
X192100Y318400D01*
G01Y310400D02*
X195100D01*
G01X204600Y315733D02*
X205100Y316233D01*
X205475Y317066D01*
X205725Y318233D01*
X205475Y319233D01*
X204975Y319900D01*
X204100Y320400D01*
X200725D01*
Y310400D01*
X204850D01*
X205725Y311067D01*
X206225Y312067D01*
X206475Y313233D01*
X206225Y314400D01*
X205475Y315400D01*
X204600Y315733D01*
X200725D01*
G01X210475Y310400D02*
X213600Y320400D01*
X216725Y310400D01*
G01X215600Y313900D02*
X211600D01*
G01X223600Y320400D02*
Y310400D01*
G01X220725Y320400D02*
X226475D01*
G01X231225D02*
X235975D01*
X231225Y310400D01*
X235975D01*
G01X251100D02*
Y320400D01*
X254225D01*
X255225Y319900D01*
X255850Y319233D01*
X256100Y317900D01*
X255850Y316567D01*
X255100Y315733D01*
X254225Y315233D01*
X251100D01*
G01X254225D02*
X256100Y310400D01*
G01X266100D02*
X261100D01*
Y320400D01*
X266100D01*
G01X264100Y315567D02*
X261100D01*
G01X270475Y320400D02*
X273600Y310400D01*
X276725Y320400D01*
G01X281975Y313733D02*
X285225D01*
G01X290850Y310400D02*
Y320400D01*
X293350D01*
X294350Y319900D01*
X295100Y319233D01*
X295725Y318233D01*
X296225Y317066D01*
X296350Y315400D01*
X296225Y313733D01*
X295725Y312567D01*
X295100Y311566D01*
X294350Y310900D01*
X293350Y310400D01*
X290850D01*
G01X95975Y351733D02*
X96975Y350900D01*
X98100Y350400D01*
X99100D01*
X100100Y350900D01*
X100850Y351733D01*
X101225Y352900D01*
X100975Y354066D01*
X100350Y355067D01*
X99225Y355733D01*
X97725Y356067D01*
X96850Y356733D01*
X96475Y357900D01*
X96725Y359067D01*
X97350Y359900D01*
X98225Y360400D01*
X99100D01*
X99975Y360067D01*
X100725Y359233D01*
G01X107100Y360400D02*
X110100D01*
G01X108600D02*
Y350400D01*
G01X107100D02*
X110100D01*
G01X116100Y360400D02*
Y350400D01*
X121100D01*
G01X125850D02*
Y360400D01*
G01X130600D02*
X125850Y354233D01*
G01X131350Y350400D02*
X127975Y357066D01*
G01X135975Y351733D02*
X136975Y350900D01*
X138100Y350400D01*
X139100D01*
X140100Y350900D01*
X140850Y351733D01*
X141225Y352900D01*
X140975Y354066D01*
X140350Y355067D01*
X139225Y355733D01*
X137725Y356067D01*
X136850Y356733D01*
X136475Y357900D01*
X136725Y359067D01*
X137350Y359900D01*
X138225Y360400D01*
X139100D01*
X139975Y360067D01*
X140725Y359233D01*
G01X151350Y359567D02*
X150600Y360067D01*
X149725Y360400D01*
X148725D01*
X147600Y359900D01*
X146725Y359067D01*
X146100Y358067D01*
X145600Y356400D01*
X145475Y354900D01*
X145725Y353400D01*
X146100Y352400D01*
X146850Y351400D01*
X147725Y350733D01*
X148600Y350400D01*
X149475D01*
X150350Y350733D01*
X151100Y351233D01*
X151725Y351900D01*
G01X156100Y350400D02*
Y360400D01*
X159225D01*
X160225Y359900D01*
X160850Y359233D01*
X161100Y357900D01*
X160850Y356567D01*
X160100Y355733D01*
X159225Y355233D01*
X156100D01*
G01X159225D02*
X161100Y350400D01*
G01X171100D02*
X166100D01*
Y360400D01*
X171100D01*
G01X169100Y355567D02*
X166100D01*
G01X181100Y350400D02*
X176100D01*
Y360400D01*
X181100D01*
G01X179100Y355567D02*
X176100D01*
G01X185725Y350400D02*
Y360400D01*
X191475Y350400D01*
Y360400D01*
G01X205975Y351733D02*
X206975Y350900D01*
X208100Y350400D01*
X209100D01*
X210100Y350900D01*
X210850Y351733D01*
X211225Y352900D01*
X210975Y354066D01*
X210350Y355067D01*
X209225Y355733D01*
X207725Y356067D01*
X206850Y356733D01*
X206475Y357900D01*
X206725Y359067D01*
X207350Y359900D01*
X208225Y360400D01*
X209100D01*
X209975Y360067D01*
X210725Y359233D01*
G01X221100Y350400D02*
X216100D01*
Y360400D01*
X221100D01*
G01X219100Y355567D02*
X216100D01*
G01X231350Y359567D02*
X230600Y360067D01*
X229725Y360400D01*
X228725D01*
X227600Y359900D01*
X226725Y359067D01*
X226100Y358067D01*
X225600Y356400D01*
X225475Y354900D01*
X225725Y353400D01*
X226100Y352400D01*
X226850Y351400D01*
X227725Y350733D01*
X228600Y350400D01*
X229475D01*
X230350Y350733D01*
X231100Y351233D01*
X231725Y351900D01*
G01X238600Y350400D02*
X237600Y350567D01*
X236725Y351233D01*
X235975Y352233D01*
X235475Y353400D01*
X235225Y354733D01*
Y356067D01*
X235475Y357400D01*
X235975Y358567D01*
X236725Y359567D01*
X237600Y360233D01*
X238600Y360400D01*
X239600Y360233D01*
X240475Y359567D01*
X241225Y358567D01*
X241725Y357400D01*
X241975Y356067D01*
Y354733D01*
X241725Y353400D01*
X241225Y352233D01*
X240475Y351233D01*
X239600Y350567D01*
X238600Y350400D01*
G01X245725D02*
Y360400D01*
X251475Y350400D01*
Y360400D01*
G01X255850Y350400D02*
Y360400D01*
X258350D01*
X259350Y359900D01*
X260100Y359233D01*
X260725Y358233D01*
X261225Y357066D01*
X261350Y355400D01*
X261225Y353733D01*
X260725Y352567D01*
X260100Y351566D01*
X259350Y350900D01*
X258350Y350400D01*
X255850D01*
G01X265475D02*
X268600Y360400D01*
X271725Y350400D01*
G01X270600Y353900D02*
X266600D01*
G01X276100Y350400D02*
Y360400D01*
X279225D01*
X280225Y359900D01*
X280850Y359233D01*
X281100Y357900D01*
X280850Y356567D01*
X280100Y355733D01*
X279225Y355233D01*
X276100D01*
G01X279225D02*
X281100Y350400D01*
G01X288600D02*
Y354900D01*
X286100Y360400D01*
G01X291100D02*
X288600Y354900D01*
G01X138600Y340400D02*
X137600Y340067D01*
X136850Y339233D01*
X136350Y338233D01*
X135975Y336900D01*
X135850Y335400D01*
X135975Y333900D01*
X136350Y332567D01*
X136850Y331566D01*
X137600Y330733D01*
X138600Y330400D01*
X139600Y330733D01*
X140350Y331566D01*
X140850Y332567D01*
X141225Y333900D01*
X141350Y335400D01*
X141225Y336900D01*
X140850Y338233D01*
X140350Y339233D01*
X139600Y340067D01*
X138600Y340400D01*
G01X148600Y330400D02*
X149475Y330567D01*
X150475Y331067D01*
X151100Y331900D01*
X151350Y333067D01*
X151100Y334233D01*
X150350Y335233D01*
X149225Y335733D01*
X147975D01*
X147225Y336067D01*
X146600Y336900D01*
X146350Y338067D01*
X146725Y339233D01*
X147600Y340067D01*
X148600Y340400D01*
X149600Y340067D01*
X150475Y339233D01*
X150850Y338067D01*
X150600Y336900D01*
X149975Y336067D01*
X149225Y335733D01*
X147975D01*
X146850Y335233D01*
X146100Y334233D01*
X145850Y333067D01*
X146100Y331900D01*
X146725Y331067D01*
X147725Y330567D01*
X148600Y330400D01*
G01X156975Y333733D02*
X160225D01*
G01X226975D02*
X230225D01*
G01X238600Y340400D02*
X237600Y340067D01*
X236850Y339233D01*
X236350Y338233D01*
X235975Y336900D01*
X235850Y335400D01*
X235975Y333900D01*
X236350Y332567D01*
X236850Y331566D01*
X237600Y330733D01*
X238600Y330400D01*
X239600Y330733D01*
X240350Y331566D01*
X240850Y332567D01*
X241225Y333900D01*
X241350Y335400D01*
X241225Y336900D01*
X240850Y338233D01*
X240350Y339233D01*
X239600Y340067D01*
X238600Y340400D01*
G01X245850Y331900D02*
X246600Y331067D01*
X247475Y330567D01*
X248600Y330400D01*
X249725Y330733D01*
X250600Y331400D01*
X251225Y332567D01*
X251350Y333900D01*
X251100Y335233D01*
X250475Y336067D01*
X249600Y336733D01*
X248725Y336900D01*
X247850Y336733D01*
X246725Y336067D01*
X247100Y340400D01*
X250475D01*
G01X168600D02*
X167600Y340067D01*
X166850Y339233D01*
X166350Y338233D01*
X165975Y336900D01*
X165850Y335400D01*
X165975Y333900D01*
X166350Y332567D01*
X166850Y331566D01*
X167600Y330733D01*
X168600Y330400D01*
X169600Y330733D01*
X170350Y331566D01*
X170850Y332567D01*
X171225Y333900D01*
X171350Y335400D01*
X171225Y336900D01*
X170850Y338233D01*
X170350Y339233D01*
X169600Y340067D01*
X168600Y340400D01*
G01X180100Y330400D02*
Y340400D01*
X175475Y333233D01*
X181725D01*
G01X188350Y330400D02*
X188600Y332567D01*
X188975Y334400D01*
X189475Y336067D01*
X190100Y337900D01*
X191100Y340400D01*
X186100D01*
G01X200100Y330400D02*
Y340400D01*
X195475Y333233D01*
X201725D01*
G01X205850Y331900D02*
X206600Y331067D01*
X207475Y330567D01*
X208600Y330400D01*
X209725Y330733D01*
X210600Y331400D01*
X211225Y332567D01*
X211350Y333900D01*
X211100Y335233D01*
X210475Y336067D01*
X209600Y336733D01*
X208725Y336900D01*
X207850Y336733D01*
X206725Y336067D01*
X207100Y340400D01*
X210475D01*
G01X216225Y334566D02*
X217100Y335733D01*
X217850Y336400D01*
X218850Y336733D01*
X219725Y336400D01*
X220350Y335733D01*
X220850Y334733D01*
X220975Y333567D01*
X220850Y332567D01*
X220350Y331566D01*
X219600Y330733D01*
X218725Y330400D01*
X217725Y330733D01*
X216850Y331733D01*
X216350Y333233D01*
X216225Y334900D01*
X216475Y337066D01*
X216850Y338233D01*
X217475Y339400D01*
X218350Y340233D01*
X219225Y340400D01*
X220100Y340067D01*
X220725Y339233D01*
G01X228800Y97000D02*
G03I-300J0D01*
G01X269300Y26000D02*
G03I-300J0D01*
G01X249300Y58500D02*
G03I-300J0D01*
G01X264300Y85500D02*
G03I-300J0D01*
G01X337300Y5000D02*
G03I-300J0D01*
G01X355291Y-35709D02*
X400000D01*
G01Y7709D02*
X355291D01*
Y-35709D01*
G01Y44291D02*
X400000D01*
G01Y87709D02*
X355291D01*
Y44291D01*
G01Y129291D02*
X400000D01*
G01Y172709D02*
X355291D01*
Y129291D01*
G01Y216291D02*
X400000D01*
G01Y259709D02*
X355291D01*
Y216291D01*
G01X24400Y62000D02*
X36900D01*
X37400Y85500D01*
G03X21400I-8000J-5055D01*
G01X21900Y64000D01*
G01X14900Y57000D02*
X43900Y93500D01*
G01X21900Y82000D02*
Y78000D01*
X18900D01*
Y82000D01*
X21900D01*
Y81000D01*
G01X32400Y90000D02*
X26400D01*
Y87500D01*
X32400D01*
Y90000D01*
X31400D01*
G01X39400Y85500D02*
X19400D01*
G01X43900Y57000D02*
X14900Y93500D01*
G01X20050Y210500D02*
Y215500D01*
X20810Y214500D01*
G01Y210500D02*
X19290D01*
G01X14950Y215500D02*
X15457Y215333D01*
X15837Y214917D01*
X16090Y214417D01*
X16280Y213750D01*
X16343Y213000D01*
X16280Y212250D01*
X16090Y211583D01*
X15837Y211083D01*
X15457Y210667D01*
X14950Y210500D01*
X14443Y210667D01*
X14063Y211083D01*
X13810Y211583D01*
X13620Y212250D01*
X13557Y213000D01*
X13620Y213750D01*
X13810Y214417D01*
X14063Y214917D01*
X14443Y215333D01*
X14950Y215500D01*
G01X54000Y3330D02*
Y8330D01*
X54760Y7330D01*
G01Y3330D02*
X53240D01*
G01X65817Y211000D02*
Y216000D01*
X64297D01*
X63790Y215750D01*
X63410Y215167D01*
X63283Y214500D01*
X63410Y213833D01*
X63727Y213333D01*
X64297Y213083D01*
X65817D01*
G01X60843Y211750D02*
X60463Y211333D01*
X60020Y211083D01*
X59450Y211000D01*
X58880Y211167D01*
X58437Y211500D01*
X58120Y212083D01*
X58057Y212750D01*
X58183Y213417D01*
X58500Y213833D01*
X58943Y214167D01*
X59387Y214250D01*
X59830Y214167D01*
X60400Y213833D01*
X60210Y216000D01*
X58500D01*
G01X93817Y2000D02*
Y7000D01*
X92297D01*
X91790Y6750D01*
X91410Y6167D01*
X91283Y5500D01*
X91410Y4833D01*
X91727Y4333D01*
X92297Y4083D01*
X93817D01*
G01X88843Y3000D02*
X88463Y2417D01*
X87957Y2083D01*
X87387Y2000D01*
X86880Y2083D01*
X86373Y2500D01*
X86057Y3000D01*
X85993Y3500D01*
X86120Y4083D01*
X86563Y4500D01*
X87007Y4667D01*
X87577D01*
G01X87007D02*
X86627Y4917D01*
X86310Y5333D01*
X86183Y5833D01*
X86310Y6333D01*
X86627Y6750D01*
X87197Y7000D01*
X87767Y6917D01*
X88337Y6583D01*
G01X108000Y211500D02*
Y216500D01*
X108760Y215500D01*
G01Y211500D02*
X107240D01*
G01X124460Y2600D02*
X124017Y2683D01*
X123510Y2933D01*
X123193Y3350D01*
X123067Y3933D01*
X123193Y4517D01*
X123573Y5017D01*
X124143Y5267D01*
X124777D01*
X125157Y5433D01*
X125473Y5850D01*
X125600Y6433D01*
X125410Y7017D01*
X124967Y7433D01*
X124460Y7600D01*
X123953Y7433D01*
X123510Y7017D01*
X123320Y6433D01*
X123447Y5850D01*
X123763Y5433D01*
X124143Y5267D01*
X124777D01*
X125347Y5017D01*
X125727Y4517D01*
X125853Y3933D01*
X125727Y3350D01*
X125410Y2933D01*
X124903Y2683D01*
X124460Y2600D01*
G01X125500Y210000D02*
X125057Y210083D01*
X124550Y210333D01*
X124233Y210750D01*
X124107Y211333D01*
X124233Y211917D01*
X124613Y212417D01*
X125183Y212667D01*
X125817D01*
X126197Y212833D01*
X126513Y213250D01*
X126640Y213833D01*
X126450Y214417D01*
X126007Y214833D01*
X125500Y215000D01*
X124993Y214833D01*
X124550Y214417D01*
X124360Y213833D01*
X124487Y213250D01*
X124803Y212833D01*
X125183Y212667D01*
X125817D01*
X126387Y212417D01*
X126767Y211917D01*
X126893Y211333D01*
X126767Y210750D01*
X126450Y210333D01*
X125943Y210083D01*
X125500Y210000D01*
G01X143700Y3000D02*
Y8000D01*
X144460Y7000D01*
G01Y3000D02*
X142940D01*
G01X149317Y127500D02*
Y132500D01*
X147797D01*
X147290Y132250D01*
X146910Y131667D01*
X146783Y131000D01*
X146910Y130333D01*
X147227Y129833D01*
X147797Y129583D01*
X149317D01*
G01X142190Y127500D02*
Y132500D01*
X144533Y128917D01*
X141367D01*
G01X159817Y210500D02*
Y215500D01*
X158297D01*
X157790Y215250D01*
X157410Y214667D01*
X157283Y214000D01*
X157410Y213333D01*
X157727Y212833D01*
X158297Y212583D01*
X159817D01*
G01X154653D02*
X154210Y213167D01*
X153830Y213500D01*
X153323Y213667D01*
X152880Y213500D01*
X152563Y213167D01*
X152310Y212667D01*
X152247Y212083D01*
X152310Y211583D01*
X152563Y211083D01*
X152943Y210667D01*
X153387Y210500D01*
X153893Y210667D01*
X154337Y211167D01*
X154590Y211917D01*
X154653Y212750D01*
X154527Y213833D01*
X154337Y214417D01*
X154020Y215000D01*
X153577Y215417D01*
X153133Y215500D01*
X152690Y215333D01*
X152373Y214917D01*
G01X174317Y2000D02*
Y7000D01*
X172797D01*
X172290Y6750D01*
X171910Y6167D01*
X171783Y5500D01*
X171910Y4833D01*
X172227Y4333D01*
X172797Y4083D01*
X174317D01*
G01X169153Y6167D02*
X168773Y6667D01*
X168330Y6917D01*
X167823Y7000D01*
X167190Y6833D01*
X166747Y6417D01*
X166620Y5917D01*
X166683Y5417D01*
X166937Y5000D01*
X168203Y4167D01*
X168773Y3583D01*
X169153Y2750D01*
X169280Y2000D01*
X166620D01*
G01X196803Y4583D02*
X196360Y5167D01*
X195980Y5500D01*
X195473Y5667D01*
X195030Y5500D01*
X194713Y5167D01*
X194460Y4667D01*
X194397Y4083D01*
X194460Y3583D01*
X194713Y3083D01*
X195093Y2667D01*
X195537Y2500D01*
X196043Y2667D01*
X196487Y3167D01*
X196740Y3917D01*
X196803Y4750D01*
X196677Y5833D01*
X196487Y6417D01*
X196170Y7000D01*
X195727Y7417D01*
X195283Y7500D01*
X194840Y7333D01*
X194523Y6917D01*
G01X208707Y80583D02*
X209087Y80833D01*
X209530Y81000D01*
X210037D01*
X210607Y80750D01*
X211050Y80333D01*
X211367Y79833D01*
X211620Y79000D01*
X211683Y78250D01*
X211557Y77500D01*
X211367Y77000D01*
X210987Y76500D01*
X210543Y76167D01*
X210100Y76000D01*
X209657D01*
X209213Y76167D01*
X208833Y76417D01*
X208517Y76750D01*
G01X205000Y76000D02*
Y81000D01*
X205760Y80000D01*
G01Y76000D02*
X204240D01*
G01X199900Y81000D02*
X200407Y80833D01*
X200787Y80417D01*
X201040Y79917D01*
X201230Y79250D01*
X201293Y78500D01*
X201230Y77750D01*
X201040Y77083D01*
X200787Y76583D01*
X200407Y76167D01*
X199900Y76000D01*
X199393Y76167D01*
X199013Y76583D01*
X198760Y77083D01*
X198570Y77750D01*
X198507Y78500D01*
X198570Y79250D01*
X198760Y79917D01*
X199013Y80417D01*
X199393Y80833D01*
X199900Y81000D01*
G01X230117Y66000D02*
X229800Y65500D01*
X229420Y65167D01*
X228977Y65000D01*
X228470Y65167D01*
X228090Y65500D01*
X227710Y66000D01*
X227583Y66667D01*
Y70000D01*
G01X225017Y65000D02*
Y70000D01*
X223497D01*
X222990Y69750D01*
X222610Y69167D01*
X222483Y68500D01*
X222610Y67833D01*
X222927Y67333D01*
X223497Y67083D01*
X225017D01*
G01X220043Y66000D02*
X219663Y65417D01*
X219157Y65083D01*
X218587Y65000D01*
X218080Y65083D01*
X217573Y65500D01*
X217257Y66000D01*
X217193Y66500D01*
X217320Y67083D01*
X217763Y67500D01*
X218207Y67667D01*
X218777D01*
G01X218207D02*
X217827Y67917D01*
X217510Y68333D01*
X217383Y68833D01*
X217510Y69333D01*
X217827Y69750D01*
X218397Y70000D01*
X218967Y69917D01*
X219537Y69583D01*
G01X215117Y86250D02*
Y91250D01*
X213533D01*
X213027Y91000D01*
X212710Y90667D01*
X212583Y90000D01*
X212710Y89333D01*
X213090Y88917D01*
X213533Y88667D01*
X215117D01*
G01X213533D02*
X212583Y86250D01*
G01X210143Y87250D02*
X209763Y86667D01*
X209257Y86333D01*
X208687Y86250D01*
X208180Y86333D01*
X207673Y86750D01*
X207357Y87250D01*
X207293Y87750D01*
X207420Y88333D01*
X207863Y88750D01*
X208307Y88917D01*
X208877D01*
G01X208307D02*
X207927Y89167D01*
X207610Y89583D01*
X207483Y90083D01*
X207610Y90583D01*
X207927Y91000D01*
X208497Y91250D01*
X209067Y91167D01*
X209637Y90833D01*
G01X204853Y88333D02*
X204410Y88917D01*
X204030Y89250D01*
X203523Y89417D01*
X203080Y89250D01*
X202763Y88917D01*
X202510Y88417D01*
X202447Y87833D01*
X202510Y87333D01*
X202763Y86833D01*
X203143Y86417D01*
X203587Y86250D01*
X204093Y86417D01*
X204537Y86917D01*
X204790Y87667D01*
X204853Y88500D01*
X204727Y89583D01*
X204537Y90167D01*
X204220Y90750D01*
X203777Y91167D01*
X203333Y91250D01*
X202890Y91083D01*
X202573Y90667D01*
G01X216707Y99083D02*
X217087Y99333D01*
X217530Y99500D01*
X218037D01*
X218607Y99250D01*
X219050Y98833D01*
X219367Y98333D01*
X219620Y97500D01*
X219683Y96750D01*
X219557Y96000D01*
X219367Y95500D01*
X218987Y95000D01*
X218543Y94667D01*
X218100Y94500D01*
X217657D01*
X217213Y94667D01*
X216833Y94917D01*
X216517Y95250D01*
G01X213000Y94500D02*
Y99500D01*
X213760Y98500D01*
G01Y94500D02*
X212240D01*
G01X209103Y96583D02*
X208660Y97167D01*
X208280Y97500D01*
X207773Y97667D01*
X207330Y97500D01*
X207013Y97167D01*
X206760Y96667D01*
X206697Y96083D01*
X206760Y95583D01*
X207013Y95083D01*
X207393Y94667D01*
X207837Y94500D01*
X208343Y94667D01*
X208787Y95167D01*
X209040Y95917D01*
X209103Y96750D01*
X208977Y97833D01*
X208787Y98417D01*
X208470Y99000D01*
X208027Y99417D01*
X207583Y99500D01*
X207140Y99333D01*
X206823Y98917D01*
G01X226707Y126583D02*
X227087Y126833D01*
X227530Y127000D01*
X228037D01*
X228607Y126750D01*
X229050Y126333D01*
X229367Y125833D01*
X229620Y125000D01*
X229683Y124250D01*
X229557Y123500D01*
X229367Y123000D01*
X228987Y122500D01*
X228543Y122167D01*
X228100Y122000D01*
X227657D01*
X227213Y122167D01*
X226833Y122417D01*
X226517Y122750D01*
G01X224393Y123000D02*
X224013Y122417D01*
X223507Y122083D01*
X222937Y122000D01*
X222430Y122083D01*
X221923Y122500D01*
X221607Y123000D01*
X221543Y123500D01*
X221670Y124083D01*
X222113Y124500D01*
X222557Y124667D01*
X223127D01*
G01X222557D02*
X222177Y124917D01*
X221860Y125333D01*
X221733Y125833D01*
X221860Y126333D01*
X222177Y126750D01*
X222747Y127000D01*
X223317Y126917D01*
X223887Y126583D01*
G01X217900Y127000D02*
X218407Y126833D01*
X218787Y126417D01*
X219040Y125917D01*
X219230Y125250D01*
X219293Y124500D01*
X219230Y123750D01*
X219040Y123083D01*
X218787Y122583D01*
X218407Y122167D01*
X217900Y122000D01*
X217393Y122167D01*
X217013Y122583D01*
X216760Y123083D01*
X216570Y123750D01*
X216507Y124500D01*
X216570Y125250D01*
X216760Y125917D01*
X217013Y126417D01*
X217393Y126833D01*
X217900Y127000D01*
G01X213367Y129000D02*
X213050Y128500D01*
X212670Y128167D01*
X212227Y128000D01*
X211720Y128167D01*
X211340Y128500D01*
X210960Y129000D01*
X210833Y129667D01*
Y133000D01*
G01X208267Y128000D02*
Y133000D01*
X206747D01*
X206240Y132750D01*
X205860Y132167D01*
X205733Y131500D01*
X205860Y130833D01*
X206177Y130333D01*
X206747Y130083D01*
X208267D01*
G01X201900Y128000D02*
X201457Y128083D01*
X200950Y128333D01*
X200633Y128750D01*
X200507Y129333D01*
X200633Y129917D01*
X201013Y130417D01*
X201583Y130667D01*
X202217D01*
X202597Y130833D01*
X202913Y131250D01*
X203040Y131833D01*
X202850Y132417D01*
X202407Y132833D01*
X201900Y133000D01*
X201393Y132833D01*
X200950Y132417D01*
X200760Y131833D01*
X200887Y131250D01*
X201203Y130833D01*
X201583Y130667D01*
X202217D01*
X202787Y130417D01*
X203167Y129917D01*
X203293Y129333D01*
X203167Y128750D01*
X202850Y128333D01*
X202343Y128083D01*
X201900Y128000D01*
G01X213367Y116000D02*
X213050Y115500D01*
X212670Y115167D01*
X212227Y115000D01*
X211720Y115167D01*
X211340Y115500D01*
X210960Y116000D01*
X210833Y116667D01*
Y120000D01*
G01X208267Y115000D02*
Y120000D01*
X206747D01*
X206240Y119750D01*
X205860Y119167D01*
X205733Y118500D01*
X205860Y117833D01*
X206177Y117333D01*
X206747Y117083D01*
X208267D01*
G01X202027Y115000D02*
X201900Y116083D01*
X201710Y117000D01*
X201457Y117833D01*
X201140Y118750D01*
X200633Y120000D01*
X203167D01*
G01X212867Y141000D02*
X212550Y140500D01*
X212170Y140167D01*
X211727Y140000D01*
X211220Y140167D01*
X210840Y140500D01*
X210460Y141000D01*
X210333Y141667D01*
Y145000D01*
G01X207767Y140000D02*
Y145000D01*
X206247D01*
X205740Y144750D01*
X205360Y144167D01*
X205233Y143500D01*
X205360Y142833D01*
X205677Y142333D01*
X206247Y142083D01*
X207767D01*
G01X202477Y140583D02*
X202033Y140167D01*
X201527Y140000D01*
X201020Y140167D01*
X200577Y140667D01*
X200260Y141417D01*
X200133Y142167D01*
Y143083D01*
X200260Y143833D01*
X200577Y144500D01*
X200957Y144833D01*
X201400Y145000D01*
X201907Y144833D01*
X202287Y144500D01*
X202540Y144000D01*
X202667Y143333D01*
X202540Y142750D01*
X202223Y142167D01*
X201843Y141833D01*
X201400Y141750D01*
X200893Y141917D01*
X200513Y142333D01*
X200133Y143083D01*
G01X194000Y210500D02*
Y215500D01*
X194760Y214500D01*
G01Y210500D02*
X193240D01*
G01X253207Y52583D02*
X253587Y52833D01*
X254030Y53000D01*
X254537D01*
X255107Y52750D01*
X255550Y52333D01*
X255867Y51833D01*
X256120Y51000D01*
X256183Y50250D01*
X256057Y49500D01*
X255867Y49000D01*
X255487Y48500D01*
X255043Y48167D01*
X254600Y48000D01*
X254157D01*
X253713Y48167D01*
X253333Y48417D01*
X253017Y48750D01*
G01X249500Y48000D02*
Y53000D01*
X250260Y52000D01*
G01Y48000D02*
X248740D01*
G01X245603Y52167D02*
X245223Y52667D01*
X244780Y52917D01*
X244273Y53000D01*
X243640Y52833D01*
X243197Y52417D01*
X243070Y51917D01*
X243133Y51417D01*
X243387Y51000D01*
X244653Y50167D01*
X245223Y49583D01*
X245603Y48750D01*
X245730Y48000D01*
X243070D01*
G01X247617Y76250D02*
Y81250D01*
X246033D01*
X245527Y81000D01*
X245210Y80667D01*
X245083Y80000D01*
X245210Y79333D01*
X245590Y78917D01*
X246033Y78667D01*
X247617D01*
G01X246033D02*
X245083Y76250D01*
G01X242643Y77250D02*
X242263Y76667D01*
X241757Y76333D01*
X241187Y76250D01*
X240680Y76333D01*
X240173Y76750D01*
X239857Y77250D01*
X239793Y77750D01*
X239920Y78333D01*
X240363Y78750D01*
X240807Y78917D01*
X241377D01*
G01X240807D02*
X240427Y79167D01*
X240110Y79583D01*
X239983Y80083D01*
X240110Y80583D01*
X240427Y81000D01*
X240997Y81250D01*
X241567Y81167D01*
X242137Y80833D01*
G01X235390Y76250D02*
Y81250D01*
X237733Y77667D01*
X234567D01*
G01X240207Y117083D02*
X240587Y117333D01*
X241030Y117500D01*
X241537D01*
X242107Y117250D01*
X242550Y116833D01*
X242867Y116333D01*
X243120Y115500D01*
X243183Y114750D01*
X243057Y114000D01*
X242867Y113500D01*
X242487Y113000D01*
X242043Y112667D01*
X241600Y112500D01*
X241157D01*
X240713Y112667D01*
X240333Y112917D01*
X240017Y113250D01*
G01X237703Y116667D02*
X237323Y117167D01*
X236880Y117417D01*
X236373Y117500D01*
X235740Y117333D01*
X235297Y116917D01*
X235170Y116417D01*
X235233Y115917D01*
X235487Y115500D01*
X236753Y114667D01*
X237323Y114083D01*
X237703Y113250D01*
X237830Y112500D01*
X235170D01*
G01X231400Y117500D02*
X231907Y117333D01*
X232287Y116917D01*
X232540Y116417D01*
X232730Y115750D01*
X232793Y115000D01*
X232730Y114250D01*
X232540Y113583D01*
X232287Y113083D01*
X231907Y112667D01*
X231400Y112500D01*
X230893Y112667D01*
X230513Y113083D01*
X230260Y113583D01*
X230070Y114250D01*
X230007Y115000D01*
X230070Y115750D01*
X230260Y116417D01*
X230513Y116917D01*
X230893Y117333D01*
X231400Y117500D01*
G01X273367Y12000D02*
Y17000D01*
X271783D01*
X271277Y16750D01*
X270960Y16417D01*
X270833Y15750D01*
X270960Y15083D01*
X271340Y14667D01*
X271783Y14417D01*
X273367D01*
G01X271783D02*
X270833Y12000D01*
G01X267000D02*
Y17000D01*
X267760Y16000D01*
G01Y12000D02*
X266240D01*
G01X261900D02*
X261457Y12083D01*
X260950Y12333D01*
X260633Y12750D01*
X260507Y13333D01*
X260633Y13917D01*
X261013Y14417D01*
X261583Y14667D01*
X262217D01*
X262597Y14833D01*
X262913Y15250D01*
X263040Y15833D01*
X262850Y16417D01*
X262407Y16833D01*
X261900Y17000D01*
X261393Y16833D01*
X260950Y16417D01*
X260760Y15833D01*
X260887Y15250D01*
X261203Y14833D01*
X261583Y14667D01*
X262217D01*
X262787Y14417D01*
X263167Y13917D01*
X263293Y13333D01*
X263167Y12750D01*
X262850Y12333D01*
X262343Y12083D01*
X261900Y12000D01*
G01X275367Y33600D02*
Y38600D01*
X273783D01*
X273277Y38350D01*
X272960Y38017D01*
X272833Y37350D01*
X272960Y36683D01*
X273340Y36267D01*
X273783Y36017D01*
X275367D01*
G01X273783D02*
X272833Y33600D01*
G01X269000D02*
Y38600D01*
X269760Y37600D01*
G01Y33600D02*
X268240D01*
G01X264977Y34183D02*
X264533Y33767D01*
X264027Y33600D01*
X263520Y33767D01*
X263077Y34267D01*
X262760Y35017D01*
X262633Y35767D01*
Y36683D01*
X262760Y37433D01*
X263077Y38100D01*
X263457Y38433D01*
X263900Y38600D01*
X264407Y38433D01*
X264787Y38100D01*
X265040Y37600D01*
X265167Y36933D01*
X265040Y36350D01*
X264723Y35767D01*
X264343Y35433D01*
X263900Y35350D01*
X263393Y35517D01*
X263013Y35933D01*
X262633Y36683D01*
G01X260157Y27583D02*
X260537Y27833D01*
X260980Y28000D01*
X261487D01*
X262057Y27750D01*
X262500Y27333D01*
X262817Y26833D01*
X263070Y26000D01*
X263133Y25250D01*
X263007Y24500D01*
X262817Y24000D01*
X262437Y23500D01*
X261993Y23167D01*
X261550Y23000D01*
X261107D01*
X260663Y23167D01*
X260283Y23417D01*
X259967Y23750D01*
G01X256577Y23000D02*
X256450Y24083D01*
X256260Y25000D01*
X256007Y25833D01*
X255690Y26750D01*
X255183Y28000D01*
X257717D01*
G01X261657Y68583D02*
X262037Y68833D01*
X262480Y69000D01*
X262987D01*
X263557Y68750D01*
X264000Y68333D01*
X264317Y67833D01*
X264570Y67000D01*
X264633Y66250D01*
X264507Y65500D01*
X264317Y65000D01*
X263937Y64500D01*
X263493Y64167D01*
X263050Y64000D01*
X262607D01*
X262163Y64167D01*
X261783Y64417D01*
X261467Y64750D01*
G01X259027Y64583D02*
X258583Y64167D01*
X258077Y64000D01*
X257570Y64167D01*
X257127Y64667D01*
X256810Y65417D01*
X256683Y66167D01*
Y67083D01*
X256810Y67833D01*
X257127Y68500D01*
X257507Y68833D01*
X257950Y69000D01*
X258457Y68833D01*
X258837Y68500D01*
X259090Y68000D01*
X259217Y67333D01*
X259090Y66750D01*
X258773Y66167D01*
X258393Y65833D01*
X257950Y65750D01*
X257443Y65917D01*
X257063Y66333D01*
X256683Y67083D01*
G01X269957Y95833D02*
X270337Y96083D01*
X270780Y96250D01*
X271287D01*
X271857Y96000D01*
X272300Y95583D01*
X272617Y95083D01*
X272870Y94250D01*
X272933Y93500D01*
X272807Y92750D01*
X272617Y92250D01*
X272237Y91750D01*
X271793Y91417D01*
X271350Y91250D01*
X270907D01*
X270463Y91417D01*
X270083Y91667D01*
X269767Y92000D01*
G01X266250Y91250D02*
Y96250D01*
X267010Y95250D01*
G01Y91250D02*
X265490D01*
G01X261277D02*
X261150Y92333D01*
X260960Y93250D01*
X260707Y94083D01*
X260390Y95000D01*
X259883Y96250D01*
X262417D01*
G01X268207Y120083D02*
X268587Y120333D01*
X269030Y120500D01*
X269537D01*
X270107Y120250D01*
X270550Y119833D01*
X270867Y119333D01*
X271120Y118500D01*
X271183Y117750D01*
X271057Y117000D01*
X270867Y116500D01*
X270487Y116000D01*
X270043Y115667D01*
X269600Y115500D01*
X269157D01*
X268713Y115667D01*
X268333Y115917D01*
X268017Y116250D01*
G01X265893Y116500D02*
X265513Y115917D01*
X265007Y115583D01*
X264437Y115500D01*
X263930Y115583D01*
X263423Y116000D01*
X263107Y116500D01*
X263043Y117000D01*
X263170Y117583D01*
X263613Y118000D01*
X264057Y118167D01*
X264627D01*
G01X264057D02*
X263677Y118417D01*
X263360Y118833D01*
X263233Y119333D01*
X263360Y119833D01*
X263677Y120250D01*
X264247Y120500D01*
X264817Y120417D01*
X265387Y120083D01*
G01X260603Y119667D02*
X260223Y120167D01*
X259780Y120417D01*
X259273Y120500D01*
X258640Y120333D01*
X258197Y119917D01*
X258070Y119417D01*
X258133Y118917D01*
X258387Y118500D01*
X259653Y117667D01*
X260223Y117083D01*
X260603Y116250D01*
X260730Y115500D01*
X258070D01*
G01X301207Y118333D02*
X301587Y118583D01*
X302030Y118750D01*
X302537D01*
X303107Y118500D01*
X303550Y118083D01*
X303867Y117583D01*
X304120Y116750D01*
X304183Y116000D01*
X304057Y115250D01*
X303867Y114750D01*
X303487Y114250D01*
X303043Y113917D01*
X302600Y113750D01*
X302157D01*
X301713Y113917D01*
X301333Y114167D01*
X301017Y114500D01*
G01X296233Y113750D02*
X298767D01*
Y118750D01*
X296233D01*
G01X297247Y116333D02*
X298767D01*
G01X292400Y118750D02*
X292907Y118583D01*
X293287Y118167D01*
X293540Y117667D01*
X293730Y117000D01*
X293793Y116250D01*
X293730Y115500D01*
X293540Y114833D01*
X293287Y114333D01*
X292907Y113917D01*
X292400Y113750D01*
X291893Y113917D01*
X291513Y114333D01*
X291260Y114833D01*
X291070Y115500D01*
X291007Y116250D01*
X291070Y117000D01*
X291260Y117667D01*
X291513Y118167D01*
X291893Y118583D01*
X292400Y118750D01*
G01X330280Y-41833D02*
X329773Y-42250D01*
X329203Y-42500D01*
X328697D01*
X328190Y-42250D01*
X327810Y-41833D01*
X327620Y-41250D01*
X327747Y-40667D01*
X328063Y-40167D01*
X328633Y-39833D01*
X329393Y-39667D01*
X329837Y-39333D01*
X330027Y-38750D01*
X329900Y-38167D01*
X329583Y-37750D01*
X329140Y-37500D01*
X328697D01*
X328253Y-37667D01*
X327873Y-38083D01*
G01X325307Y-42500D02*
Y-37500D01*
X322393Y-42500D01*
Y-37500D01*
G01X320080Y-41833D02*
X319573Y-42250D01*
X319003Y-42500D01*
X318497D01*
X317990Y-42250D01*
X317610Y-41833D01*
X317420Y-41250D01*
X317547Y-40667D01*
X317863Y-40167D01*
X318433Y-39833D01*
X319193Y-39667D01*
X319637Y-39333D01*
X319827Y-38750D01*
X319700Y-38167D01*
X319383Y-37750D01*
X318940Y-37500D01*
X318497D01*
X318053Y-37667D01*
X317673Y-38083D01*
G01X315550Y-44167D02*
X311750D01*
G01X309817Y-42500D02*
Y-37500D01*
X308297D01*
X307790Y-37750D01*
X307410Y-38333D01*
X307283Y-39000D01*
X307410Y-39667D01*
X307727Y-40167D01*
X308297Y-40417D01*
X309817D01*
G01X318617Y-10500D02*
X318300Y-11000D01*
X317920Y-11333D01*
X317477Y-11500D01*
X316970Y-11333D01*
X316590Y-11000D01*
X316210Y-10500D01*
X316083Y-9833D01*
Y-6500D01*
G01X313517Y-11500D02*
Y-6500D01*
X311997D01*
X311490Y-6750D01*
X311110Y-7333D01*
X310983Y-8000D01*
X311110Y-8667D01*
X311427Y-9167D01*
X311997Y-9417D01*
X313517D01*
G01X308353Y-7333D02*
X307973Y-6833D01*
X307530Y-6583D01*
X307023Y-6500D01*
X306390Y-6667D01*
X305947Y-7083D01*
X305820Y-7583D01*
X305883Y-8083D01*
X306137Y-8500D01*
X307403Y-9333D01*
X307973Y-9917D01*
X308353Y-10750D01*
X308480Y-11500D01*
X305820D01*
G01X333707Y14583D02*
X334087Y14833D01*
X334530Y15000D01*
X335037D01*
X335607Y14750D01*
X336050Y14333D01*
X336367Y13833D01*
X336620Y13000D01*
X336683Y12250D01*
X336557Y11500D01*
X336367Y11000D01*
X335987Y10500D01*
X335543Y10167D01*
X335100Y10000D01*
X334657D01*
X334213Y10167D01*
X333833Y10417D01*
X333517Y10750D01*
G01X330000Y10000D02*
Y15000D01*
X330760Y14000D01*
G01Y10000D02*
X329240D01*
G01X326293Y10750D02*
X325913Y10333D01*
X325470Y10083D01*
X324900Y10000D01*
X324330Y10167D01*
X323887Y10500D01*
X323570Y11083D01*
X323507Y11750D01*
X323633Y12417D01*
X323950Y12833D01*
X324393Y13167D01*
X324837Y13250D01*
X325280Y13167D01*
X325850Y12833D01*
X325660Y15000D01*
X323950D01*
G01X340367Y30500D02*
Y35500D01*
X338783D01*
X338277Y35250D01*
X337960Y34917D01*
X337833Y34250D01*
X337960Y33583D01*
X338340Y33167D01*
X338783Y32917D01*
X340367D01*
G01X338783D02*
X337833Y30500D01*
G01X335393Y31500D02*
X335013Y30917D01*
X334507Y30583D01*
X333937Y30500D01*
X333430Y30583D01*
X332923Y31000D01*
X332607Y31500D01*
X332543Y32000D01*
X332670Y32583D01*
X333113Y33000D01*
X333557Y33167D01*
X334127D01*
G01X333557D02*
X333177Y33417D01*
X332860Y33833D01*
X332733Y34333D01*
X332860Y34833D01*
X333177Y35250D01*
X333747Y35500D01*
X334317Y35417D01*
X334887Y35083D01*
G01X330293Y31500D02*
X329913Y30917D01*
X329407Y30583D01*
X328837Y30500D01*
X328330Y30583D01*
X327823Y31000D01*
X327507Y31500D01*
X327443Y32000D01*
X327570Y32583D01*
X328013Y33000D01*
X328457Y33167D01*
X329027D01*
G01X328457D02*
X328077Y33417D01*
X327760Y33833D01*
X327633Y34333D01*
X327760Y34833D01*
X328077Y35250D01*
X328647Y35500D01*
X329217Y35417D01*
X329787Y35083D01*
G01X320117Y59500D02*
X319800Y59000D01*
X319420Y58667D01*
X318977Y58500D01*
X318470Y58667D01*
X318090Y59000D01*
X317710Y59500D01*
X317583Y60167D01*
Y63500D01*
G01X315017Y58500D02*
Y63500D01*
X313497D01*
X312990Y63250D01*
X312610Y62667D01*
X312483Y62000D01*
X312610Y61333D01*
X312927Y60833D01*
X313497Y60583D01*
X315017D01*
G01X308650Y58500D02*
Y63500D01*
X309410Y62500D01*
G01Y58500D02*
X307890D01*
G01X325183Y127500D02*
X327717D01*
Y132500D01*
X325183D01*
G01X326197Y130083D02*
X327717D01*
G01X322680Y127500D02*
X320020Y132500D01*
G01X322680D02*
X320020Y127500D01*
G01X314857Y132083D02*
X315237Y132333D01*
X315680Y132500D01*
X316187D01*
X316757Y132250D01*
X317200Y131833D01*
X317517Y131333D01*
X317770Y130500D01*
X317833Y129750D01*
X317707Y129000D01*
X317517Y128500D01*
X317137Y128000D01*
X316693Y127667D01*
X316250Y127500D01*
X315807D01*
X315363Y127667D01*
X314983Y127917D01*
X314667Y128250D01*
G01X313050Y125833D02*
X309250D01*
G01X307317Y127500D02*
Y132500D01*
X305797D01*
X305290Y132250D01*
X304910Y131667D01*
X304783Y131000D01*
X304910Y130333D01*
X305227Y129833D01*
X305797Y129583D01*
X307317D01*
G01X345483Y153750D02*
X343900Y158750D01*
X342317Y153750D01*
G01X342887Y155500D02*
X344913D01*
G01X339560Y158750D02*
X338040D01*
G01X338800D02*
Y153750D01*
G01X339560D02*
X338040D01*
G01X335157D02*
Y158750D01*
X332243Y153750D01*
Y158750D01*
G01X328600Y153750D02*
Y158750D01*
X329360Y157750D01*
G01Y153750D02*
X327840D01*
G01X309550Y148250D02*
X310057Y148333D01*
X310500Y148667D01*
X310880Y149167D01*
X311133Y149750D01*
X311260Y150417D01*
Y151083D01*
X311133Y151750D01*
X310880Y152333D01*
X310500Y152833D01*
X310057Y153167D01*
X309550Y153250D01*
X309043Y153167D01*
X308600Y152833D01*
X308220Y152333D01*
X307967Y151750D01*
X307840Y151083D01*
Y150417D01*
X307967Y149750D01*
X308220Y149167D01*
X308600Y148667D01*
X309043Y148333D01*
X309550Y148250D01*
G01X309043Y149583D02*
X308283Y148250D01*
G01X304450D02*
Y153250D01*
X305210Y152250D01*
G01Y148250D02*
X303690D01*
G01X316300Y198750D02*
X316807Y198833D01*
X317250Y199167D01*
X317630Y199667D01*
X317883Y200250D01*
X318010Y200917D01*
Y201583D01*
X317883Y202250D01*
X317630Y202833D01*
X317250Y203333D01*
X316807Y203667D01*
X316300Y203750D01*
X315793Y203667D01*
X315350Y203333D01*
X314970Y202833D01*
X314717Y202250D01*
X314590Y201583D01*
Y200917D01*
X314717Y200250D01*
X314970Y199667D01*
X315350Y199167D01*
X315793Y198833D01*
X316300Y198750D01*
G01X315793Y200083D02*
X315033Y198750D01*
G01X312403Y202917D02*
X312023Y203417D01*
X311580Y203667D01*
X311073Y203750D01*
X310440Y203583D01*
X309997Y203167D01*
X309870Y202667D01*
X309933Y202167D01*
X310187Y201750D01*
X311453Y200917D01*
X312023Y200333D01*
X312403Y199500D01*
X312530Y198750D01*
X309870D01*
G01X321317Y222500D02*
Y227500D01*
X319797D01*
X319290Y227250D01*
X318910Y226667D01*
X318783Y226000D01*
X318910Y225333D01*
X319227Y224833D01*
X319797Y224583D01*
X321317D01*
G01X315077Y222500D02*
X314950Y223583D01*
X314760Y224500D01*
X314507Y225333D01*
X314190Y226250D01*
X313683Y227500D01*
X316217D01*
G01X313000Y251500D02*
Y256500D01*
X313760Y255500D01*
G01Y251500D02*
X312240D01*
G01X356350Y117500D02*
Y112500D01*
G01X357807Y117500D02*
X354893D01*
G01X352517Y112500D02*
Y117500D01*
X350997D01*
X350490Y117250D01*
X350110Y116667D01*
X349983Y116000D01*
X350110Y115333D01*
X350427Y114833D01*
X350997Y114583D01*
X352517D01*
G01X346150Y112500D02*
Y117500D01*
X346910Y116500D01*
G01Y112500D02*
X345390D01*
G01X352117Y176900D02*
Y181900D01*
X350533D01*
X350027Y181650D01*
X349710Y181317D01*
X349583Y180650D01*
X349710Y179983D01*
X350090Y179567D01*
X350533Y179317D01*
X352117D01*
G01X350533D02*
X349583Y176900D01*
G01X346953Y181067D02*
X346573Y181567D01*
X346130Y181817D01*
X345623Y181900D01*
X344990Y181733D01*
X344547Y181317D01*
X344420Y180817D01*
X344483Y180317D01*
X344737Y179900D01*
X346003Y179067D01*
X346573Y178483D01*
X346953Y177650D01*
X347080Y176900D01*
X344420D01*
G01X341853Y178983D02*
X341410Y179567D01*
X341030Y179900D01*
X340523Y180067D01*
X340080Y179900D01*
X339763Y179567D01*
X339510Y179067D01*
X339447Y178483D01*
X339510Y177983D01*
X339763Y177483D01*
X340143Y177067D01*
X340587Y176900D01*
X341093Y177067D01*
X341537Y177567D01*
X341790Y178317D01*
X341853Y179150D01*
X341727Y180233D01*
X341537Y180817D01*
X341220Y181400D01*
X340777Y181817D01*
X340333Y181900D01*
X339890Y181733D01*
X339573Y181317D01*
G01X350650Y196683D02*
X355650D01*
Y198267D01*
X355400Y198773D01*
X355067Y199090D01*
X354400Y199217D01*
X353733Y199090D01*
X353317Y198710D01*
X353067Y198267D01*
Y196683D01*
G01Y198267D02*
X350650Y199217D01*
G01X354817Y201847D02*
X355317Y202227D01*
X355567Y202670D01*
X355650Y203177D01*
X355483Y203810D01*
X355067Y204253D01*
X354567Y204380D01*
X354067Y204317D01*
X353650Y204063D01*
X352817Y202797D01*
X352233Y202227D01*
X351400Y201847D01*
X350650Y201720D01*
Y204380D01*
G01X354817Y206947D02*
X355317Y207327D01*
X355567Y207770D01*
X355650Y208277D01*
X355483Y208910D01*
X355067Y209353D01*
X354567Y209480D01*
X354067Y209417D01*
X353650Y209163D01*
X352817Y207897D01*
X352233Y207327D01*
X351400Y206947D01*
X350650Y206820D01*
Y209480D01*
G01X336950Y197933D02*
X341950D01*
Y199517D01*
X341700Y200023D01*
X341367Y200340D01*
X340700Y200467D01*
X340033Y200340D01*
X339617Y199960D01*
X339367Y199517D01*
Y197933D01*
G01Y199517D02*
X336950Y200467D01*
G01X341117Y203097D02*
X341617Y203477D01*
X341867Y203920D01*
X341950Y204427D01*
X341783Y205060D01*
X341367Y205503D01*
X340867Y205630D01*
X340367Y205567D01*
X339950Y205313D01*
X339117Y204047D01*
X338533Y203477D01*
X337700Y203097D01*
X336950Y202970D01*
Y205630D01*
G01Y209400D02*
X341950D01*
X340950Y208640D01*
G01X336950D02*
Y210160D01*
G01X343550Y245000D02*
Y240000D01*
G01X345007Y245000D02*
X342093D01*
G01X339717Y240000D02*
Y245000D01*
X338197D01*
X337690Y244750D01*
X337310Y244167D01*
X337183Y243500D01*
X337310Y242833D01*
X337627Y242333D01*
X338197Y242083D01*
X339717D01*
G01X334743Y241000D02*
X334363Y240417D01*
X333857Y240083D01*
X333287Y240000D01*
X332780Y240083D01*
X332273Y240500D01*
X331957Y241000D01*
X331893Y241500D01*
X332020Y242083D01*
X332463Y242500D01*
X332907Y242667D01*
X333477D01*
G01X332907D02*
X332527Y242917D01*
X332210Y243333D01*
X332083Y243833D01*
X332210Y244333D01*
X332527Y244750D01*
X333097Y245000D01*
X333667Y244917D01*
X334237Y244583D01*
G01X377630Y-41833D02*
X377123Y-42250D01*
X376553Y-42500D01*
X376047D01*
X375540Y-42250D01*
X375160Y-41833D01*
X374970Y-41250D01*
X375097Y-40667D01*
X375413Y-40167D01*
X375983Y-39833D01*
X376743Y-39667D01*
X377187Y-39333D01*
X377377Y-38750D01*
X377250Y-38167D01*
X376933Y-37750D01*
X376490Y-37500D01*
X376047D01*
X375603Y-37667D01*
X375223Y-38083D01*
G01X371897Y-40833D02*
X370377D01*
G01X371200Y-39750D02*
Y-41917D01*
G01X387780Y24417D02*
X387273Y24000D01*
X386703Y23750D01*
X386197D01*
X385690Y24000D01*
X385310Y24417D01*
X385120Y25000D01*
X385247Y25583D01*
X385563Y26083D01*
X386133Y26417D01*
X386893Y26583D01*
X387337Y26917D01*
X387527Y27500D01*
X387400Y28083D01*
X387083Y28500D01*
X386640Y28750D01*
X386197D01*
X385753Y28583D01*
X385373Y28167D01*
G01X382807Y23750D02*
Y28750D01*
X379893Y23750D01*
Y28750D01*
G01X377580Y24417D02*
X377073Y24000D01*
X376503Y23750D01*
X375997D01*
X375490Y24000D01*
X375110Y24417D01*
X374920Y25000D01*
X375047Y25583D01*
X375363Y26083D01*
X375933Y26417D01*
X376693Y26583D01*
X377137Y26917D01*
X377327Y27500D01*
X377200Y28083D01*
X376883Y28500D01*
X376440Y28750D01*
X375997D01*
X375553Y28583D01*
X375173Y28167D01*
G01X373050Y22083D02*
X369250D01*
G01X367507Y23750D02*
Y28750D01*
X364593Y23750D01*
Y28750D01*
G01X375130Y89417D02*
X374623Y89000D01*
X374053Y88750D01*
X373547D01*
X373040Y89000D01*
X372660Y89417D01*
X372470Y90000D01*
X372597Y90583D01*
X372913Y91083D01*
X373483Y91417D01*
X374243Y91583D01*
X374687Y91917D01*
X374877Y92500D01*
X374750Y93083D01*
X374433Y93500D01*
X373990Y93750D01*
X373547D01*
X373103Y93583D01*
X372723Y93167D01*
G01X369523Y90417D02*
X367877D01*
G01X385003Y122500D02*
Y127500D01*
X382597D01*
G01X383483Y125083D02*
X385003D01*
G01X379397Y124167D02*
X377877D01*
G01X378700Y125250D02*
Y123083D01*
G01X381253Y208600D02*
Y213600D01*
X378847D01*
G01X379733Y211183D02*
X381253D01*
G01X375773Y210267D02*
X374127D01*
M02*
